<svg width="238" height="187" viewBox="0 0 238 187" fill="none" xmlns="http://www.w3.org/2000/svg">
<g id="4035938" clip-path="url(#clip0_1667_6630)">
<g id="Background Complete">
<g id="Group">
<g id="Group_2">
<path id="Vector" d="M39.7149 126.133C32.5131 133.155 31.3023 144.022 32.8237 153.54C32.8606 153.755 33.1975 153.698 33.1975 153.493C33.1975 151.327 33.1343 149.177 33.1396 147.037C33.1764 146.938 33.2133 146.849 33.2501 146.749C35.1295 145.385 36.8563 143.849 37.9302 141.741C39.1305 139.386 39.6043 136.727 40.5256 134.262C40.6098 134.026 40.3571 134.094 40.1939 134.215C35.8139 137.435 34.4188 140.896 33.1606 145.527C33.2185 143.125 33.4028 140.723 33.924 138.321C34.8716 133.926 36.7457 129.574 39.9096 126.317C40.0255 126.191 39.8465 126.002 39.7201 126.128L39.7149 126.133Z" fill="#A6A6A6"/>
<g id="Group_3">
<path id="Vector_2" d="M41.0733 126.951C42.3104 126.993 43.0896 128.965 44.053 129.542C44.5636 129.846 45.0637 129.831 45.4217 129.327C46.3799 127.995 45.0637 126.354 43.8319 125.436C44.7163 125.798 45.4481 126.432 46.4009 126.611C46.98 126.715 47.4275 126.506 47.5591 125.918C47.9802 124.104 45.6955 123.296 44.1267 123.259C44.8848 122.735 47.0642 121.303 45.9061 120.6C44.7321 119.893 42.1788 121.938 41.3471 122.614C40.1204 123.606 38.6622 125.084 38.6043 126.632C38.5306 128.441 40.1204 127.329 41.0733 126.946V126.951Z" fill="#DBDBDB"/>
<path id="Vector_3" d="M40.7099 127.255C42.2945 126.537 45.3374 127.57 45.5953 126.972C46.1218 125.756 43.6896 124.922 42.3735 124.759C43.5843 124.434 45.9007 123.915 45.827 122.75C45.7375 121.334 42.2735 122.551 40.5204 123.894C38.3094 125.582 38.3251 127.208 38.6884 127.539C39.1885 127.984 40.4415 127.371 40.7047 127.255H40.7099Z" fill="#EBEBEB"/>
</g>
</g>
<g id="Group_4">
<path id="Vector_4" d="M23.316 125.436C30.781 132.181 32.4024 142.994 31.2495 152.566C31.2179 152.781 30.881 152.739 30.8758 152.534C30.7915 150.368 30.7757 148.223 30.6862 146.083C30.6441 145.989 30.6073 145.895 30.5652 145.8C28.6331 144.51 26.8485 143.036 25.7008 140.975C24.411 138.668 23.8372 136.03 22.8212 133.602C22.7264 133.371 22.9791 133.429 23.1528 133.544C27.6539 136.596 29.1806 140.005 30.6125 144.578C30.4599 142.182 30.1861 139.785 29.5754 137.404C28.4646 133.051 26.422 128.772 23.137 125.635C23.016 125.515 23.1897 125.321 23.3213 125.436H23.316Z" fill="#A6A6A6"/>
<g id="Group_5">
<path id="Vector_5" d="M21.9948 126.307C20.7576 126.396 20.0575 128.394 19.1151 129.008C18.615 129.333 18.1201 129.333 17.7411 128.845C16.7356 127.55 17.9833 125.861 19.1836 124.896C18.3149 125.289 17.6095 125.955 16.6619 126.17C16.0881 126.296 15.6353 126.102 15.4774 125.525C14.9878 123.727 17.241 122.835 18.8045 122.741C18.0254 122.242 15.7933 120.895 16.9251 120.15C18.0675 119.4 20.6997 121.346 21.5578 121.991C22.8213 122.935 24.3374 124.356 24.448 125.903C24.5901 127.707 22.9634 126.653 21.9948 126.312V126.307Z" fill="#DBDBDB"/>
<path id="Vector_6" d="M22.3632 126.595C20.7523 125.94 17.7516 127.083 17.4673 126.501C16.8988 125.305 19.2941 124.382 20.5997 124.167C19.3783 123.889 17.0462 123.454 17.0725 122.29C17.1041 120.868 20.6155 121.954 22.4212 123.228C24.6954 124.833 24.7428 126.459 24.3901 126.8C23.9057 127.267 22.6317 126.7 22.3632 126.59V126.595Z" fill="#EBEBEB"/>
</g>
</g>
<g id="Group_6">
<path id="Vector_7" d="M30.9497 143.256C31.5025 146.812 32.1816 150.488 33.266 153.923C33.3713 154.238 33.8346 154.154 33.7872 153.818C33.2976 150.53 32.4027 147.305 31.9131 144.017C31.413 140.692 31.1497 137.32 31.3393 133.953C31.6551 128.415 33.166 122.52 36.7932 118.188C36.8722 118.083 36.7037 117.941 36.6195 118.036C29.3546 126.474 30.5127 136.821 30.518 137.744C29.4914 134.252 28.428 130.245 24.5376 126.689C24.3691 126.537 24.2375 126.61 24.2691 126.867C24.964 133.344 26.775 136.727 30.5443 140.194C30.6496 141.221 30.7865 142.244 30.9497 143.251V143.256Z" fill="#A6A6A6"/>
<g id="Group_7">
<path id="Vector_8" d="M36.8563 119.158C38.1619 118.582 39.9676 120.239 41.2574 120.349C41.9417 120.412 42.4471 120.139 42.5682 119.442C42.8893 117.58 40.6993 116.536 38.9515 116.201C40.0518 116.132 41.131 116.426 42.2102 116.132C42.863 115.954 43.221 115.508 43.0631 114.832C42.584 112.739 39.8044 113.049 38.1619 113.793C38.6831 112.865 40.2203 110.29 38.6673 110.143C37.0932 109.996 35.477 113.4 34.9506 114.517C34.182 116.159 33.4134 118.424 34.1398 120.06C34.9769 121.969 36.0614 120.024 36.8616 119.153L36.8563 119.158Z" fill="#DBDBDB"/>
<path id="Vector_9" d="M36.6405 119.651C37.9198 118.115 41.5996 117.658 41.5681 116.909C41.4996 115.382 38.5515 115.739 37.1091 116.227C38.1988 115.283 40.3414 113.578 39.6781 112.414C38.8727 110.988 35.893 113.987 34.7506 116.258C33.3082 119.116 34.1505 120.8 34.6927 120.957C35.4403 121.172 36.43 119.903 36.6405 119.651Z" fill="#EBEBEB"/>
</g>
</g>
<path id="Vector_10" d="M26.1694 145.202L22.9634 169.589H42.4576C42.0575 167.428 38.425 145.176 38.425 145.176L26.1642 145.202H26.1694Z" fill="#DBDBDB"/>
</g>
<g id="Group_8">
<path id="Vector_11" d="M216.284 73.9146H230.224V68.0461H216.284V73.9146Z" fill="#EBEBEB"/>
<path id="Vector_12" d="M224.06 66.5146H238V60.6462H224.06V66.5146Z" fill="#EBEBEB"/>
<path id="Vector_13" d="M208.503 66.5146H222.444V60.6462H208.503V66.5146Z" fill="#EBEBEB"/>
<path id="Vector_14" d="M7.77559 149.607H21.7158V143.739H7.77559V149.607Z" fill="#EBEBEB"/>
<path id="Vector_15" d="M-4.673e-05 142.208H13.9402V136.339H-4.673e-05V142.208Z" fill="#EBEBEB"/>
<path id="Vector_16" d="M224.06 149.597H238V143.728H224.06V149.597Z" fill="#EBEBEB"/>
<path id="Vector_17" d="M60.5147 19.1787H46.5745V25.0472H60.5147V19.1787Z" fill="#EBEBEB"/>
<path id="Vector_18" d="M52.7391 26.5786H38.7988V32.4471H52.7391V26.5786Z" fill="#EBEBEB"/>
</g>
</g>
<g id="Error 404">
<g id="Group_9">
<g id="Group_10">
<g id="Group_11">
<path id="Vector_19" d="M78.6771 95.0237C78.6771 95.0237 78.6771 95.0185 78.6719 95.0185C78.535 94.8664 78.3928 94.7196 78.2402 94.5885C78.2402 94.5885 78.2384 94.5867 78.2349 94.5832C78.098 94.4311 77.9559 94.2843 77.8032 94.1532C77.8032 94.1532 77.8015 94.1514 77.798 94.1479C77.6611 93.9958 77.519 93.849 77.3663 93.7179C77.3663 93.7179 77.3645 93.7161 77.361 93.7126C77.2241 93.5606 77.082 93.4137 76.9293 93.2826C76.9293 93.2826 76.9276 93.2809 76.9241 93.2774C76.7872 93.1253 76.6451 92.9784 76.4924 92.8473C76.4924 92.8473 76.4906 92.8456 76.4871 92.8421C76.3502 92.69 76.2081 92.5431 76.0554 92.412C76.0554 92.412 76.0537 92.4103 76.0502 92.4068C75.9133 92.2547 75.7712 92.1079 75.6185 91.9767C75.6185 91.9767 75.6167 91.975 75.6132 91.9715C75.4764 91.8194 75.3342 91.6726 75.1815 91.5415C75.1815 91.5415 75.1798 91.5397 75.1763 91.5362C75.0394 91.3841 74.8973 91.2373 74.7446 91.1062C74.7446 91.1062 74.7428 91.1044 74.7393 91.1009C74.2919 90.6184 73.7759 90.1989 73.1968 89.8685V46.5601C73.1968 46.3346 73.0863 46.214 73.0863 45.9885C73.0863 45.6424 73.0863 45.527 72.9705 45.3015C72.9705 45.1861 72.8599 44.9553 72.8599 44.84C72.7441 44.4938 72.7441 44.3785 72.623 44.153C72.5072 44.0376 72.3967 43.8068 72.3967 43.6914C72.1598 43.3453 72.0492 43.2299 71.9334 43.1198C71.8176 43.0044 71.707 42.7737 71.5859 42.6583L71.1227 42.1968C71.1227 42.1286 71.0332 42.0552 70.9331 42.008C70.8752 41.9503 70.7963 41.8716 70.7068 41.7825L70.6857 41.7615C70.6857 41.6933 70.5962 41.6199 70.4962 41.5727C70.4383 41.515 70.3593 41.4363 70.2698 41.3472L70.2488 41.3262C70.2488 41.258 70.1593 41.1846 70.0592 41.1374C70.0013 41.0797 69.9224 41.0011 69.8329 40.9119L69.8118 40.8909C69.8118 40.8227 69.7223 40.7493 69.6223 40.7021L69.3959 40.4766L69.3749 40.4556C69.3749 40.3875 69.2854 40.314 69.1853 40.2668C69.1274 40.2092 69.0485 40.1305 68.959 40.0413L68.9379 40.0204C68.9379 39.9522 68.8484 39.8788 68.7484 39.8316C68.6905 39.7739 68.6115 39.6952 68.522 39.606L68.501 39.5851C68.501 39.5169 68.4115 39.4435 68.3114 39.3963L68.0851 39.1708L68.064 39.1498C68.064 39.0816 67.9745 39.0082 67.8745 38.961C67.8166 38.9033 67.7376 38.8246 67.6481 38.7355L67.6271 38.7145C67.6271 38.6463 67.5376 38.5729 67.4376 38.5257C67.3797 38.468 67.3007 38.3893 67.2112 38.3002L67.1901 38.2792C67.1901 38.211 67.1006 38.1376 67.0006 38.0904L66.7479 37.8387C66.7479 37.7285 66.5215 37.6132 66.4005 37.6132C66.4005 37.4978 66.2899 37.4978 66.2899 37.4978C66.053 37.3877 65.9372 37.2723 65.7108 37.1517C65.595 37.0363 65.3634 36.9262 65.137 36.6902C65.0212 36.6902 64.7895 36.58 64.6737 36.58C64.4474 36.4646 64.0946 36.4646 63.9841 36.344C63.7577 36.344 63.6366 36.344 63.405 36.2339H61.4466C61.3308 36.344 61.0992 36.344 60.9834 36.344C60.6359 36.4594 60.4095 36.4594 60.2937 36.58C60.0673 36.58 59.9463 36.6902 59.8304 36.9262C59.483 36.9262 59.3724 37.0363 59.1408 37.1517C59.0302 37.267 58.7933 37.3877 58.6775 37.4978C58.567 37.6132 58.4512 37.7338 58.1037 37.8439C57.9932 38.0799 57.8773 38.1901 57.7563 38.3054C57.6404 38.4208 57.6404 38.5309 57.5299 38.5309L14.7511 91.3946C12.6821 93.9958 12.8716 97.625 15.3249 99.8538C15.4618 100.011 15.6039 100.158 15.7671 100.294C15.904 100.452 16.0461 100.599 16.2093 100.735C16.3462 100.892 16.4883 101.039 16.6515 101.175C16.7884 101.333 16.9305 101.48 17.0937 101.616C17.2306 101.773 17.3727 101.92 17.5359 102.057C17.6728 102.214 17.815 102.361 17.9782 102.497C18.115 102.654 18.2572 102.801 18.4204 102.938C18.5572 103.095 18.6994 103.242 18.8626 103.378C18.9995 103.535 19.1416 103.682 19.3048 103.819C19.568 104.118 19.8734 104.396 20.2103 104.647C21.3632 105.68 22.7477 106.027 24.1323 106.027H56.098V110.385C56.098 112.288 56.8824 113.961 58.1616 115.105L58.1774 115.12C58.3143 115.267 58.4512 115.409 58.5986 115.54C58.6038 115.545 58.6091 115.545 58.6091 115.55C58.746 115.702 58.8881 115.844 59.0355 115.975L59.0513 115.991C59.1882 116.138 59.3251 116.279 59.4725 116.41C59.4777 116.416 59.483 116.416 59.483 116.421C59.6199 116.573 59.762 116.715 59.9094 116.846L59.9252 116.861C60.0621 117.008 60.199 117.15 60.3464 117.281C60.3516 117.286 60.3569 117.286 60.3569 117.292C60.4938 117.444 60.6359 117.585 60.7833 117.716L60.7991 117.732C60.936 117.879 61.0728 118.02 61.2203 118.152C61.2255 118.157 61.2308 118.157 61.2308 118.162C61.3677 118.314 61.5098 118.456 61.6572 118.587L61.673 118.603C61.8099 118.749 61.9467 118.891 62.0941 119.022C62.0994 119.027 62.1047 119.027 62.1047 119.033C63.2523 120.291 64.9212 121.067 66.8163 121.067C70.3962 121.067 73.16 118.304 73.16 114.737V105.995H74.3129C77.8927 105.995 80.7776 103.236 80.7776 99.6755C80.7776 97.8452 79.9616 96.1775 78.6666 95.0133L78.6771 95.0237ZM56.0769 70.396V88.9822H41.0469L56.0769 70.396Z" fill="#5B52F9"/>
<path id="Vector_20" opacity="0.1" d="M78.6771 95.0237C78.6771 95.0237 78.6771 95.0185 78.6719 95.0185C78.535 94.8664 78.3928 94.7196 78.2402 94.5885C78.2402 94.5885 78.2384 94.5867 78.2349 94.5832C78.098 94.4311 77.9559 94.2843 77.8032 94.1532C77.8032 94.1532 77.8015 94.1514 77.798 94.1479C77.6611 93.9958 77.519 93.849 77.3663 93.7179C77.3663 93.7179 77.3645 93.7161 77.361 93.7126C77.2241 93.5606 77.082 93.4137 76.9293 93.2826C76.9293 93.2826 76.9276 93.2809 76.9241 93.2774C76.7872 93.1253 76.6451 92.9784 76.4924 92.8473C76.4924 92.8473 76.4906 92.8456 76.4871 92.8421C76.3502 92.69 76.2081 92.5431 76.0554 92.412C76.0554 92.412 76.0537 92.4103 76.0502 92.4068C75.9133 92.2547 75.7712 92.1079 75.6185 91.9767C75.6185 91.9767 75.6167 91.975 75.6132 91.9715C75.4764 91.8194 75.3342 91.6726 75.1815 91.5415C75.1815 91.5415 75.1798 91.5397 75.1763 91.5362C75.0394 91.3841 74.8973 91.2373 74.7446 91.1062C74.7446 91.1062 74.7428 91.1044 74.7393 91.1009C74.2919 90.6184 73.7759 90.1989 73.1968 89.8685V46.5601C73.1968 46.3346 73.0863 46.214 73.0863 45.9885C73.0863 45.6424 73.0863 45.527 72.9705 45.3015C72.9705 45.1861 72.8599 44.9553 72.8599 44.84C72.7441 44.4938 72.7441 44.3785 72.623 44.153C72.5072 44.0376 72.3967 43.8068 72.3967 43.6914C72.1598 43.3453 72.0492 43.2299 71.9334 43.1198C71.8176 43.0044 71.707 42.7737 71.5859 42.6583L71.1227 42.1968C71.1227 42.1286 71.0332 42.0552 70.9331 42.008C70.8752 41.9503 70.7963 41.8716 70.7068 41.7825L70.6857 41.7615C70.6857 41.6933 70.5962 41.6199 70.4962 41.5727C70.4383 41.515 70.3593 41.4363 70.2698 41.3472L70.2488 41.3262C70.2488 41.258 70.1593 41.1846 70.0592 41.1374C70.0013 41.0797 69.9224 41.0011 69.8329 40.9119L69.8118 40.8909C69.8118 40.8227 69.7223 40.7493 69.6223 40.7021L69.3959 40.4766L69.3749 40.4556C69.3749 40.3875 69.2854 40.314 69.1853 40.2668C69.1274 40.2092 69.0485 40.1305 68.959 40.0413L68.9379 40.0204C68.9379 39.9522 68.8484 39.8788 68.7484 39.8316C68.6905 39.7739 68.6115 39.6952 68.522 39.606L68.501 39.5851C68.501 39.5169 68.4115 39.4435 68.3114 39.3963L68.0851 39.1708L68.064 39.1498C68.064 39.0816 67.9745 39.0082 67.8745 38.961C67.8166 38.9033 67.7376 38.8246 67.6481 38.7355L67.6271 38.7145C67.6271 38.6463 67.5376 38.5729 67.4376 38.5257C67.3797 38.468 67.3007 38.3893 67.2112 38.3002L67.1901 38.2792C67.1901 38.211 67.1006 38.1376 67.0006 38.0904L66.7479 37.8387C66.7479 37.7285 66.5215 37.6132 66.4005 37.6132C66.4005 37.4978 66.2899 37.4978 66.2899 37.4978C66.053 37.3877 65.9372 37.2723 65.7108 37.1517C65.595 37.0363 65.3634 36.9262 65.137 36.6902C65.0212 36.6902 64.7895 36.58 64.6737 36.58C64.4474 36.4646 64.0946 36.4646 63.9841 36.344C63.7577 36.344 63.6366 36.344 63.405 36.2339H61.4466C61.3308 36.344 61.0992 36.344 60.9834 36.344C60.6359 36.4594 60.4095 36.4594 60.2937 36.58C60.0673 36.58 59.9463 36.6902 59.8304 36.9262C59.483 36.9262 59.3724 37.0363 59.1408 37.1517C59.0302 37.267 58.7933 37.3877 58.6775 37.4978C58.567 37.6132 58.4512 37.7338 58.1037 37.8439C57.9932 38.0799 57.8773 38.1901 57.7563 38.3054C57.6404 38.4208 57.6404 38.5309 57.5299 38.5309L14.7511 91.3946C12.6821 93.9958 12.8716 97.625 15.3249 99.8538C15.4618 100.011 15.6039 100.158 15.7671 100.294C15.904 100.452 16.0461 100.599 16.2093 100.735C16.3462 100.892 16.4883 101.039 16.6515 101.175C16.7884 101.333 16.9305 101.48 17.0937 101.616C17.2306 101.773 17.3727 101.92 17.5359 102.057C17.6728 102.214 17.815 102.361 17.9782 102.497C18.115 102.654 18.2572 102.801 18.4204 102.938C18.5572 103.095 18.6994 103.242 18.8626 103.378C18.9995 103.535 19.1416 103.682 19.3048 103.819C19.568 104.118 19.8734 104.396 20.2103 104.647C21.3632 105.68 22.7477 106.027 24.1323 106.027H56.098V110.385C56.098 112.288 56.8824 113.961 58.1616 115.105L58.1774 115.12C58.3143 115.267 58.4512 115.409 58.5986 115.54C58.6038 115.545 58.6091 115.545 58.6091 115.55C58.746 115.702 58.8881 115.844 59.0355 115.975L59.0513 115.991C59.1882 116.138 59.3251 116.279 59.4725 116.41C59.4777 116.416 59.483 116.416 59.483 116.421C59.6199 116.573 59.762 116.715 59.9094 116.846L59.9252 116.861C60.0621 117.008 60.199 117.15 60.3464 117.281C60.3516 117.286 60.3569 117.286 60.3569 117.292C60.4938 117.444 60.6359 117.585 60.7833 117.716L60.7991 117.732C60.936 117.879 61.0728 118.02 61.2203 118.152C61.2255 118.157 61.2308 118.157 61.2308 118.162C61.3677 118.314 61.5098 118.456 61.6572 118.587L61.673 118.603C61.8099 118.749 61.9467 118.891 62.0941 119.022C62.0994 119.027 62.1047 119.027 62.1047 119.033C63.2523 120.291 64.9212 121.067 66.8163 121.067C70.3962 121.067 73.16 118.304 73.16 114.737V105.995H74.3129C77.8927 105.995 80.7776 103.236 80.7776 99.6755C80.7776 97.8452 79.9616 96.1775 78.6666 95.0133L78.6771 95.0237ZM56.0769 70.396V88.9822H41.0469L56.0769 70.396Z" fill="black"/>
</g>
<path id="Vector_21" d="M76.3923 95.3069C76.3923 98.8731 73.5074 101.632 69.9276 101.632H68.7747V110.374C68.7747 113.94 66.0056 116.699 62.4258 116.699C58.8459 116.699 56.0768 113.94 56.0768 110.374V101.632H19.7154C18.3308 101.632 16.9463 101.286 15.7881 100.252C12.9032 98.0655 12.5557 94.1584 14.751 91.3998L57.4614 38.4994C57.5772 38.4994 57.5772 38.3841 57.693 38.2687C57.8088 38.1533 57.9247 38.0379 58.0405 37.8072C58.3879 37.6918 58.5037 37.5764 58.6143 37.461C58.7301 37.3457 58.9618 37.2303 59.0776 37.1149C59.3092 36.9995 59.425 36.8842 59.7672 36.8842C59.883 36.6534 59.9988 36.538 60.2305 36.538C60.3463 36.4226 60.5779 36.4226 60.9254 36.3073C61.0412 36.3073 61.2728 36.3073 61.3887 36.1919H63.3523C63.5839 36.3073 63.6997 36.3073 63.9314 36.3073C64.0472 36.4226 64.3947 36.4226 64.621 36.538C64.7368 36.538 64.9685 36.6534 65.0843 36.6534C65.3159 36.8842 65.5476 36.9995 65.6581 37.1149C65.8898 37.2303 66.0056 37.3457 66.2372 37.461C66.2372 37.461 66.353 37.461 66.353 37.5764C66.4688 37.5764 66.7005 37.6918 66.7005 37.8072C66.9321 38.0379 67.0479 38.1533 67.1637 38.2687C67.2796 38.3841 67.3954 38.6148 67.5112 38.7302C67.627 38.8456 67.7428 38.9609 67.9745 39.3071C67.9745 39.4224 68.0903 39.6532 68.2061 39.7686C68.3219 39.9993 68.3219 40.1147 68.4377 40.4608C68.4377 40.5762 68.5536 40.807 68.5536 40.9224C68.6694 41.1531 68.6694 41.2685 68.6694 41.6146C68.6694 41.8454 68.7852 41.9607 68.7852 42.1915V88.9926H69.9381C73.5179 88.9926 76.4028 91.8666 76.4028 95.3174L76.3923 95.3069ZM56.0768 60.5784L33.1081 88.9821H56.0768V60.5784Z" fill="#5B52F9"/>
</g>
<g id="Group_12">
<g id="Group_13">
<path id="Vector_22" d="M222.56 95.0237C222.56 95.0237 222.56 95.0185 222.554 95.0185C222.412 94.8664 222.265 94.7196 222.123 94.5885C222.123 94.5885 222.121 94.5867 222.117 94.5832C221.975 94.4311 221.828 94.2843 221.686 94.1532C221.686 94.1532 221.684 94.1514 221.68 94.1479C221.538 93.9958 221.391 93.849 221.249 93.7179C221.249 93.7179 221.247 93.7161 221.243 93.7126C221.101 93.5606 220.954 93.4137 220.812 93.2826C220.812 93.2826 220.81 93.2809 220.806 93.2774C220.664 93.1253 220.517 92.9784 220.375 92.8473C220.375 92.8473 220.373 92.8456 220.37 92.8421C220.227 92.69 220.08 92.5431 219.938 92.412C219.938 92.412 219.936 92.4103 219.933 92.4068C219.79 92.2547 219.643 92.1079 219.501 91.9767C219.501 91.9767 219.499 91.975 219.496 91.9715C219.353 91.8194 219.206 91.6726 219.064 91.5415C219.064 91.5415 219.062 91.5397 219.059 91.5362C218.917 91.3841 218.769 91.2373 218.627 91.1062C218.627 91.1062 218.625 91.1044 218.622 91.1009C218.174 90.6184 217.653 90.1936 217.074 89.8685V46.5601C217.074 46.3346 216.963 46.214 216.963 45.9885C216.963 45.6424 216.963 45.527 216.848 45.3015C216.848 45.1861 216.737 44.9553 216.737 44.84C216.621 44.4938 216.621 44.3785 216.5 44.153C216.39 44.0376 216.274 43.8068 216.274 43.6914C216.047 43.3453 215.926 43.2299 215.81 43.1198C215.695 43.0044 215.584 42.7737 215.463 42.6583L215 42.1968C215 42.1286 214.91 42.0552 214.81 42.008C214.752 41.9503 214.673 41.8716 214.584 41.7825L214.563 41.7615C214.563 41.6933 214.473 41.6199 214.373 41.5727C214.315 41.515 214.236 41.4363 214.147 41.3472L214.126 41.3262C214.126 41.258 214.036 41.1846 213.936 41.1374L213.71 40.9119L213.689 40.8909C213.689 40.8227 213.599 40.7493 213.499 40.7021L213.273 40.4766L213.252 40.4556C213.252 40.3875 213.162 40.314 213.062 40.2668C213.005 40.2092 212.926 40.1305 212.836 40.0413L212.815 40.0204C212.815 39.9522 212.726 39.8788 212.626 39.8316C212.568 39.7739 212.489 39.6952 212.399 39.606L212.378 39.5851C212.378 39.5169 212.289 39.4435 212.189 39.3963C212.131 39.3386 212.052 39.2599 211.962 39.1708L211.941 39.1498C211.941 39.0816 211.852 39.0082 211.752 38.961C211.694 38.9033 211.615 38.8246 211.525 38.7355L211.504 38.7145C211.504 38.6463 211.415 38.5729 211.315 38.5257C211.257 38.468 211.178 38.3893 211.088 38.3002L211.067 38.2792C211.067 38.211 210.978 38.1376 210.878 38.0904L210.625 37.8387C210.625 37.7285 210.399 37.6132 210.278 37.6132C210.278 37.4978 210.162 37.4978 210.162 37.4978C209.935 37.3877 209.814 37.2723 209.588 37.1517C209.472 37.0363 209.24 36.9262 209.014 36.6902C208.898 36.6902 208.667 36.58 208.551 36.58C208.324 36.4646 207.977 36.4646 207.861 36.344C207.624 36.344 207.514 36.344 207.282 36.2339H205.324C205.208 36.344 204.976 36.344 204.86 36.344C204.513 36.4594 204.287 36.4594 204.171 36.58C203.944 36.58 203.823 36.6902 203.708 36.9262C203.365 36.9262 203.25 37.0363 203.018 37.1517C202.907 37.267 202.67 37.3877 202.56 37.4978C202.444 37.6132 202.323 37.7338 201.981 37.8439C201.865 38.0799 201.754 38.1901 201.633 38.3054C201.518 38.4208 201.518 38.5309 201.407 38.5309L158.697 91.4313C156.628 94.0326 156.817 97.6617 159.27 99.8906C159.407 100.048 159.549 100.195 159.713 100.331C159.85 100.488 159.992 100.635 160.155 100.772C160.292 100.929 160.434 101.076 160.597 101.212C160.734 101.369 160.876 101.516 161.039 101.653C161.176 101.81 161.318 101.957 161.481 102.093C161.618 102.251 161.761 102.397 161.924 102.534C162.061 102.691 162.203 102.838 162.366 102.974C162.503 103.132 162.645 103.278 162.808 103.415C162.945 103.572 163.087 103.719 163.25 103.855C163.514 104.154 163.819 104.432 164.156 104.684C165.309 105.717 166.693 106.063 168.078 106.063H200.043V110.421C200.043 112.32 200.828 113.998 202.107 115.141C202.112 115.147 202.118 115.147 202.118 115.152C202.255 115.304 202.397 115.445 202.544 115.577L202.56 115.592C202.697 115.739 202.834 115.881 202.981 116.012C202.986 116.017 202.992 116.017 202.992 116.022C203.128 116.174 203.271 116.316 203.418 116.447L203.434 116.463C203.571 116.61 203.708 116.751 203.855 116.882C203.86 116.888 203.865 116.888 203.865 116.893C204.002 117.045 204.144 117.187 204.292 117.318L204.308 117.333C204.445 117.48 204.581 117.622 204.729 117.753C204.734 117.758 204.739 117.758 204.739 117.764C204.876 117.916 205.018 118.057 205.166 118.188L205.182 118.204C205.318 118.351 205.455 118.492 205.603 118.624C205.608 118.629 205.613 118.629 205.613 118.634C205.75 118.786 205.892 118.928 206.04 119.059L206.055 119.075C207.203 120.333 208.867 121.104 210.757 121.104C214.336 121.104 217.1 118.34 217.1 114.774V106.032H218.253C221.838 106.032 224.723 103.273 224.723 99.7123C224.723 97.882 223.907 96.2142 222.612 95.05L222.56 95.0237ZM199.954 70.396V88.9822H184.924L199.954 70.396Z" fill="#5B52F9"/>
<path id="Vector_23" opacity="0.1" d="M222.56 95.0237C222.56 95.0237 222.56 95.0185 222.554 95.0185C222.412 94.8664 222.265 94.7196 222.123 94.5885C222.123 94.5885 222.121 94.5867 222.117 94.5832C221.975 94.4311 221.828 94.2843 221.686 94.1532C221.686 94.1532 221.684 94.1514 221.68 94.1479C221.538 93.9958 221.391 93.849 221.249 93.7179C221.249 93.7179 221.247 93.7161 221.243 93.7126C221.101 93.5606 220.954 93.4137 220.812 93.2826C220.812 93.2826 220.81 93.2809 220.806 93.2774C220.664 93.1253 220.517 92.9784 220.375 92.8473C220.375 92.8473 220.373 92.8456 220.37 92.8421C220.227 92.69 220.08 92.5431 219.938 92.412C219.938 92.412 219.936 92.4103 219.933 92.4068C219.79 92.2547 219.643 92.1079 219.501 91.9767C219.501 91.9767 219.499 91.975 219.496 91.9715C219.353 91.8194 219.206 91.6726 219.064 91.5415C219.064 91.5415 219.062 91.5397 219.059 91.5362C218.917 91.3841 218.769 91.2373 218.627 91.1062C218.627 91.1062 218.625 91.1044 218.622 91.1009C218.174 90.6184 217.653 90.1936 217.074 89.8685V46.5601C217.074 46.3346 216.963 46.214 216.963 45.9885C216.963 45.6424 216.963 45.527 216.848 45.3015C216.848 45.1861 216.737 44.9553 216.737 44.84C216.621 44.4938 216.621 44.3785 216.5 44.153C216.39 44.0376 216.274 43.8068 216.274 43.6914C216.047 43.3453 215.926 43.2299 215.81 43.1198C215.695 43.0044 215.584 42.7737 215.463 42.6583L215 42.1968C215 42.1286 214.91 42.0552 214.81 42.008C214.752 41.9503 214.673 41.8716 214.584 41.7825L214.563 41.7615C214.563 41.6933 214.473 41.6199 214.373 41.5727C214.315 41.515 214.236 41.4363 214.147 41.3472L214.126 41.3262C214.126 41.258 214.036 41.1846 213.936 41.1374L213.71 40.9119L213.689 40.8909C213.689 40.8227 213.599 40.7493 213.499 40.7021L213.273 40.4766L213.252 40.4556C213.252 40.3875 213.162 40.314 213.062 40.2668C213.005 40.2092 212.926 40.1305 212.836 40.0413L212.815 40.0204C212.815 39.9522 212.726 39.8788 212.626 39.8316C212.568 39.7739 212.489 39.6952 212.399 39.606L212.378 39.5851C212.378 39.5169 212.289 39.4435 212.189 39.3963C212.131 39.3386 212.052 39.2599 211.962 39.1708L211.941 39.1498C211.941 39.0816 211.852 39.0082 211.752 38.961C211.694 38.9033 211.615 38.8246 211.525 38.7355L211.504 38.7145C211.504 38.6463 211.415 38.5729 211.315 38.5257C211.257 38.468 211.178 38.3893 211.088 38.3002L211.067 38.2792C211.067 38.211 210.978 38.1376 210.878 38.0904L210.625 37.8387C210.625 37.7285 210.399 37.6132 210.278 37.6132C210.278 37.4978 210.162 37.4978 210.162 37.4978C209.935 37.3877 209.814 37.2723 209.588 37.1517C209.472 37.0363 209.24 36.9262 209.014 36.6902C208.898 36.6902 208.667 36.58 208.551 36.58C208.324 36.4646 207.977 36.4646 207.861 36.344C207.624 36.344 207.514 36.344 207.282 36.2339H205.324C205.208 36.344 204.976 36.344 204.86 36.344C204.513 36.4594 204.287 36.4594 204.171 36.58C203.944 36.58 203.823 36.6902 203.708 36.9262C203.365 36.9262 203.25 37.0363 203.018 37.1517C202.907 37.267 202.67 37.3877 202.56 37.4978C202.444 37.6132 202.323 37.7338 201.981 37.8439C201.865 38.0799 201.754 38.1901 201.633 38.3054C201.518 38.4208 201.518 38.5309 201.407 38.5309L158.697 91.4313C156.628 94.0326 156.817 97.6617 159.27 99.8906C159.407 100.048 159.549 100.195 159.713 100.331C159.85 100.488 159.992 100.635 160.155 100.772C160.292 100.929 160.434 101.076 160.597 101.212C160.734 101.369 160.876 101.516 161.039 101.653C161.176 101.81 161.318 101.957 161.481 102.093C161.618 102.251 161.761 102.397 161.924 102.534C162.061 102.691 162.203 102.838 162.366 102.974C162.503 103.132 162.645 103.278 162.808 103.415C162.945 103.572 163.087 103.719 163.25 103.855C163.514 104.154 163.819 104.432 164.156 104.684C165.309 105.717 166.693 106.063 168.078 106.063H200.043V110.421C200.043 112.32 200.828 113.998 202.107 115.141C202.112 115.147 202.118 115.147 202.118 115.152C202.255 115.304 202.397 115.445 202.544 115.577L202.56 115.592C202.697 115.739 202.834 115.881 202.981 116.012C202.986 116.017 202.992 116.017 202.992 116.022C203.128 116.174 203.271 116.316 203.418 116.447L203.434 116.463C203.571 116.61 203.708 116.751 203.855 116.882C203.86 116.888 203.865 116.888 203.865 116.893C204.002 117.045 204.144 117.187 204.292 117.318L204.308 117.333C204.445 117.48 204.581 117.622 204.729 117.753C204.734 117.758 204.739 117.758 204.739 117.764C204.876 117.916 205.018 118.057 205.166 118.188L205.182 118.204C205.318 118.351 205.455 118.492 205.603 118.624C205.608 118.629 205.613 118.629 205.613 118.634C205.75 118.786 205.892 118.928 206.04 119.059L206.055 119.075C207.203 120.333 208.867 121.104 210.757 121.104C214.336 121.104 217.1 118.34 217.1 114.774V106.032H218.253C221.838 106.032 224.723 103.273 224.723 99.7123C224.723 97.882 223.907 96.2142 222.612 95.05L222.56 95.0237ZM199.954 70.396V88.9822H184.924L199.954 70.396Z" fill="black"/>
</g>
<path id="Vector_24" d="M220.27 95.307C220.27 98.8732 217.385 101.632 213.805 101.632H212.652V110.374C212.652 113.94 209.883 116.699 206.303 116.699C202.723 116.699 199.954 113.94 199.954 110.374V101.632H163.593C162.208 101.632 160.823 101.286 159.665 100.253C156.78 98.0656 156.433 94.1585 158.628 91.3999L201.339 38.5048C201.454 38.5048 201.454 38.3894 201.57 38.2741C201.686 38.1587 201.802 38.0433 201.918 37.8125C202.265 37.6972 202.381 37.5818 202.497 37.4664C202.613 37.351 202.844 37.2357 202.96 37.1203C203.192 37.0049 203.307 36.8895 203.65 36.8895C203.765 36.6588 203.881 36.5434 204.113 36.5434C204.229 36.428 204.46 36.428 204.808 36.3126C204.924 36.3126 205.155 36.3126 205.271 36.1973H207.235C207.466 36.3126 207.582 36.3126 207.814 36.3126C207.93 36.428 208.277 36.428 208.509 36.5434C208.625 36.5434 208.856 36.6588 208.972 36.6588C209.204 36.8895 209.43 37.0049 209.546 37.1203C209.777 37.2357 209.893 37.351 210.125 37.4664C210.125 37.4664 210.241 37.4664 210.241 37.5818C210.357 37.5818 210.588 37.6972 210.588 37.8125C210.82 38.0433 210.936 38.1587 211.051 38.2741C211.167 38.3894 211.283 38.6202 211.399 38.7356C211.515 38.8509 211.631 38.9663 211.862 39.3124C211.862 39.4278 211.978 39.6586 212.094 39.774C212.21 40.0047 212.21 40.1201 212.325 40.4662C212.325 40.5816 212.436 40.8124 212.436 40.9277C212.552 41.1585 212.552 41.2739 212.552 41.62C212.552 41.8507 212.668 41.9661 212.668 42.1969V88.998H213.821C217.4 88.998 220.285 91.8719 220.285 95.3228L220.27 95.307ZM199.954 60.5785L176.98 88.9823H199.954V60.5785Z" fill="#5B52F9"/>
</g>
</g>
<g id="Group_14">
<path id="Vector_25" d="M75.5658 23.6001H74.2708V25.8761C74.2708 26.1908 74.0075 26.453 73.6811 26.453C73.3547 26.453 73.1021 26.1908 73.1021 25.8761V19.6877C73.1021 19.3626 73.3653 19.1108 73.6811 19.1108H75.5658C76.8187 19.1108 77.8295 20.1178 77.8295 21.3659C77.8295 22.6141 76.8187 23.6001 75.5658 23.6001ZM74.2708 22.4358H75.5658C76.1765 22.4358 76.6503 21.9533 76.6608 21.3659C76.6503 20.7576 76.1765 20.2751 75.5658 20.2751H74.2708V22.4358Z" fill="#263238"/>
<path id="Vector_26" d="M82.2621 24.7222H79.7036L79.1877 26.0857C79.0929 26.3165 78.8718 26.4528 78.6402 26.4528C78.5665 26.4528 78.5033 26.4423 78.4401 26.4214C78.1348 26.306 77.9874 25.9703 78.0927 25.6662L80.4195 19.4882C80.5143 19.2575 80.7459 19.1106 80.9776 19.1211C81.2197 19.1106 81.4408 19.2575 81.5356 19.4882L83.8625 25.6662C83.9678 25.9703 83.8204 26.306 83.515 26.4214C83.4624 26.4423 83.3887 26.4528 83.315 26.4528C83.0833 26.4528 82.8622 26.3165 82.778 26.0857L82.2621 24.7222ZM81.8304 23.5684L80.9776 21.3133L80.1247 23.5684H81.8304Z" fill="#263238"/>
<path id="Vector_27" d="M84.6416 22.6873C84.6416 20.5791 86.3894 18.9009 88.5268 18.9009C89.4217 18.9009 90.2746 19.2051 90.9273 19.719C91.2011 19.9183 91.2432 20.3064 91.0432 20.5686C90.8431 20.8203 90.4535 20.8728 90.1903 20.663C89.7376 20.3169 89.1585 20.0966 88.5268 20.0966C87.7687 20.0966 87.1054 20.3798 86.6316 20.8623C86.1367 21.3343 85.8419 21.9741 85.8419 22.6873C85.8419 23.4006 86.1367 24.0194 86.6316 24.4914C87.1054 24.9739 87.7687 25.2571 88.5268 25.2571C89.0532 25.2571 89.5481 25.0998 89.9692 24.8585V23.4216H88.4636C88.1372 23.4216 87.8634 23.1489 87.8634 22.8237C87.8634 22.4985 88.1372 22.2363 88.4636 22.2363H90.5588C90.8958 22.2363 91.1695 22.4881 91.1695 22.8237V25.1417C91.1695 25.2151 91.1484 25.2571 91.1379 25.32C91.1274 25.341 91.1274 25.3515 91.1169 25.3725V25.383C91.0853 25.4774 91.0221 25.5613 90.9168 25.6347C90.2535 26.1487 89.4217 26.4528 88.5268 26.4528C86.3894 26.4528 84.6416 24.7851 84.6416 22.6873Z" fill="#263238"/>
<path id="Vector_28" d="M93.5386 25.8761V19.6877C93.5386 19.3626 93.7913 19.1108 94.1177 19.1108H97.5606C97.866 19.1108 98.1397 19.3626 98.1397 19.6877C98.1397 20.0129 97.866 20.2751 97.5606 20.2751H94.7073V22.1946H97.1605C97.4764 22.1946 97.7396 22.4673 97.7396 22.7714C97.7396 23.0966 97.4764 23.3588 97.1605 23.3588H94.7073V25.2888H97.5606C97.866 25.2888 98.1397 25.551 98.1397 25.8761C98.1397 26.2013 97.866 26.453 97.5606 26.453H94.1493L94.1282 26.4425L94.1177 26.453C93.7913 26.453 93.5386 26.1908 93.5386 25.8761Z" fill="#263238"/>
<path id="Vector_29" d="M104.099 25.8758C104.099 26.1905 103.836 26.4527 103.53 26.4527C103.204 26.4527 102.951 26.1905 102.951 25.8758V19.7713C102.941 19.593 103.025 19.4042 103.183 19.2888C103.446 19.1105 103.804 19.163 103.983 19.4147L107.384 24.1032V19.7818C107.384 19.4776 107.637 19.2154 107.953 19.2154C108.268 19.2154 108.532 19.4776 108.532 19.7818V25.8758C108.532 26.1905 108.268 26.4527 107.953 26.4527C107.784 26.4527 107.626 26.3688 107.521 26.2429C107.5 26.2219 107.479 26.201 107.468 26.18L104.099 21.5229V25.8758Z" fill="#263238"/>
<path id="Vector_30" d="M116.344 20.0232C116.997 20.7154 117.408 21.6385 117.408 22.6769C117.408 23.7152 116.997 24.6488 116.344 25.3305C115.723 26.0123 114.796 26.4528 113.828 26.4528C112.859 26.4528 111.89 26.0123 111.248 25.3305C110.595 24.6488 110.206 23.7152 110.206 22.6769C110.206 21.6385 110.595 20.7154 111.248 20.0232C111.89 19.3309 112.817 18.9009 113.828 18.9009C114.839 18.9009 115.723 19.3309 116.344 20.0232ZM116.207 22.6769C116.207 21.9636 115.923 21.3028 115.491 20.8413C115.049 20.3693 114.459 20.0966 113.828 20.0966C113.154 20.0966 112.564 20.3693 112.122 20.8413C111.68 21.3028 111.406 21.9636 111.406 22.6769C111.406 23.3901 111.68 24.0509 112.122 24.5019C112.564 24.9739 113.154 25.2571 113.828 25.2571C114.459 25.2571 115.049 24.9739 115.491 24.5019C115.923 24.0509 116.207 23.3901 116.207 22.6769Z" fill="#263238"/>
<path id="Vector_31" d="M123.409 20.2751H121.735V25.8761C121.735 26.2013 121.482 26.453 121.156 26.453C120.829 26.453 120.577 26.2013 120.577 25.8761V20.2751H118.913C118.587 20.2751 118.334 20.0024 118.334 19.6877C118.334 19.3731 118.587 19.1108 118.913 19.1108H123.409C123.725 19.1108 123.988 19.3626 123.988 19.6877C123.988 20.0129 123.725 20.2751 123.409 20.2751Z" fill="#263238"/>
<path id="Vector_32" d="M128.884 25.8761V19.6877C128.884 19.3731 129.137 19.1108 129.463 19.1108H132.906C133.211 19.1108 133.485 19.3731 133.485 19.6877C133.485 20.0024 133.211 20.2751 132.906 20.2751H130.053V22.1946H132.506C132.822 22.1946 133.085 22.4673 133.085 22.7714C133.085 23.0966 132.822 23.3588 132.506 23.3588H130.053V25.8761C130.053 26.1908 129.79 26.453 129.463 26.453C129.137 26.453 128.884 26.1908 128.884 25.8761Z" fill="#263238"/>
<path id="Vector_33" d="M140.855 20.0232C141.508 20.7154 141.919 21.6385 141.919 22.6769C141.919 23.7152 141.508 24.6488 140.855 25.3305C140.234 26.0123 139.308 26.4528 138.339 26.4528C137.37 26.4528 136.402 26.0123 135.759 25.3305C135.107 24.6488 134.717 23.7152 134.717 22.6769C134.717 21.6385 135.107 20.7154 135.759 20.0232C136.402 19.3309 137.328 18.9009 138.339 18.9009C139.35 18.9009 140.234 19.3309 140.855 20.0232ZM140.718 22.6769C140.718 21.9636 140.434 21.3028 140.003 20.8413C139.56 20.3693 138.971 20.0966 138.339 20.0966C137.665 20.0966 137.076 20.3693 136.633 20.8413C136.191 21.3028 135.917 21.9636 135.917 22.6769C135.917 23.3901 136.191 24.0509 136.633 24.5019C137.076 24.9739 137.665 25.2571 138.339 25.2571C138.971 25.2571 139.56 24.9739 140.003 24.5019C140.434 24.0509 140.718 23.3901 140.718 22.6769Z" fill="#263238"/>
<path id="Vector_34" d="M146.573 26.453C144.877 26.453 143.53 25.0895 143.53 23.4217V19.6877C143.53 19.3626 143.782 19.1108 144.109 19.1108C144.435 19.1108 144.698 19.3626 144.698 19.6877V23.4217C144.698 24.4497 145.541 25.2888 146.573 25.2888C147.604 25.2888 148.447 24.4497 148.447 23.4217V19.6877C148.447 19.3626 148.71 19.1108 149.036 19.1108C149.363 19.1108 149.615 19.3626 149.615 19.6877V23.4217C149.615 25.0895 148.257 26.453 146.573 26.453Z" fill="#263238"/>
<path id="Vector_35" d="M153.09 25.8758C153.09 26.1905 152.827 26.4527 152.521 26.4527C152.195 26.4527 151.942 26.1905 151.942 25.8758V19.7713C151.932 19.593 152.016 19.4042 152.174 19.2888C152.437 19.1105 152.795 19.163 152.974 19.4147L156.375 24.1032V19.7818C156.375 19.4776 156.628 19.2154 156.944 19.2154C157.259 19.2154 157.523 19.4776 157.523 19.7818V25.8758C157.523 26.1905 157.259 26.4527 156.944 26.4527C156.775 26.4527 156.617 26.3688 156.512 26.2429C156.491 26.2219 156.47 26.201 156.459 26.18L153.09 21.5229V25.8758Z" fill="#263238"/>
<path id="Vector_36" d="M159.523 25.8761V19.6877C159.523 19.3626 159.776 19.1108 160.102 19.1108H161.344C163.377 19.1108 165.019 20.7576 165.019 22.7714C165.019 24.7853 163.377 26.453 161.344 26.453H160.102C159.776 26.453 159.523 26.1908 159.523 25.8761ZM160.692 25.2888H161.344C162.734 25.2783 163.85 24.1665 163.85 22.7714C163.85 21.3764 162.734 20.2751 161.344 20.2751H160.692V25.2888Z" fill="#263238"/>
</g>
</g>
<g id="Character">
<g id="Group_15">
<g id="Group_16">
<path id="Vector_37" d="M134.933 101.773C134.901 102.025 135.033 102.292 135.275 102.345C135.833 102.429 136.502 102.518 137.255 102.623C139.481 97.8083 141.756 94.0166 141.113 95.5113C140.187 97.6772 139.36 100.834 139.197 102.885C140.071 103 142.093 103.247 143.109 103.373C145.435 94.7823 147.999 88.468 147.694 90.4504C146.478 98.4481 146.694 101.06 146.967 103.855C156.407 104.998 168.804 106.351 177.791 107.122C179.259 102.387 180.639 97.2419 180.76 97.6195C181.744 100.425 181.723 104.39 181.476 107.432C184.34 107.657 186.63 107.778 188.035 107.778C188.035 107.778 189.067 103.782 189.283 102.455C189.846 99.088 189.804 95.5899 189.188 92.2492C188.541 88.8089 187.156 85.7147 185.872 82.5523C185.861 82.5261 185.851 82.4999 185.84 82.4841C185.84 82.4737 185.84 82.4737 185.829 82.4579C184.95 80.271 184.34 78.1942 183.997 76.0125C183.997 75.9968 183.987 75.9863 183.987 75.9653C183.755 74.4182 183.65 72.8292 183.676 71.0933C183.792 65.1251 181.107 59.7601 176.006 57.8197C167.293 48.9514 155.327 53.021 151.948 60.5206L151.937 60.5468C150.616 63.9084 149.305 68.298 148.157 71.6807C148.157 71.6964 148.152 71.7016 148.152 71.7016C148.152 71.7174 148.152 71.7226 148.136 71.7383V71.7488C147.573 73.3589 147.062 74.7277 146.599 75.6402C143.54 81.6608 137.507 84.7707 134.922 101.768L134.933 101.773Z" fill="#263238"/>
<path id="Vector_38" d="M178.149 59.6187C181.418 61.7741 183.282 64.7163 183.424 69.0901C183.508 71.6389 183.445 74.1195 184.145 76.5686C184.866 79.0964 186.172 81.2257 187.525 83.3496C189.667 86.727 191.078 90.0415 191.078 94.321C191.078 98.6686 190.42 103.756 188.693 107.689C188.683 107.71 188.651 107.699 188.662 107.673C190.141 103.667 190.673 98.0078 190.373 93.6759C190.041 88.9192 187.809 85.7778 185.566 82.0228C183.787 79.0387 182.771 75.8029 182.666 72.1528C182.602 69.9921 182.829 67.7633 182.202 65.6865C181.449 63.2059 179.66 61.5381 177.87 60.0382C177.627 59.8337 177.907 59.4561 178.154 59.6187H178.149Z" fill="#263238"/>
<path id="Vector_39" d="M140.245 81.8758C142.977 78.682 145.762 75.9916 147.557 71.9167C149.194 68.2036 150.294 64.2284 151.958 60.5206C151.984 60.4629 152.069 60.4944 152.042 60.5573C149.405 67.1652 148.399 73.9515 143.793 79.3375C141.292 82.2639 138.807 84.9648 137.007 88.5624C135.117 92.3384 134.09 96.3399 133.606 100.609C133.59 100.756 133.411 100.735 133.411 100.593C133.422 93.6285 135.954 86.8947 140.245 81.8758Z" fill="#263238"/>
</g>
<g id="Group_17">
<path id="Vector_40" d="M113.754 163.243C113.754 163.243 139.15 170.108 143.351 169.348C147.552 168.592 161.734 149.602 164.882 142.701C168.036 135.804 173.258 101.495 172.237 97.7194C171.221 93.9434 165.977 93.891 161.534 103.625C157.096 113.358 146.615 134.755 144.746 136.497C142.877 138.238 111.685 161.434 113.749 163.238L113.754 163.243Z" fill="white"/>
<g id="Group_18">
<path id="Vector_41" d="M141.14 167.093C137.244 165.058 132.501 160.139 129.268 159.625C126.352 159.158 125.231 161.544 125.231 161.544C125.231 161.544 123.746 158.256 120.735 158.272C119.187 158.277 117.839 160.747 117.839 160.747C117.839 160.747 116.534 158.167 113.859 158.34C111.727 158.481 110.695 160.93 110.695 160.93C110.695 160.93 108.284 159.037 106.158 159.871C101.851 161.57 101.13 179.805 107.763 182.889C110.853 184.326 110.79 179.863 110.79 179.863C110.79 179.863 112.443 186.261 116.213 186.502C119.982 186.749 119.545 180.954 119.545 180.954C119.545 180.954 121.203 187.137 125.136 187C129.232 186.854 127.8 181.132 127.8 181.132C127.8 181.132 130.4 185.296 133.385 184.499C138.318 183.188 133.017 173.318 134.133 169.348H140.329L141.134 167.098L141.14 167.093Z" fill="white"/>
<path id="Vector_42" d="M135.517 163.212C139.376 164.816 143.777 158.749 147.747 160.159C152.89 161.99 148.131 168.32 140.329 169.348H134.133L135.512 163.212H135.517Z" fill="white"/>
<g id="Group_19">
<path id="Vector_43" d="M110.485 161.297C110.49 161.239 110.406 161.213 110.39 161.276C108.685 167.218 108.642 174.267 110.775 180.109C110.843 180.303 111.185 180.271 111.148 180.046C110.106 173.606 109.701 167.805 110.485 161.297Z" fill="#263238"/>
<path id="Vector_44" d="M117.808 160.657C117.818 160.589 117.697 160.574 117.676 160.647C115.955 166.778 116.123 174.718 119.377 181.163C119.487 181.383 119.808 181.472 119.703 181.205C117.866 176.758 117.071 166.51 117.808 160.657Z" fill="#263238"/>
<path id="Vector_45" d="M128.189 181.525C125.31 175.226 124.752 168.639 125.147 161.79C125.152 161.701 125.026 161.701 124.999 161.774C123.888 165.073 124.088 169.463 124.536 172.866C124.962 176.128 126.01 178.981 127.963 181.625C128.037 181.729 128.247 181.661 128.184 181.525H128.189Z" fill="#263238"/>
</g>
<path id="Vector_46" d="M148.052 159.677C145.53 158.838 142.93 160.852 140.803 161.974C140.108 162.341 139.413 162.755 138.66 162.986C136.976 163.505 135.728 163.175 134.996 162.708C133.817 161.953 130.132 158.298 127.479 159.514C126.652 159.892 125.673 160.663 125.204 161.439C124.394 159.97 123.357 158.371 121.561 158.077C120.74 157.941 119.972 158.156 119.308 158.659C118.971 158.916 118.676 159.221 118.424 159.556C118.192 159.86 117.95 160.196 117.813 160.558C117.813 160.547 117.803 160.537 117.797 160.521C117.781 160.484 117.76 160.448 117.745 160.406C117.708 160.332 117.671 160.254 117.634 160.18C117.555 160.023 117.46 159.876 117.35 159.74C117.245 159.619 117.134 159.498 117.013 159.394C116.902 159.304 116.771 159.231 116.623 159.242C116.576 159.242 116.571 159.31 116.613 159.32C116.744 159.367 116.823 159.488 116.897 159.598C116.981 159.724 117.06 159.855 117.15 159.981C117.239 160.102 117.329 160.222 117.413 160.343C117.46 160.406 117.502 160.474 117.545 160.542C117.566 160.574 117.581 160.605 117.603 160.637C117.629 160.673 117.66 160.694 117.687 160.726C117.729 160.773 117.787 160.747 117.813 160.705C117.818 160.705 117.824 160.705 117.829 160.705C118.118 160.484 118.318 160.18 118.561 159.913C118.829 159.609 119.113 159.31 119.44 159.068C120.066 158.607 120.83 158.392 121.598 158.539C123.209 158.853 124.236 160.28 125.094 161.554C125.099 161.565 125.11 161.565 125.115 161.57C125.089 161.612 125.146 161.649 125.178 161.617C126.062 160.846 126.905 159.981 128.126 159.803C129.442 159.609 130.69 160.238 131.78 160.899C132.322 161.229 132.854 161.57 133.354 161.958C133.801 162.304 134.228 162.692 134.707 162.991C136.755 164.276 138.997 163.28 139.555 163.044C140.671 162.566 141.708 161.969 142.751 161.355C143.809 160.731 144.93 160.117 146.173 159.976C147.278 159.85 148.515 160.201 149.215 161.109C149.594 161.602 150.089 162.525 149.084 164.628C149.073 164.649 149.1 164.669 149.11 164.654C149.626 164.124 151.3 160.747 148.041 159.661L148.052 159.677Z" fill="#263238"/>
</g>
<g id="Group_20">
<path id="Vector_47" d="M170.257 129.584L146.272 125.766C146.272 125.766 157.728 103.163 164.608 96.6074C171.4 90.1358 174.706 96.7647 173.705 106.761C172.595 117.842 170.252 129.579 170.252 129.579L170.257 129.584Z" fill="#37474F"/>
<path id="Vector_48" d="M169.473 125.137C168.799 124.98 168.115 124.88 167.435 124.733C166.777 124.592 166.114 124.487 165.451 124.382C164.098 124.172 162.74 123.983 161.381 123.8C158.707 123.433 156.033 123.029 153.348 122.735C151.821 122.567 150.305 122.336 148.773 122.195C148.726 122.195 148.72 122.263 148.762 122.273C151.421 122.898 154.132 123.354 156.828 123.789C159.497 124.224 162.176 124.633 164.861 124.927C165.614 125.011 166.367 125.105 167.125 125.142C167.899 125.179 168.678 125.252 169.452 125.263C169.525 125.263 169.536 125.153 169.467 125.132L169.473 125.137Z" fill="#263238"/>
</g>
</g>
<g id="Group_21">
<path id="Vector_49" d="M156.88 169.568H220.412C220.412 169.568 194.016 104.291 180.591 94.7615C176.564 91.8981 170.147 91.5834 165.814 97.3313C162.266 102.041 152.416 120.8 151.969 127.544C151.537 134.304 156.833 140.949 156.833 140.949L156.88 169.573V169.568Z" fill="#455A64"/>
<g id="Group_22">
<path id="Vector_50" d="M177.933 125.337C178.091 125.295 178.254 125.274 178.412 125.242C178.559 125.216 178.77 125.206 178.944 125.279C179.302 125.405 179.57 125.777 179.575 126.171C179.57 126.428 179.696 126.664 179.918 126.81C180.033 126.884 180.149 126.926 180.312 126.942C180.47 126.973 180.634 126.994 180.791 127.036C180.634 127.078 180.47 127.099 180.312 127.13C180.154 127.162 179.949 127.157 179.781 127.078C179.423 126.942 179.175 126.548 179.181 126.171C179.181 125.924 179.044 125.688 178.817 125.552C178.701 125.484 178.586 125.447 178.417 125.431C178.259 125.4 178.096 125.379 177.938 125.337H177.933Z" fill="white"/>
<path id="Vector_51" d="M153.637 125.337C153.795 125.295 153.959 125.274 154.117 125.242C154.264 125.216 154.475 125.206 154.648 125.279C155.006 125.405 155.275 125.777 155.28 126.171C155.275 126.428 155.401 126.664 155.622 126.81C155.738 126.884 155.854 126.926 156.017 126.942C156.175 126.973 156.338 126.994 156.496 127.036C156.338 127.078 156.175 127.099 156.017 127.13C155.859 127.162 155.654 127.157 155.485 127.078C155.127 126.942 154.88 126.548 154.885 126.171C154.885 125.924 154.748 125.688 154.522 125.552C154.406 125.484 154.29 125.447 154.122 125.431C153.964 125.4 153.801 125.379 153.643 125.337H153.637Z" fill="white"/>
<path id="Vector_52" d="M186.756 156.777C186.914 156.735 187.077 156.714 187.235 156.682C187.383 156.656 187.593 156.646 187.767 156.719C188.125 156.845 188.393 157.217 188.399 157.611C188.393 157.868 188.52 158.104 188.741 158.25C188.857 158.324 188.972 158.366 189.136 158.381C189.294 158.413 189.457 158.434 189.615 158.476C189.457 158.518 189.294 158.539 189.136 158.57C188.978 158.602 188.772 158.596 188.604 158.518C188.246 158.381 187.999 157.988 188.004 157.611C188.004 157.364 187.867 157.128 187.641 156.992C187.525 156.924 187.409 156.887 187.24 156.871C187.083 156.84 186.919 156.819 186.761 156.777H186.756Z" fill="white"/>
<path id="Vector_53" d="M197.738 127.036C197.895 126.994 198.059 126.973 198.217 126.942C198.364 126.915 198.575 126.905 198.748 126.978C199.106 127.104 199.375 127.476 199.38 127.87C199.375 128.127 199.501 128.363 199.722 128.51C199.838 128.583 199.954 128.625 200.117 128.641C200.275 128.672 200.438 128.693 200.596 128.735C200.438 128.782 200.275 128.798 200.117 128.83C199.959 128.861 199.754 128.856 199.585 128.777C199.227 128.641 198.98 128.247 198.985 127.87C198.985 127.623 198.848 127.387 198.622 127.251C198.506 127.183 198.39 127.146 198.222 127.13C198.064 127.099 197.901 127.078 197.743 127.036H197.738Z" fill="white"/>
<path id="Vector_54" d="M169.662 111.046C169.82 111.004 169.983 110.983 170.141 110.951C170.289 110.925 170.499 110.915 170.673 110.988C171.031 111.114 171.3 111.486 171.305 111.88C171.3 112.137 171.426 112.373 171.647 112.519C171.763 112.593 171.879 112.635 172.042 112.651C172.2 112.682 172.363 112.703 172.521 112.745C172.363 112.792 172.2 112.808 172.042 112.839C171.884 112.871 171.679 112.866 171.51 112.787C171.152 112.651 170.905 112.257 170.91 111.88C170.91 111.633 170.773 111.397 170.547 111.261C170.431 111.193 170.315 111.156 170.147 111.14C169.989 111.109 169.826 111.088 169.668 111.046H169.662Z" fill="white"/>
<path id="Vector_55" d="M186.94 110.689C187.098 110.647 187.261 110.626 187.419 110.594C187.567 110.568 187.777 110.558 187.951 110.631C188.309 110.757 188.577 111.129 188.583 111.523C188.577 111.78 188.704 112.016 188.925 112.162C189.041 112.236 189.157 112.278 189.32 112.294C189.478 112.325 189.641 112.346 189.799 112.388C189.641 112.435 189.478 112.451 189.32 112.482C189.162 112.514 188.956 112.509 188.788 112.43C188.43 112.294 188.183 111.9 188.193 111.523C188.193 111.276 188.056 111.04 187.83 110.904C187.714 110.836 187.598 110.799 187.43 110.783C187.272 110.752 187.109 110.731 186.951 110.689H186.94Z" fill="white"/>
<path id="Vector_56" d="M175.753 94.1585C175.911 94.1166 176.075 94.0956 176.232 94.0641C176.38 94.0379 176.59 94.0274 176.764 94.1008C177.122 94.2267 177.391 94.599 177.396 94.9924C177.391 95.2494 177.517 95.4854 177.738 95.6322C177.854 95.7056 177.97 95.7476 178.133 95.7633C178.291 95.7948 178.454 95.8157 178.612 95.8577C178.454 95.9049 178.291 95.9206 178.133 95.9521C177.975 95.9836 177.77 95.9783 177.601 95.8997C177.243 95.7633 176.996 95.37 177.001 94.9924C177.001 94.7459 176.864 94.5099 176.638 94.3735C176.522 94.3054 176.406 94.2686 176.238 94.2529C176.08 94.2214 175.917 94.2005 175.759 94.1585H175.753Z" fill="white"/>
<path id="Vector_57" d="M165.419 138.49C165.577 138.448 165.74 138.427 165.898 138.395C166.046 138.369 166.256 138.358 166.43 138.432C166.788 138.558 167.056 138.93 167.062 139.323C167.056 139.58 167.183 139.816 167.404 139.963C167.52 140.037 167.636 140.079 167.799 140.094C167.957 140.126 168.12 140.147 168.278 140.189C168.12 140.236 167.957 140.252 167.799 140.283C167.641 140.315 167.435 140.309 167.267 140.231C166.909 140.094 166.662 139.701 166.667 139.323C166.667 139.077 166.53 138.841 166.304 138.705C166.188 138.636 166.072 138.6 165.904 138.584C165.746 138.552 165.582 138.532 165.424 138.49H165.419Z" fill="white"/>
<path id="Vector_58" d="M184.266 167.297C184.424 167.255 184.587 167.234 184.745 167.203C184.892 167.177 185.103 167.166 185.277 167.239C185.635 167.365 185.903 167.738 185.908 168.131C185.903 168.388 186.029 168.624 186.251 168.771C186.366 168.844 186.482 168.886 186.645 168.902C186.803 168.933 186.967 168.954 187.124 168.996C186.967 169.038 186.803 169.059 186.645 169.091C186.487 169.122 186.282 169.117 186.114 169.038C185.756 168.902 185.508 168.509 185.514 168.131C185.514 167.885 185.377 167.649 185.15 167.512C185.034 167.444 184.919 167.407 184.75 167.392C184.592 167.36 184.429 167.339 184.271 167.297H184.266Z" fill="white"/>
<path id="Vector_59" d="M174.985 151.816C175.143 151.774 175.306 151.753 175.464 151.721C175.611 151.695 175.822 151.685 175.996 151.758C176.354 151.884 176.622 152.256 176.627 152.65C176.622 152.907 176.748 153.143 176.97 153.289C177.085 153.363 177.201 153.405 177.364 153.421C177.522 153.452 177.686 153.473 177.843 153.515C177.686 153.557 177.522 153.578 177.364 153.609C177.206 153.641 177.001 153.636 176.833 153.557C176.475 153.421 176.227 153.027 176.233 152.65C176.233 152.403 176.096 152.167 175.869 152.031C175.753 151.963 175.638 151.926 175.469 151.91C175.311 151.879 175.148 151.858 174.99 151.816H174.985Z" fill="white"/>
<path id="Vector_60" d="M157.823 154.632C157.981 154.59 158.144 154.569 158.302 154.537C158.449 154.511 158.66 154.501 158.834 154.574C159.191 154.7 159.46 155.072 159.465 155.466C159.46 155.722 159.586 155.958 159.807 156.105C159.923 156.179 160.039 156.221 160.202 156.236C160.36 156.268 160.523 156.289 160.681 156.331C160.523 156.373 160.36 156.394 160.202 156.425C160.044 156.457 159.839 156.451 159.671 156.373C159.313 156.236 159.065 155.843 159.076 155.466C159.076 155.219 158.939 154.983 158.712 154.847C158.597 154.779 158.481 154.742 158.312 154.726C158.154 154.695 157.991 154.674 157.833 154.632H157.823Z" fill="white"/>
<path id="Vector_61" d="M182.887 138.872C183.045 138.83 183.208 138.809 183.366 138.778C183.513 138.752 183.724 138.741 183.897 138.815C184.255 138.941 184.524 139.313 184.529 139.706C184.524 139.963 184.65 140.199 184.871 140.346C184.987 140.419 185.103 140.461 185.266 140.477C185.424 140.509 185.587 140.53 185.745 140.572C185.587 140.619 185.424 140.635 185.266 140.666C185.108 140.697 184.903 140.692 184.735 140.614C184.377 140.477 184.129 140.084 184.134 139.706C184.134 139.46 183.998 139.224 183.771 139.087C183.655 139.019 183.54 138.983 183.371 138.967C183.213 138.935 183.05 138.914 182.892 138.872H182.887Z" fill="white"/>
<path id="Vector_62" d="M204.839 160.06C204.997 160.018 205.16 159.997 205.318 159.965C205.466 159.939 205.676 159.929 205.85 160.002C206.208 160.128 206.477 160.5 206.482 160.894C206.477 161.151 206.603 161.387 206.824 161.534C206.94 161.607 207.056 161.649 207.219 161.665C207.377 161.696 207.54 161.717 207.698 161.759C207.54 161.806 207.377 161.822 207.219 161.853C207.061 161.885 206.856 161.88 206.687 161.801C206.329 161.665 206.082 161.271 206.087 160.894C206.087 160.647 205.95 160.411 205.724 160.275C205.608 160.207 205.492 160.17 205.324 160.154C205.166 160.123 205.003 160.102 204.845 160.06H204.839Z" fill="white"/>
<path id="Vector_63" d="M196.122 147.127C196.28 147.085 196.443 147.064 196.601 147.033C196.748 147.007 196.959 146.996 197.132 147.07C197.49 147.195 197.759 147.568 197.764 147.961C197.759 148.218 197.885 148.454 198.106 148.601C198.222 148.674 198.338 148.716 198.501 148.732C198.659 148.764 198.822 148.785 198.98 148.826C198.822 148.868 198.659 148.889 198.501 148.921C198.343 148.952 198.138 148.947 197.969 148.868C197.611 148.732 197.364 148.339 197.369 147.961C197.369 147.715 197.232 147.479 197.006 147.342C196.89 147.274 196.774 147.237 196.606 147.222C196.448 147.19 196.285 147.169 196.127 147.127H196.122Z" fill="white"/>
<path id="Vector_64" d="M214.647 165.981C214.805 165.939 214.968 165.918 215.126 165.886C215.273 165.86 215.484 165.85 215.658 165.923C216.016 166.049 216.284 166.421 216.289 166.815C216.284 167.072 216.411 167.308 216.632 167.454C216.747 167.528 216.863 167.57 217.026 167.586C217.184 167.617 217.348 167.638 217.506 167.68C217.348 167.727 217.184 167.743 217.026 167.774C216.869 167.806 216.663 167.801 216.495 167.722C216.137 167.586 215.889 167.192 215.895 166.815C215.895 166.568 215.758 166.332 215.531 166.196C215.416 166.128 215.3 166.091 215.131 166.075C214.973 166.044 214.81 166.023 214.652 165.981H214.647Z" fill="white"/>
<path id="Vector_65" d="M171.142 119.977C171.063 120.119 170.963 120.244 170.873 120.381C170.789 120.507 170.647 120.659 170.473 120.732C170.131 120.9 169.678 120.821 169.394 120.543C169.215 120.355 168.957 120.281 168.699 120.334C168.567 120.36 168.452 120.417 168.325 120.517C168.188 120.606 168.062 120.706 167.92 120.785C167.999 120.643 168.099 120.517 168.188 120.381C168.278 120.25 168.425 120.108 168.599 120.04C168.946 119.883 169.399 119.987 169.668 120.26C169.841 120.433 170.11 120.507 170.363 120.444C170.494 120.412 170.6 120.349 170.731 120.244C170.868 120.155 170.994 120.056 171.136 119.977H171.142Z" fill="white"/>
<path id="Vector_66" d="M164.767 109.357C164.688 109.498 164.588 109.624 164.498 109.761C164.414 109.887 164.272 110.039 164.098 110.112C163.756 110.28 163.303 110.201 163.019 109.923C162.84 109.734 162.582 109.661 162.324 109.713C162.192 109.74 162.076 109.797 161.95 109.897C161.813 109.986 161.687 110.086 161.545 110.164C161.624 110.023 161.724 109.897 161.813 109.761C161.903 109.63 162.05 109.488 162.224 109.42C162.571 109.262 163.024 109.367 163.292 109.64C163.466 109.813 163.735 109.887 163.987 109.824C164.119 109.792 164.224 109.729 164.356 109.624C164.493 109.535 164.619 109.436 164.761 109.357H164.767Z" fill="white"/>
<path id="Vector_67" d="M196.932 138.463C196.853 138.605 196.753 138.731 196.664 138.867C196.58 138.993 196.437 139.145 196.264 139.218C195.922 139.386 195.469 139.308 195.185 139.03C195.006 138.841 194.748 138.767 194.49 138.82C194.358 138.846 194.242 138.904 194.116 139.003C193.979 139.093 193.853 139.192 193.71 139.271C193.789 139.129 193.889 139.003 193.979 138.867C194.068 138.736 194.216 138.594 194.39 138.526C194.737 138.369 195.19 138.474 195.458 138.746C195.632 138.92 195.9 138.993 196.153 138.93C196.285 138.899 196.39 138.836 196.522 138.731C196.659 138.642 196.785 138.542 196.927 138.463H196.932Z" fill="white"/>
<path id="Vector_68" d="M180.839 104.044C180.76 104.186 180.66 104.312 180.57 104.448C180.486 104.574 180.344 104.726 180.17 104.8C179.828 104.967 179.375 104.889 179.091 104.611C178.912 104.422 178.654 104.349 178.396 104.401C178.264 104.427 178.149 104.485 178.022 104.585C177.885 104.674 177.759 104.773 177.617 104.852C177.696 104.71 177.796 104.585 177.885 104.448C177.975 104.317 178.122 104.175 178.296 104.107C178.643 103.95 179.096 104.055 179.365 104.328C179.538 104.501 179.807 104.574 180.06 104.511C180.191 104.48 180.297 104.417 180.428 104.312C180.565 104.223 180.691 104.123 180.834 104.044H180.839Z" fill="white"/>
<path id="Vector_69" d="M169.689 96.1986C169.61 96.3402 169.51 96.4661 169.42 96.6025C169.336 96.7283 169.194 96.8804 169.02 96.9538C168.678 97.1216 168.225 97.043 167.941 96.765C167.762 96.5762 167.504 96.5028 167.246 96.5553C167.114 96.5815 166.999 96.6392 166.872 96.7388C166.735 96.828 166.609 96.9276 166.467 97.0063C166.546 96.8647 166.646 96.7388 166.735 96.6025C166.825 96.4713 166.972 96.3297 167.146 96.2616C167.493 96.1042 167.946 96.2091 168.215 96.4818C168.388 96.6549 168.657 96.7283 168.91 96.6654C169.041 96.6339 169.146 96.571 169.278 96.4661C169.415 96.3769 169.541 96.2773 169.683 96.1986H169.689Z" fill="white"/>
<path id="Vector_70" d="M180.212 114.03C180.254 114.187 180.275 114.35 180.307 114.507C180.333 114.654 180.344 114.864 180.27 115.037C180.144 115.393 179.77 115.661 179.375 115.666C179.117 115.661 178.88 115.787 178.733 116.007C178.659 116.122 178.617 116.238 178.601 116.4C178.57 116.558 178.549 116.72 178.507 116.878C178.465 116.72 178.443 116.558 178.412 116.4C178.38 116.243 178.386 116.038 178.465 115.871C178.601 115.514 178.996 115.267 179.375 115.273C179.623 115.273 179.86 115.136 179.996 114.911C180.065 114.795 180.102 114.68 180.118 114.512C180.149 114.355 180.17 114.192 180.212 114.035V114.03Z" fill="white"/>
<path id="Vector_71" d="M176.412 141.967C176.454 142.124 176.475 142.287 176.506 142.444C176.533 142.591 176.543 142.801 176.469 142.974C176.343 143.33 175.969 143.598 175.574 143.603C175.317 143.598 175.08 143.724 174.932 143.944C174.859 144.059 174.816 144.175 174.801 144.337C174.769 144.495 174.748 144.657 174.706 144.815C174.664 144.657 174.643 144.495 174.611 144.337C174.579 144.18 174.585 143.975 174.664 143.808C174.801 143.451 175.195 143.204 175.574 143.21C175.822 143.21 176.059 143.073 176.196 142.848C176.264 142.732 176.301 142.617 176.317 142.449C176.348 142.292 176.369 142.129 176.412 141.972V141.967Z" fill="white"/>
<path id="Vector_72" d="M213.241 154.91C213.283 155.067 213.305 155.23 213.336 155.387C213.362 155.534 213.373 155.744 213.299 155.917C213.173 156.273 212.799 156.541 212.404 156.546C212.146 156.541 211.909 156.667 211.762 156.887C211.688 157.002 211.646 157.118 211.63 157.28C211.599 157.437 211.578 157.6 211.536 157.757C211.488 157.6 211.473 157.437 211.441 157.28C211.409 157.123 211.415 156.918 211.494 156.75C211.63 156.394 212.025 156.147 212.404 156.153C212.652 156.153 212.889 156.016 213.026 155.791C213.094 155.675 213.131 155.56 213.147 155.392C213.178 155.235 213.199 155.072 213.241 154.915V154.91Z" fill="white"/>
<path id="Vector_73" d="M196.174 117.9C196.216 118.057 196.237 118.22 196.269 118.377C196.295 118.524 196.306 118.734 196.232 118.907C196.106 119.263 195.732 119.531 195.337 119.536C195.079 119.531 194.842 119.657 194.695 119.877C194.621 119.992 194.579 120.108 194.563 120.27C194.532 120.428 194.511 120.59 194.469 120.748C194.426 120.59 194.405 120.428 194.374 120.27C194.342 120.113 194.347 119.909 194.426 119.741C194.563 119.384 194.958 119.138 195.337 119.143C195.585 119.143 195.822 119.006 195.958 118.781C196.027 118.666 196.064 118.55 196.079 118.382C196.111 118.225 196.132 118.062 196.174 117.905V117.9Z" fill="white"/>
<path id="Vector_74" d="M196.174 162.755C196.216 162.913 196.237 163.075 196.269 163.233C196.295 163.379 196.306 163.589 196.232 163.762C196.106 164.119 195.732 164.386 195.337 164.392C195.079 164.386 194.842 164.512 194.695 164.733C194.621 164.848 194.579 164.963 194.563 165.126C194.532 165.283 194.511 165.446 194.469 165.603C194.426 165.446 194.405 165.283 194.374 165.126C194.342 164.969 194.347 164.764 194.426 164.596C194.563 164.24 194.958 163.993 195.337 163.998C195.585 163.998 195.822 163.862 195.958 163.636C196.027 163.521 196.064 163.406 196.079 163.238C196.111 163.081 196.132 162.918 196.174 162.761V162.755Z" fill="white"/>
<path id="Vector_75" d="M204.839 137.068C204.881 137.226 204.902 137.388 204.934 137.546C204.96 137.692 204.971 137.902 204.897 138.075C204.771 138.432 204.397 138.699 204.002 138.705C203.744 138.699 203.507 138.825 203.36 139.046C203.286 139.161 203.244 139.276 203.228 139.439C203.197 139.596 203.176 139.759 203.134 139.916C203.091 139.759 203.07 139.596 203.039 139.439C203.007 139.282 203.012 139.077 203.091 138.909C203.228 138.553 203.623 138.306 204.002 138.311C204.25 138.311 204.487 138.175 204.623 137.949C204.692 137.834 204.729 137.719 204.745 137.551C204.776 137.394 204.797 137.231 204.839 137.074V137.068Z" fill="white"/>
<path id="Vector_76" d="M160.955 142.968C160.997 143.126 161.018 143.288 161.05 143.446C161.076 143.592 161.087 143.802 161.013 143.975C160.887 144.332 160.513 144.599 160.118 144.605C159.86 144.599 159.623 144.725 159.476 144.945C159.402 145.061 159.36 145.176 159.344 145.339C159.312 145.496 159.291 145.659 159.249 145.816C159.202 145.659 159.186 145.496 159.155 145.339C159.123 145.181 159.128 144.977 159.207 144.809C159.344 144.452 159.739 144.206 160.118 144.211C160.365 144.211 160.602 144.075 160.739 143.849C160.808 143.734 160.844 143.619 160.86 143.451C160.892 143.293 160.913 143.131 160.955 142.974V142.968Z" fill="white"/>
<path id="Vector_77" d="M161.808 117.9C161.85 118.057 161.871 118.22 161.903 118.377C161.929 118.524 161.939 118.734 161.866 118.907C161.739 119.263 161.366 119.531 160.971 119.536C160.713 119.531 160.476 119.657 160.328 119.877C160.255 119.992 160.213 120.108 160.197 120.27C160.165 120.428 160.144 120.59 160.102 120.748C160.06 120.59 160.039 120.428 160.007 120.27C159.976 120.113 159.981 119.909 160.06 119.741C160.197 119.384 160.592 119.138 160.971 119.143C161.218 119.143 161.455 119.006 161.592 118.781C161.66 118.666 161.697 118.55 161.713 118.382C161.745 118.225 161.766 118.062 161.808 117.905V117.9Z" fill="white"/>
<path id="Vector_78" d="M170.984 101.605C171.026 101.763 171.047 101.925 171.079 102.083C171.105 102.23 171.115 102.439 171.042 102.612C170.915 102.969 170.542 103.236 170.147 103.242C169.889 103.236 169.652 103.362 169.504 103.583C169.431 103.698 169.389 103.813 169.373 103.976C169.341 104.133 169.32 104.296 169.278 104.453C169.231 104.296 169.215 104.133 169.183 103.976C169.152 103.819 169.157 103.614 169.236 103.446C169.373 103.09 169.768 102.843 170.147 102.848C170.394 102.848 170.631 102.712 170.768 102.487C170.836 102.371 170.873 102.256 170.889 102.088C170.921 101.931 170.942 101.768 170.984 101.611V101.605Z" fill="white"/>
<path id="Vector_79" d="M168.52 126.8C168.562 126.957 168.583 127.12 168.615 127.277C168.641 127.424 168.652 127.634 168.578 127.807C168.451 128.163 168.078 128.431 167.683 128.436C167.425 128.431 167.188 128.557 167.041 128.777C166.967 128.892 166.925 129.008 166.909 129.17C166.877 129.328 166.856 129.49 166.814 129.648C166.767 129.49 166.751 129.328 166.719 129.17C166.688 129.013 166.693 128.808 166.772 128.641C166.909 128.284 167.304 128.037 167.683 128.043C167.93 128.043 168.167 127.906 168.304 127.681C168.373 127.565 168.409 127.45 168.425 127.282C168.457 127.125 168.478 126.962 168.52 126.805V126.8Z" fill="white"/>
<path id="Vector_80" d="M190.646 130.183C190.689 130.34 190.71 130.503 190.741 130.66C190.767 130.807 190.778 131.016 190.704 131.19C190.578 131.546 190.204 131.814 189.809 131.819C189.551 131.814 189.314 131.939 189.167 132.16C189.093 132.275 189.051 132.391 189.035 132.553C189.004 132.71 188.983 132.873 188.941 133.03C188.899 132.873 188.878 132.71 188.846 132.553C188.814 132.396 188.82 132.191 188.899 132.023C189.035 131.667 189.43 131.42 189.809 131.426C190.057 131.426 190.294 131.289 190.431 131.064C190.499 130.948 190.536 130.833 190.552 130.665C190.583 130.508 190.604 130.345 190.646 130.188V130.183Z" fill="white"/>
<path id="Vector_81" d="M170.194 158.476C170.236 158.633 170.257 158.796 170.289 158.953C170.315 159.1 170.326 159.31 170.252 159.483C170.126 159.84 169.752 160.107 169.357 160.112C169.099 160.107 168.862 160.233 168.715 160.453C168.641 160.569 168.599 160.684 168.583 160.847C168.551 161.004 168.53 161.166 168.488 161.324C168.446 161.166 168.425 161.004 168.394 160.847C168.362 160.689 168.367 160.485 168.446 160.317C168.583 159.96 168.978 159.714 169.357 159.719C169.604 159.719 169.841 159.583 169.978 159.357C170.047 159.242 170.083 159.126 170.099 158.959C170.131 158.801 170.152 158.639 170.194 158.481V158.476Z" fill="white"/>
<path id="Vector_82" d="M186.856 122.19C186.935 122.048 187.035 121.923 187.124 121.786C187.209 121.66 187.351 121.508 187.525 121.435C187.867 121.267 188.319 121.346 188.604 121.624C188.783 121.812 189.041 121.886 189.299 121.833C189.43 121.807 189.546 121.749 189.672 121.65C189.809 121.561 189.936 121.461 190.078 121.382C189.999 121.524 189.899 121.65 189.809 121.786C189.72 121.917 189.572 122.059 189.399 122.127C189.051 122.284 188.598 122.18 188.33 121.907C188.156 121.734 187.888 121.66 187.635 121.723C187.503 121.755 187.398 121.818 187.267 121.923C187.13 122.012 187.003 122.111 186.861 122.19H186.856Z" fill="white"/>
<path id="Vector_83" d="M173.948 133.833C174.027 133.691 174.127 133.565 174.216 133.429C174.3 133.303 174.443 133.151 174.616 133.077C174.959 132.91 175.411 132.988 175.696 133.266C175.875 133.455 176.132 133.528 176.39 133.476C176.522 133.45 176.638 133.392 176.764 133.292C176.901 133.203 177.027 133.104 177.17 133.025C177.091 133.167 176.991 133.292 176.901 133.429C176.812 133.56 176.664 133.701 176.49 133.77C176.143 133.927 175.69 133.822 175.422 133.549C175.248 133.376 174.98 133.303 174.727 133.366C174.595 133.397 174.49 133.46 174.358 133.565C174.222 133.654 174.095 133.754 173.953 133.833H173.948Z" fill="white"/>
<path id="Vector_84" d="M165.203 150.992C165.282 150.851 165.382 150.725 165.472 150.588C165.556 150.463 165.698 150.31 165.872 150.237C166.214 150.069 166.667 150.148 166.951 150.426C167.13 150.615 167.388 150.688 167.646 150.636C167.778 150.609 167.894 150.552 168.02 150.452C168.157 150.363 168.283 150.263 168.425 150.185C168.346 150.326 168.246 150.452 168.157 150.588C168.067 150.72 167.92 150.861 167.746 150.929C167.399 151.087 166.946 150.982 166.677 150.709C166.504 150.536 166.235 150.463 165.983 150.526C165.851 150.557 165.746 150.62 165.614 150.725C165.477 150.814 165.351 150.914 165.209 150.992H165.203Z" fill="white"/>
<path id="Vector_85" d="M168.983 168.823C169.062 168.682 169.162 168.556 169.252 168.42C169.336 168.294 169.478 168.142 169.652 168.068C169.994 167.9 170.447 167.979 170.731 168.257C170.91 168.446 171.168 168.519 171.426 168.467C171.558 168.44 171.674 168.383 171.8 168.283C171.937 168.194 172.063 168.094 172.205 168.016C172.126 168.157 172.026 168.283 171.937 168.42C171.847 168.551 171.7 168.692 171.526 168.76C171.179 168.918 170.726 168.813 170.457 168.54C170.284 168.367 170.015 168.294 169.763 168.357C169.631 168.388 169.526 168.451 169.394 168.556C169.257 168.645 169.131 168.745 168.989 168.823H168.983Z" fill="white"/>
<path id="Vector_86" d="M185.903 149.23C185.982 149.088 186.082 148.963 186.172 148.826C186.256 148.7 186.398 148.548 186.572 148.475C186.914 148.307 187.367 148.386 187.651 148.664C187.83 148.852 188.088 148.926 188.346 148.873C188.478 148.847 188.593 148.79 188.72 148.69C188.857 148.601 188.983 148.501 189.125 148.422C189.046 148.564 188.946 148.69 188.857 148.826C188.767 148.957 188.62 149.099 188.446 149.167C188.099 149.324 187.646 149.22 187.377 148.947C187.204 148.774 186.935 148.7 186.682 148.763C186.551 148.795 186.446 148.858 186.314 148.963C186.177 149.052 186.051 149.151 185.909 149.23H185.903Z" fill="white"/>
<path id="Vector_87" d="M197.548 156.331C197.627 156.19 197.727 156.064 197.817 155.927C197.901 155.801 198.043 155.649 198.217 155.576C198.559 155.408 199.012 155.487 199.296 155.765C199.475 155.954 199.733 156.027 199.991 155.975C200.122 155.948 200.238 155.891 200.365 155.791C200.501 155.702 200.628 155.602 200.77 155.523C200.691 155.665 200.591 155.791 200.501 155.927C200.412 156.058 200.265 156.2 200.091 156.268C199.743 156.426 199.291 156.321 199.022 156.048C198.848 155.875 198.58 155.801 198.327 155.864C198.196 155.896 198.09 155.959 197.959 156.064C197.822 156.153 197.696 156.252 197.553 156.331H197.548Z" fill="white"/>
<path id="Vector_88" d="M177.959 161.717C178.038 161.575 178.138 161.449 178.228 161.313C178.312 161.187 178.454 161.035 178.628 160.962C178.97 160.794 179.423 160.873 179.707 161.15C179.886 161.339 180.144 161.413 180.402 161.36C180.534 161.334 180.649 161.276 180.776 161.177C180.913 161.088 181.039 160.988 181.181 160.909C181.102 161.051 181.002 161.177 180.913 161.313C180.823 161.444 180.676 161.586 180.502 161.654C180.154 161.811 179.702 161.706 179.433 161.434C179.26 161.261 178.991 161.187 178.738 161.25C178.607 161.282 178.501 161.345 178.37 161.449C178.233 161.539 178.107 161.638 177.964 161.717H177.959Z" fill="white"/>
<path id="Vector_89" d="M203.229 168.823C203.307 168.682 203.407 168.556 203.497 168.42C203.581 168.294 203.723 168.142 203.897 168.068C204.239 167.9 204.692 167.979 204.976 168.257C205.155 168.446 205.413 168.519 205.671 168.467C205.803 168.44 205.919 168.383 206.045 168.283C206.182 168.194 206.308 168.094 206.45 168.016C206.371 168.157 206.271 168.283 206.182 168.42C206.092 168.551 205.945 168.692 205.771 168.76C205.424 168.918 204.971 168.813 204.703 168.54C204.529 168.367 204.26 168.294 204.008 168.357C203.876 168.388 203.771 168.451 203.639 168.556C203.502 168.645 203.376 168.745 203.234 168.823H203.229Z" fill="white"/>
<path id="Vector_90" d="M206.076 149.634C206.155 149.492 206.255 149.366 206.345 149.23C206.429 149.104 206.571 148.952 206.745 148.879C207.087 148.711 207.54 148.79 207.824 149.067C208.003 149.256 208.261 149.33 208.519 149.277C208.651 149.251 208.767 149.193 208.893 149.094C209.03 149.005 209.156 148.905 209.298 148.826C209.219 148.968 209.119 149.094 209.03 149.23C208.94 149.361 208.793 149.503 208.619 149.571C208.272 149.728 207.819 149.623 207.55 149.351C207.377 149.178 207.108 149.104 206.856 149.167C206.724 149.199 206.619 149.262 206.487 149.366C206.35 149.456 206.224 149.555 206.082 149.634H206.076Z" fill="white"/>
<path id="Vector_91" d="M159.934 164.177C160.013 164.035 160.113 163.909 160.202 163.773C160.286 163.647 160.428 163.495 160.602 163.422C160.944 163.254 161.397 163.332 161.681 163.61C161.86 163.799 162.118 163.873 162.376 163.82C162.508 163.794 162.624 163.736 162.75 163.637C162.887 163.548 163.013 163.448 163.155 163.369C163.076 163.511 162.976 163.637 162.887 163.773C162.797 163.904 162.65 164.046 162.476 164.114C162.129 164.271 161.676 164.166 161.408 163.894C161.234 163.721 160.965 163.647 160.713 163.71C160.581 163.742 160.476 163.804 160.344 163.909C160.207 163.999 160.081 164.098 159.939 164.177H159.934Z" fill="white"/>
<path id="Vector_92" d="M158.486 134.236C158.565 134.095 158.665 133.969 158.755 133.833C158.839 133.707 158.981 133.555 159.155 133.481C159.497 133.313 159.95 133.392 160.234 133.67C160.413 133.859 160.671 133.932 160.929 133.88C161.06 133.854 161.176 133.796 161.303 133.696C161.439 133.607 161.566 133.507 161.708 133.429C161.629 133.57 161.529 133.696 161.439 133.833C161.35 133.964 161.203 134.105 161.029 134.173C160.681 134.331 160.229 134.226 159.96 133.953C159.786 133.78 159.518 133.707 159.265 133.77C159.134 133.801 159.028 133.864 158.897 133.969C158.76 134.058 158.633 134.158 158.491 134.236H158.486Z" fill="white"/>
</g>
</g>
<g id="Group_23">
<g id="Group_24">
<path id="Vector_93" d="M175.664 94.2895C175.469 95.2702 171.026 101.726 166.562 101.663C165.109 101.642 164.877 93.7336 164.877 93.7336L164.725 93.1514L162.614 85.0331L172.053 78.551L173.421 77.6909C173.421 77.6909 173.853 79.9513 174.358 82.7675C174.385 82.8986 174.406 83.0297 174.432 83.1713C174.464 83.3287 174.495 83.4808 174.522 83.6276C174.601 84.0471 174.685 84.4772 174.753 84.9072C174.811 85.2324 174.864 85.5523 174.911 85.8984C174.964 86.2446 175.011 86.5802 175.069 86.9263C175.543 90.3404 175.738 93.8804 175.659 94.2947L175.664 94.2895Z" fill="white"/>
<path id="Vector_94" d="M174.358 82.7676C172.221 89.3546 167.088 92.1814 164.725 93.1568L162.614 85.0385L172.053 78.5564L173.421 77.6963C173.421 77.6963 173.853 79.9566 174.358 82.7729V82.7676Z" fill="#263238"/>
</g>
<g id="Group_25">
<path id="Vector_95" d="M151.047 72.9812C150.658 87.697 159.46 89.5903 162.645 89.6689C165.535 89.7424 175.39 89.6217 177.306 75.0318C179.223 60.4366 172.479 55.6065 165.872 55.0925C159.27 54.5786 151.437 58.2706 151.047 72.9865V72.9812Z" fill="white"/>
<g id="Group_26">
<path id="Vector_96" d="M153.29 68.5291C153.632 68.4714 153.943 68.3666 154.28 68.2774C154.659 68.1778 154.969 68.1358 155.238 67.8264C155.38 67.6638 155.354 67.3439 155.212 67.1866C154.869 66.8247 154.375 66.8352 153.917 66.9401C153.416 67.0502 153.058 67.2652 152.748 67.6638C152.443 68.0519 152.843 68.5973 153.295 68.5239L153.29 68.5291Z" fill="#263238"/>
<path id="Vector_97" d="M163.161 70.6793C162.814 70.6531 162.498 70.5744 162.156 70.5115C161.771 70.4433 161.455 70.4276 161.161 70.1444C161.003 69.9923 161.003 69.6724 161.134 69.5046C161.445 69.1165 161.934 69.085 162.403 69.148C162.908 69.2161 163.282 69.3997 163.635 69.772C163.972 70.1339 163.619 70.7108 163.161 70.6793Z" fill="#263238"/>
<g id="Group_27">
<g id="Group_28">
<path id="Vector_98" d="M155.464 73.3173C155.454 73.2806 155.391 73.3697 155.391 73.4117C155.491 74.4081 155.433 75.5671 154.548 75.9604C154.522 75.9709 154.527 76.0234 154.559 76.0181C155.659 75.7874 155.712 74.2508 155.459 73.3173H155.464Z" fill="#263238"/>
<path id="Vector_99" d="M154.501 72.3365C152.879 72.3207 152.969 75.5566 154.475 75.567C155.954 75.5775 155.864 72.347 154.501 72.3365Z" fill="#263238"/>
</g>
<path id="Vector_100" d="M153.827 72.5672C153.574 72.7456 153.332 73.0655 153.027 73.0917C152.674 73.1232 152.4 72.7823 152.164 72.4519C152.137 72.4204 152.116 72.4466 152.116 72.4886C152.116 73.1074 152.337 73.7472 152.937 73.8469C153.485 73.9413 153.869 73.3959 154.001 72.777C154.027 72.6617 153.932 72.4886 153.832 72.562L153.827 72.5672Z" fill="#263238"/>
</g>
<path id="Vector_101" d="M162.076 81.8815C161.829 82.107 161.576 82.4216 161.208 82.4426C160.855 82.4583 160.45 82.2853 160.134 82.1542C160.102 82.1384 160.071 82.1751 160.086 82.2066C160.334 82.5999 160.876 82.8622 161.345 82.7992C161.803 82.7363 162.045 82.3535 162.171 81.9391C162.187 81.8815 162.113 81.8552 162.076 81.8919V81.8815Z" fill="#263238"/>
<path id="Vector_102" d="M157.044 77.8589C157.044 77.8589 156.923 79.3588 156.965 80.0615C156.965 80.1297 158.965 79.8412 161.071 80.4181C161.387 80.502 161.371 80.2451 161.008 80.0563C160.287 79.6787 159.371 79.3116 157.539 79.4164C157.475 79.2276 157.765 77.1089 157.654 77.1089C157.265 77.0984 156.523 77.4026 156.075 77.5599C156.233 74.429 156.896 71.3505 157.007 68.2301C157.007 68.12 156.849 68.0938 156.823 68.1934C155.901 71.3715 155.638 74.9692 155.385 78.1997C155.349 78.6036 156.77 77.99 157.044 77.8589Z" fill="#263238"/>
<g id="Group_29">
<path id="Vector_103" d="M164.072 73.3696C163.787 73.2438 163.477 73.1966 163.166 73.1599C162.85 73.1336 162.534 73.1546 162.208 73.2228C161.892 73.3014 161.571 73.4273 161.287 73.6371C161.002 73.8469 160.766 74.1248 160.597 74.4447L160.292 75.0164L160.929 74.9482C161.355 74.901 161.829 74.8905 162.276 74.9429C162.724 75.0006 163.171 75.1055 163.577 75.4045C163.35 74.9377 162.882 74.6073 162.392 74.4447C161.892 74.2769 161.387 74.2245 160.855 74.2664L161.181 74.7699C161.445 74.3189 161.85 73.9885 162.371 73.7839C162.887 73.5794 163.466 73.4535 164.077 73.3801L164.072 73.3696Z" fill="#263238"/>
<path id="Vector_104" d="M162.245 75.9762C161.766 75.8136 161.308 75.735 160.881 75.4465C160.781 75.3836 160.397 75.0951 160.423 75.0112C160.46 74.7857 160.566 74.534 160.676 74.3032C160.523 74.513 160.355 74.707 160.281 74.9902C160.318 75.2315 160.492 75.478 160.771 75.6405C161.224 75.9028 161.808 75.9919 162.245 75.9709V75.9762Z" fill="#263238"/>
</g>
<g id="Group_30">
<path id="Vector_105" d="M158.744 79.9622C158.744 79.9622 159.66 81.268 160.713 81.4306C161.924 81.6141 162.066 80.5285 160.729 79.915C160.029 79.5898 158.744 79.9622 158.744 79.9622Z" fill="#263238"/>
<path id="Vector_106" d="M160.713 81.4251C160.26 81.3622 159.839 81.0843 159.497 80.7801C159.744 80.4025 160.324 79.9934 161.624 80.6857C161.819 81.1524 161.476 81.5405 160.713 81.4199V81.4251Z" fill="#FF99BA"/>
</g>
</g>
<path id="Vector_107" d="M177.201 75.3833C174.769 75.6875 173.958 70.6162 173.958 70.6162C173.958 70.6162 168.999 70.8731 167.014 63.8404C167.014 63.8404 167.283 67.1444 169.499 69.6092C169.499 69.6092 160.708 69.111 156.665 61.9944C156.665 61.9944 158.312 65.6392 159.755 66.8926C159.755 66.8926 156.038 66.0483 154.101 63.1691C154.101 63.1691 152.774 67.4538 151.653 68.6705C151.653 68.6705 151.269 53.404 165.53 54.3375C165.53 54.3375 174.437 54.4948 177.97 61.3441C181.502 68.1933 177.201 75.3781 177.201 75.3781V75.3833Z" fill="#263238"/>
<g id="Group_31">
<g id="Group_32">
<path id="Vector_108" d="M174.927 76.1016C174.927 76.1016 177.87 71.324 180.028 72.3414C182.187 73.3588 180.165 80.1503 177.77 81.2097C175.374 82.2638 174.348 80.0769 174.348 80.0769L174.927 76.1069V76.1016Z" fill="white"/>
<path id="Vector_109" d="M179.396 74.2714C179.433 74.2661 179.449 74.3186 179.412 74.3343C177.733 75.1314 176.927 76.7729 176.39 78.4564C176.864 77.7904 177.538 77.4023 178.428 77.9582C178.475 77.9896 178.438 78.0578 178.386 78.0526C177.67 77.9424 177.17 78.0945 176.727 78.6871C176.417 79.1067 176.217 79.6207 176.001 80.0979C175.927 80.2552 175.648 80.1923 175.696 80.0087C175.696 79.993 175.706 79.9825 175.706 79.9668C175.532 77.7851 177.049 74.628 179.391 74.2661L179.396 74.2714Z" fill="#263238"/>
</g>
<path id="Vector_110" d="M176.364 80.4387C176.385 80.8163 176.706 81.11 177.091 81.089C177.47 81.068 177.764 80.7481 177.743 80.3653C177.722 79.9877 177.401 79.6992 177.017 79.715C176.638 79.7359 176.348 80.0559 176.364 80.4387Z" fill="white"/>
<path id="Vector_111" d="M178.033 79.3008C178.043 79.542 178.254 79.7308 178.496 79.7151C178.738 79.6994 178.928 79.4948 178.912 79.2536C178.902 79.0124 178.691 78.8236 178.449 78.8393C178.207 78.855 178.017 79.0596 178.033 79.3008Z" fill="white"/>
</g>
</g>
</g>
<g id="Group_33">
<path id="Vector_112" d="M130.127 107.925L122.481 109.694L127.981 133.274L135.626 131.505L130.127 107.925Z" fill="#EBEBEB"/>
<path id="Vector_113" d="M111.49 45.3327C93.6439 49.4601 82.5359 67.2281 86.679 85.0067C90.8222 102.785 108.658 113.851 126.499 109.724C144.351 105.591 155.454 87.8282 151.311 70.0549C147.162 52.2711 129.337 41.2054 111.485 45.3327H111.49ZM124.925 102.948C110.838 106.205 96.7604 97.4674 93.486 83.4386C90.2115 69.3993 98.982 55.3758 113.07 52.1137C127.163 48.8517 141.234 57.5941 144.509 71.6282C147.778 85.6622 139.013 99.6858 124.925 102.948Z" fill="#A6A6A6"/>
<path id="Vector_114" d="M132.742 124.836L127.614 126.023C125.839 126.434 124.734 128.201 125.146 129.97L131.705 158.091C132.117 159.86 133.891 160.961 135.667 160.55L140.795 159.363C142.571 158.952 143.676 157.185 143.263 155.416L136.704 127.295C136.292 125.526 134.518 124.425 132.742 124.836Z" fill="#263238"/>
<g id="Group_34" opacity="0.3">
<path id="Vector_115" d="M144.509 71.6283C147.778 85.6623 139.013 99.6859 124.925 102.948C110.837 106.205 96.7603 97.4675 93.4859 83.4387C90.2114 69.3994 98.9819 55.3759 113.07 52.1138C127.162 48.8518 141.234 57.5942 144.509 71.6283Z" fill="white"/>
<g id="Group_35">
<path id="Vector_116" d="M145.156 78.9863C144.535 90.2723 136.538 100.263 124.925 102.948C122.524 103.504 120.124 103.714 117.776 103.604L145.156 78.9863Z" fill="#EBEBEB"/>
<path id="Vector_117" d="M133.106 55.5438L95.6021 89.2601C94.6808 87.4508 93.9701 85.4946 93.4858 83.4336C92.9278 81.0631 92.7225 78.6874 92.833 76.3693L120.519 51.4741C125.057 51.7363 129.379 53.1733 133.101 55.5438H133.106Z" fill="#EBEBEB"/>
<path id="Vector_118" d="M143.793 69.127L108.074 101.244C106.515 100.531 105.031 99.66 103.636 98.6583L141.671 64.4595C142.524 65.9174 143.235 67.475 143.793 69.127Z" fill="#EBEBEB"/>
<path id="Vector_119" d="M135.986 57.6731L97.4342 92.3386C97.2552 92.0764 97.0762 91.8142 96.9077 91.552L135.254 57.0752C135.501 57.264 135.749 57.4633 135.986 57.6731Z" fill="#EBEBEB"/>
<path id="Vector_120" d="M111.801 52.4393L94.6914 67.8212C94.981 67.0975 95.3073 66.3842 95.6653 65.6867L109.585 53.1735C110.306 52.8956 111.043 52.6491 111.806 52.4341L111.801 52.4393Z" fill="#EBEBEB"/>
</g>
</g>
<g id="Group_36">
<path id="Vector_121" d="M100.404 82.0435C100.398 82.0067 100.388 81.97 100.382 81.9333C100.293 81.4299 100.451 82.4315 100.404 82.0959C100.351 81.6921 100.298 81.2883 100.267 80.8792C100.146 79.458 100.151 78.021 100.267 76.5998C100.282 76.4005 100.309 76.2012 100.325 75.9966C100.325 75.9285 100.267 76.4686 100.325 76.0386C100.34 75.918 100.356 75.7921 100.372 75.6715C100.435 75.1995 100.514 74.7327 100.609 74.266C100.809 73.2381 101.077 72.2207 101.414 71.2295C101.493 70.9935 101.583 70.7575 101.667 70.5215C101.783 70.2016 101.52 70.8781 101.693 70.4585C101.751 70.3169 101.809 70.1806 101.867 70.039C102.093 69.5093 102.341 68.9901 102.604 68.4866C102.894 67.936 103.204 67.4011 103.541 66.8766C103.694 66.6354 103.857 66.3994 104.015 66.1686C104.294 65.7648 103.883 66.3312 104.099 66.048C104.204 65.9116 104.304 65.7753 104.41 65.6389C105.363 64.4275 106.442 63.3366 107.611 62.335C107.632 62.314 107.847 62.1409 107.668 62.2825C107.484 62.4294 107.768 62.2038 107.8 62.1829C107.979 62.0413 108.158 61.9049 108.342 61.7686C108.695 61.5063 109.053 61.2546 109.416 61.0134C110.19 60.4994 110.99 60.0274 111.806 59.5921C112.749 59.0939 112.975 57.7408 112.438 56.8808C111.843 55.9263 110.659 55.7532 109.716 56.2514C104.52 59.0205 100.261 63.3786 98.0977 68.88C96.65 72.5616 96.0182 76.563 96.2815 80.5173C96.3394 81.3984 96.4394 82.2952 96.6131 83.1605C96.8184 84.1727 98.124 84.8125 99.0663 84.4874C100.151 84.1098 100.619 83.1238 100.398 82.0435H100.404Z" fill="white"/>
<path id="Vector_122" d="M102.172 87.6235C102.478 88.6462 101.893 89.7213 100.867 90.0307C99.8402 90.3401 98.761 89.7527 98.4504 88.7301C98.1451 87.7074 98.7294 86.6323 99.756 86.3229C100.783 86.0187 101.862 86.6008 102.172 87.6235Z" fill="white"/>
</g>
</g>
<g id="Group_37">
<g id="Group_38">
<path id="Vector_123" d="M185.93 104.159C190.668 121.225 192.942 138.363 190.32 147.195C188.646 152.828 184.613 156.625 182.039 157.894C176.032 160.852 156.106 156.656 143.124 154.055C139.934 153.415 147.457 127.806 150.663 129.16C155.385 131.163 169.905 133.853 170.305 133.99C171.163 134.278 172.947 115.76 174.19 104.904C175.922 89.7793 183.197 94.2999 185.93 104.154V104.159Z" fill="white"/>
<g id="Group_39">
<path id="Vector_124" d="M118.171 124.292C116.76 126.584 118.592 128.682 118.592 128.682C118.592 128.682 116.639 129.584 115.897 131.509C115.049 133.711 118.145 136.003 118.145 136.003C118.145 136.003 116.355 137.325 115.781 139.433C115.181 141.625 117.976 144.379 117.976 144.379C117.976 144.379 116.987 146.518 117.803 148.7C119.198 152.429 125.173 153.645 128.963 154.464C132.754 155.276 144.272 154.049 146.488 154.034L151.937 129.841C151.937 129.841 135.981 121.377 131.385 121.051C127.515 120.779 119.75 121.728 118.166 124.298L118.171 124.292Z" fill="white"/>
<g id="Group_40">
<path id="Vector_125" d="M118.85 128.331C123.035 127.638 127.194 128.22 131.385 128.561C131.479 128.567 131.463 128.713 131.369 128.708C127.21 128.32 123.025 128.761 118.855 128.535C118.739 128.53 118.734 128.352 118.845 128.336L118.85 128.331Z" fill="#263238"/>
<path id="Vector_126" d="M118.297 135.699C119.25 135.573 120.24 135.757 121.182 135.883C122.198 136.019 123.209 136.171 124.22 136.339C126.241 136.674 128.258 137.057 130.263 137.498C130.353 137.519 130.342 137.655 130.247 137.645C128.231 137.314 126.21 137.015 124.178 136.769C123.162 136.648 122.146 136.533 121.129 136.423C120.182 136.323 119.176 136.297 118.271 135.987C118.139 135.94 118.15 135.73 118.297 135.709V135.699Z" fill="#263238"/>
<path id="Vector_127" d="M118.066 144.389C118.887 144.242 119.845 144.541 120.656 144.693C121.577 144.866 122.493 145.034 123.414 145.191C125.257 145.517 127.099 145.837 128.947 146.099C129.042 146.109 129.026 146.256 128.931 146.246C127.047 145.994 125.162 145.763 123.283 145.49C122.361 145.359 121.435 145.218 120.513 145.076C119.729 144.955 118.734 144.893 118.039 144.483C118.002 144.463 118.018 144.4 118.06 144.394L118.066 144.389Z" fill="#263238"/>
</g>
<path id="Vector_128" d="M123.372 121.785C121.461 122.032 119.271 122.452 118.039 124.067C117.508 124.77 117.144 125.635 117.255 126.526C117.36 127.376 117.792 128.105 118.434 128.65C116.95 129.101 115.655 130.559 115.512 132.112C115.433 132.951 115.739 133.664 116.27 134.299C116.528 134.608 116.834 134.881 117.118 135.164C117.402 135.447 117.729 135.673 118.029 135.935C117.702 136.171 117.408 136.48 117.118 136.764C116.807 137.073 116.513 137.398 116.265 137.76C115.77 138.484 115.449 139.318 115.439 140.199C115.428 141.08 115.828 141.887 116.313 142.606C116.765 143.282 117.329 143.975 118.066 144.352C118.108 144.373 118.15 144.315 118.113 144.284C117.539 143.754 117.065 143.183 116.686 142.496C116.281 141.767 115.934 140.964 115.97 140.115C116.002 139.312 116.339 138.552 116.76 137.875C116.981 137.519 117.229 137.173 117.487 136.842C117.702 136.564 118.266 136.003 118.213 135.972C118.208 135.972 117.587 135.316 117.365 135.028C117.139 134.739 116.929 134.44 116.728 134.131C116.328 133.512 116.086 132.841 116.202 132.101C116.307 131.425 116.649 130.816 117.081 130.297C117.529 129.762 118.097 129.358 118.56 128.844C118.597 128.808 118.603 128.687 118.582 128.661C117.523 127.025 117.66 125.472 118.792 124.261C119.355 123.658 120.045 123.207 120.777 122.824C121.603 122.394 122.514 122.168 123.399 121.875C123.451 121.859 123.441 121.764 123.377 121.77L123.372 121.785Z" fill="#263238"/>
</g>
<path id="Vector_129" d="M158.281 157.018C157.159 156.677 155.975 156.494 154.827 156.242C153.674 155.99 152.516 155.754 151.358 155.523C150.179 155.287 148.999 155.062 147.815 154.836C146.678 154.621 145.535 154.37 144.388 154.233C143.266 154.102 142.177 154.181 141.061 154.312C139.95 154.438 138.834 154.527 137.712 154.579C135.459 154.684 133.19 154.637 130.948 154.433C128.41 154.202 125.878 153.74 123.414 153.09C123.362 153.074 123.346 153.153 123.393 153.169C127.668 154.569 132.169 155.308 136.67 155.256C137.791 155.24 138.908 155.188 140.024 155.078C141.134 154.967 142.245 154.768 143.366 154.794C144.551 154.821 145.725 155.083 146.883 155.298C148.047 155.513 149.205 155.733 150.368 155.938C151.684 156.168 153 156.404 154.317 156.609C155.617 156.813 156.933 157.102 158.249 157.202C158.365 157.212 158.37 157.039 158.27 157.008L158.281 157.018Z" fill="#263238"/>
<path id="Vector_130" d="M174.627 135.054C172.942 134.477 171.163 134.126 169.431 133.712C167.694 133.292 165.946 132.894 164.203 132.506C160.876 131.756 157.507 131.121 154.222 130.209C153.353 129.967 152.495 129.7 151.648 129.396C151.221 129.244 150.805 129.076 150.389 128.897C149.958 128.714 149.494 128.567 149.089 128.342C149.042 128.315 149 128.389 149.047 128.415C149.384 128.619 149.684 128.866 150.026 129.065C150.395 129.28 150.784 129.464 151.174 129.642C151.884 129.967 152.616 130.25 153.358 130.497C154.906 131.016 156.501 131.383 158.091 131.745C161.566 132.542 165.046 133.324 168.531 134.068C169.51 134.278 170.494 134.488 171.479 134.682C172.505 134.887 173.537 135.117 174.579 135.233C174.701 135.248 174.748 135.086 174.627 135.044V135.054Z" fill="#263238"/>
</g>
<g id="Group_41">
<path id="Vector_131" d="M169.146 128.703L193.21 131.965C193.21 131.965 188.809 107.028 184.129 98.7682C179.512 90.6184 174.416 96.0044 172.468 105.864C170.31 116.793 169.141 128.703 169.141 128.703H169.146Z" fill="#37474F"/>
<path id="Vector_132" d="M191.42 128.352C190.746 128.194 190.062 128.095 189.383 127.948C188.725 127.806 188.062 127.701 187.398 127.597C186.045 127.387 184.687 127.198 183.329 127.014C180.654 126.647 177.98 126.244 175.295 125.95C173.769 125.782 172.252 125.551 170.72 125.41C170.673 125.41 170.668 125.478 170.71 125.488C173.368 126.112 176.08 126.569 178.775 127.004C181.444 127.439 184.124 127.848 186.809 128.142C187.561 128.226 188.314 128.32 189.072 128.357C189.846 128.394 190.625 128.467 191.399 128.478C191.473 128.478 191.483 128.368 191.415 128.347L191.42 128.352Z" fill="#263238"/>
</g>
</g>
</g>
</g>
<g id="Speech bubble">
<g id="Group_42">
<g id="Group_43">
<path id="Vector_133" d="M212.399 13.7141C213.741 22.4565 207.714 30.6326 198.938 31.9699C195.389 32.5101 191.941 31.8493 188.993 30.2917L181.512 33.4593L183.645 25.7448C182.097 23.6994 181.033 21.2556 180.617 18.5652C179.275 9.82273 185.303 1.6467 194.079 0.309371C202.854 -1.02795 211.062 4.9769 212.404 13.7193L212.399 13.7141Z" fill="white"/>
<path id="Vector_134" d="M212.399 13.714C212.815 16.6246 212.51 19.6716 211.325 22.3882C211.072 23.0857 210.677 23.7151 210.341 24.3706C209.925 24.979 209.556 25.624 209.061 26.1852C208.156 27.3547 207.056 28.3721 205.855 29.2427C204.671 30.1447 203.313 30.7845 201.928 31.3299C201.217 31.5555 200.517 31.8072 199.78 31.9331C199.054 32.1061 198.317 32.2163 197.569 32.2687C194.589 32.4994 191.547 31.8754 188.883 30.4908L189.083 30.5013L181.623 33.7162L181.081 33.9521L181.239 33.3805L183.345 25.6555L183.397 25.923C180.349 21.9949 179.391 16.6141 180.728 11.8679C181.391 9.49221 182.608 7.27382 184.239 5.43304C185.871 3.587 187.951 2.15528 190.225 1.22177C192.499 0.293511 194.979 -0.120797 197.427 0.0365351C199.875 0.204356 202.265 0.93333 204.386 2.1343C208.677 4.48904 211.683 8.92057 212.404 13.714H212.399ZM212.399 13.714C211.646 8.92057 208.609 4.531 204.334 2.22345C202.207 1.06444 199.822 0.387911 197.411 0.262045C194.995 0.146668 192.568 0.602932 190.357 1.54693C188.151 2.49616 186.15 3.92789 184.597 5.7477C183.05 7.56751 181.907 9.72296 181.276 12.0148C180.618 14.3118 180.607 16.7505 181.023 19.0842C181.481 21.418 182.465 23.6416 183.892 25.5454L183.987 25.6712L183.945 25.8181L181.786 33.5274L181.402 33.1917L188.904 30.0765L189.009 30.0346L189.104 30.087C191.668 31.4768 194.626 32.1376 197.553 31.9645C198.285 31.9226 199.012 31.8282 199.727 31.6708C200.454 31.5607 201.149 31.3247 201.854 31.1149C203.223 30.601 204.581 29.9979 205.766 29.122C206.966 28.2777 208.082 27.2917 208.988 26.1275C209.482 25.5768 209.851 24.937 210.272 24.3339C210.609 23.6836 211.009 23.0595 211.267 22.3672C212.467 19.6716 212.794 16.6351 212.399 13.7192V13.714Z" fill="#263238"/>
</g>
<g id="Group_44">
<path id="Vector_135" d="M190.804 25.3406C190.562 24.4176 191.031 23.5785 191.905 23.353C192.831 23.1118 193.6 23.6257 193.847 24.5487C194.095 25.4718 193.673 26.2951 192.742 26.5364C191.81 26.7776 191.036 26.2374 190.804 25.3406ZM190.483 21.4965L186.882 9.26127L189.357 8.61621L192.236 21.0402L190.483 21.4965Z" fill="#5B52F9"/>
<path id="Vector_136" d="M196.737 23.7933C196.495 22.8703 196.964 22.0312 197.843 21.8056C198.77 21.5644 199.538 22.0784 199.786 23.0014C200.033 23.9244 199.612 24.7478 198.68 24.989C197.748 25.2302 196.974 24.6901 196.737 23.7933ZM196.416 19.9491L192.815 7.71391L195.29 7.06885L198.169 19.4929L196.416 19.9491Z" fill="#5B52F9"/>
<path id="Vector_137" d="M202.665 22.2464C202.423 21.3234 202.892 20.4843 203.771 20.2588C204.697 20.0175 205.466 20.5315 205.713 21.4545C205.961 22.3775 205.54 23.2009 204.608 23.4421C203.676 23.6834 202.902 23.1432 202.665 22.2464ZM202.344 18.4022L198.743 6.16704L201.217 5.52197L204.097 17.946L202.344 18.4022Z" fill="#5B52F9"/>
</g>
</g>
</g>
</g>
<defs>
<clipPath id="clip0_1667_6630">
<rect width="238" height="187" fill="white"/>
</clipPath>
</defs>
</svg>
