<svg xmlns="http://www.w3.org/2000/svg" width="14" height="14" viewBox="0 0 14 14" fill="none">
  <path fill-rule="evenodd" clip-rule="evenodd" d="M4.375 3.5H8.533C9.05464 3.50077 9.55465 3.70854 9.92323 4.07766C10.2918 4.44679 10.4988 4.94711 10.4988 5.46875V10.9375C10.963 10.9375 11.4081 10.7531 11.7363 10.4249C12.0645 10.0967 12.2488 9.65163 12.2488 9.1875V3.563C12.2488 2.68508 11.5926 1.92325 10.6948 1.848C10.564 1.83738 10.4332 1.82765 10.3023 1.81883C10.1546 1.53433 9.93163 1.29586 9.65769 1.12942C9.38376 0.962976 9.06937 0.87497 8.74883 0.875H7.87383C7.5533 0.87497 7.23891 0.962976 6.96497 1.12942C6.69104 1.29586 6.46808 1.53433 6.32042 1.81883C6.18917 1.82758 6.05792 1.8375 5.92783 1.848C5.05167 1.92208 4.40533 2.6495 4.375 3.5ZM7.87383 1.75C7.64177 1.75 7.41921 1.84219 7.25512 2.00628C7.09102 2.17038 6.99883 2.39294 6.99883 2.625H9.62383C9.62383 2.39294 9.53165 2.17038 9.36755 2.00628C9.20346 1.84219 8.9809 1.75 8.74883 1.75H7.87383Z" fill="#2563EB"/>
  <path fill-rule="evenodd" clip-rule="evenodd" d="M1.75 5.46875C1.75 4.86442 2.24 4.375 2.84375 4.375H8.53125C9.13558 4.375 9.625 4.865 9.625 5.46875V12.0312C9.625 12.635 9.135 13.125 8.53125 13.125H2.84375C2.55367 13.125 2.27547 13.0098 2.07035 12.8046C1.86523 12.5995 1.75 12.3213 1.75 12.0312V5.46875ZM3.5 7C3.5 6.88397 3.54609 6.77269 3.62814 6.69064C3.71019 6.60859 3.82147 6.5625 3.9375 6.5625H3.94217C4.0582 6.5625 4.16948 6.60859 4.25153 6.69064C4.33357 6.77269 4.37967 6.88397 4.37967 7V7.00467C4.37967 7.1207 4.33357 7.23198 4.25153 7.31403C4.16948 7.39607 4.0582 7.44217 3.94217 7.44217H3.9375C3.82147 7.44217 3.71019 7.39607 3.62814 7.31403C3.54609 7.23198 3.5 7.1207 3.5 7.00467V7ZM4.8125 7C4.8125 6.88397 4.85859 6.77269 4.94064 6.69064C5.02269 6.60859 5.13397 6.5625 5.25 6.5625H7.4375C7.55353 6.5625 7.66481 6.60859 7.74686 6.69064C7.82891 6.77269 7.875 6.88397 7.875 7C7.875 7.11603 7.82891 7.22731 7.74686 7.30936C7.66481 7.39141 7.55353 7.4375 7.4375 7.4375H5.25C5.13397 7.4375 5.02269 7.39141 4.94064 7.30936C4.85859 7.22731 4.8125 7.11603 4.8125 7ZM3.5 8.75C3.5 8.63397 3.54609 8.52269 3.62814 8.44064C3.71019 8.35859 3.82147 8.3125 3.9375 8.3125H3.94217C4.0582 8.3125 4.16948 8.35859 4.25153 8.44064C4.33357 8.52269 4.37967 8.63397 4.37967 8.75V8.75467C4.37967 8.8707 4.33357 8.98198 4.25153 9.06403C4.16948 9.14607 4.0582 9.19217 3.94217 9.19217H3.9375C3.82147 9.19217 3.71019 9.14607 3.62814 9.06403C3.54609 8.98198 3.5 8.8707 3.5 8.75467V8.75ZM4.8125 8.75C4.8125 8.63397 4.85859 8.52269 4.94064 8.44064C5.02269 8.35859 5.13397 8.3125 5.25 8.3125H7.4375C7.55353 8.3125 7.66481 8.35859 7.74686 8.44064C7.82891 8.52269 7.875 8.63397 7.875 8.75C7.875 8.86603 7.82891 8.97731 7.74686 9.05936C7.66481 9.14141 7.55353 9.1875 7.4375 9.1875H5.25C5.13397 9.1875 5.02269 9.14141 4.94064 9.05936C4.85859 8.97731 4.8125 8.86603 4.8125 8.75ZM3.5 10.5C3.5 10.384 3.54609 10.2727 3.62814 10.1906C3.71019 10.1086 3.82147 10.0625 3.9375 10.0625H3.94217C4.0582 10.0625 4.16948 10.1086 4.25153 10.1906C4.33357 10.2727 4.37967 10.384 4.37967 10.5V10.5047C4.37967 10.6207 4.33357 10.732 4.25153 10.814C4.16948 10.8961 4.0582 10.9422 3.94217 10.9422H3.9375C3.82147 10.9422 3.71019 10.8961 3.62814 10.814C3.54609 10.732 3.5 10.6207 3.5 10.5047V10.5ZM4.8125 10.5C4.8125 10.384 4.85859 10.2727 4.94064 10.1906C5.02269 10.1086 5.13397 10.0625 5.25 10.0625H7.4375C7.55353 10.0625 7.66481 10.1086 7.74686 10.1906C7.82891 10.2727 7.875 10.384 7.875 10.5C7.875 10.616 7.82891 10.7273 7.74686 10.8094C7.66481 10.8914 7.55353 10.9375 7.4375 10.9375H5.25C5.13397 10.9375 5.02269 10.8914 4.94064 10.8094C4.85859 10.7273 4.8125 10.616 4.8125 10.5Z" fill="#2563EB"/>
</svg>