<svg xmlns="http://www.w3.org/2000/svg" width="13" height="13" viewBox="0 0 13 13" fill="none">
  <path d="M10.8346 5.41683C10.8346 8.12137 7.83434 10.938 6.82684 11.808C6.73299 11.8785 6.61873 11.9167 6.5013 11.9167C6.38387 11.9167 6.26962 11.8785 6.17576 11.808C5.16826 10.938 2.16797 8.12137 2.16797 5.41683C2.16797 4.26756 2.62452 3.16536 3.43717 2.3527C4.24983 1.54004 5.35203 1.0835 6.5013 1.0835C7.65057 1.0835 8.75277 1.54004 9.56543 2.3527C10.3781 3.16536 10.8346 4.26756 10.8346 5.41683Z" stroke="#4A4A4A" stroke-linecap="round" stroke-linejoin="round"/>
  <path d="M6.5 7.0415C7.39746 7.0415 8.125 6.31397 8.125 5.4165C8.125 4.51904 7.39746 3.7915 6.5 3.7915C5.60254 3.7915 4.875 4.51904 4.875 5.4165C4.875 6.31397 5.60254 7.0415 6.5 7.0415Z" stroke="#4A4A4A" stroke-linecap="round" stroke-linejoin="round"/>
</svg>