<svg xmlns="http://www.w3.org/2000/svg" width="14" height="14" viewBox="0 0 14 14" fill="none">
  <path fill-rule="evenodd" clip-rule="evenodd" d="M6.73167 13.0381L6.7725 13.0614L6.78883 13.0707C6.8536 13.1058 6.92608 13.1241 6.99971 13.1241C7.07334 13.1241 7.14581 13.1058 7.21058 13.0707L7.22692 13.062L7.26833 13.0381C7.49648 12.9028 7.71911 12.7584 7.93567 12.6052C8.49629 12.2094 9.02011 11.7639 9.50075 11.2741C10.6348 10.1132 11.8125 8.36908 11.8125 6.125C11.8125 4.84865 11.3055 3.62457 10.403 2.72205C9.50043 1.81953 8.27635 1.3125 7 1.3125C5.72365 1.3125 4.49957 1.81953 3.59705 2.72205C2.69453 3.62457 2.1875 4.84865 2.1875 6.125C2.1875 8.3685 3.36583 10.1132 4.49925 11.2741C4.97971 11.7639 5.50333 12.2094 6.06375 12.6052C6.2805 12.7584 6.50332 12.9028 6.73167 13.0381ZM7 7.875C7.46413 7.875 7.90925 7.69063 8.23744 7.36244C8.56563 7.03425 8.75 6.58913 8.75 6.125C8.75 5.66087 8.56563 5.21575 8.23744 4.88756C7.90925 4.55937 7.46413 4.375 7 4.375C6.53587 4.375 6.09075 4.55937 5.76256 4.88756C5.43437 5.21575 5.25 5.66087 5.25 6.125C5.25 6.58913 5.43437 7.03425 5.76256 7.36244C6.09075 7.69063 6.53587 7.875 7 7.875Z" fill="#2563EB"/>
</svg>