<svg xmlns="http://www.w3.org/2000/svg" width="18" height="18" viewBox="0 0 18 18" fill="none">
  <rect width="18" height="18" fill="white"/>
  <path d="M8.12009 2.6295C8.49798 1.92969 9.50202 1.92969 9.87991 2.6295L11.2501 5.16701C11.3942 5.43389 11.6517 5.62095 11.9501 5.67554L14.7868 6.19456C15.5691 6.3377 15.8794 7.2926 15.3306 7.86825L13.3407 9.95554C13.1314 10.1751 13.0331 10.4777 13.0734 10.7784L13.4563 13.6366C13.562 14.4249 12.7497 15.0151 12.0326 14.671L9.43258 13.4236C9.15912 13.2923 8.84088 13.2923 8.56742 13.4236L5.96738 14.671C5.25032 15.0151 4.43803 14.4249 4.54365 13.6366L4.92663 10.7784C4.96691 10.4777 4.86857 10.1751 4.65928 9.95554L2.66939 7.86825C2.1206 7.2926 2.43087 6.3377 3.2132 6.19456L6.04994 5.67554C6.34829 5.62095 6.60575 5.43389 6.74987 5.16701L8.12009 2.6295Z" fill="#FEA500"/>
</svg>