<svg width="70" height="48" viewBox="0 0 70 48" fill="none" xmlns="http://www.w3.org/2000/svg">
<rect x="1" y="0.5" width="68" height="47" rx="11.5" fill="#EEEEEE"/>
<rect x="1" y="0.5" width="68" height="47" rx="11.5" stroke="#EEEEEE"/>
<path d="M42.6632 28.811C42.3863 29.4565 42.0442 30.072 41.6422 30.648C41.1052 31.415 40.6642 31.945 40.3262 32.24C39.8012 32.722 39.2372 32.97 38.6342 32.984C38.2022 32.984 37.6802 32.861 37.0722 32.611C36.4622 32.362 35.9022 32.24 35.3892 32.24C34.8522 32.24 34.2762 32.362 33.6592 32.611C33.0432 32.861 32.5452 32.992 32.1642 33.004C31.5872 33.029 31.0102 32.775 30.4352 32.24C30.0682 31.92 29.6092 31.37 29.0582 30.592C28.4682 29.763 27.9832 28.798 27.6032 27.701C27.1962 26.514 26.9922 25.366 26.9922 24.254C26.9922 22.981 27.2672 21.882 27.8182 20.962C28.2349 20.2395 28.8307 19.6365 29.5482 19.211C30.2557 18.7867 31.0633 18.5582 31.8882 18.549C32.3482 18.549 32.9512 18.691 33.6982 18.971C34.4452 19.251 34.9252 19.393 35.1342 19.393C35.2922 19.393 35.8232 19.226 36.7272 18.895C37.5802 18.588 38.3002 18.461 38.8902 18.511C40.4902 18.64 41.6912 19.27 42.4902 20.406C41.0602 21.273 40.3532 22.486 40.3672 24.043C40.3792 25.256 40.8202 26.265 41.6842 27.066C42.0662 27.4316 42.5118 27.7241 42.9992 27.929C42.8932 28.236 42.7812 28.529 42.6632 28.811ZM38.9962 14.38C38.9962 15.33 38.6482 16.218 37.9572 17.039C37.1212 18.015 36.1112 18.58 35.0162 18.491C35.0019 18.3716 34.9949 18.2513 34.9952 18.131C34.9952 17.218 35.3912 16.242 36.0982 15.443C36.4502 15.039 36.8982 14.702 37.4412 14.434C37.9832 14.17 38.4952 14.024 38.9772 13.999C38.9902 14.127 38.9962 14.254 38.9962 14.38Z" fill="#1E1E1E"/>
</svg>
