<svg width="352" height="221" viewBox="0 0 352 221" fill="none" xmlns="http://www.w3.org/2000/svg">
<g clip-path="url(#clip0_4089_1885)">
<path d="M208.868 6.77992C234.208 -6.71986 266.37 0.357384 283.421 24.2943L282.841 24.7043C266 1.06288 234.231 -5.92525 209.203 7.4049C207.076 8.53767 205.024 9.80271 203.057 11.1925C177.319 29.3683 171.232 65.0037 189.487 90.6299L188.906 91.0399C170.424 65.0951 176.588 29.0162 202.646 10.6146C204.637 9.20781 206.715 7.92707 208.868 6.77992Z" fill="#E6E6E6"/>
<path d="M343.112 64.4829L259.765 58.027C258.471 57.9253 257.271 57.3168 256.427 56.3349C255.583 55.3531 255.165 54.0781 255.264 52.7897L258.878 12.4701C258.98 11.1819 259.591 9.98668 260.577 9.14658C261.563 8.30647 262.844 7.89013 264.138 7.98889L347.485 14.4448C348.778 14.5465 349.979 15.155 350.823 16.1368C351.666 17.1187 352.085 18.3937 351.985 19.6821L348.372 60.0016C348.27 61.2898 347.659 62.4851 346.673 63.3252C345.687 64.1653 344.406 64.5816 343.112 64.4829Z" fill="#E6E6E6"/>
<path d="M323.423 55.3742C322.791 55.3742 322.156 55.3496 321.519 55.3004L267.654 51.1281C266.577 51.0448 265.527 50.751 264.565 50.2636C263.602 49.7761 262.744 49.1046 262.042 48.2874C261.34 47.4702 260.806 46.5232 260.471 45.5006C260.137 44.4779 260.007 43.3997 260.091 42.3273L261.319 26.6071C261.491 24.4422 262.518 22.4336 264.175 21.0217C265.832 19.6099 267.984 18.9103 270.159 19.0763L339.812 24.4715C341.986 24.6424 344.003 25.665 345.421 27.3149C346.839 28.9648 347.542 31.1073 347.375 33.2724C346.905 39.2802 344.18 44.8911 339.741 48.9872C335.302 53.0833 329.476 55.3638 323.423 55.3742Z" fill="white"/>
<path d="M338.146 36.9683L269.866 31.6794C269.723 31.6684 269.585 31.6296 269.457 31.5652C269.33 31.5008 269.217 31.4121 269.124 31.3042C269.031 31.1962 268.961 31.0711 268.917 30.9361C268.873 30.801 268.855 30.6586 268.867 30.5169C268.878 30.3753 268.917 30.2372 268.981 30.1106C269.046 29.9839 269.135 29.8712 269.243 29.7789C269.352 29.6865 269.477 29.6163 269.613 29.5723C269.749 29.5283 269.892 29.5113 270.034 29.5223L338.315 34.8112C338.457 34.8222 338.596 34.861 338.723 34.9254C338.85 34.9898 338.964 35.0785 339.056 35.1865C339.149 35.2944 339.22 35.4195 339.264 35.5545C339.308 35.6896 339.325 35.832 339.314 35.9737C339.303 36.1153 339.264 36.2534 339.199 36.38C339.135 36.5067 339.046 36.6194 338.937 36.7117C338.829 36.8041 338.703 36.8743 338.567 36.9183C338.432 36.9623 338.289 36.9793 338.146 36.9683Z" fill="#E6E6E6"/>
<path d="M309.795 39.0603L269.533 35.9416C269.246 35.9192 268.979 35.7842 268.792 35.5662C268.605 35.3482 268.512 35.0651 268.535 34.7792C268.557 34.4932 268.692 34.2278 268.911 34.0413C269.13 33.8548 269.414 33.7624 269.701 33.7845L309.963 36.9031C310.106 36.914 310.244 36.9528 310.372 37.0171C310.499 37.0815 310.612 37.1702 310.705 37.2781C310.798 37.3861 310.868 37.5112 310.913 37.6463C310.957 37.7815 310.974 37.9239 310.963 38.0656C310.952 38.2073 310.913 38.3455 310.848 38.4722C310.784 38.5989 310.694 38.7116 310.586 38.804C310.477 38.8963 310.352 38.9665 310.216 39.0105C310.08 39.0545 309.937 39.0714 309.795 39.0603Z" fill="#E6E6E6"/>
<path d="M318.662 44.0349L269.198 40.2035C269.056 40.1925 268.917 40.1538 268.79 40.0894C268.663 40.0251 268.549 39.9364 268.456 39.8284C268.364 39.7205 268.293 39.5953 268.249 39.4602C268.205 39.3251 268.188 39.1826 268.199 39.0409C268.21 38.8992 268.249 38.7611 268.313 38.6344C268.378 38.5077 268.467 38.395 268.576 38.3026C268.684 38.2102 268.81 38.14 268.946 38.0961C269.081 38.0521 269.224 38.0352 269.367 38.0463L318.831 41.8777C319.118 41.9001 319.385 42.0351 319.572 42.2531C319.759 42.4711 319.852 42.7542 319.829 43.0401C319.807 43.3261 319.671 43.5915 319.453 43.778C319.234 43.9646 318.949 44.0569 318.662 44.0349Z" fill="#E6E6E6"/>
<path d="M337.534 119.216L254.187 112.76C252.893 112.659 251.693 112.05 250.849 111.068C250.005 110.086 249.587 108.811 249.686 107.523L253.299 67.2035C253.402 65.9153 254.013 64.7201 254.999 63.88C255.985 63.0399 257.265 62.6235 258.56 62.7223L341.906 69.1782C343.2 69.2799 344.401 69.8884 345.244 70.8702C346.088 71.8521 346.506 73.1271 346.407 74.4155L342.794 114.735C342.692 116.023 342.081 117.218 341.095 118.059C340.108 118.899 338.828 119.315 337.534 119.216Z" fill="#E6E6E6"/>
<path d="M317.824 110.106C317.2 110.106 316.573 110.082 315.941 110.033L262.076 105.861C260.999 105.778 259.95 105.484 258.987 104.996C258.024 104.509 257.166 103.838 256.464 103.02C255.762 102.203 255.228 101.256 254.893 100.234C254.558 99.2109 254.429 98.1326 254.513 97.0602L255.741 81.3401C255.825 80.2678 256.12 79.2223 256.61 78.2635C257.099 77.3046 257.774 76.4512 258.595 75.7519C259.416 75.0526 260.367 74.5211 261.394 74.1878C262.421 73.8545 263.504 73.7259 264.581 73.8093L334.234 79.2045C335.311 79.2879 336.361 79.5818 337.324 80.0692C338.287 80.5566 339.144 81.2281 339.846 82.0454C340.548 82.8626 341.082 83.8096 341.417 84.8322C341.752 85.8549 341.881 86.9332 341.797 88.0055C341.32 94.0142 338.589 99.624 334.147 103.719C329.705 107.814 323.878 110.094 317.824 110.106Z" fill="white"/>
<path d="M332.568 91.7017L264.287 86.4128C264.145 86.4018 264.006 86.363 263.879 86.2986C263.752 86.2342 263.639 86.1455 263.546 86.0376C263.453 85.9296 263.383 85.8045 263.339 85.6695C263.294 85.5344 263.277 85.392 263.288 85.2503C263.299 85.1087 263.338 84.9706 263.403 84.844C263.468 84.7174 263.557 84.6046 263.665 84.5123C263.774 84.4199 263.899 84.3497 264.035 84.3057C264.171 84.2617 264.314 84.2447 264.456 84.2557L332.737 89.5446C332.879 89.5556 333.018 89.5945 333.145 89.6588C333.272 89.7232 333.385 89.8119 333.478 89.9199C333.571 90.0278 333.641 90.1529 333.686 90.2879C333.73 90.423 333.747 90.5654 333.736 90.7071C333.725 90.8487 333.686 90.9868 333.621 91.1134C333.556 91.2401 333.467 91.3528 333.359 91.4452C333.251 91.5375 333.125 91.6077 332.989 91.6517C332.854 91.6957 332.711 91.7127 332.568 91.7017Z" fill="#E6E6E6"/>
<path d="M304.218 93.7933L263.956 90.6747C263.814 90.6637 263.675 90.625 263.548 90.5606C263.42 90.4963 263.307 90.4076 263.214 90.2996C263.121 90.1917 263.051 90.0665 263.007 89.9314C262.962 89.7963 262.945 89.6538 262.956 89.5121C262.967 89.3704 263.006 89.2323 263.071 89.1056C263.136 88.9789 263.225 88.8662 263.334 88.7738C263.442 88.6814 263.568 88.6112 263.703 88.5673C263.839 88.5233 263.982 88.5064 264.125 88.5175L304.387 91.6361C304.674 91.6585 304.94 91.7935 305.127 92.0115C305.315 92.2295 305.407 92.5126 305.385 92.7985C305.363 93.0845 305.227 93.3499 305.008 93.5364C304.789 93.723 304.505 93.8154 304.218 93.7933Z" fill="#E6E6E6"/>
<path d="M313.087 98.7677L263.623 94.9363C263.336 94.9141 263.069 94.7791 262.882 94.5611C262.695 94.3431 262.602 94.0599 262.624 93.7738C262.647 93.4878 262.782 93.2223 263.001 93.0357C263.22 92.8492 263.505 92.7569 263.792 92.7791L313.256 96.6105C313.543 96.6328 313.81 96.7678 313.997 96.9858C314.185 97.2038 314.277 97.487 314.255 97.773C314.233 98.0591 314.097 98.3246 313.878 98.5111C313.659 98.6977 313.375 98.79 313.087 98.7677Z" fill="#E6E6E6"/>
<path d="M125.523 98.1502C124.465 95.763 123.889 93.1917 123.829 90.5832C123.77 87.9746 124.226 85.3799 125.173 82.947C126.121 80.5142 127.54 78.291 129.35 76.4042C131.16 74.5175 133.326 73.0043 135.724 71.9509C138.121 70.8975 140.704 70.3246 143.323 70.265C145.943 70.2053 148.549 70.66 150.993 71.6031C153.436 72.5462 155.669 73.9593 157.564 75.7616C159.459 77.564 160.979 79.7203 162.037 82.1074L161.386 82.3936C160.365 80.0916 158.9 78.0122 157.073 76.2742C155.245 74.5361 153.092 73.1734 150.736 72.2639C148.379 71.3545 145.866 70.916 143.34 70.9735C140.813 71.031 138.323 71.5835 136.011 72.5993C133.699 73.6151 131.61 75.0743 129.865 76.8937C128.119 78.7132 126.751 80.8571 125.837 83.2031C124.924 85.5492 124.483 88.0514 124.541 90.5669C124.599 93.0824 125.154 95.562 126.174 97.864L125.523 98.1502Z" fill="#E6E6E6"/>
<path d="M332.371 208.956C340.519 205.112 346.588 197.377 345.641 188.877C338.331 194.771 328.379 198.062 318.105 197.983C314.104 197.953 309.622 197.547 306.714 199.783C304.905 201.174 304.089 203.383 303.985 205.584C303.882 207.786 304.418 210.014 304.951 212.213L304.789 212.734C314.356 213.34 324.223 212.8 332.371 208.956Z" fill="#F2F2F2"/>
<path d="M345.441 188.856C342.29 194.979 336.826 200.081 330.036 203.068C328.548 203.759 326.964 204.223 325.337 204.443C323.68 204.615 322.006 204.397 320.45 203.807C318.974 203.279 317.519 202.593 315.954 202.384C315.188 202.278 314.408 202.326 313.661 202.527C312.914 202.727 312.215 203.076 311.606 203.551C310.16 204.671 309.298 206.22 308.516 207.766C307.648 209.483 306.778 211.28 305.079 212.449C304.873 212.591 305.16 212.886 305.365 212.744C308.322 210.709 308.749 207.029 311.098 204.565C311.651 203.943 312.338 203.453 313.108 203.133C313.877 202.812 314.71 202.669 315.543 202.715C317.14 202.832 318.641 203.539 320.131 204.084C321.646 204.68 323.271 204.945 324.898 204.863C326.538 204.719 328.144 204.313 329.654 203.659C332.937 202.298 335.976 200.415 338.653 198.084C341.61 195.538 344.051 192.453 345.844 188.994C345.953 188.783 345.549 188.646 345.441 188.856Z" fill="white"/>
<path d="M332.313 202.206C333.171 203.213 334.323 203.929 335.608 204.255C336.894 204.58 338.249 204.499 339.486 204.021C339.723 203.922 339.53 203.576 339.292 203.675C338.142 204.122 336.879 204.198 335.683 203.893C334.486 203.588 333.416 202.917 332.622 201.975C332.456 201.773 332.147 202.005 332.313 202.206Z" fill="white"/>
<path d="M321.169 204.159C321.327 202.963 321.737 201.814 322.373 200.787C323.009 199.761 323.856 198.88 324.859 198.203C325.064 198.06 324.777 197.766 324.572 197.908C323.531 198.615 322.651 199.533 321.992 200.603C321.333 201.672 320.909 202.869 320.748 204.114C320.718 204.351 321.14 204.395 321.169 204.159Z" fill="white"/>
<path d="M341.125 195.278C340.733 194.978 340.425 194.584 340.229 194.132C340.034 193.68 339.957 193.186 340.007 192.697C340.039 192.46 339.618 192.416 339.585 192.651C339.533 193.192 339.618 193.738 339.833 194.237C340.048 194.737 340.386 195.174 340.816 195.509C340.855 195.547 340.905 195.571 340.959 195.577C341.013 195.583 341.068 195.57 341.114 195.541C341.134 195.526 341.15 195.506 341.162 195.484C341.173 195.462 341.18 195.437 341.181 195.412C341.182 195.387 341.178 195.362 341.168 195.339C341.158 195.316 341.144 195.295 341.125 195.278Z" fill="white"/>
<path d="M318.762 170.906C318.737 171.053 318.711 171.199 318.683 171.347C318.334 173.316 317.802 175.248 317.092 177.118C317.04 177.263 316.984 177.41 316.927 177.553C315.133 182.081 312.403 186.183 308.916 189.594C307.495 190.988 305.963 192.264 304.334 193.409C302.063 195.009 299.443 196.572 298.006 198.727C297.854 198.95 297.717 199.182 297.598 199.424L304.071 212.465C304.102 212.489 304.13 212.514 304.161 212.539L304.393 213.068C304.483 213.014 304.575 212.956 304.665 212.902C304.718 212.871 304.768 212.837 304.821 212.805C304.855 212.784 304.89 212.762 304.922 212.744C304.934 212.737 304.945 212.73 304.954 212.723C304.986 212.706 305.014 212.686 305.044 212.669C305.558 212.347 306.071 212.02 306.581 211.69C306.585 211.688 306.585 211.688 306.586 211.685C310.469 209.157 314.121 206.3 317.122 203.004C317.212 202.905 317.306 202.805 317.393 202.7C318.726 201.218 319.921 199.619 320.961 197.92C321.522 196.997 322.028 196.042 322.478 195.06C323.632 192.523 324.315 189.8 324.496 187.021C324.861 181.455 323.203 175.699 319.08 171.244C318.975 171.13 318.87 171.019 318.762 170.906Z" fill="#F2F2F2"/>
<path d="M318.592 170.995C320.395 177.88 319.774 185.141 316.721 191.319C316.086 192.691 315.211 193.94 314.138 195.007C312.988 196.057 311.574 196.777 310.046 197.091C308.583 197.436 307.027 197.635 305.713 198.298C305.069 198.619 304.509 199.088 304.082 199.665C303.654 200.243 303.369 200.913 303.252 201.621C302.93 203.347 303.338 205.125 303.804 206.856C304.321 208.777 304.891 210.768 304.414 212.673C304.356 212.904 304.772 213 304.829 212.769C305.659 209.456 303.477 206.106 303.56 202.754C303.599 201.19 304.172 199.666 305.63 198.799C306.906 198.041 308.51 197.835 309.996 197.498C311.498 197.207 312.905 196.555 314.095 195.599C315.229 194.592 316.159 193.379 316.837 192.025C318.391 189.042 319.389 185.803 319.784 182.466C320.258 178.594 319.988 174.667 318.988 170.896C318.926 170.658 318.53 170.759 318.592 170.995Z" fill="white"/>
<path d="M317.838 189.366C320.501 190.197 323.326 189.203 324.443 187.055C324.553 186.844 324.173 186.654 324.063 186.866C323.017 188.878 320.402 189.78 317.913 189.004C317.651 188.922 317.578 189.285 317.838 189.366Z" fill="white"/>
<path d="M310.823 197.005C310.141 195.981 309.675 194.829 309.454 193.62C309.233 192.411 309.261 191.17 309.536 189.972C309.593 189.741 309.178 189.645 309.121 189.876C308.837 191.123 308.811 192.415 309.044 193.673C309.277 194.931 309.764 196.128 310.476 197.193C310.616 197.41 310.961 197.221 310.823 197.005Z" fill="white"/>
<path d="M319.731 178.758C319.208 178.699 318.705 178.526 318.257 178.251C317.809 177.977 317.427 177.607 317.139 177.169C317.002 176.95 316.657 177.14 316.793 177.356C317.113 177.839 317.535 178.247 318.03 178.552C318.524 178.856 319.079 179.05 319.657 179.12C319.771 179.134 319.878 179.093 319.902 178.987C319.908 178.934 319.894 178.881 319.862 178.839C319.831 178.796 319.784 178.767 319.731 178.758Z" fill="white"/>
<path d="M332.5 116.362L327.548 90.113L317.826 77.3721L310.621 82.0621C311.639 87.56 319.34 97.8236 319.34 97.8236L326.166 118.124C326.139 118.23 326.114 118.336 326.095 118.446C325.987 119.088 326.047 119.747 326.269 120.36C326.492 120.972 326.869 121.517 327.365 121.942C327.86 122.367 328.458 122.657 329.099 122.785C329.741 122.912 330.404 122.873 331.026 122.671C331.648 122.469 332.206 122.11 332.648 121.63C333.09 121.15 333.4 120.565 333.549 119.93C333.697 119.296 333.678 118.634 333.495 118.009C333.311 117.384 332.968 116.817 332.5 116.362Z" fill="#FFB8B8"/>
<path d="M310.816 84.8356L318.973 78.2437L318.988 78.2089C320.514 74.7668 317.127 68.8647 314.016 64.5196C312.99 63.0877 311.455 62.0974 309.723 61.7489C307.991 61.4004 306.191 61.7197 304.686 62.6422C303.581 63.3302 302.691 64.3122 302.117 65.4775C301.542 66.6427 301.307 67.9446 301.437 69.236L302.123 75.8118L310.816 84.8356Z" fill="#3F3D56"/>
<path d="M281.99 215.468L276.562 215.468L273.98 194.625L281.991 194.625L281.99 215.468Z" fill="#FFB8B8"/>
<path d="M283.371 213.704L281.844 213.704L275.88 211.289L272.683 213.704H272.682C270.876 213.704 269.144 214.418 267.866 215.69C266.589 216.962 265.871 218.687 265.871 220.485V220.706L283.371 220.706L283.371 213.704Z" fill="#2F2E41"/>
<path d="M306.072 215.468L300.644 215.468L298.062 194.625L306.073 194.625L306.072 215.468Z" fill="#FFB8B8"/>
<path d="M307.453 213.704L305.926 213.704L299.962 211.289L296.765 213.704H296.765C294.958 213.704 293.226 214.418 291.948 215.69C290.671 216.962 289.953 218.687 289.953 220.485V220.706L307.453 220.706L307.453 213.704Z" fill="#2F2E41"/>
<path d="M314.347 125.69C314.347 125.69 314.98 133.262 313.396 140.518C311.812 147.774 311.812 168.211 311.812 168.211L308.326 208.033L297.87 207.087L295.018 140.518L284.878 162.918L285.829 166.073L284.562 166.862C284.562 166.862 285.512 173.014 284.878 173.014C284.244 173.014 282.66 173.96 282.66 173.96L283.927 206.456L273.154 206.14L269.352 160.394L273.471 134.208L273.788 129.16L275.214 129.219L275.94 127.11L277.273 123.481L314.347 125.69Z" fill="#2F2E41"/>
<path d="M314.894 127.28L314.95 127.201C317.966 122.997 313.43 112.894 312.746 111.43L315.628 110.499L314.979 105.007L314.671 102.558L316.874 100.365L316.88 100.311L318.147 89.2684L319.99 81.9343C320.685 79.1617 320.626 76.2551 319.819 73.5128C319.012 70.7705 317.487 68.2914 315.4 66.3299L311.141 62.3309L305.964 54.7041H297.615L294.753 60.0875C291.977 60.7261 289.515 62.3139 287.795 64.5742C286.075 66.8345 285.205 69.6241 285.338 72.457L285.987 86.5761L283.447 104.156L283.445 107.337L280.587 110.5L281.211 113.607L279.036 114.535L278.076 118.997C277.678 119.519 275.055 123.003 275.055 123.955C275.055 124.098 275.161 124.236 275.388 124.389C277.176 125.595 287.058 128.052 291.432 126.31C296.091 124.455 314.611 127.237 314.798 127.266L314.894 127.28Z" fill="#3F3D56"/>
<path d="M242.293 220.578C242.293 220.69 242.337 220.797 242.416 220.876C242.495 220.955 242.602 221 242.714 221H342.445C342.557 221 342.664 220.955 342.744 220.876C342.823 220.797 342.868 220.69 342.868 220.578C342.868 220.467 342.823 220.359 342.744 220.28C342.664 220.201 342.557 220.157 342.445 220.157H242.716C242.604 220.156 242.497 220.2 242.418 220.279C242.338 220.358 242.293 220.464 242.293 220.576V220.578Z" fill="#CCCCCC"/>
<path d="M300.709 52.242C306.815 52.242 311.765 47.3133 311.765 41.2335C311.765 35.1537 306.815 30.2251 300.709 30.2251C294.602 30.2251 289.652 35.1537 289.652 41.2335C289.652 47.3133 294.602 52.242 300.709 52.242Z" fill="#FFB8B8"/>
<path d="M299.65 52.4203C301.362 52.4029 303.07 52.2399 304.754 51.9331C306.422 51.5506 310.101 48.7179 311.104 47.0445C311.849 45.8011 312.296 43.878 312.54 42.4837C312.869 40.6384 312.806 38.7449 312.353 36.9256C311.901 35.1063 311.07 33.4019 309.914 31.9227C309.469 31.303 308.863 30.8148 308.162 30.5096C308.1 30.4873 308.036 30.4677 307.972 30.4512C306.955 30.2127 306.033 29.6769 305.324 28.9129C305.187 28.7582 305.038 28.6136 304.88 28.4802C304.085 27.8464 303.15 27.4089 302.153 27.2036C300.542 26.8183 298.237 27.3011 295.302 28.6398C293.828 29.3124 292.192 29.1247 290.931 28.8861C290.86 28.8744 290.788 28.8813 290.721 28.9062C290.653 28.931 290.594 28.973 290.548 29.0278C290.027 29.5403 289.331 29.8375 288.6 29.8598C288.152 29.891 287.698 30.521 287.15 31.3415C287.026 31.5277 286.881 31.7451 286.776 31.8777L286.755 31.6286L286.508 31.9135C286.121 32.3611 285.854 32.8991 285.732 33.4772C285.609 34.0553 285.636 34.6549 285.809 35.2199C285.982 35.785 286.296 36.2973 286.722 36.709C287.148 37.1208 287.671 37.4186 288.243 37.5748C288.697 37.6826 289.161 37.744 289.627 37.7581C289.91 37.7761 290.203 37.7947 290.484 37.8359C291.386 37.9958 292.232 38.3861 292.938 38.9685C293.643 39.5509 294.186 40.3056 294.511 41.1589C294.588 41.3561 294.709 41.533 294.866 41.6761C295.022 41.8192 295.209 41.9246 295.413 41.9842C295.617 42.0437 295.832 42.0558 296.041 42.0196C296.25 41.9833 296.449 41.8997 296.62 41.7751C296.906 41.5417 297.244 41.3805 297.605 41.3053C297.967 41.23 298.342 41.243 298.697 41.3431C299.006 41.504 299.25 41.7658 299.389 42.0847C299.556 42.4396 299.825 42.7369 300.163 42.9386C301.314 43.4926 301.459 46.074 301.107 48.238C300.768 50.324 300.029 51.8457 299.311 51.9384C298.759 52.0098 298.696 52.0506 298.659 52.1492L298.625 52.2375L298.69 52.3176C298.999 52.4202 299.326 52.4552 299.65 52.4203Z" fill="#2F2E41"/>
<path d="M178.141 109.163C190.283 109.163 200.126 99.3624 200.126 87.2732C200.126 75.184 190.283 65.3838 178.141 65.3838C165.999 65.3838 156.156 75.184 156.156 87.2732C156.156 99.3624 165.999 109.163 178.141 109.163Z" fill="#2563EB"/>
<path d="M297.106 84.0156L289.854 79.3979C285.236 82.5782 278.996 93.7819 278.996 93.7819L263.201 108.311C262.543 108.423 261.926 108.706 261.413 109.131C260.9 109.556 260.508 110.109 260.277 110.732C260.046 111.356 259.985 112.029 260.098 112.684C260.212 113.339 260.497 113.953 260.925 114.464C261.352 114.974 261.907 115.363 262.534 115.592C263.161 115.821 263.837 115.882 264.495 115.768C265.153 115.654 265.769 115.37 266.281 114.943C266.793 114.517 267.184 113.964 267.413 113.339L289.426 98.0708L297.106 84.0156Z" fill="#FFB8B8"/>
<path d="M296.411 85.8895L301.241 74.3479L299.494 67.9696C299.147 66.7187 298.455 65.5895 297.496 64.7096C296.538 63.8297 295.352 63.2343 294.071 62.9905C292.334 62.6716 290.539 63.0217 289.051 63.9699C287.562 64.9181 286.491 66.3937 286.053 68.0983C284.73 73.2691 283.714 79.9912 286.386 82.6515L286.413 82.6784L296.411 85.8895Z" fill="#3F3D56"/>
<path d="M15.1438 214.321C5.68935 209.49 -1.17003 200.153 0.264062 190.175C8.65422 197.389 20.2546 201.636 32.3606 201.925C37.0757 202.038 42.3703 201.727 45.712 204.469C47.7913 206.175 48.6699 208.808 48.7089 211.405C48.7477 214.002 48.0327 216.607 47.3223 219.177L47.4937 219.797C36.201 220.156 24.5982 219.153 15.1438 214.321Z" fill="#F2F2F2"/>
<path d="M0.499681 190.158C3.98241 197.487 10.2274 203.701 18.1143 207.473C19.841 208.342 21.6898 208.947 23.5979 209.266C25.5431 209.531 27.5236 209.337 29.3794 208.699C31.1376 208.133 32.877 207.378 34.7286 207.19C35.6353 207.093 36.5523 207.179 37.4247 207.443C38.2972 207.707 39.1073 208.144 39.8064 208.727C41.4681 210.099 42.4261 211.957 43.289 213.807C44.2471 215.861 45.2042 218.011 47.1624 219.452C47.3996 219.626 47.0507 219.963 46.8138 219.789C43.4069 217.281 43.0423 212.93 40.3669 209.94C39.1185 208.544 37.3572 207.505 35.2005 207.595C33.3145 207.674 31.5202 208.451 29.7445 209.037C27.9374 209.683 26.0123 209.935 24.099 209.778C22.1724 209.547 20.2957 209.009 18.5415 208.182C14.725 206.457 11.2155 204.126 8.15006 201.281C4.7623 198.171 2.0025 194.446 0.0191437 190.305C-0.10116 190.052 0.38016 189.906 0.499681 190.158Z" fill="white"/>
<path d="M15.4682 206.372C13.3956 208.725 9.7478 209.521 6.94985 208.243C6.67421 208.118 6.91532 207.717 7.19132 207.843C8.5302 208.412 10.0144 208.548 11.4353 208.233C12.8561 207.919 14.1421 207.168 15.1123 206.088C15.3162 205.856 15.6709 206.141 15.4682 206.372Z" fill="white"/>
<path d="M28.5224 209.087C28.3813 207.673 27.9409 206.304 27.2303 205.071C26.5196 203.838 25.5547 202.769 24.3991 201.934C24.1626 201.758 24.5114 201.422 24.7476 201.597C25.9483 202.468 26.9498 203.583 27.6863 204.867C28.4228 206.152 28.8775 207.577 29.0205 209.05C29.0459 209.33 28.5477 209.366 28.5224 209.087Z" fill="white"/>
<path d="M5.34022 197.883C5.81305 197.545 6.19115 197.091 6.43867 196.566C6.68619 196.041 6.79492 195.462 6.75454 194.884C6.72505 194.604 7.22331 194.568 7.2526 194.846C7.29432 195.485 7.17357 196.125 6.90152 196.705C6.62947 197.285 6.21489 197.788 5.69608 198.167C5.649 198.21 5.58858 198.236 5.52463 198.241C5.46069 198.246 5.39699 198.229 5.34389 198.193C5.32095 198.175 5.30242 198.151 5.28957 198.124C5.27673 198.098 5.26989 198.069 5.26955 198.039C5.2692 198.01 5.27534 197.98 5.28755 197.953C5.29976 197.926 5.31773 197.902 5.34022 197.883Z" fill="white"/>
<path d="M32.6054 170.003C32.6295 170.177 32.6535 170.351 32.6813 170.527C33.0182 172.859 33.5732 175.154 34.3392 177.384C34.3953 177.557 34.4551 177.732 34.5167 177.903C36.4614 183.303 39.5229 188.237 43.5032 192.385C45.1245 194.079 46.8819 195.64 48.7577 197.05C51.3724 199.019 54.4008 200.957 56.0126 203.55C56.1838 203.817 56.3358 204.096 56.4675 204.385L48.3524 219.507C48.3151 219.535 48.2814 219.564 48.2441 219.591L47.9502 220.206C47.8463 220.139 47.7402 220.067 47.6362 220C47.5757 219.962 47.517 219.919 47.4565 219.881C47.4167 219.854 47.377 219.827 47.3392 219.805C47.3259 219.796 47.3127 219.787 47.3032 219.779C47.2654 219.757 47.2333 219.733 47.1992 219.712C46.6051 219.313 46.0135 218.909 45.4243 218.501C45.4205 218.499 45.4205 218.499 45.4186 218.495C40.9392 215.372 36.7442 211.871 33.3333 207.877C33.2307 207.757 33.1242 207.636 33.0254 207.508C31.5098 205.714 30.1628 203.785 29.0011 201.746C28.3755 200.637 27.8148 199.493 27.3219 198.319C26.0576 195.288 25.3543 192.055 25.2459 188.775C25.0239 182.204 27.1934 175.485 32.2175 170.39C32.3461 170.259 32.473 170.132 32.6054 170.003Z" fill="#F2F2F2"/>
<path d="M32.7966 170.114C30.4142 178.158 30.8738 186.734 34.2386 194.126C34.9351 195.766 35.9187 197.27 37.1435 198.567C38.459 199.846 40.0975 200.747 41.8855 201.174C43.5964 201.635 45.4219 201.927 46.9446 202.757C47.6919 203.159 48.333 203.732 48.8153 204.428C49.2976 205.125 49.6075 205.925 49.7197 206.763C50.0336 208.809 49.4867 210.887 48.8732 212.909C48.192 215.154 47.4449 217.478 47.9356 219.739C47.995 220.013 47.5024 220.111 47.443 219.837C46.5893 215.903 49.2859 212.038 49.3135 208.086C49.3263 206.242 48.7093 204.425 47.0234 203.35C45.5492 202.41 43.6672 202.108 41.9292 201.655C40.1713 201.257 38.538 200.437 37.1718 199.266C35.8739 198.037 34.8231 196.573 34.0755 194.953C32.3574 191.381 31.3028 187.529 30.9625 183.583C30.5492 179.004 31.0146 174.388 32.3339 169.982C32.4162 169.705 32.8784 169.838 32.7966 170.114Z" fill="white"/>
<path d="M32.9957 191.784C29.8274 192.664 26.5366 191.388 25.3017 188.817C25.1801 188.563 25.6351 188.354 25.7569 188.608C26.9137 191.017 29.9597 192.177 32.9214 191.355C33.2331 191.268 33.3056 191.698 32.9957 191.784Z" fill="white"/>
<path d="M40.9755 201.044C41.8171 199.863 42.4088 198.524 42.7147 197.108C43.0207 195.692 43.0345 194.229 42.7552 192.807C42.6969 192.533 43.1895 192.435 43.2478 192.709C43.5351 194.189 43.5174 195.712 43.1957 197.185C42.8739 198.658 42.2549 200.051 41.3762 201.278C41.2038 201.529 40.804 201.293 40.9755 201.044Z" fill="white"/>
<path d="M31.1671 179.218C31.7853 179.168 32.3848 178.983 32.923 178.676C33.4611 178.369 33.9247 177.947 34.2807 177.442C34.4496 177.19 34.8493 177.426 34.6815 177.676C34.2859 178.233 33.7733 178.698 33.1793 179.038C32.5853 179.379 31.924 179.586 31.2414 179.647C31.1059 179.659 30.9814 179.607 30.958 179.481C30.9525 179.419 30.971 179.357 31.0099 179.308C31.0488 179.259 31.105 179.227 31.1671 179.218Z" fill="white"/>
<path d="M61.207 94.2148L61.9193 100.792L61.5002 109.416L80.6858 107.146L82.4887 94.2148L80.1916 94.2372L61.207 94.2148Z" fill="#FFB6B6"/>
<path d="M51.2578 213.621H55.4524L57.4488 197.512H51.2578V213.621Z" fill="#FFB6B6"/>
<path d="M49.888 210.76L56.5893 210.362V213.221L62.9604 217.602C63.2751 217.818 63.5121 218.129 63.6368 218.489C63.7615 218.849 63.7674 219.239 63.6536 219.602C63.5398 219.966 63.3123 220.284 63.0042 220.509C62.6962 220.735 62.3238 220.857 61.9413 220.857H53.9632L52.588 218.029L52.0511 220.857H49.043L49.888 210.76Z" fill="#2F2E41"/>
<path d="M74.8164 213.621H79.011L81.007 197.512H74.8164V213.621Z" fill="#FFB6B6"/>
<path d="M73.4505 210.76L80.1518 210.362V213.221L86.523 217.602C86.8377 217.818 87.0747 218.129 87.1994 218.489C87.3241 218.849 87.33 219.239 87.2162 219.602C87.1023 219.966 86.8748 220.284 86.5668 220.509C86.2587 220.735 85.8863 220.857 85.5039 220.857H77.5257L76.1505 218.029L75.6136 220.857H72.6055L73.4505 210.76Z" fill="#2F2E41"/>
<path d="M49.4464 199.729H49.492L50.2987 173.536C49.7767 172.534 49.5118 171.418 49.5275 170.289C49.5433 169.16 49.8392 168.052 50.389 167.064L50.5045 166.856L50.205 165.474C49.8204 163.698 49.9969 161.848 50.7103 160.176L51.4629 135.743C48.7743 118.394 61.5875 107.08 61.5875 107.08H80.7819L84.9027 121.176C87.6269 147.602 87.1326 173.354 82.8096 198.302L82.9275 198.362C83.3518 198.508 83.5338 199.093 83.3341 199.669C83.1344 200.245 82.6284 200.594 82.2041 200.448L72.0672 200.097C71.6429 199.951 71.4608 199.366 71.6606 198.79C71.8603 198.214 72.3663 197.865 72.7906 198.011L73.4799 198.358L72.01 173.083L72.1731 168.466L71.837 163.229L70.2832 139.671L64.4019 168.641L58.3944 200.02C58.5601 200.17 58.6764 200.366 58.728 200.582C58.7795 200.799 58.7639 201.026 58.6832 201.233C58.6025 201.441 58.4605 201.619 58.2759 201.745C58.0913 201.87 57.8728 201.937 57.6492 201.936H49.4464C49.3007 201.937 49.1563 201.908 49.0216 201.853C48.8869 201.798 48.7645 201.716 48.6613 201.614C48.5582 201.511 48.4763 201.39 48.4205 201.255C48.3647 201.121 48.3359 200.978 48.3359 200.833C48.3359 200.688 48.3647 200.544 48.4205 200.41C48.4763 200.276 48.5582 200.154 48.6613 200.052C48.7645 199.949 48.8869 199.868 49.0216 199.812C49.1563 199.757 49.3007 199.729 49.4464 199.729Z" fill="#2F2E41"/>
<path d="M64.557 60.5599C70.243 60.5599 74.8524 55.9705 74.8524 50.3093C74.8524 44.648 70.243 40.0586 64.557 40.0586C58.8711 40.0586 54.2617 44.648 54.2617 50.3093C54.2617 55.9705 58.8711 60.5599 64.557 60.5599Z" fill="#FFB6B6"/>
<path d="M19.4436 97.6669C20.8905 94.3224 22.8775 91.2362 25.3257 88.5307C23.2526 91.8203 22.0678 95.5873 21.886 99.4667C22.6366 99.9335 23.4219 100.342 24.2351 100.69C26.679 101.711 29.2848 102.293 31.9323 102.412C33.3592 97.6782 35.8222 93.3185 39.1439 89.6462C36.75 93.4472 35.5462 97.8715 35.6856 102.356C38.6386 102.102 41.5481 101.481 44.3463 100.508C48.5478 99.0688 52.626 96.9195 55.5316 93.5766C58.6762 89.9586 60.2261 85.1841 60.7265 80.4244C61.227 75.6685 60.7564 70.868 60.2821 66.1083C60.058 63.8401 61.9552 61.2297 61.7311 58.9615H61.5817C60.5846 57.6005 59.5688 56.2061 59.0795 54.5923C58.594 52.9822 58.721 51.082 59.8377 49.814C60.4633 49.1515 61.2528 48.6642 62.127 48.401C62.2092 48.2969 62.2988 48.1965 62.3922 48.0961C64.0832 46.3077 66.0735 44.8255 68.2743 43.7157C66.687 44.9094 65.6264 46.2592 65.1334 47.6536C66.5078 47.3524 67.8821 47.0524 69.2565 46.7537C69.7158 46.2686 70.1994 45.8069 70.7055 45.3705C71.4413 44.7346 71.684 44.6863 72.5617 44.0876C71.8531 44.7082 71.3038 45.4884 70.9595 46.3633C72.726 45.9208 74.4925 45.2552 75.4112 43.7418C76.935 41.2392 75.1236 37.8629 72.5953 36.368C70.7561 35.3336 68.6369 34.9009 66.5372 35.1311C64.4375 35.3613 62.4636 36.2428 60.8946 37.6509C57.2383 34.9699 52.0322 35.0145 47.9652 37.0188C45.2802 38.4011 42.9673 40.4044 41.2204 42.8605C42.2337 42.731 43.2537 42.6602 44.2753 42.6485C42.8373 42.8581 41.4679 43.3978 40.2755 44.2252C39.748 45.0407 39.2643 45.8835 38.8264 46.75C38.5389 47.3189 38.2675 47.8953 38.0123 48.4791C36.4475 52.0265 35.4279 55.8045 34.371 59.5378C33.1386 63.8884 31.8165 68.2687 29.5085 72.162C25.9697 78.0819 20.3873 82.5165 13.8042 84.6374C13.2552 89.557 15.6678 94.3687 19.4436 97.6669Z" fill="#2F2E41"/>
<path d="M74.9258 67.4149L72.9277 66.6678L70.408 62.6113L61.4329 63.3415L59.2514 67.6911L53.9961 71.6869L56.2943 83.7383L59.8649 98.377L83.7667 95.4022L83.7415 84.3825C83.7415 84.3825 88.0606 75.6762 81.0837 72.4138L74.9258 67.4149Z" fill="#2563EB"/>
<path d="M111.769 105.64C111.305 105.825 110.806 105.907 110.306 105.88C109.807 105.852 109.32 105.716 108.879 105.481C108.439 105.246 108.055 104.917 107.756 104.519C107.456 104.12 107.248 103.661 107.146 103.173L80.4961 87.1174L85.3673 81.5215L110.032 99.0637C110.866 98.9476 111.713 99.1399 112.414 99.6044C113.115 100.069 113.62 100.773 113.834 101.584C114.048 102.394 113.956 103.255 113.575 104.002C113.195 104.75 112.552 105.332 111.769 105.64Z" fill="#FFB6B6"/>
<path d="M71.6138 79.5032C71.6138 79.5032 70.3402 80.7791 73.536 82.8771C76.0944 84.5567 87.5061 92.8567 91.5514 94.1695C91.5007 94.7612 91.6492 95.3527 91.9735 95.8511C92.2977 96.3494 92.7792 96.7262 93.3422 96.922L97.0049 88.908C96.2121 87.0759 94.9439 87.5001 94.2767 87.9155L89.853 84.6031L78.9904 73.8032L72.518 78.5647L71.6138 79.5032Z" fill="#2563EB"/>
<path d="M60.9607 37.9297C59.7233 39.7478 58.9239 41.8257 58.6247 44.0017C58.3255 46.1776 58.5346 48.393 59.2358 50.4753" fill="#FD6584"/>
<path d="M8.72656 220.578C8.7264 220.634 8.73724 220.689 8.75846 220.74C8.77968 220.791 8.81087 220.838 8.85022 220.877C8.88957 220.916 8.93631 220.947 8.98776 220.968C9.03921 220.989 9.09434 221 9.14999 221H108.878C108.99 221 109.098 220.955 109.177 220.876C109.257 220.797 109.301 220.69 109.301 220.578C109.301 220.467 109.257 220.359 109.177 220.28C109.098 220.201 108.99 220.157 108.878 220.157H9.14999C9.09434 220.157 9.03921 220.167 8.98777 220.188C8.93632 220.21 8.88957 220.241 8.85022 220.28C8.81087 220.319 8.77968 220.366 8.75846 220.417C8.73724 220.468 8.7264 220.523 8.72656 220.578Z" fill="#CCCCCC"/>
<path d="M46.7231 124.76C46.4746 124.847 46.2709 125.029 46.1568 125.266C46.0427 125.502 46.0274 125.774 46.1143 126.022L60.0085 165.894C60.0961 166.141 60.2786 166.344 60.5161 166.458C60.7536 166.571 61.0266 166.586 61.2754 166.5L142.121 138.258C142.37 138.17 142.573 137.989 142.687 137.752C142.801 137.516 142.817 137.244 142.73 136.996L128.836 97.124C128.748 96.8765 128.565 96.6737 128.328 96.5601C128.09 96.4465 127.817 96.4313 127.569 96.5179L46.7231 124.76Z" fill="#E6E6E6"/>
<path d="M67.1862 160.745C65.5952 160.745 64.0433 160.254 62.7439 159.34C61.4445 158.426 60.4612 157.133 59.9292 155.64L52.2989 134.145C51.6193 132.231 51.7313 130.126 52.6104 128.294C53.4894 126.462 55.0634 125.052 56.9862 124.376L97.8464 109.997C105.495 107.314 113.9 107.763 121.217 111.243C128.535 114.723 134.167 120.951 136.877 128.561C137.557 130.475 137.445 132.58 136.566 134.412C135.687 136.245 134.113 137.654 132.19 138.331L69.7413 160.307C68.9207 160.597 68.0567 160.745 67.1862 160.745Z" fill="white"/>
<path d="M121.375 118.374L84.788 131.155C84.2725 131.335 83.6336 130.854 83.361 130.08C83.0884 129.307 83.2853 128.534 83.8008 128.353L120.387 115.572C120.903 115.392 121.542 115.874 121.814 116.647C122.087 117.421 121.89 118.195 121.375 118.374Z" fill="#E6E6E6"/>
<path d="M124.203 126.405L87.6161 139.186C87.1006 139.366 86.4617 138.885 86.1891 138.111C85.9165 137.337 86.1134 136.564 86.6289 136.384L123.216 123.603C123.731 123.423 124.37 123.904 124.642 124.678C124.915 125.452 124.718 126.225 124.203 126.405Z" fill="#E6E6E6"/>
<path d="M79.8356 135.524C80.2284 136.626 80.4193 137.79 80.3991 138.959C80.3913 139.494 80.3382 140.028 80.2403 140.554C79.9284 142.254 79.1712 143.842 78.0452 145.158C76.9192 146.473 75.4644 147.469 73.8278 148.045C72.1913 148.621 70.431 148.756 68.725 148.437C67.0189 148.119 65.4277 147.357 64.1121 146.23C63.9792 146.117 63.8499 146 63.7241 145.879C62.6496 144.854 61.8223 143.6 61.3042 142.211C60.786 140.822 60.5905 139.334 60.7324 137.859C60.8742 136.384 61.3496 134.96 62.1231 133.695C62.8965 132.429 63.9478 131.354 65.1981 130.55C66.4484 129.746 67.8652 129.235 69.3423 129.055C70.8193 128.874 72.3183 129.029 73.7267 129.507C75.1351 129.986 76.4164 130.776 77.4744 131.818C78.5324 132.86 79.3396 134.127 79.8356 135.524Z" fill="#E4E4E4"/>
<path d="M70.9544 140.293C71.9949 140.293 72.8384 139.453 72.8384 138.417C72.8384 137.381 71.9949 136.542 70.9544 136.542C69.9138 136.542 69.0703 137.381 69.0703 138.417C69.0703 139.453 69.9138 140.293 70.9544 140.293Z" fill="#FD6584"/>
<path d="M63.7227 145.88C64.2064 144.762 64.778 143.057 66.1023 143.678C66.7565 143.96 67.9281 144.818 68.4039 143.82L72.129 136.056C72.1996 135.911 72.2985 135.782 72.4201 135.676C72.5416 135.57 72.6832 135.489 72.8365 135.438C72.9899 135.387 73.1519 135.367 73.3131 135.38C73.4743 135.392 73.6314 135.436 73.7751 135.51L80.3977 138.96C80.3899 139.495 80.3368 140.028 80.2389 140.554L64.1107 146.23L63.7227 145.88Z" fill="#3F3D56"/>
<path d="M65.6473 122.951C65.1813 122.771 64.7606 122.491 64.4151 122.131C64.0695 121.771 63.8073 121.341 63.647 120.869C63.4868 120.397 63.4323 119.897 63.4874 119.402C63.5426 118.907 63.706 118.43 63.9662 118.005L55.5352 88.1485L62.9324 87.3789L68.8938 116.969C69.582 117.452 70.0686 118.169 70.2613 118.985C70.4539 119.801 70.3393 120.659 69.9391 121.396C69.5389 122.133 68.881 122.699 68.09 122.985C67.299 123.272 66.4298 123.26 65.6473 122.951Z" fill="#FFB6B6"/>
<path d="M54.2858 71.7587C54.2858 71.7587 52.4803 71.8233 53.3728 75.5296C54.0873 78.4967 56.7113 97.11 58.7629 100.821C58.3198 101.219 58.022 101.752 57.9166 102.336C57.8112 102.92 57.904 103.523 58.1805 104.049L66.3556 100.692C67.0346 98.8151 66.5088 97.111 65.7366 96.9601L64.7815 91.5318L63.3739 73.3213L55.5901 71.689L54.2858 71.7587Z" fill="#2563EB"/>
<path d="M127.933 150.316L116.627 150.782C116.385 150.792 116.145 150.748 115.923 150.653C115.701 150.558 115.503 150.413 115.345 150.231C115.189 150.054 115.076 149.843 115.013 149.616C114.95 149.388 114.94 149.15 114.983 148.918C115.851 144.207 115.598 139.36 114.245 134.764C114.141 134.413 114.162 134.036 114.305 133.699C114.448 133.361 114.705 133.083 115.031 132.913C119.662 130.517 124.001 130.396 127.927 132.551C128.133 132.663 128.312 132.817 128.451 133.004C128.591 133.192 128.688 133.407 128.735 133.635C129.757 138.65 130.002 143.791 129.462 148.88C129.424 149.263 129.249 149.619 128.968 149.883C128.687 150.147 128.319 150.301 127.933 150.316Z" fill="#2563EB"/>
<path d="M127.452 142.948L118.807 143.305C118.7 143.309 118.594 143.293 118.494 143.256C118.394 143.22 118.302 143.164 118.223 143.092C118.145 143.02 118.081 142.934 118.036 142.837C117.991 142.741 117.966 142.637 117.962 142.531C117.957 142.425 117.974 142.319 118.011 142.219C118.047 142.119 118.103 142.028 118.176 141.95C118.248 141.872 118.335 141.808 118.432 141.764C118.528 141.719 118.633 141.694 118.74 141.69L127.385 141.333C127.491 141.329 127.597 141.345 127.697 141.382C127.797 141.418 127.889 141.474 127.968 141.546C128.046 141.618 128.11 141.704 128.154 141.801C128.199 141.897 128.225 142.001 128.229 142.107C128.233 142.213 128.217 142.319 128.18 142.419C128.143 142.518 128.087 142.61 128.015 142.688C127.943 142.766 127.856 142.829 127.759 142.874C127.663 142.918 127.558 142.944 127.452 142.948Z" fill="white"/>
<path d="M127.334 140.116L118.689 140.472C118.474 140.481 118.264 140.405 118.106 140.26C117.947 140.115 117.853 139.913 117.844 139.699C117.836 139.484 117.912 139.275 118.058 139.118C118.204 138.96 118.407 138.867 118.622 138.858L127.267 138.501C127.482 138.492 127.692 138.569 127.85 138.714C128.008 138.859 128.102 139.061 128.111 139.275C128.12 139.489 128.043 139.698 127.897 139.856C127.752 140.014 127.549 140.107 127.334 140.116Z" fill="white"/>
<path d="M334.711 62.2562L323.491 60.791C323.251 60.7602 323.021 60.6758 322.819 60.544C322.617 60.4122 322.447 60.2365 322.323 60.0301C322.199 59.8287 322.124 59.6022 322.101 59.3674C322.078 59.1327 322.109 58.8958 322.192 58.6747C323.855 54.1812 324.439 49.3621 323.894 44.6038C323.852 44.2397 323.938 43.8722 324.137 43.5639C324.336 43.2556 324.636 43.0256 324.986 42.9132C329.961 41.3412 334.257 41.9601 337.755 44.7523C337.939 44.897 338.088 45.0798 338.194 45.288C338.299 45.4963 338.358 45.7249 338.365 45.9579C338.511 51.0729 337.87 56.18 336.463 61.1018C336.361 61.4727 336.127 61.794 335.804 62.0063C335.482 62.2185 335.094 62.3073 334.711 62.2562Z" fill="#2563EB"/>
<path d="M335.504 54.9157L326.925 53.7954C326.819 53.7816 326.717 53.7472 326.625 53.6942C326.533 53.6411 326.452 53.5705 326.387 53.4864C326.322 53.4022 326.274 53.3062 326.247 53.2037C326.219 53.1012 326.212 52.9943 326.226 52.889C326.24 52.7838 326.274 52.6824 326.327 52.5904C326.381 52.4985 326.451 52.4179 326.536 52.3533C326.62 52.2886 326.717 52.2412 326.82 52.2137C326.923 52.1862 327.03 52.1791 327.136 52.1929L335.715 53.3132C335.928 53.3411 336.122 53.4522 336.253 53.6222C336.384 53.7922 336.442 54.007 336.414 54.2195C336.386 54.432 336.274 54.6248 336.104 54.7553C335.933 54.8859 335.717 54.9435 335.504 54.9157Z" fill="white"/>
<path d="M335.872 52.1053L327.294 50.985C327.188 50.9714 327.086 50.9372 326.993 50.8842C326.901 50.8313 326.819 50.7607 326.754 50.6765C326.689 50.5923 326.642 50.4961 326.614 50.3935C326.586 50.2909 326.579 50.1839 326.593 50.0785C326.607 49.9731 326.641 49.8716 326.695 49.7795C326.748 49.6875 326.819 49.6069 326.904 49.5422C326.988 49.4776 327.085 49.4302 327.188 49.4028C327.291 49.3754 327.399 49.3685 327.505 49.3826L336.083 50.5028C336.189 50.5165 336.291 50.5507 336.384 50.6037C336.476 50.6566 336.558 50.7272 336.623 50.8114C336.688 50.8956 336.735 50.9918 336.763 51.0944C336.791 51.197 336.798 51.304 336.784 51.4094C336.77 51.5147 336.736 51.6163 336.682 51.7083C336.629 51.8004 336.558 51.881 336.473 51.9457C336.389 52.0103 336.292 52.0577 336.189 52.0851C336.086 52.1125 335.978 52.1194 335.872 52.1053Z" fill="white"/>
<path d="M185.257 83.908H181.521V80.1882C181.521 79.2956 181.165 78.4396 180.531 77.8085C179.897 77.1773 179.037 76.8228 178.141 76.8228C177.244 76.8228 176.385 77.1773 175.751 77.8085C175.117 78.4396 174.761 79.2956 174.761 80.1882V83.908H171.025C170.128 83.908 169.268 84.2625 168.635 84.8937C168.001 85.5248 167.645 86.3808 167.645 87.2734C167.645 88.166 168.001 89.022 168.635 89.6532C169.268 90.2843 170.128 90.6389 171.025 90.6389H174.761V94.3586C174.761 95.2512 175.117 96.1072 175.751 96.7384C176.385 97.3695 177.244 97.7241 178.141 97.7241C179.037 97.7241 179.897 97.3695 180.531 96.7384C181.165 96.1072 181.521 95.2512 181.521 94.3586V90.6389H185.257C186.153 90.6389 187.013 90.2843 187.647 89.6532C188.281 89.022 188.637 88.166 188.637 87.2734C188.637 86.3808 188.281 85.5248 187.647 84.8937C187.013 84.2625 186.153 83.908 185.257 83.908Z" fill="white"/>
<path d="M306.242 15.0684C308.209 15.0684 309.804 13.4805 309.804 11.5218C309.804 9.56299 308.209 7.9751 306.242 7.9751C304.275 7.9751 302.68 9.56299 302.68 11.5218C302.68 13.4805 304.275 15.0684 306.242 15.0684Z" fill="#3F3D56"/>
<path d="M87.4254 115.324C89.3927 115.324 90.9875 113.736 90.9875 111.777C90.9875 109.818 89.3927 108.23 87.4254 108.23C85.4581 108.23 83.8633 109.818 83.8633 111.777C83.8633 113.736 85.4581 115.324 87.4254 115.324Z" fill="#3F3D56"/>
</g>
<defs>
<clipPath id="clip0_4089_1885">
<rect width="352" height="221" fill="white"/>
</clipPath>
</defs>
</svg>
