<svg width="55" height="20" viewBox="0 0 55 20" fill="none" xmlns="http://www.w3.org/2000/svg">
<path d="M13.685 0H6.35526C2.84535 0 0 2.83963 0 6.34249V13.6575C0 17.1604 2.84535 20 6.35526 20H13.685C17.1949 20 20.0403 17.1604 20.0403 13.6575V6.34249C20.0403 2.83963 17.1949 0 13.685 0Z" fill="#2563EB"/>
<mask id="mask0_3032_10064" style="mask-type:luminance" maskUnits="userSpaceOnUse" x="2" y="3" width="15" height="14">
<path d="M16.8316 3.27686H2.98828V16.341H16.8316V3.27686Z" fill="white"/>
</mask>
<g mask="url(#mask0_3032_10064)">
<path d="M14.1869 9.49025C14.1776 9.47903 14.1704 9.46997 14.1625 9.46059C14.1034 9.38662 14.0255 9.27114 13.9576 9.09888C13.8015 8.74773 13.6456 8.39662 13.4898 8.04517C13.4582 7.95122 13.4219 7.8551 13.3794 7.75677C13.1578 7.2452 12.8493 6.85976 12.5702 6.58261L9.68555 3.70493C9.63767 3.66309 9.199 3.28858 8.59196 3.41153C7.9768 3.53639 7.72024 4.06477 7.69458 4.12034L7.03686 3.4643C6.98052 3.42901 6.52587 3.15374 5.98052 3.34348C5.42571 3.53701 5.24423 4.04825 5.22389 4.10878C4.7339 3.92809 4.18257 4.0676 3.84683 4.45463C3.49137 4.86503 3.44851 5.47179 3.74701 5.93839C3.67661 5.9668 3.22009 6.16096 3.04799 6.66689C2.83272 7.30048 3.26702 7.82544 3.28987 7.85134C4.28489 8.85073 5.2796 9.85045 6.27496 10.8495C6.06435 10.8636 5.85441 10.8773 5.64381 10.8914C5.11972 11.0321 4.73422 11.4541 4.67727 11.9397C4.60405 12.5586 5.07498 13.1951 5.79118 13.3236C6.87007 13.3864 7.94926 13.4494 9.02845 13.5122C9.11358 13.5062 9.20462 13.5056 9.30163 13.5122C9.56166 13.5303 9.78881 13.5983 9.97748 13.681C9.674 14.1642 9.7331 14.8093 10.1546 15.23L10.9009 15.9744C11.3912 16.4635 12.1863 16.4635 12.6769 15.9744L16.4639 12.1969C16.9542 11.7078 16.9542 10.9148 16.4639 10.4253L15.7177 9.68095C15.3021 9.26647 14.6685 9.2031 14.1866 9.49058L14.1869 9.49025ZM9.11919 12.9394C8.03565 12.8929 6.95206 12.8461 5.86848 12.7996C5.39256 12.7668 5.06996 12.3445 5.13253 11.9541C5.18384 11.6363 5.48581 11.3707 5.86128 11.3533C6.32594 11.3133 6.79092 11.2737 7.25588 11.234C6.10658 10.0598 4.95762 8.88569 3.80834 7.7115C3.49826 7.42656 3.43349 6.97745 3.62655 6.66343C3.85809 6.28516 4.42882 6.15908 4.85249 6.46058L4.24296 5.85257C3.99264 5.46837 4.07368 4.97521 4.39003 4.7274C4.64097 4.53044 5.01082 4.51204 5.31463 4.68559L5.94578 5.3151C5.56717 4.91217 5.59346 4.32509 5.91041 4.03577C6.13914 3.82726 6.50649 3.7845 6.83567 3.92371L8.14576 5.23053C7.92172 4.85163 7.9912 4.38596 8.27844 4.13314C8.52814 3.91403 8.91612 3.87753 9.18243 4.01421C9.24094 4.04449 9.28472 4.07853 9.3154 4.10536L12.2441 7.02676C12.3499 7.15192 12.4948 7.33916 12.6365 7.58576C12.7254 7.74024 12.7808 7.86132 12.8327 7.97683C12.9697 8.28143 13.1447 8.71748 13.2808 9.01148C13.4028 9.27397 13.457 9.41253 13.5752 9.5845C13.6519 9.69655 13.7251 9.78333 13.7789 9.84294C13.7814 9.84545 13.783 9.84762 13.7855 9.85012L10.3642 13.2628C10.3614 13.2606 10.3589 13.2593 10.3561 13.2571C10.2306 13.1719 10.0282 13.0568 9.75658 12.9884C9.49282 12.922 9.2666 12.9254 9.1189 12.9397L9.11919 12.9394ZM16.0068 10.7443C16.3375 11.0742 16.3375 11.6095 16.0068 11.9397L12.4359 15.5016C12.1052 15.8315 11.5686 15.8315 11.2376 15.5016L10.628 14.8936C10.2973 14.5637 10.2976 14.0287 10.628 13.6985L14.1989 10.1366C14.5296 9.80673 15.0659 9.80644 15.3969 10.1366L16.0065 10.7446L16.0068 10.7443Z" fill="white"/>
</g>
<path d="M23.0547 4.38354V2.14526H25.752V4.38354H23.0547ZM23.0547 16.3411V5.07457H25.752V16.3411H23.0547ZM26.8671 16.3411V3.12169H29.5193V14.0878H32.2468V16.3411H26.8671ZM36.1196 16.4613C35.3159 16.4613 34.6755 16.3111 34.1983 16.0106C33.7211 15.7101 33.3795 15.277 33.1736 14.7112C32.9676 14.1454 32.8646 13.4644 32.8646 12.6682V8.13905C32.8646 7.09252 33.166 6.30135 33.7688 5.76558C34.3716 5.22479 35.2004 4.95438 36.2552 4.95438C38.4251 4.95438 39.5099 6.01593 39.5099 8.13905V8.95775C39.5099 9.94923 39.5 10.6152 39.48 10.9557H35.562V13.1339C35.562 13.3342 35.5746 13.532 35.5997 13.7273C35.6248 13.9175 35.68 14.0752 35.7654 14.2004C35.8559 14.3256 35.999 14.3882 36.1949 14.3882C36.4762 14.3882 36.652 14.268 36.7223 14.0277C36.7926 13.7823 36.8278 13.4644 36.8278 13.0738V11.9922H39.5099V12.6307C39.5099 13.4719 39.4047 14.1779 39.1936 14.7487C38.9877 15.3146 38.6361 15.7427 38.1388 16.0331C37.6466 16.3186 36.9735 16.4613 36.1196 16.4613ZM35.547 9.61872H36.8278V8.10152C36.8278 7.6959 36.7776 7.40547 36.6771 7.23023C36.5767 7.04995 36.426 6.95982 36.2251 6.95982C36.0091 6.95982 35.8408 7.04494 35.7203 7.21522C35.6047 7.38545 35.547 7.68089 35.547 8.10152V9.61872ZM42.5466 16.4613C41.9187 16.4613 41.4388 16.3161 41.1073 16.0256C40.7809 15.7352 40.5576 15.3371 40.4369 14.8314C40.3162 14.3256 40.256 13.7523 40.256 13.1113C40.256 12.4253 40.3239 11.8645 40.4594 11.4289C40.5953 10.9882 40.826 10.6277 41.1527 10.3473C41.4842 10.0669 41.9386 9.82904 42.5163 9.63374L44.189 9.06293V7.90622C44.189 7.30034 43.9908 6.99739 43.5939 6.99739C43.2321 6.99739 43.0512 7.24274 43.0512 7.73348V8.40946H40.4295C40.4243 8.36939 40.4217 8.31934 40.4217 8.25924C40.4217 8.19414 40.4217 8.12154 40.4217 8.04142C40.4217 6.91978 40.6853 6.12611 41.2129 5.66044C41.7455 5.18972 42.5869 4.95438 43.7371 4.95438C44.3396 4.95438 44.8797 5.06203 45.357 5.27734C45.8339 5.48766 46.2109 5.80061 46.487 6.21623C46.7683 6.63186 46.9089 7.14511 46.9089 7.756V16.3411H44.2266V15.0041C44.096 15.4748 43.88 15.8353 43.5788 16.0857C43.2775 16.3361 42.9335 16.4613 42.5466 16.4613ZM43.609 14.3732C43.8298 14.3732 43.9808 14.2806 44.0609 14.0953C44.1414 13.91 44.1816 13.7097 44.1816 13.4944V10.3548C43.8099 10.505 43.5208 10.6953 43.3152 10.9257C43.1092 11.151 43.0062 11.4839 43.0062 11.9246V13.3742C43.0062 14.0402 43.207 14.3732 43.609 14.3732ZM47.9488 18.2188V5.07457H50.6913V6.27633C50.8571 5.8607 51.0856 5.53774 51.3768 5.30741C51.6733 5.07207 52.0952 4.95438 52.6427 4.95438C53.3813 4.95438 53.9011 5.22229 54.2023 5.75807C54.5087 6.29384 54.6619 6.99489 54.6619 7.86114V13.4043C54.6619 13.9801 54.5793 14.5009 54.4135 14.9666C54.2526 15.4273 53.9964 15.7928 53.6449 16.0632C53.2983 16.3286 52.8439 16.4613 52.2813 16.4613C51.5477 16.4613 51.018 16.0206 50.6913 15.1393V18.2188H47.9488ZM51.3318 14.3657C51.6131 14.3657 51.7814 14.2255 51.8368 13.9451C51.897 13.6647 51.9269 13.3191 51.9269 12.9086V8.50709C51.9269 8.09147 51.897 7.74599 51.8368 7.47057C51.7814 7.19015 51.6131 7.04995 51.3318 7.04995C51.0405 7.04995 50.8596 7.19266 50.7891 7.47808C50.7242 7.7585 50.6913 8.10152 50.6913 8.50709V12.9086C50.6913 13.3141 50.7242 13.6597 50.7891 13.9451C50.8596 14.2255 51.0405 14.3657 51.3318 14.3657Z" fill="white"/>
</svg>
