<svg width="24" height="24" viewBox="0 0 24 24" fill="none" xmlns="http://www.w3.org/2000/svg">
<path d="M10.0664 12.4929L3.88637 13.8109C3.64649 13.863 3.39576 13.8185 3.18841 13.6871C2.98106 13.5558 2.83376 13.348 2.77837 13.1089L2.24137 10.9589C2.17824 10.6999 2.21409 10.4266 2.3419 10.1926C2.46972 9.9586 2.68029 9.78076 2.93237 9.69391L16.4364 5.25391" stroke="#4A4A4A" stroke-width="2" stroke-linecap="round" stroke-linejoin="round"/>
<path d="M13.5586 11.7463L17.8906 10.8223" stroke="#4A4A4A" stroke-width="2" stroke-linecap="round" stroke-linejoin="round"/>
<path d="M15.9995 20.9991L12.8945 14.7891" stroke="#4A4A4A" stroke-width="2" stroke-linecap="round" stroke-linejoin="round"/>
<path d="M16.4854 5.93963C16.3569 5.42511 16.4379 4.88061 16.7108 4.42585C16.9837 3.97109 17.426 3.64333 17.9404 3.51463L19.0304 3.24263C19.2875 3.17849 19.5596 3.21903 19.7869 3.35534C20.0141 3.49165 20.178 3.71259 20.2424 3.96963L21.7574 10.0296C21.8219 10.2869 21.7815 10.5592 21.6451 10.7867C21.5088 11.0142 21.2877 11.1782 21.0304 11.2426L19.9404 11.5146C19.4259 11.6432 18.8814 11.5621 18.4267 11.2893C17.9719 11.0164 17.6441 10.5741 17.5154 10.0596L16.4854 5.93963Z" stroke="#4A4A4A" stroke-width="2" stroke-linecap="round" stroke-linejoin="round"/>
<path d="M6.15625 8.63281L7.27025 13.0888" stroke="#4A4A4A" stroke-width="2" stroke-linecap="round" stroke-linejoin="round"/>
<path d="M8 20.9991L11.105 14.7891" stroke="#4A4A4A" stroke-width="2" stroke-linecap="round" stroke-linejoin="round"/>
<path d="M12 15C13.1046 15 14 14.1046 14 13C14 11.8954 13.1046 11 12 11C10.8954 11 10 11.8954 10 13C10 14.1046 10.8954 15 12 15Z" stroke="#4A4A4A" stroke-width="2" stroke-linecap="round" stroke-linejoin="round"/>
</svg>
