<svg width="55" height="20" viewBox="0 0 55 20" fill="none" xmlns="http://www.w3.org/2000/svg">
<path d="M13.685 0H6.35526C2.84535 0 0 2.83963 0 6.34249V13.6575C0 17.1604 2.84535 20 6.35526 20H13.685C17.1949 20 20.0403 17.1604 20.0403 13.6575V6.34249C20.0403 2.83963 17.1949 0 13.685 0Z" fill="#2563EB"/>
<mask id="mask0_3032_6339" style="mask-type:luminance" maskUnits="userSpaceOnUse" x="2" y="3" width="15" height="14">
<path d="M16.8316 3.27734H2.98828V16.3415H16.8316V3.27734Z" fill="white"/>
</mask>
<g mask="url(#mask0_3032_6339)">
<path d="M14.1869 9.49123C14.1776 9.48 14.1704 9.47095 14.1625 9.46157C14.1034 9.3876 14.0255 9.27212 13.9576 9.09985C13.8015 8.7487 13.6456 8.39759 13.4898 8.04615C13.4582 7.9522 13.4219 7.85607 13.3794 7.75774C13.1578 7.24618 12.8493 6.86073 12.5702 6.58359L9.68555 3.70591C9.63767 3.66407 9.199 3.28955 8.59196 3.4125C7.9768 3.53737 7.72024 4.06575 7.69458 4.12131L7.03686 3.46527C6.98052 3.42998 6.52587 3.15472 5.98052 3.34446C5.42571 3.53799 5.24423 4.04922 5.22389 4.10976C4.7339 3.92907 4.18257 4.06858 3.84683 4.45561C3.49137 4.86601 3.44851 5.47277 3.74701 5.93936C3.67661 5.96777 3.22009 6.16193 3.04799 6.66786C2.83272 7.30146 3.26702 7.82641 3.28987 7.85232C4.28489 8.85171 5.2796 9.85143 6.27496 10.8505C6.06435 10.8645 5.85441 10.8783 5.64381 10.8923C5.11972 11.0331 4.73422 11.455 4.67727 11.9407C4.60405 12.5596 5.07498 13.196 5.79118 13.3246C6.87007 13.3874 7.94926 13.4504 9.02845 13.5131C9.11358 13.5072 9.20462 13.5066 9.30163 13.5131C9.56166 13.5312 9.78881 13.5993 9.97748 13.682C9.674 14.1651 9.7331 14.8103 10.1546 15.231L10.9009 15.9754C11.3912 16.4645 12.1863 16.4645 12.6769 15.9754L16.4639 12.1979C16.9542 11.7088 16.9542 10.9157 16.4639 10.4263L15.7177 9.68193C15.3021 9.26744 14.6685 9.20407 14.1866 9.49156L14.1869 9.49123ZM9.11919 12.9404C8.03565 12.8939 6.95206 12.8471 5.86848 12.8006C5.39256 12.7678 5.06996 12.3455 5.13253 11.955C5.18384 11.6373 5.48581 11.3717 5.86128 11.3542C6.32594 11.3143 6.79092 11.2746 7.25588 11.235C6.10658 10.0608 4.95762 8.88667 3.80834 7.71248C3.49826 7.42753 3.43349 6.97842 3.62655 6.6644C3.85809 6.28613 4.42882 6.16006 4.85249 6.46156L4.24296 5.85354C3.99264 5.46935 4.07368 4.97619 4.39003 4.72837C4.64097 4.53142 5.01082 4.51302 5.31463 4.68657L5.94578 5.31608C5.56717 4.91315 5.59346 4.32607 5.91041 4.03675C6.13914 3.82824 6.50649 3.78547 6.83567 3.92469L8.14576 5.23151C7.92172 4.85261 7.9912 4.38694 8.27844 4.13412C8.52814 3.91501 8.91612 3.8785 9.18243 4.01518C9.24094 4.04547 9.28472 4.07951 9.3154 4.10634L12.2441 7.02773C12.3499 7.15289 12.4948 7.34013 12.6365 7.58673C12.7254 7.74122 12.7808 7.86229 12.8327 7.97781C12.9697 8.28241 13.1447 8.71845 13.2808 9.01245C13.4028 9.27495 13.457 9.4135 13.5752 9.58547C13.6519 9.69753 13.7251 9.7843 13.7789 9.84392C13.7814 9.84642 13.783 9.84859 13.7855 9.8511L10.3642 13.2637C10.3614 13.2616 10.3589 13.2603 10.3561 13.2581C10.2306 13.1729 10.0282 13.0577 9.75658 12.9894C9.49282 12.9229 9.2666 12.9264 9.1189 12.9407L9.11919 12.9404ZM16.0068 10.7453C16.3375 11.0752 16.3375 11.6105 16.0068 11.9407L12.4359 15.5025C12.1052 15.8324 11.5686 15.8324 11.2376 15.5025L10.628 14.8946C10.2973 14.5646 10.2976 14.0297 10.628 13.6995L14.1989 10.1376C14.5296 9.80771 15.0659 9.80742 15.3969 10.1376L16.0065 10.7456L16.0068 10.7453Z" fill="white"/>
</g>
<path d="M23.0547 4.38378V2.14551H25.752V4.38378H23.0547ZM23.0547 16.3413V5.07482H25.752V16.3413H23.0547ZM26.8671 16.3413V3.12193H29.5193V14.088H32.2468V16.3413H26.8671ZM36.1196 16.4615C35.3159 16.4615 34.6755 16.3113 34.1983 16.0109C33.7211 15.7104 33.3795 15.2773 33.1736 14.7114C32.9676 14.1456 32.8646 13.4646 32.8646 12.6684V8.1393C32.8646 7.09277 33.166 6.3016 33.7688 5.76582C34.3716 5.22504 35.2004 4.95463 36.2552 4.95463C38.4251 4.95463 39.5099 6.01617 39.5099 8.1393V8.958C39.5099 9.94947 39.5 10.6154 39.48 10.9559H35.562V13.1341C35.562 13.3344 35.5746 13.5322 35.5997 13.7275C35.6248 13.9178 35.68 14.0755 35.7654 14.2007C35.8559 14.3259 35.999 14.3885 36.1949 14.3885C36.4762 14.3885 36.652 14.2683 36.7223 14.0279C36.7926 13.7826 36.8278 13.4646 36.8278 13.074V11.9924H39.5099V12.6309C39.5099 13.4721 39.4047 14.1782 39.1936 14.749C38.9877 15.3148 38.6361 15.743 38.1388 16.0334C37.6466 16.3188 36.9735 16.4615 36.1196 16.4615ZM35.547 9.61897H36.8278V8.10176C36.8278 7.69615 36.7776 7.40572 36.6771 7.23047C36.5767 7.05019 36.426 6.96006 36.2251 6.96006C36.0091 6.96006 35.8408 7.04518 35.7203 7.21546C35.6047 7.3857 35.547 7.68113 35.547 8.10176V9.61897ZM42.5466 16.4615C41.9187 16.4615 41.4388 16.3163 41.1073 16.0259C40.7809 15.7354 40.5576 15.3373 40.4369 14.8316C40.3162 14.3259 40.256 13.7525 40.256 13.1116C40.256 12.4256 40.3239 11.8647 40.4594 11.4291C40.5953 10.9885 40.826 10.628 41.1527 10.3475C41.4842 10.0671 41.9386 9.82928 42.5163 9.63398L44.189 9.06317V7.90646C44.189 7.30058 43.9908 6.99764 43.5939 6.99764C43.2321 6.99764 43.0512 7.24299 43.0512 7.73372V8.40971H40.4295C40.4243 8.36963 40.4217 8.31958 40.4217 8.25949C40.4217 8.19439 40.4217 8.12178 40.4217 8.04167C40.4217 6.92003 40.6853 6.12635 41.2129 5.66068C41.7455 5.18997 42.5869 4.95463 43.7371 4.95463C44.3396 4.95463 44.8797 5.06227 45.357 5.27759C45.8339 5.4879 46.2109 5.80085 46.487 6.21648C46.7683 6.6321 46.9089 7.14536 46.9089 7.75624V16.3413H44.2266V15.0044C44.096 15.475 43.88 15.8356 43.5788 16.086C43.2775 16.3363 42.9335 16.4615 42.5466 16.4615ZM43.609 14.3734C43.8298 14.3734 43.9808 14.2808 44.0609 14.0955C44.1414 13.9103 44.1816 13.71 44.1816 13.4947V10.355C43.8099 10.5053 43.5208 10.6956 43.3152 10.9259C43.1092 11.1512 43.0062 11.4842 43.0062 11.9248V13.3745C43.0062 14.0405 43.207 14.3734 43.609 14.3734ZM47.9488 18.2191V5.07482H50.6913V6.27657C50.8571 5.86095 51.0856 5.53799 51.3768 5.30765C51.6733 5.07232 52.0952 4.95463 52.6427 4.95463C53.3813 4.95463 53.9011 5.22254 54.2023 5.75831C54.5087 6.29409 54.6619 6.99514 54.6619 7.86138V13.4045C54.6619 13.9804 54.5793 14.5011 54.4135 14.9668C54.2526 15.4275 53.9964 15.793 53.6449 16.0634C53.2983 16.3288 52.8439 16.4615 52.2813 16.4615C51.5477 16.4615 51.018 16.0209 50.6913 15.1396V18.2191H47.9488ZM51.3318 14.3659C51.6131 14.3659 51.7814 14.2257 51.8368 13.9453C51.897 13.6649 51.9269 13.3194 51.9269 12.9088V8.50734C51.9269 8.09171 51.897 7.74623 51.8368 7.47082C51.7814 7.1904 51.6131 7.05019 51.3318 7.05019C51.0405 7.05019 50.8596 7.1929 50.7891 7.47833C50.7242 7.75874 50.6913 8.10176 50.6913 8.50734V12.9088C50.6913 13.3144 50.7242 13.6599 50.7891 13.9453C50.8596 14.2257 51.0405 14.3659 51.3318 14.3659Z" fill="white"/>
</svg>
