<svg width="102" height="90" viewBox="0 0 102 90" fill="none" xmlns="http://www.w3.org/2000/svg">
<g clip-path="url(#clip0_3032_4004)">
<path d="M73.1863 80.7925H23.6071C21.9258 80.7906 20.314 80.1219 19.1251 78.933C17.9363 77.7442 17.2675 76.1323 17.2656 74.451V16.2243C17.2675 14.543 17.9363 12.9312 19.1251 11.7423C20.314 10.5534 21.9258 9.88471 23.6071 9.88281H69.7324L79.5278 17.6904V74.451C79.5259 76.1323 78.8572 77.7442 77.6683 78.9331C76.4795 80.1219 74.8676 80.7906 73.1863 80.7925Z" fill="#E6E6E6"/>
<path d="M23.6097 11.709C22.4124 11.7103 21.2645 12.1866 20.4179 13.0332C19.5713 13.8798 19.0951 15.0276 19.0938 16.2249V74.4516C19.0951 75.6489 19.5713 76.7967 20.4179 77.6433C21.2645 78.49 22.4124 78.9662 23.6097 78.9675H73.1888C74.3861 78.9662 75.534 78.49 76.3806 77.6433C77.2272 76.7967 77.7034 75.6489 77.7048 74.4516V18.5704L69.0964 11.709H23.6097Z" fill="white"/>
<path d="M62.8425 28.6394H29.5963C29.4575 28.6396 29.32 28.6124 29.1918 28.5594C29.0635 28.5064 28.947 28.4286 28.8488 28.3305C28.7506 28.2324 28.6727 28.116 28.6196 27.9878C28.5664 27.8596 28.5391 27.7222 28.5391 27.5834C28.5391 27.4446 28.5664 27.3072 28.6196 27.179C28.6727 27.0508 28.7506 26.9343 28.8488 26.8362C28.947 26.7382 29.0635 26.6604 29.1918 26.6074C29.32 26.5544 29.4575 26.5272 29.5963 26.5273H62.8425C63.1226 26.5273 63.3912 26.6386 63.5892 26.8367C63.7873 27.0347 63.8985 27.3033 63.8985 27.5834C63.8985 27.8635 63.7873 28.1321 63.5892 28.3301C63.3912 28.5282 63.1226 28.6394 62.8425 28.6394Z" fill="#CCCCCC"/>
<path d="M67.1974 32.2039H29.5951C29.4564 32.2039 29.3191 32.1765 29.191 32.1235C29.0628 32.0704 28.9464 31.9926 28.8484 31.8946C28.7503 31.7965 28.6725 31.6801 28.6194 31.552C28.5664 31.4238 28.5391 31.2865 28.5391 31.1478C28.5391 31.0092 28.5664 30.8718 28.6194 30.7437C28.6725 30.6156 28.7503 30.4992 28.8484 30.4011C28.9464 30.303 29.0628 30.2253 29.191 30.1722C29.3191 30.1191 29.4564 30.0918 29.5951 30.0918H67.1974C67.3361 30.0918 67.4734 30.1191 67.6015 30.1722C67.7297 30.2253 67.8461 30.303 67.9441 30.4011C68.0422 30.4992 68.12 30.6156 68.1731 30.7437C68.2261 30.8718 68.2535 31.0092 68.2535 31.1478C68.2535 31.2865 68.2261 31.4238 68.1731 31.552C68.12 31.6801 68.0422 31.7965 67.9441 31.8946C67.8461 31.9926 67.7297 32.0704 67.6015 32.1235C67.4734 32.1765 67.3361 32.2039 67.1974 32.2039Z" fill="#CCCCCC"/>
<path d="M62.8425 44.6121H29.5963C29.4575 44.6122 29.32 44.585 29.1918 44.532C29.0635 44.479 28.947 44.4013 28.8488 44.3032C28.7506 44.2051 28.6727 44.0886 28.6196 43.9604C28.5664 43.8322 28.5391 43.6948 28.5391 43.556C28.5391 43.4173 28.5664 43.2798 28.6196 43.1516C28.6727 43.0234 28.7506 42.907 28.8488 42.8089C28.947 42.7108 29.0635 42.6331 29.1918 42.58C29.32 42.527 29.4575 42.4998 29.5963 42.5H62.8425C63.1226 42.5 63.3912 42.6113 63.5892 42.8093C63.7873 43.0074 63.8985 43.276 63.8985 43.556C63.8985 43.8361 63.7873 44.1047 63.5892 44.3028C63.3912 44.5008 63.1226 44.6121 62.8425 44.6121Z" fill="#2563EB"/>
<path d="M67.1974 48.1765H29.5951C29.4564 48.1765 29.3191 48.1492 29.191 48.0961C29.0628 48.0431 28.9464 47.9653 28.8484 47.8672C28.7503 47.7692 28.6725 47.6527 28.6194 47.5246C28.5664 47.3965 28.5391 47.2592 28.5391 47.1205C28.5391 46.9818 28.5664 46.8445 28.6194 46.7164C28.6725 46.5882 28.7503 46.4718 28.8484 46.3738C28.9464 46.2757 29.0628 46.1979 29.191 46.1448C29.3191 46.0918 29.4564 46.0645 29.5951 46.0645H67.1974C67.3361 46.0645 67.4734 46.0918 67.6015 46.1448C67.7297 46.1979 67.8461 46.2757 67.9441 46.3738C68.0422 46.4718 68.12 46.5882 68.1731 46.7164C68.2261 46.8445 68.2535 46.9818 68.2535 47.1205C68.2535 47.2592 68.2261 47.3965 68.1731 47.5246C68.12 47.6527 68.0422 47.7692 67.9441 47.8672C67.8461 47.9653 67.7297 48.0431 67.6015 48.0961C67.4734 48.1492 67.3361 48.1765 67.1974 48.1765Z" fill="#CCCCCC"/>
<path d="M62.8413 60.5847H29.5951C29.315 60.5847 29.0464 60.4735 28.8484 60.2754C28.6503 60.0774 28.5391 59.8088 28.5391 59.5287C28.5391 59.2486 28.6503 58.98 28.8484 58.782C29.0464 58.5839 29.315 58.4727 29.5951 58.4727H62.8413C63.1214 58.4727 63.39 58.5839 63.588 58.782C63.7861 58.98 63.8973 59.2486 63.8973 59.5287C63.8973 59.8088 63.7861 60.0774 63.588 60.2754C63.39 60.4735 63.1214 60.5847 62.8413 60.5847Z" fill="#CCCCCC"/>
<path d="M67.1986 64.1492H29.5963C29.4575 64.1493 29.32 64.1221 29.1918 64.0691C29.0635 64.0161 28.947 63.9384 28.8488 63.8403C28.7506 63.7422 28.6727 63.6257 28.6196 63.4975C28.5664 63.3693 28.5391 63.2319 28.5391 63.0931C28.5391 62.9544 28.5664 62.8169 28.6196 62.6887C28.6727 62.5605 28.7506 62.4441 28.8488 62.346C28.947 62.2479 29.0635 62.1702 29.1918 62.1172C29.32 62.0642 29.4575 62.037 29.5963 62.0371H67.1986C67.4787 62.0371 67.7473 62.1484 67.9453 62.3464C68.1434 62.5445 68.2546 62.8131 68.2546 63.0931C68.2546 63.3732 68.1434 63.6418 67.9453 63.8399C67.7473 64.0379 67.4787 64.1492 67.1986 64.1492Z" fill="#CCCCCC"/>
<path d="M79.3398 17.9425H71.6667C71.3894 17.9425 71.1147 17.8879 70.8585 17.7817C70.6022 17.6756 70.3694 17.52 70.1733 17.3239C69.9772 17.1278 69.8216 16.895 69.7155 16.6387C69.6093 16.3825 69.5547 16.1078 69.5547 15.8305V10.1633C69.5547 10.1384 69.5617 10.1141 69.5749 10.0931C69.588 10.0721 69.6069 10.0552 69.6292 10.0444C69.6516 10.0336 69.6765 10.0293 69.7012 10.032C69.7258 10.0348 69.7492 10.0444 69.7687 10.0598L79.4218 17.707C79.4432 17.7241 79.4589 17.7474 79.4665 17.7737C79.4742 17.8 79.4735 17.828 79.4645 17.8539C79.4554 17.8798 79.4386 17.9022 79.4163 17.9181C79.3939 17.934 79.3672 17.9425 79.3398 17.9425Z" fill="#E6E6E6"/>
<path d="M31.1694 14.8894C31.1694 17.7562 30.3193 20.5587 28.7266 22.9423C27.1339 25.326 24.8701 27.1838 22.2215 28.2809C19.5729 29.378 16.6585 29.6651 13.8468 29.1058C11.035 28.5465 8.45229 27.166 6.42515 25.1388C4.398 23.1117 3.0175 20.5289 2.45821 17.7172C1.89892 14.9055 2.18597 11.991 3.28305 9.34246C4.38013 6.69386 6.23798 4.43008 8.62165 2.83736C11.0053 1.24464 13.8078 0.394531 16.6746 0.394531C20.5185 0.395744 24.2046 1.92327 26.9227 4.64132C29.6407 7.35938 31.1682 11.0455 31.1694 14.8894Z" fill="white"/>
<path d="M23.3702 17.3701C23.2119 26.6404 9.42259 26.6389 9.26562 17.3698C9.42393 8.0999 23.2132 8.10135 23.3702 17.3701Z" fill="#2563EB"/>
<path d="M16.0386 20.2481L16.0312 19.9846C17.8477 20.2271 18.2388 17.9759 16.407 18.8176L16.8252 15.7617L17.0863 15.7975L16.7306 18.3969C18.6593 18.1098 17.9459 20.5115 16.0386 20.2481Z" fill="#2F2E41"/>
<path d="M19.7983 16.0215H18.3789V16.285H19.7983V16.0215Z" fill="#2F2E41"/>
<path d="M15.3178 16.0215H13.8984V16.285H15.3178V16.0215Z" fill="#2F2E41"/>
<path d="M18.6045 27.2301C18.8813 25.3629 16.6952 25.7319 15.5382 25.7135C15.3517 25.714 15.1676 25.7562 14.9994 25.8369C14.8312 25.9176 14.6832 26.0349 14.566 26.18C14.4489 26.3252 14.3656 26.4947 14.3223 26.6761C14.2789 26.8576 14.2765 27.0464 14.3154 27.2288C13.4199 27.5056 12.5907 27.9631 11.8789 28.5729C14.8784 29.6188 18.1377 29.6549 21.1596 28.6757C20.4229 28.0141 19.551 27.5209 18.6045 27.2301Z" fill="#2F2E41"/>
<path d="M13.005 14.0351C14.3119 13.2798 15.8969 13.8593 17.2469 14.1761C19.8084 14.9635 23.4003 13.9775 23.7117 10.9263C24.0359 8.08859 20.154 6.50705 18.9133 9.33137L19.2746 9.28415C15.2507 3.30407 8.25126 3.53087 8.29729 11.7524C8.28237 12.0064 8.67773 12.0055 8.69252 11.7523C8.54438 6.90744 11.7508 3.59565 16.2832 6.70915C17.3205 7.46597 18.1598 8.46834 18.9332 9.48367C19.4053 10.0127 19.5078 7.73449 21.7671 8.3312C24.2534 9.29445 23.4422 12.8547 21.2198 13.6363C18.4739 15.0392 15.4999 12.3192 12.8054 13.6936C12.7621 13.721 12.731 13.7642 12.7189 13.814C12.7067 13.8639 12.7144 13.9165 12.7403 13.9608C12.7661 14.0051 12.8082 14.0376 12.8576 14.0514C12.907 14.0653 12.9598 14.0595 13.005 14.0351Z" fill="#2F2E41"/>
<path d="M16.6737 29.7808C12.9306 29.7776 9.32613 28.3636 6.5793 25.8207C3.83247 23.2778 2.14511 19.7929 1.85376 16.0611C1.5624 12.3293 2.68847 8.62478 5.00736 5.6864C7.32626 2.74801 10.6676 0.791712 14.3649 0.207658C18.0622 -0.376397 21.8438 0.454719 24.9556 2.53525C28.0673 4.61578 30.2804 7.79281 31.1535 11.4327C32.0267 15.0727 31.4957 18.9079 29.6664 22.1737C27.8371 25.4395 24.8441 27.8957 21.2841 29.0525C19.7953 29.5367 18.2393 29.7825 16.6737 29.7808ZM16.6737 0.791004C13.8846 0.790608 11.1579 1.61736 8.83859 3.16671C6.51929 4.71606 4.71155 6.9184 3.64399 9.49521C2.57642 12.072 2.297 14.9075 2.84104 17.6432C3.38509 20.3788 4.72818 22.8916 6.70044 24.8639C8.6727 26.8361 11.1855 28.1792 13.9212 28.7233C16.6568 29.2673 19.4923 28.9879 22.0691 27.9203C24.6459 26.8528 26.8483 25.045 28.3976 22.7257C29.9469 20.4064 30.7737 17.6798 30.7733 14.8906C30.7691 11.1524 29.2822 7.5686 26.639 4.92534C23.9957 2.28207 20.4119 0.79523 16.6737 0.791004Z" fill="#CCCCCC"/>
<path d="M101.137 44.6707C101.137 47.7305 100.169 50.7119 98.3717 53.1881C96.5743 55.6644 94.0396 57.5085 91.1304 58.4566C91.0434 58.4843 90.9565 58.512 90.8681 58.5383C90.4913 58.6543 90.1091 58.7531 89.7204 58.8374C89.0169 58.9901 88.3029 59.0892 87.5844 59.1339C87.2721 59.155 86.9581 59.1655 86.6422 59.1655C85.0104 59.1672 83.39 58.8927 81.8497 58.3538C81.8049 58.338 81.7601 58.3222 81.7166 58.3064C79.221 57.4051 77.0206 55.836 75.3552 53.7703C73.6899 51.7046 72.6234 49.2214 72.2721 46.5913C71.9208 43.9612 72.2982 41.2852 73.363 38.8548C74.4278 36.4244 76.1392 34.3329 78.3108 32.8081C80.4824 31.2834 83.0308 30.3839 85.6784 30.2078C88.326 30.0316 90.9711 30.5855 93.3255 31.8091C95.68 33.0327 97.6535 34.879 99.0309 37.1469C100.408 39.4148 101.137 42.0172 101.137 44.6707Z" fill="white"/>
<path d="M86.2945 54.2745C90.1894 54.2745 93.3468 51.1171 93.3468 47.2222C93.3468 43.3273 90.1894 40.1699 86.2945 40.1699C82.3996 40.1699 79.2422 43.3273 79.2422 47.2222C79.2422 51.1171 82.3996 54.2745 86.2945 54.2745Z" fill="#2563EB"/>
<path d="M86.7094 51.0216L86.7168 50.758C86.2265 50.7444 85.7942 50.7136 85.4694 50.4763C85.3773 50.4052 85.3017 50.3151 85.2475 50.2122C85.1934 50.1092 85.162 49.9958 85.1556 49.8796C85.1499 49.8087 85.1607 49.7373 85.187 49.6712C85.2134 49.605 85.2546 49.5458 85.3075 49.4982C85.5232 49.3161 85.8701 49.3751 86.1229 49.491L86.341 49.591L85.9228 46.5352L85.6617 46.5709L86.0174 49.1703C85.6738 49.0693 85.3555 49.1128 85.1374 49.297C85.0537 49.37 84.988 49.4615 84.9455 49.5642C84.903 49.6669 84.8847 49.778 84.8923 49.8889C84.9 50.045 84.9417 50.1975 85.0146 50.3357C85.0874 50.474 85.1896 50.5946 85.314 50.6892C85.7313 50.9942 86.2736 51.0093 86.7094 51.0216Z" fill="#2F2E41"/>
<path d="M84.3686 46.7949H82.9492V47.0585H84.3686V46.7949Z" fill="#2F2E41"/>
<path d="M88.8491 46.7949H87.4297V47.0585H88.8491V46.7949Z" fill="#2F2E41"/>
<path d="M88.3007 57.0818C88.3194 56.9952 88.3291 56.9068 88.3297 56.8182C88.3292 56.4864 88.1971 56.1683 87.9625 55.9336C87.7278 55.699 87.4097 55.5669 87.0779 55.5664H85.2331C84.9012 55.5667 84.5829 55.6987 84.3482 55.9334C84.1135 56.1681 83.9816 56.4863 83.9813 56.8182C83.9812 56.9073 83.9909 56.9961 84.0102 57.0831C83.3138 57.3025 82.6555 57.6283 82.0587 58.049C81.9427 58.1294 81.8281 58.2163 81.7188 58.3073C81.7622 58.3231 81.807 58.3389 81.8518 58.3547C83.3921 58.8936 85.0125 59.168 86.6444 59.1664C86.9606 59.1664 87.2746 59.1559 87.5865 59.1348C88.305 59.0901 89.019 58.9909 89.7225 58.8383C90.1113 58.754 90.4934 58.6551 90.8703 58.5392C90.1247 57.8796 89.2494 57.3832 88.3007 57.0818Z" fill="#2F2E41"/>
<path d="M88.063 58.967C87.892 58.9796 87.7274 59.0374 87.5859 59.1344C88.3044 59.0896 89.0185 58.9905 89.722 58.8379L88.063 58.967Z" fill="#2F2E41"/>
<path d="M92.6911 45.5468L80.4397 41.0649C80.3747 41.0411 80.3151 41.0048 80.2641 40.9579C80.2131 40.9111 80.1719 40.8547 80.1428 40.7919C80.1136 40.7291 80.0971 40.6612 80.0942 40.592C80.0913 40.5229 80.102 40.4538 80.1258 40.3888L80.1673 40.1929C81.1241 37.5774 84.2954 35.9314 86.9108 36.8882L90.6809 38.2674C93.2963 39.2242 94.433 42.3212 93.4762 44.9366L93.3672 45.2329C93.3434 45.2979 93.307 45.3576 93.2602 45.4085C93.2133 45.4595 93.1569 45.5007 93.0941 45.5299C93.0313 45.559 92.9634 45.5755 92.8943 45.5784C92.8251 45.5813 92.7561 45.5706 92.6911 45.5468Z" fill="#2F2E41"/>
<path d="M93.3518 45.7953C76.2758 46.4254 74.7838 44.2799 79.9867 40.906L81.0905 38.875L93.7405 43.487L93.3518 45.7953Z" fill="#2F2E41"/>
<path d="M90.0035 37.9461C90.0978 37.6325 89.6939 37.2339 89.1015 37.0558C88.5091 36.8778 87.9525 36.9876 87.8582 37.3013C87.7639 37.6149 88.1677 38.0135 88.7601 38.1916C89.3526 38.3696 89.9092 38.2598 90.0035 37.9461Z" fill="#2F2E41"/>
<path d="M86.6441 59.5602C84.9677 59.562 83.3031 59.28 81.7209 58.7262L81.5833 58.6772C78.269 57.4794 75.4869 55.145 73.7319 52.089C71.9768 49.033 71.3625 45.4536 71.9982 41.9873C72.6339 38.521 74.4785 35.3925 77.2038 33.1583C79.9291 30.924 83.3586 29.7288 86.8822 29.7851C90.4059 29.8415 93.7954 31.1458 96.4478 33.466C99.1003 35.7863 100.844 38.9722 101.368 42.457C101.893 45.9419 101.165 49.4998 99.3126 52.4981C97.4607 55.4964 94.6054 57.7407 91.2545 58.8319C91.1608 58.8617 91.0727 58.8896 90.9831 58.9164C90.6089 59.0316 90.2118 59.135 89.8061 59.223C89.083 59.3798 88.349 59.4816 87.6106 59.5277C87.2933 59.5492 86.9673 59.5602 86.6441 59.5602ZM86.6441 30.5704C83.3263 30.5709 80.1148 31.7412 77.5746 33.8756C75.0344 36.0099 73.3282 38.9716 72.7559 42.2398C72.1836 45.5079 72.7821 48.8732 74.4459 51.7437C76.1098 54.6142 78.7325 56.8061 81.8528 57.9339L81.9833 57.9804C83.4813 58.5045 85.0571 58.7714 86.6441 58.7695C86.9497 58.7695 87.2577 58.7592 87.5596 58.7388C88.2589 58.6952 88.9539 58.5987 89.6387 58.4503C90.0224 58.3671 90.3977 58.2693 90.7538 58.1598C90.842 58.1334 90.9257 58.1068 91.0094 58.0802C94.201 57.0406 96.9171 54.8967 98.6694 52.0339C100.422 49.1711 101.095 45.777 100.569 42.4619C100.043 39.1468 98.3521 36.1281 95.7996 33.9484C93.247 31.7686 90.0007 30.5709 86.6441 30.5704Z" fill="#CCCCCC"/>
<path d="M0.859388 75.1101C0.856861 77.0179 1.23213 78.9074 1.96354 80.6694C2.69495 82.4315 3.76803 84.0312 5.12086 85.3764C5.23423 85.4884 5.35017 85.6005 5.4674 85.7098C6.17384 86.3698 6.94462 86.9574 7.7682 87.4637C7.92628 87.5612 8.08443 87.6548 8.24651 87.7457C9.0794 88.2151 9.95692 88.6004 10.8661 88.8961C11.0229 88.9475 11.1824 88.9962 11.3418 89.041C14.2319 89.8699 17.3078 89.7833 20.1468 88.7933C20.2021 88.7735 20.2575 88.7538 20.3115 88.734C22.8037 87.8273 24.9994 86.2544 26.6596 84.1864C28.3198 82.1184 29.3809 79.6346 29.7274 77.0054C30.0739 74.3761 29.6925 71.7022 28.6247 69.2747C27.5569 66.8472 25.8437 64.7591 23.6715 63.2378C21.4993 61.7164 18.9514 60.8201 16.3052 60.6464C13.6589 60.4726 11.0157 61.0282 8.66324 62.2525C6.3108 63.4768 4.33928 65.3229 2.96331 67.59C1.58733 69.8571 0.859616 72.4582 0.859388 75.1101Z" fill="white"/>
<path d="M12.2945 82.2144C12.3015 83.3373 11.8876 84.4222 11.1343 85.2551C10.389 86.0731 9.27951 86.6155 8.15984 86.3911C7.12883 86.1844 6.29103 85.2833 6.39555 84.1932C6.41289 83.9571 6.48151 83.7276 6.59664 83.5207C6.71177 83.3138 6.87063 83.1345 7.06215 82.9953C7.25367 82.8562 7.47324 82.7604 7.70555 82.7148C7.93787 82.6692 8.17734 82.6747 8.40727 82.7311C9.38669 82.9853 9.77693 84.3969 8.96079 85.0594C8.76495 85.2184 8.48359 84.9404 8.68125 84.7799C9.22078 84.3419 9.0541 83.3837 8.4029 83.1434C7.64472 82.8637 6.84143 83.4654 6.78691 84.2405C6.72226 85.1595 7.42629 85.8516 8.28966 86.0145C9.22364 86.1908 10.1497 85.7128 10.7825 85.053C11.5078 84.2868 11.9081 83.2694 11.8992 82.2144C11.9009 82.1631 11.9225 82.1146 11.9594 82.079C11.9963 82.0433 12.0455 82.0234 12.0968 82.0234C12.1481 82.0234 12.1973 82.0433 12.2342 82.079C12.2711 82.1146 12.2927 82.1631 12.2945 82.2144Z" fill="#2F2E41"/>
<path d="M16.1539 84.7277C20.0487 84.7277 23.2062 81.5702 23.2062 77.6754C23.2062 73.7805 20.0487 70.623 16.1539 70.623C12.259 70.623 9.10156 73.7805 9.10156 77.6754C9.10156 81.5702 12.259 84.7277 16.1539 84.7277Z" fill="#2563EB"/>
<path d="M15.7925 80.6837L15.7852 80.4201C16.2754 80.4065 16.7077 80.3757 17.0325 80.1384C17.1246 80.0673 17.2003 79.9772 17.2544 79.8743C17.3085 79.7713 17.3399 79.6579 17.3463 79.5417C17.352 79.4708 17.3412 79.3994 17.3149 79.3333C17.2886 79.2671 17.2473 79.2079 17.1944 79.1603C16.9788 78.9782 16.6318 79.0372 16.379 79.1531L16.1609 79.2531L16.5791 76.1973L16.8402 76.233L16.4845 78.8324C16.8281 78.7314 17.1464 78.7749 17.3645 78.9591C17.4482 79.0322 17.5139 79.1236 17.5564 79.2263C17.599 79.329 17.6172 79.4401 17.6096 79.551C17.6019 79.7071 17.5602 79.8596 17.4874 79.9978C17.4145 80.1361 17.3123 80.2567 17.1879 80.3513C16.7706 80.6563 16.2283 80.6714 15.7925 80.6837Z" fill="#2F2E41"/>
<path d="M19.5522 76.457H18.1328V76.7206H19.5522V76.457Z" fill="#2F2E41"/>
<path d="M15.0717 76.457H13.6523V76.7206H15.0717V76.457Z" fill="#2F2E41"/>
<path d="M11.3438 89.0397C14.2339 89.8686 17.3098 89.7821 20.1488 88.792C20.2041 88.7722 20.2594 88.7525 20.3135 88.7327C19.6445 88.2167 18.8878 87.8256 18.0799 87.5784C18.1371 87.3758 18.1362 87.1612 18.0773 86.9591C17.9973 86.7028 17.8368 86.4793 17.6196 86.3216C17.4023 86.164 17.14 86.0807 16.8716 86.0841H15.1533C14.8854 86.0805 14.6234 86.1636 14.4066 86.321C14.1898 86.4785 14.0297 86.7018 13.9502 86.9577C13.8914 87.1603 13.8904 87.3753 13.9476 87.5784C13.2359 87.7963 12.5634 88.1259 11.9552 88.5548C11.8326 88.6405 11.714 88.7301 11.5995 88.8236C11.5125 88.8935 11.4268 88.9659 11.3438 89.0397Z" fill="#2F2E41"/>
<path d="M21.6797 76.9266C21.6797 78.1152 22.2648 79.1008 23.0251 79.2721C23.1025 79.2895 23.1816 79.2983 23.2609 79.2985C24.1319 79.2985 24.8422 78.2351 24.8422 76.9266C24.8422 76.1676 24.6037 75.4916 24.2334 75.0581C24.1049 74.9025 23.9468 74.7739 23.7682 74.6799C23.6116 74.5981 23.4376 74.5552 23.2609 74.5547C23.0183 74.5577 22.7827 74.637 22.5875 74.7813C22.0513 75.1608 21.6797 75.9791 21.6797 76.9266Z" fill="#3F3D56"/>
<path d="M7.57812 76.9266C7.57812 77.9491 8.01031 78.8215 8.61647 79.1548C8.7824 79.2478 8.96918 79.2972 9.15938 79.2985C9.20167 79.2985 9.24392 79.2958 9.28588 79.2906C10.0976 79.1944 10.7406 78.1718 10.7406 76.9266C10.7406 75.9291 10.3281 75.0739 9.74573 74.7247C9.56958 74.6153 9.36673 74.5565 9.15938 74.5547C8.98269 74.5552 8.80869 74.5981 8.65205 74.6799C8.47305 74.7744 8.31452 74.9033 8.18558 75.0594C7.81657 75.4929 7.57812 76.1689 7.57812 76.9266Z" fill="#3F3D56"/>
<path d="M8.71588 78.9285C8.74726 78.9285 8.77818 78.921 8.80609 78.9066C8.834 78.8923 8.8581 78.8715 8.8764 78.846C8.89469 78.8205 8.90667 78.7911 8.91133 78.76C8.91599 78.729 8.9132 78.6973 8.90319 78.6676C8.52543 77.5442 8.41179 76.3488 8.57111 75.1744C8.73043 74 9.15841 72.8781 9.8218 71.8959C10.4852 70.9138 11.3661 70.0979 12.3961 69.5115C13.4261 68.9252 14.5774 68.5843 15.7606 68.5152C16.9438 68.4462 18.127 68.6509 19.2182 69.1135C20.3094 69.5761 21.2792 70.284 22.0523 71.1824C22.8254 72.0807 23.381 73.1452 23.6758 74.2931C23.9706 75.4411 23.9967 76.6415 23.7522 77.8012C23.7468 77.8266 23.7465 77.8528 23.7513 77.8783C23.7561 77.9038 23.7658 77.9282 23.78 77.9499C23.7942 77.9717 23.8125 77.9904 23.8339 78.0051C23.8553 78.0198 23.8794 78.0301 23.9048 78.0354C23.9302 78.0408 23.9564 78.0411 23.9819 78.0363C24.0074 78.0315 24.0318 78.0218 24.0535 78.0076C24.0752 77.9934 24.094 77.9751 24.1087 77.9537C24.1233 77.9323 24.1336 77.9082 24.139 77.8828C24.3963 76.6635 24.3689 75.4013 24.0591 74.1944C23.7492 72.9874 23.1652 71.8681 22.3524 70.9236C21.5396 69.979 20.5199 69.2346 19.3726 68.7483C18.2253 68.2619 16.9813 68.0466 15.7373 68.1192C14.4933 68.1918 13.2828 68.5504 12.1999 69.1669C11.117 69.7834 10.1909 70.6414 9.49346 71.6741C8.79607 72.7068 8.34622 73.8864 8.17888 75.1213C8.01153 76.3561 8.13121 77.6129 8.5286 78.7939C8.54182 78.8331 8.567 78.8672 8.6006 78.8913C8.63419 78.9155 8.67451 78.9285 8.71588 78.9285Z" fill="#3F3D56"/>
<path d="M19.6985 73.105C19.9777 73.4861 19.8401 73.9998 19.5459 74.3285C19.163 74.7561 18.5525 74.7831 18.0223 74.7038C17.4275 74.6147 16.7965 74.336 16.1943 74.5238C15.681 74.6839 15.3148 75.1494 14.7815 75.2664C14.3086 75.3701 13.7431 75.2328 13.5773 74.7287C13.4976 74.4865 13.8792 74.3827 13.9585 74.6236C14.0657 74.9498 14.5289 74.9432 14.7941 74.8529C15.2193 74.7082 15.547 74.356 15.9649 74.1878C16.4577 73.9895 16.9923 74.0791 17.4939 74.192C17.9668 74.2985 18.5109 74.4563 18.982 74.2575C19.3305 74.1103 19.6079 73.6467 19.3571 73.3045C19.2066 73.099 19.5495 72.9016 19.6985 73.105Z" fill="#2F2E41"/>
<path d="M15.3565 89.9998C13.9621 90.001 12.5745 89.8059 11.2344 89.4203C11.077 89.3761 10.9115 89.3257 10.7453 89.2713C9.81161 88.9674 8.91037 88.5716 8.0548 88.0897C7.89433 87.9997 7.73325 87.9047 7.56292 87.7997C6.71712 87.2794 5.92544 86.6759 5.19969 85.9982C5.07996 85.8865 4.96131 85.7718 4.84531 85.6573C2.56293 83.3817 1.08058 80.4269 0.620951 77.2369C0.16132 74.0469 0.749226 70.7938 2.29635 67.9664C3.84347 65.1391 6.26627 62.8901 9.20077 61.5573C12.1353 60.2245 15.423 59.8799 18.5701 60.5753C21.7172 61.2707 24.5536 62.9684 26.6533 65.4136C28.7531 67.8587 30.0027 70.9192 30.2145 74.1352C30.4263 77.3512 29.5888 80.5491 27.8278 83.2485C26.0669 85.9479 23.4776 88.003 20.4489 89.105C20.3945 89.1249 20.3382 89.145 20.2819 89.1651C18.699 89.7194 17.0336 90.0016 15.3565 89.9998ZM15.3565 61.0101C12.5659 61.0102 9.83815 61.8384 7.51854 63.3897C5.19893 64.941 3.39179 67.1458 2.32594 69.7247C1.26009 72.3037 0.983464 75.141 1.53108 77.8773C2.07869 80.6136 3.42592 83.1259 5.40219 85.096C5.51157 85.2041 5.62481 85.3135 5.73931 85.4203C6.42666 86.0622 7.17645 86.6338 7.97749 87.1265C8.13886 87.226 8.29072 87.3155 8.44212 87.4004C9.25244 87.8569 10.1061 88.2318 10.9904 88.5196C11.1469 88.5709 11.3015 88.618 11.4509 88.6599C14.263 89.4669 17.2559 89.383 20.0183 88.4197L20.178 88.3622C23.2932 87.2283 25.9092 85.0331 27.5668 82.1622C29.2243 79.2913 29.8174 75.9282 29.2419 72.6634C28.6664 69.3987 26.9591 66.4411 24.4198 64.31C21.8805 62.1789 18.6716 61.0105 15.3565 61.0101Z" fill="#CCCCCC"/>
</g>
<defs>
<clipPath id="clip0_3032_4004">
<rect width="101.069" height="90" fill="white" transform="translate(0.464844)"/>
</clipPath>
</defs>
</svg>
