<svg width="94" height="90" viewBox="0 0 94 90" fill="none" xmlns="http://www.w3.org/2000/svg">
<g clip-path="url(#clip0_3032_3962)">
<path d="M36.4593 81.973L34.0501 84.1909L35.9647 80.9784C34.4563 78.243 31.9893 75.8789 31.9893 75.8789C31.9893 75.8789 26.8711 80.7825 26.8711 84.6371C26.8711 88.4917 29.1626 89.8375 31.9893 89.8375C34.8159 89.8375 37.1074 88.4917 37.1074 84.6371C37.1074 83.7791 36.8535 82.8693 36.4593 81.973Z" fill="#F2F2F2"/>
<path d="M33.4311 84.3119V84.5018C33.4198 86.7103 33.0473 88.4335 32.3165 89.6468C32.3061 89.6647 32.2949 89.6816 32.2845 89.6995L32.2027 89.6497L32.1246 89.6007C32.9354 88.2905 33.2223 86.4385 33.2326 84.5122C33.2335 84.4501 33.2345 84.3871 33.2335 84.3241C33.2307 83.5086 33.1809 82.6837 33.1009 81.8823C33.0953 81.8202 33.0887 81.7572 33.0821 81.6942C32.9711 80.637 32.8112 79.6268 32.6476 78.7492C32.6363 78.6872 32.6241 78.6251 32.6118 78.5639C32.3287 77.0797 32.0399 76.0046 31.9741 75.7667C31.9666 75.7375 31.9619 75.7215 31.9609 75.7177L32.0503 75.6924L32.0512 75.6914L32.1415 75.666C32.1425 75.6698 32.1585 75.7234 32.1848 75.8231C32.2854 76.1956 32.5469 77.2067 32.8037 78.5404C32.815 78.6006 32.8272 78.6627 32.8385 78.7248C32.9721 79.4368 33.1028 80.2326 33.2063 81.0678C33.2326 81.2775 33.2561 81.4845 33.2768 81.6886C33.2843 81.7516 33.2909 81.8146 33.2966 81.8767C33.3831 82.743 33.4279 83.5547 33.4311 84.3119Z" fill="white"/>
<path d="M32.8052 78.5397C32.7422 78.5482 32.6782 78.5567 32.6133 78.5632C32.4371 78.5814 32.26 78.5905 32.0829 78.5905C31.3278 78.5915 30.5821 78.4231 29.9007 78.0977C29.8612 78.1475 29.8217 78.1974 29.7812 78.2481C30.498 78.598 31.2853 78.7795 32.0829 78.7786C32.272 78.7786 32.461 78.7685 32.6491 78.7485C32.713 78.7419 32.777 78.7335 32.84 78.7241C33.3602 78.6495 33.8661 78.4963 34.3403 78.2698C34.2998 78.218 34.2603 78.1673 34.2217 78.1174C33.7729 78.3272 33.2956 78.4695 32.8052 78.5397Z" fill="white"/>
<path d="M33.2778 81.6885C33.2129 81.6923 33.148 81.6942 33.0831 81.6942C33.0634 81.6951 33.0427 81.6951 33.0229 81.6951C32.2047 81.6951 31.3987 81.4973 30.6735 81.1185C29.9483 80.7396 29.3254 80.1911 28.858 79.5195C28.8204 79.575 28.7828 79.6305 28.7461 79.6869C29.2333 80.3664 29.8753 80.9201 30.6191 81.302C31.3628 81.6839 32.1868 81.8832 33.0229 81.8832C33.0493 81.8832 33.0756 81.8832 33.1019 81.8823C33.1678 81.8813 33.2327 81.8794 33.2976 81.8766C34.3018 81.8252 35.27 81.4856 36.0864 80.8984C36.0563 80.8429 36.0262 80.7874 35.9952 80.7319C35.2018 81.3084 34.2574 81.6409 33.2778 81.6885Z" fill="white"/>
<path d="M33.4316 84.3118C33.3658 84.3174 33.3 84.3212 33.2341 84.324C33.1636 84.3268 33.093 84.3287 33.0225 84.3287C31.9231 84.3274 30.8536 83.9701 29.9743 83.3102C29.095 82.6503 28.453 81.7233 28.1446 80.668C28.1023 80.7442 28.06 80.8194 28.0195 80.8956C28.367 81.9484 29.0374 82.865 29.9356 83.5151C30.8337 84.1651 31.9138 84.5157 33.0225 84.5168C33.093 84.5168 33.1636 84.5159 33.2332 84.5121C33.3 84.5103 33.3658 84.5065 33.4316 84.5018C34.7615 84.3977 36.0022 83.7922 36.9024 82.8078C36.8826 82.7382 36.8601 82.6695 36.8375 82.5999C35.968 83.5917 34.7463 84.2058 33.4316 84.3118Z" fill="white"/>
<path d="M93.1196 4.8205H0.875606C0.840179 4.82038 0.806247 4.80622 0.781239 4.78112C0.756231 4.75603 0.742188 4.72204 0.742188 4.68662C0.742188 4.65119 0.756231 4.61721 0.781239 4.59211C0.806247 4.56702 0.840179 4.55286 0.875606 4.55273H93.1196C93.155 4.55286 93.1889 4.56702 93.214 4.59211C93.239 4.61721 93.253 4.65119 93.253 4.68662C93.253 4.72204 93.239 4.75603 93.214 4.78112C93.1889 4.80622 93.155 4.82038 93.1196 4.8205Z" fill="#CACACA"/>
<path d="M3.89066 2.94538C4.704 2.94538 5.36335 2.28603 5.36335 1.47269C5.36335 0.659346 4.704 0 3.89066 0C3.07731 0 2.41797 0.659346 2.41797 1.47269C2.41797 2.28603 3.07731 2.94538 3.89066 2.94538Z" fill="#3F3D56"/>
<path d="M8.9766 2.94538C9.78994 2.94538 10.4493 2.28603 10.4493 1.47269C10.4493 0.659346 9.78994 0 8.9766 0C8.16325 0 7.50391 0.659346 7.50391 1.47269C7.50391 2.28603 8.16325 2.94538 8.9766 2.94538Z" fill="#3F3D56"/>
<path d="M14.0625 2.94538C14.8759 2.94538 15.5352 2.28603 15.5352 1.47269C15.5352 0.659346 14.8759 0 14.0625 0C13.2492 0 12.5898 0.659346 12.5898 1.47269C12.5898 2.28603 13.2492 2.94538 14.0625 2.94538Z" fill="#3F3D56"/>
<path d="M90.073 0.900758H86.4582C86.3874 0.900513 86.3195 0.872195 86.2695 0.822007C86.2195 0.771819 86.1914 0.703852 86.1914 0.632997C86.1914 0.562142 86.2195 0.494175 86.2695 0.443987C86.3195 0.393798 86.3874 0.365481 86.4582 0.365236H90.073C90.1083 0.365114 90.1432 0.37195 90.1758 0.385351C90.2084 0.398753 90.238 0.418458 90.263 0.443334C90.2879 0.46821 90.3077 0.497768 90.3212 0.530314C90.3348 0.562861 90.3417 0.597756 90.3417 0.632997C90.3417 0.668238 90.3348 0.703133 90.3212 0.73568C90.3077 0.768226 90.2879 0.797784 90.263 0.82266C90.238 0.847536 90.2084 0.867241 90.1758 0.880642C90.1432 0.894044 90.1083 0.90088 90.073 0.900758Z" fill="#3F3D56"/>
<path d="M90.073 1.90466H86.4582C86.3874 1.90442 86.3195 1.8761 86.2695 1.82591C86.2195 1.77572 86.1914 1.70776 86.1914 1.6369C86.1914 1.56605 86.2195 1.49808 86.2695 1.44789C86.3195 1.3977 86.3874 1.36939 86.4582 1.36914H90.073C90.1083 1.36902 90.1432 1.37586 90.1758 1.38926C90.2084 1.40266 90.238 1.42236 90.263 1.44724C90.2879 1.47212 90.3077 1.50167 90.3212 1.53422C90.3348 1.56677 90.3417 1.60166 90.3417 1.6369C90.3417 1.67214 90.3348 1.70704 90.3212 1.73959C90.3077 1.77213 90.2879 1.80169 90.263 1.82657C90.238 1.85144 90.2084 1.87115 90.1758 1.88455C90.1432 1.89795 90.1083 1.90479 90.073 1.90466Z" fill="#3F3D56"/>
<path d="M90.073 2.90857H86.4582C86.3874 2.90833 86.3195 2.88001 86.2695 2.82982C86.2195 2.77963 86.1914 2.71166 86.1914 2.64081C86.1914 2.56995 86.2195 2.50199 86.2695 2.4518C86.3195 2.40161 86.3874 2.37329 86.4582 2.37305H90.073C90.1083 2.37293 90.1432 2.37976 90.1758 2.39317C90.2084 2.40657 90.238 2.42627 90.263 2.45115C90.2879 2.47602 90.3077 2.50558 90.3212 2.53813C90.3348 2.57068 90.3417 2.60557 90.3417 2.64081C90.3417 2.67605 90.3348 2.71095 90.3212 2.74349C90.3077 2.77604 90.2879 2.8056 90.263 2.83048C90.238 2.85535 90.2084 2.87505 90.1758 2.88845C90.1432 2.90186 90.1083 2.90869 90.073 2.90857Z" fill="#3F3D56"/>
<path d="M88.0531 10.875H3.51953V55.6621H88.0531V10.875Z" fill="#F0F0F0"/>
<path d="M88.0531 19.2584V18.8192H71.5978V10.875H71.1586V18.8192H54.7032V10.875H54.2639V18.8192H37.8086V10.875H37.3694V18.8192H20.914V10.875H20.4748V18.8192H3.51953V19.2584H20.4748V28.0347H3.51953V28.4739H20.4748V37.2502H3.51953V37.6894H20.4748V46.4642H3.51953V46.9034H20.4748V55.6621H20.914V46.9034H37.3694V55.6621H37.8086V46.9034H54.2639V55.6621H54.7032V46.9034H71.1586V55.6621H71.5978V46.9034H88.0531V46.4642H71.5978V37.6894H88.0531V37.2502H71.5978V28.4739H88.0531V28.0347H71.5978V19.2584L88.0531 19.2584ZM37.3694 46.4642H20.914V37.6894H37.3694V46.4642ZM37.3694 37.2502H20.914V28.4739H37.3694V37.2502ZM37.3694 28.0347H20.914V19.2584H37.3694V28.0347ZM54.2639 46.4642H37.8086V37.6895H54.2639V46.4642ZM54.2639 37.2502H37.8086V28.4739H54.2639V37.2502ZM54.2639 28.0347H37.8086V19.2584H54.2639V28.0347ZM71.1586 46.4642H54.7032V37.6895H71.1586V46.4642ZM71.1586 37.2503H54.7032V28.4739H71.1586V37.2503ZM71.1586 28.0347H54.7032V19.2584H71.1586V28.0347Z" fill="white"/>
<path d="M29.8428 21.3926H24.1875V26.8676H29.8428V21.3926Z" fill="#CACACA"/>
<path d="M81.9132 39.1211H76.2578V44.5961H81.9132V39.1211Z" fill="#CACACA"/>
<path d="M31.6007 48.2246H25.9453V53.6997H31.6007V48.2246Z" fill="#CACACA"/>
<path d="M33.2725 20.377H27.6172V25.852H33.2725V20.377Z" fill="#2563EB"/>
<path d="M59.8555 43.1355L66.5665 37.1562L68.5463 38.1372L60.4974 46.5794L59.8555 43.1355Z" fill="#FFB6B6"/>
<path d="M67.4526 39.2099C68.3347 39.2099 69.0498 38.4948 69.0498 37.6128C69.0498 36.7307 68.3347 36.0156 67.4526 36.0156C66.5705 36.0156 65.8555 36.7307 65.8555 37.6128C65.8555 38.4948 66.5705 39.2099 67.4526 39.2099Z" fill="#FFB6B6"/>
<path d="M53.574 88.1387H51.9859L51.2305 82.0137L53.5741 82.0138L53.574 88.1387Z" fill="#FFB6B6"/>
<path d="M53.9796 89.679L48.8594 89.6788V89.614C48.8594 89.0855 49.0694 88.5786 49.4431 88.2048C49.8169 87.8311 50.3238 87.6211 50.8523 87.6211L53.9797 87.6212L53.9796 89.679Z" fill="#2F2E41"/>
<path d="M47.824 88.1387H46.2359L45.4805 82.0137L47.8241 82.0138L47.824 88.1387Z" fill="#FFB6B6"/>
<path d="M48.2296 89.679L43.1094 89.6788V89.614C43.1094 89.0855 43.3194 88.5786 43.6931 88.2048C44.0669 87.8311 44.5738 87.6211 45.1023 87.6211L48.2297 87.6212L48.2296 89.679Z" fill="#2F2E41"/>
<path d="M54.9086 53.1272C54.9086 53.1272 58.9015 52.8078 57.6237 59.8352C56.346 66.8627 53.6994 86.0861 53.6994 86.0861L51.2999 86.4159L49.8824 60.7722L48.8099 86.4159L45.7582 86.0861L42.7703 58.5575C42.7703 58.5575 41.8109 56.3441 42.7698 54.8155C43.7286 53.2869 54.9086 53.1272 54.9086 53.1272Z" fill="#2F2E41"/>
<path d="M52.3555 35.7188L53.4641 35.1248C53.4641 35.1248 56.1953 34.8919 57.31 38.1003L60.2661 42.5652L65.0575 38.4126L67.1338 39.8501L61.0952 47.0571L58.5843 47.3779L53.154 40.3505L52.3555 35.7188Z" fill="#3F3D56"/>
<path d="M48.3296 22.7598C43.7749 22.7598 42.5 27.7631 42.5 30.5858C42.5 33.4084 45.11 32.9815 48.3296 32.9815C49.7115 32.9815 50.9803 33.0595 51.9794 32.9261L52.4599 31.7527L52.8467 32.725C53.6668 32.4236 54.1592 31.8111 54.1592 30.5858C54.1592 27.7631 53.0412 22.7598 48.3296 22.7598Z" fill="#2F2E41"/>
<path d="M48.3134 32.9764C50.4799 32.9764 52.2361 31.2201 52.2361 29.0536C52.2361 26.8871 50.4799 25.1309 48.3134 25.1309C46.1469 25.1309 44.3906 26.8871 44.3906 29.0536C44.3906 31.2201 46.1469 32.9764 48.3134 32.9764Z" fill="#FFB6B6"/>
<path d="M43.7773 28.6702H45.3289L46.0133 26.7536L46.1502 28.6702H46.8918L47.2911 27.5522L47.3709 28.6702H52.8811C52.8811 27.5688 52.4436 26.5126 51.6648 25.7338C50.8861 24.9551 49.8298 24.5176 48.7285 24.5176H47.9299C46.8286 24.5176 45.7724 24.9551 44.9936 25.7338C44.2148 26.5126 43.7773 27.5688 43.7773 28.6702Z" fill="#2F2E41"/>
<path d="M70.0069 31.5566H64.3516V37.0317H70.0069V31.5566Z" fill="#2563EB"/>
<path d="M56.1517 51.6813C55.5494 51.689 53.7352 40.9245 53.7352 40.9245L53.4637 35.1237L51.4814 35.0571V34.9267C51.4814 34.6648 51.3774 34.4137 51.1923 34.2286C51.0071 34.0435 50.756 33.9395 50.4942 33.9395H46.7189C46.4681 33.9396 46.2268 34.0352 46.044 34.2069C45.8612 34.3787 45.7507 34.6136 45.7349 34.8639L44.1804 34.8116L41.4883 43.3649C41.4883 43.3649 43.969 51.3124 42.7717 54.8148C42.7717 54.8148 54.4369 55.8165 56.6701 53.5931C56.6701 53.5931 56.754 51.6735 56.1517 51.6813Z" fill="#3F3D56"/>
<path d="M44.8482 35.8787L44.1801 34.813C44.1801 34.813 42.0063 34.2756 41.1114 35.716C40.2165 37.1564 37.5859 44.9611 37.5859 44.9611L40.3011 45.9194L43.3822 41.5998L44.8482 35.8787Z" fill="#3F3D56"/>
<path d="M51.6397 41.459H45.9844V46.934H51.6397V41.459Z" fill="#2563EB"/>
<path d="M41.6461 43.4367L39.6786 43.2285C39.5543 43.4936 39.492 43.7834 39.4963 44.0761C39.5006 44.3688 39.5714 44.6567 39.7034 44.918C39.8354 45.1793 40.0251 45.4071 40.2581 45.5843C40.4911 45.7614 40.7614 45.8833 41.0485 45.9406L48.8335 47.4943L48.0214 44.9933L41.6461 43.4367Z" fill="#FFB6B6"/>
<path d="M48.855 47.5244C49.737 47.5244 50.4521 46.8093 50.4521 45.9272C50.4521 45.0451 49.737 44.3301 48.855 44.3301C47.9729 44.3301 47.2578 45.0451 47.2578 45.9272C47.2578 46.8093 47.9729 47.5244 48.855 47.5244Z" fill="#FFB6B6"/>
<path d="M46.8644 47.5715L40.9335 46.2163C40.5037 46.1169 40.1069 45.9082 39.7814 45.6105C39.4559 45.3128 39.2128 44.9361 39.0756 44.5168L38.8359 43.7777L40.3752 42.5664L47.427 44.5374L46.8644 47.5715Z" fill="#3F3D56"/>
<path d="M80.1906 89.9991H19.3394C19.297 89.9991 19.2564 89.9823 19.2265 89.9523C19.1965 89.9224 19.1797 89.8818 19.1797 89.8394C19.1797 89.797 19.1965 89.7564 19.2265 89.7265C19.2564 89.6965 19.297 89.6797 19.3394 89.6797H80.1906C80.2329 89.6797 80.2736 89.6965 80.3035 89.7265C80.3335 89.7564 80.3503 89.797 80.3503 89.8394C80.3503 89.8818 80.3335 89.9224 80.3035 89.9523C80.2736 89.9823 80.2329 89.9991 80.1906 89.9991Z" fill="#CACACA"/>
</g>
<defs>
<clipPath id="clip0_3032_3962">
<rect width="92.5117" height="90" fill="white" transform="translate(0.742188)"/>
</clipPath>
</defs>
</svg>
