<svg width="104" height="90" viewBox="0 0 104 90" fill="none" xmlns="http://www.w3.org/2000/svg">
<g clip-path="url(#clip0_3032_4048)">
<path d="M73.3246 89.8421H70.9758C70.7016 89.8418 70.4386 89.7327 70.2447 89.5388C70.0508 89.3449 69.9417 89.082 69.9414 88.8077V69.2317C69.9417 68.9574 70.0508 68.6945 70.2447 68.5006C70.4386 68.3067 70.7016 68.1976 70.9758 68.1973H73.3246C73.5989 68.1976 73.8618 68.3067 74.0557 68.5006C74.2496 68.6945 74.3587 68.9574 74.359 69.2317V88.8077C74.3587 89.082 74.2496 89.3449 74.0557 89.5388C73.8618 89.7327 73.5989 89.8418 73.3246 89.8421Z" fill="#2563EB"/>
<path d="M68.68 89.8421H66.3313C66.057 89.8418 65.7941 89.7327 65.6002 89.5388C65.4063 89.3449 65.2972 89.082 65.2969 88.8077V69.2317C65.2972 68.9574 65.4063 68.6945 65.6002 68.5006C65.7941 68.3067 66.057 68.1976 66.3313 68.1973H68.68C68.9543 68.1976 69.2172 68.3067 69.4111 68.5006C69.6051 68.6945 69.7141 68.9574 69.7144 69.2317V88.8077C69.7141 89.082 69.605 89.3449 69.4111 89.5388C69.2172 89.7327 68.9543 89.8418 68.68 89.8421Z" fill="#2563EB"/>
<path d="M62.4852 70.7494C62.4852 70.7494 61.5978 78.7291 70.5565 78.4581C79.5152 78.1871 76.0297 70.3462 76.0297 70.3462C76.0297 70.3462 74.1575 68.8749 69.425 70.2979C64.6926 71.7208 62.4852 70.7494 62.4852 70.7494Z" fill="#CCCCCC"/>
<path d="M66.3364 57.0889C65.904 57.0892 65.4811 56.9618 65.1208 56.7227L49.7756 46.5665C49.547 46.4149 49.388 46.1788 49.3333 45.9101C49.2786 45.6414 49.3328 45.3619 49.4839 45.1331L50.7802 43.1745C50.8552 43.0612 50.9517 42.9638 51.0643 42.8878C51.1769 42.8118 51.3034 42.7588 51.4365 42.7317C51.5696 42.7046 51.7068 42.704 51.8401 42.7299C51.9735 42.7559 52.1004 42.8078 52.2137 42.8828L67.5589 53.0389C67.955 53.3009 68.2561 53.6837 68.4175 54.1304C68.5788 54.5772 68.5919 55.064 68.4546 55.5187C68.3174 55.9734 68.0372 56.3718 67.6556 56.6547C67.274 56.9375 66.8114 57.0898 66.3364 57.0889Z" fill="#2563EB"/>
<path d="M69.1238 47.7671C73.6061 47.7671 77.2398 44.1335 77.2398 39.6511C77.2398 35.1688 73.6061 31.5352 69.1238 31.5352C64.6415 31.5352 61.0078 35.1688 61.0078 39.6511C61.0078 44.1335 64.6415 47.7671 69.1238 47.7671Z" fill="#2563EB"/>
<path d="M70.0715 43.0587C69.5454 43.0441 68.8907 43.0258 68.3863 42.6573C68.2361 42.5431 68.1126 42.3974 68.0247 42.2305C67.9367 42.0635 67.8863 41.8794 67.877 41.6909C67.8679 41.557 67.8899 41.4227 67.9412 41.2987C67.9926 41.1747 68.0719 41.0642 68.1731 40.9759C68.4365 40.7533 68.8212 40.7011 69.2358 40.8229L68.8063 37.6838L69.1216 37.6406L69.6266 41.331L69.3632 41.2102C69.058 41.0702 68.6389 40.9989 68.3785 41.219C68.3146 41.2765 68.2647 41.348 68.2329 41.4279C68.2011 41.5078 68.1882 41.594 68.1951 41.6797C68.2028 41.82 68.2406 41.957 68.306 42.0813C68.3714 42.2056 68.4628 42.3144 68.574 42.4003C68.9666 42.687 69.4884 42.724 70.0804 42.7405L70.0715 43.0587Z" fill="#2F2E41"/>
<path d="M67.2454 37.9551H65.5312V38.2734H67.2454V37.9551Z" fill="#2F2E41"/>
<path d="M72.6556 37.9551H70.9414V38.2734H72.6556V37.9551Z" fill="#2F2E41"/>
<path d="M77.3214 72.4307C77.3214 72.4307 78.0221 48.6056 68.2118 50.2406C58.4014 51.8757 62.4891 74.8833 62.4891 74.8833C62.4891 74.8833 64.5913 79.0877 69.7301 74.4161C74.8688 69.7445 77.3214 72.4307 77.3214 72.4307Z" fill="#2F2E41"/>
<path d="M51.6614 69.2899C51.4617 69.29 51.2662 69.2324 51.0985 69.124C50.9308 69.0156 50.798 68.861 50.716 68.6789L49.7547 66.5358C49.6991 66.4119 49.6684 66.2782 49.6645 66.1425C49.6606 66.0067 49.6834 65.8714 49.7317 65.7445C49.7801 65.6175 49.8529 65.5014 49.9462 65.4026C50.0394 65.3038 50.1512 65.2243 50.2751 65.1687L67.0648 57.6368C67.3294 57.5181 67.6149 57.4527 67.9048 57.4443C68.1947 57.4359 68.4835 57.4847 68.7546 57.5878C69.0256 57.691 69.2738 57.8466 69.4847 58.0457C69.6957 58.2447 69.8654 58.4834 69.9841 58.748C70.1028 59.0127 70.1682 59.2981 70.1766 59.5881C70.185 59.878 70.1363 60.1667 70.0331 60.4378C69.9299 60.7089 69.7743 60.957 69.5753 61.168C69.3762 61.3789 69.1375 61.5486 68.8729 61.6673L52.0832 69.1993C51.9506 69.259 51.8068 69.2898 51.6614 69.2899Z" fill="#2563EB"/>
<path d="M73.7004 32.797C72.1213 31.7248 70.1282 32.4532 68.5937 33.2184C67.1035 33.9615 65.4242 34.9071 63.7381 34.1912C63.0796 33.9117 62.5443 33.3649 62.4513 32.6333C62.3405 31.7617 62.8675 30.9458 63.4536 30.3533C64.0907 29.7437 64.8328 29.2546 65.6442 28.9096C66.4396 28.5517 67.2775 28.2969 68.1376 28.1514C69.8411 27.8571 71.5904 27.9741 73.2397 28.4926C74.8889 29.0111 76.3904 29.9161 77.6191 31.1323C78.8077 32.3446 79.7261 33.7949 80.3138 35.3878C80.9014 36.9806 81.1451 38.6799 81.0286 40.3737C80.8945 42.1791 80.3179 44.0201 79.1611 45.4374C78.0757 46.7672 76.4505 47.7021 74.7159 47.7801C74.2909 47.8 73.865 47.7654 73.4488 47.6772C73.1491 47.6133 73.0211 48.0734 73.3219 48.1376C75.1285 48.5228 77 47.9504 78.4329 46.8233C79.9413 45.6369 80.8667 43.8407 81.2725 41.99C82.049 38.4484 81.0763 34.6371 78.847 31.8018C77.7462 30.3895 76.3203 29.2643 74.6907 28.5221C73.0078 27.7707 71.1693 27.4333 69.3292 27.5383C67.4941 27.6304 65.7138 28.1945 64.1605 29.176C62.7712 30.0739 61.2053 31.9773 62.3384 33.6613C62.7621 34.2911 63.4656 34.6747 64.1959 34.8323C65.0339 34.9954 65.9009 34.9198 66.6981 34.6143C68.5133 33.9734 70.1921 32.5411 72.2238 32.7582C72.6667 32.8041 73.0912 32.9591 73.4595 33.2092C73.7143 33.3823 73.9534 32.9688 73.7004 32.797Z" fill="#2F2E41"/>
<path d="M45.9886 61.9477C45.8963 61.9475 45.8052 61.9268 45.722 61.8869C45.6387 61.847 45.5654 61.789 45.5075 61.7171L42.8681 58.4911H4.2877C3.90798 58.4907 3.54394 58.3396 3.27544 58.0711C3.00694 57.8026 2.8559 57.4386 2.85547 57.0589V34.1432C2.8559 33.7635 3.00694 33.3994 3.27544 33.1309C3.54394 32.8624 3.90798 32.7114 4.2877 32.7109H45.1859C45.5656 32.7114 45.9296 32.8624 46.1981 33.1309C46.4666 33.3994 46.6177 33.7635 46.6181 34.1432V61.3206C46.6191 61.45 46.5795 61.5764 46.505 61.6821C46.4305 61.7879 46.3247 61.8676 46.2025 61.9102C46.1339 61.9349 46.0616 61.9476 45.9886 61.9477ZM4.2877 33.0292C3.99236 33.0295 3.70921 33.147 3.50038 33.3559C3.29154 33.5647 3.17407 33.8478 3.17374 34.1432V57.0589C3.17407 57.3542 3.29154 57.6374 3.50038 57.8462C3.70921 58.055 3.99236 58.1725 4.2877 58.1728H43.0189L45.7538 61.5156C45.794 61.5647 45.8484 61.6002 45.9096 61.6172C45.9708 61.6342 46.0357 61.6319 46.0955 61.6105C46.1553 61.5892 46.207 61.5498 46.2436 61.4979C46.2802 61.446 46.2998 61.3841 46.2998 61.3206V34.1432C46.2995 33.8478 46.182 33.5647 45.9732 33.3559C45.7644 33.147 45.4812 33.0295 45.1859 33.0292H4.2877Z" fill="#3F3D56"/>
<path d="M40.5694 40.3492H8.90115C8.69012 40.3492 8.48774 40.2653 8.33852 40.1161C8.1893 39.9669 8.10547 39.7645 8.10547 39.5535C8.10547 39.3425 8.1893 39.1401 8.33852 38.9909C8.48774 38.8416 8.69012 38.7578 8.90115 38.7578H40.5694C40.7804 38.7578 40.9828 38.8416 41.132 38.9909C41.2812 39.1401 41.3651 39.3425 41.3651 39.5535C41.3651 39.7645 41.2812 39.9669 41.132 40.1161C40.9828 40.2653 40.7804 40.3492 40.5694 40.3492Z" fill="#CCCCCC"/>
<path d="M40.5694 45.6011H8.90115C8.69012 45.6011 8.48774 45.5173 8.33852 45.3681C8.1893 45.2189 8.10547 45.0165 8.10547 44.8054C8.10547 44.5944 8.1893 44.392 8.33852 44.2428C8.48774 44.0936 8.69012 44.0098 8.90115 44.0098H40.5694C40.7804 44.0098 40.9828 44.0936 41.132 44.2428C41.2812 44.392 41.3651 44.5944 41.3651 44.8054C41.3651 45.0165 41.2812 45.2189 41.132 45.3681C40.9828 45.5173 40.7804 45.6011 40.5694 45.6011Z" fill="#CCCCCC"/>
<path d="M40.5694 50.8531H8.90115C8.69012 50.8531 8.48774 50.7693 8.33852 50.62C8.1893 50.4708 8.10547 50.2684 8.10547 50.0574C8.10547 49.8464 8.1893 49.644 8.33852 49.4948C8.48774 49.3455 8.69012 49.2617 8.90115 49.2617H40.5694C40.7804 49.2617 40.9828 49.3455 41.132 49.4948C41.2812 49.644 41.3651 49.8464 41.3651 50.0574C41.3651 50.2684 41.2812 50.4708 41.132 50.62C40.9828 50.7693 40.7804 50.8531 40.5694 50.8531Z" fill="#CCCCCC"/>
<path d="M5.65287 29.1347L4.99935 28.9207C2.6668 28.1343 1.13439 27.6321 0.588555 26.4017C0.482567 26.1737 0.422533 25.927 0.411877 25.6758C0.40122 25.4246 0.440149 25.1737 0.526446 24.9375C0.612743 24.7013 0.744715 24.4844 0.914828 24.2993C1.08494 24.1141 1.28986 23.9642 1.51789 23.8582C1.53469 23.8504 1.55159 23.8429 1.5686 23.8355C1.84554 23.7144 2.14552 23.6551 2.44771 23.6615C2.7499 23.668 3.04706 23.7402 3.31856 23.873C3.40227 23.5826 3.54819 23.3138 3.74619 23.0855C3.9442 22.8571 4.18953 22.6745 4.46517 22.5505C4.92699 22.3392 5.45381 22.3201 5.92975 22.4973C6.40568 22.6744 6.79174 23.0334 7.003 23.4952C7.0107 23.5121 7.01816 23.529 7.02537 23.5461C7.57121 24.7764 6.91515 26.2496 5.93282 28.5066L5.65287 29.1347Z" fill="#FF6584"/>
<path d="M38.7499 4.40558L38.3239 4.26608C36.8032 3.75339 35.8042 3.42597 35.4483 2.62387C35.3792 2.47521 35.3401 2.3144 35.3332 2.15061C35.3262 1.98683 35.3516 1.82328 35.4078 1.6693C35.4641 1.51532 35.5501 1.37393 35.661 1.25321C35.7719 1.13248 35.9055 1.03478 36.0542 0.965683C36.0651 0.960591 36.0762 0.955662 36.0873 0.950898C36.2678 0.871948 36.4634 0.833239 36.6604 0.837458C36.8574 0.841677 37.0511 0.888724 37.2281 0.975331C37.2827 0.785986 37.3778 0.610787 37.5069 0.4619C37.636 0.313013 37.7959 0.194005 37.9756 0.113139C38.1247 0.0449447 38.2857 0.00677868 38.4496 0.000823869C38.6134 -0.00513094 38.7768 0.021241 38.9304 0.0784327C39.0841 0.135624 39.2249 0.222516 39.345 0.334148C39.465 0.445779 39.5619 0.579964 39.6301 0.72904C39.6351 0.740015 39.64 0.751063 39.6447 0.762183C40.0005 1.56429 39.5728 2.52467 38.9324 3.9961L38.7499 4.40558Z" fill="#FF6584"/>
<path d="M51.8694 16.9571H39.6158C39.2361 16.9567 38.8721 16.8056 38.6036 16.5371C38.3351 16.2686 38.184 15.9046 38.1836 15.5249V7.72715C38.184 7.34744 38.3351 6.98339 38.6036 6.71489C38.8721 6.44639 39.2361 6.29536 39.6158 6.29492H51.8694C52.2491 6.29536 52.6131 6.44639 52.8816 6.71489C53.1501 6.98339 53.3012 7.34744 53.3016 7.72715V15.5249C53.3012 15.9046 53.1501 16.2686 52.8816 16.5371C52.6131 16.8056 52.2491 16.9567 51.8694 16.9571ZM39.6158 6.6132C39.3205 6.61353 39.0373 6.731 38.8285 6.93983C38.6197 7.14867 38.5022 7.43182 38.5019 7.72715V15.5249C38.5022 15.8202 38.6197 16.1033 38.8285 16.3122C39.0373 16.521 39.3205 16.6385 39.6158 16.6388H51.8694C52.1647 16.6385 52.4479 16.521 52.6567 16.3122C52.8655 16.1033 52.983 15.8202 52.9833 15.5249V7.72715C52.983 7.43182 52.8655 7.14867 52.6567 6.93983C52.4479 6.731 52.1647 6.61353 51.8694 6.6132H39.6158Z" fill="#3F3D56"/>
<path d="M45.6778 11.555C45.3503 11.5557 45.0306 11.4557 44.7619 11.2686L38.6133 6.96976L38.7957 6.70898L44.9442 11.0078C45.1568 11.1552 45.4089 11.2351 45.6676 11.2371C45.9262 11.2391 46.1795 11.1632 46.3944 11.0191L52.724 6.73983L52.9022 7.00356L46.5726 11.2828C46.3082 11.4608 45.9966 11.5556 45.6778 11.555Z" fill="#3F3D56"/>
<path d="M45.6635 13.456C46.7182 13.456 47.5732 12.601 47.5732 11.5464C47.5732 10.4917 46.7182 9.63672 45.6635 9.63672C44.6089 9.63672 43.7539 10.4917 43.7539 11.5464C43.7539 12.601 44.6089 13.456 45.6635 13.456Z" fill="#3F3D56"/>
<path d="M91.99 17.9335L91.6504 17.8223C90.4383 17.4136 89.642 17.1527 89.3583 16.5133C89.2471 16.274 89.2355 16.0003 89.3261 15.7524C89.4166 15.5046 89.6019 15.3028 89.8413 15.1916C89.85 15.1876 89.8588 15.1836 89.8676 15.1798C90.0115 15.1169 90.1674 15.086 90.3244 15.0894C90.4815 15.0928 90.6359 15.1303 90.7769 15.1993C90.8204 15.0484 90.8963 14.9087 90.9992 14.7901C91.1021 14.6714 91.2295 14.5765 91.3728 14.5121C91.4916 14.4577 91.62 14.4273 91.7506 14.4225C91.8811 14.4178 92.0114 14.4388 92.1338 14.4844C92.2563 14.53 92.3686 14.5992 92.4643 14.6882C92.56 14.7772 92.6372 14.8842 92.6915 15.003C92.6955 15.0117 92.6994 15.0205 92.7032 15.0294C92.9868 15.6687 92.6459 16.4342 92.1354 17.6071L91.99 17.9335Z" fill="#FF6584"/>
<path d="M102.448 27.9361H92.6807C92.378 27.9358 92.0878 27.8154 91.8738 27.6013C91.6598 27.3873 91.5394 27.0972 91.5391 26.7945V20.5791C91.5394 20.2764 91.6598 19.9863 91.8738 19.7723C92.0878 19.5582 92.378 19.4378 92.6807 19.4375H102.448C102.75 19.4378 103.041 19.5582 103.255 19.7723C103.469 19.9863 103.589 20.2764 103.589 20.5791V26.7945C103.589 27.0972 103.469 27.3873 103.255 27.6013C103.041 27.8154 102.75 27.9358 102.448 27.9361ZM92.6807 19.6912C92.4453 19.6915 92.2196 19.7851 92.0531 19.9515C91.8867 20.118 91.793 20.3437 91.7928 20.5791V26.7945C91.793 27.0299 91.8867 27.2556 92.0531 27.4221C92.2196 27.5885 92.4453 27.6821 92.6807 27.6824H102.448C102.683 27.6821 102.909 27.5885 103.075 27.4221C103.242 27.2556 103.335 27.0299 103.336 26.7945V20.5791C103.335 20.3437 103.242 20.118 103.075 19.9515C102.909 19.7851 102.683 19.6915 102.448 19.6912H92.6807Z" fill="#3F3D56"/>
<path d="M97.5099 23.6303C97.2489 23.6308 96.994 23.551 96.7798 23.4019L91.8789 19.9754L92.0243 19.7676L96.9252 23.1941C97.0946 23.3115 97.2955 23.3752 97.5017 23.3768C97.7079 23.3785 97.9098 23.3179 98.0811 23.2031L103.126 19.7922L103.268 20.0024L98.2231 23.4133C98.0124 23.5552 97.764 23.6307 97.5099 23.6303Z" fill="#3F3D56"/>
<path d="M97.4987 25.1458C98.3394 25.1458 99.0208 24.4644 99.0208 23.6237C99.0208 22.783 98.3394 22.1016 97.4987 22.1016C96.658 22.1016 95.9766 22.783 95.9766 23.6237C95.9766 24.4644 96.658 25.1458 97.4987 25.1458Z" fill="#3F3D56"/>
<path d="M100.884 89.9999H40.2529C40.2107 89.9999 40.1702 89.9831 40.1404 89.9533C40.1105 89.9235 40.0938 89.883 40.0938 89.8408C40.0938 89.7986 40.1105 89.7581 40.1404 89.7283C40.1702 89.6984 40.2107 89.6816 40.2529 89.6816H100.884C100.926 89.6816 100.967 89.6984 100.997 89.7283C101.026 89.7581 101.043 89.7986 101.043 89.8408C101.043 89.883 101.026 89.9235 100.997 89.9533C100.967 89.9831 100.926 89.9999 100.884 89.9999Z" fill="#3F3D56"/>
</g>
<defs>
<clipPath id="clip0_3032_4048">
<rect width="103.179" height="90" fill="white" transform="translate(0.410156)"/>
</clipPath>
</defs>
</svg>
