<svg width="96" height="90" viewBox="0 0 96 90" fill="none" xmlns="http://www.w3.org/2000/svg">
<g clip-path="url(#clip0_3032_3927)">
<path d="M34.8338 17.1592C34.8359 19.9252 34.1684 22.6506 32.8884 25.1026C31.6085 27.5546 29.754 29.6604 27.4834 31.2401C26.8439 31.6877 26.1741 32.0905 25.479 32.4456C25.2483 32.564 25.016 32.6764 24.7794 32.7829C24.5663 32.8805 24.3519 32.9723 24.1344 33.0595C21.4373 34.1516 18.5075 34.5424 15.6185 34.1956C15.1185 34.1364 14.6249 34.0551 14.1377 33.9515C14.117 33.9471 14.0948 33.9426 14.0741 33.9382C13.0539 33.7224 12.056 33.4119 11.0934 33.0107C8.2238 31.8195 5.73142 29.8716 3.88219 27.3748C2.03297 24.878 0.896301 21.926 0.593446 18.8338C0.290591 15.7415 0.832922 12.6251 2.16257 9.81697C3.49223 7.00883 5.55931 4.61435 8.14328 2.88903C10.7272 1.16371 13.7311 0.172265 16.8345 0.0204907C19.9378 -0.131283 23.0241 0.562304 25.7641 2.02725C28.5041 3.49219 30.7949 5.67353 32.3923 8.33852C33.9896 11.0035 34.8334 14.0522 34.8338 17.1592Z" fill="#F1F1F1"/>
<path d="M20.8353 13.9557C20.8205 13.9379 20.8043 13.9217 20.788 13.9054C19.8712 12.9797 18.6262 12.453 17.3234 12.4397C16.0206 12.4264 14.7652 12.9276 13.8297 13.8344C13.8193 13.8433 13.8105 13.8521 13.8016 13.861C13.7897 13.8714 13.7794 13.8817 13.769 13.8921C13.3083 14.3516 12.9428 14.8976 12.6936 15.4987C12.4443 16.0998 12.3161 16.7442 12.3164 17.3949V20.5013C12.3167 20.6778 12.3869 20.8469 12.5117 20.9717C12.6364 21.0965 12.8056 21.1667 12.9821 21.167H21.5617C21.7381 21.1667 21.9073 21.0965 22.0321 20.9717C22.1568 20.8469 22.227 20.6778 22.2273 20.5013V17.3949C22.2285 16.111 21.7292 14.8773 20.8353 13.9557Z" fill="#2F2E41"/>
<path d="M17.4691 21.1374C19.4756 21.1374 21.1023 19.5108 21.1023 17.5043C21.1023 15.4977 19.4756 13.8711 17.4691 13.8711C15.4626 13.8711 13.8359 15.4977 13.8359 17.5043C13.8359 19.5108 15.4626 21.1374 17.4691 21.1374Z" fill="#FFB7B7"/>
<path d="M21.2876 17.195L20.8587 14.198C20.8454 14.106 20.7985 14.0222 20.727 13.9628C20.7029 13.9435 20.6765 13.9271 20.6485 13.914C18.4519 12.8859 16.2242 12.8859 14.0275 13.911C13.9982 13.9246 13.9708 13.942 13.9461 13.9628C13.9373 13.9702 13.9284 13.9791 13.9195 13.988C13.8608 14.0486 13.8243 14.1273 13.8159 14.2113L13.529 17.2127C13.5241 17.264 13.5301 17.3158 13.5464 17.3647C13.5627 17.4136 13.589 17.4586 13.6237 17.4967C13.6795 17.5582 13.7546 17.5989 13.8367 17.6121C13.8566 17.6163 13.877 17.6183 13.8973 17.618H14.6251C14.6955 17.6178 14.7643 17.5977 14.8237 17.56C14.8832 17.5223 14.9307 17.4686 14.9609 17.405L15.276 16.7305C15.2961 16.6868 15.33 16.6508 15.3725 16.6281C15.4149 16.6054 15.4636 16.5972 15.5112 16.6047C15.5588 16.6123 15.6025 16.6351 15.6359 16.6699C15.6693 16.7046 15.6904 16.7492 15.696 16.797L15.7582 17.2941C15.7697 17.3834 15.8133 17.4654 15.8807 17.525C15.9482 17.5846 16.0351 17.6176 16.1251 17.618H20.9222C20.985 17.6183 21.0468 17.602 21.1012 17.5707C21.1391 17.5501 21.1731 17.523 21.2018 17.4908C21.2365 17.4505 21.2621 17.4033 21.2769 17.3522C21.2917 17.3012 21.2954 17.2475 21.2876 17.195Z" fill="#2F2E41"/>
<path d="M26.456 27.7929L27.4856 31.2396C26.846 31.6872 26.1763 32.09 25.4811 32.4452C25.2504 32.5635 25.0182 32.6759 24.7815 32.7824L23.7149 28.2101L23.3008 26.4365L25.9634 26.1406L26.456 27.7929Z" fill="#FFB7B7"/>
<path d="M14.2017 27.2207L14.1129 31.8774L14.0745 33.9379C13.0542 33.7222 12.0563 33.4117 11.0938 33.0105L11.4473 28.5994L11.5361 27.487L14.2017 27.2207Z" fill="#FFB7B7"/>
<path d="M26.4535 27.7927L23.779 28.1936L23.8116 28.6329L24.134 33.0588C21.4369 34.1508 18.5071 34.5417 15.6181 34.1948C15.1181 34.1357 14.6245 34.0543 14.1373 33.9508C14.3562 33.0307 14.5456 32.2023 14.3119 32.0396C14.2415 31.9903 14.1747 31.9359 14.1122 31.8769C13.022 30.837 13.4243 28.4894 13.4243 28.4894L11.4466 28.5989L10.7617 28.6373C10.7617 28.6373 11.0576 23.9037 12.3889 23.9037H14.016L21.856 23.1641C21.856 23.1641 24.0749 22.4245 24.6666 23.46C24.9772 24.0029 25.5304 25.1537 25.9876 26.127C26.4017 27.0116 26.7375 27.7498 26.7375 27.7498L26.4535 27.7927Z" fill="#2F2E41"/>
<path d="M95.4814 17.3482C95.4537 20.0577 94.7839 22.722 93.5269 25.1225C92.2699 27.5229 90.4616 29.5911 88.2504 31.1572C88.212 31.1839 88.172 31.212 88.1321 31.2401C88.0907 31.2697 88.0478 31.2993 88.0049 31.3274C87.7564 31.499 87.5029 31.6632 87.2445 31.82C86.8807 32.0418 86.5084 32.2504 86.1277 32.4457C86.1159 32.4516 86.1025 32.4575 86.0907 32.4634C85.8718 32.5758 85.651 32.6823 85.4281 32.7829C85.4206 32.7859 85.4147 32.7889 85.4073 32.7918C85.3556 32.8155 85.3008 32.8406 85.2476 32.8628C84.8349 33.0462 84.4133 33.2134 83.9843 33.3613C83.6189 33.49 83.2481 33.6054 82.8719 33.7075C82.1025 33.9197 81.319 34.0769 80.5273 34.1779C79.8522 34.2647 79.1725 34.3111 78.4919 34.3169C78.4356 34.3184 78.3794 34.3184 78.3232 34.3184C77.952 34.3184 77.5822 34.3066 77.2168 34.2829C76.8972 34.2622 76.5807 34.2341 76.2671 34.1956C75.7834 34.1379 75.3056 34.061 74.8352 33.9604C74.8145 33.9575 74.7938 33.953 74.7731 33.9486C74.7568 33.9456 74.7391 33.9412 74.7228 33.9382C74.2494 33.8391 73.7835 33.7178 73.3264 33.5788C72.8959 33.4486 72.4733 33.3017 72.0586 33.138C71.9522 33.0965 71.8472 33.0551 71.7421 33.0107C71.4803 32.9013 71.2214 32.7874 70.967 32.6646C70.893 32.6306 70.8206 32.5951 70.7481 32.5596C70.5025 32.4398 70.2599 32.314 70.0232 32.1809C69.7377 32.0226 69.4572 31.8564 69.1816 31.6824C68.8339 31.4635 68.4937 31.2327 68.1638 30.9886C65.233 28.8353 63.0621 25.8066 61.9644 22.3394C60.8667 18.8722 60.8989 15.1459 62.0564 11.6983C63.2139 8.25061 65.4369 5.25984 68.4045 3.15755C71.3721 1.05526 74.9308 -0.0498388 78.5673 0.00172586C87.9764 0.132424 95.5829 7.93871 95.4814 17.3482Z" fill="#F1F1F1"/>
<path d="M74.7245 33.9384C74.2511 33.8393 73.7852 33.718 73.3281 33.579L74.8976 23.8471L76.5232 23.7968L79.4714 23.7036L80.9832 23.6562C80.9832 23.6562 82.0556 28.3691 82.8736 33.7077C82.1042 33.9199 81.3207 34.0771 80.529 34.1781C79.8539 34.2649 79.1742 34.3113 78.4936 34.3171C78.4374 34.3186 78.3812 34.3186 78.325 34.3186C77.9537 34.3186 77.5839 34.3068 77.2185 34.2831C76.8989 34.2624 76.5825 34.2343 76.2688 34.1958C75.7851 34.1381 75.3073 34.0612 74.8369 33.9606C74.8162 33.9577 74.7955 33.9532 74.7748 33.9488C74.7585 33.9458 74.7408 33.9414 74.7245 33.9384Z" fill="#CBCBCB"/>
<path d="M74.8345 33.9596C74.8138 33.9566 74.7931 33.9522 74.7723 33.9478C74.7561 33.9448 74.7383 33.9404 74.7221 33.9374C74.2487 33.8383 73.7827 33.717 73.3257 33.5779C72.8952 33.4478 72.4726 33.3008 72.0579 33.1371C71.9515 33.0957 71.8464 33.0543 71.7414 33.0099C71.4796 32.9005 71.2207 32.7866 70.9663 32.6638C70.8923 32.6298 70.8199 32.5943 70.7473 32.5588L70.6172 25.272L74.6111 23.5605C74.6111 23.5605 74.6244 23.6671 76.5208 23.7957C76.8817 24.9732 74.8345 33.9596 74.8345 33.9596Z" fill="#2F2E41"/>
<path d="M86.7718 24.9286L86.0189 28.8856L86.0898 32.4639C85.871 32.5763 85.6501 32.6828 85.4272 32.7834C85.4198 32.7863 85.4138 32.7893 85.4065 32.7923C85.3547 32.8159 85.2999 32.8411 85.2467 32.8633C84.834 33.0467 84.4124 33.2138 83.9834 33.3618C83.618 33.4905 83.2472 33.6058 82.8711 33.7079C82.1017 33.9201 81.3181 34.0773 80.5264 34.1783C79.8513 34.2651 79.1717 34.3116 78.491 34.3174L78.4126 27.9759C78.247 25.9315 78.7958 24.5795 79.4688 23.7038C83.056 23.2245 82.9761 23.1816 82.9761 23.1816L86.7792 24.8931L86.7718 24.9286Z" fill="#2F2E41"/>
<path d="M72.3314 25.8444L72.0607 33.1386C71.9542 33.0971 71.8492 33.0557 71.7441 33.0113C71.4823 32.9019 71.2235 32.788 70.969 32.6652C70.895 32.6312 70.8226 32.5957 70.7501 32.5602C70.5045 32.4404 70.262 32.3146 70.0253 32.1815C69.7398 32.0232 69.4592 31.857 69.1836 31.683L70.6199 25.2734L72.3314 25.8444Z" fill="#2F2E41"/>
<path d="M88.2505 31.1566C88.2121 31.1832 88.1721 31.2113 88.1322 31.2394C88.0908 31.269 88.0479 31.2986 88.005 31.3267C87.7564 31.4983 87.503 31.6625 87.2446 31.8193C86.8807 32.0412 86.5085 32.2497 86.1278 32.445C86.116 32.4509 86.1026 32.4568 86.0908 32.4627C85.8653 32.5786 85.6376 32.6881 85.4078 32.7914L85.4074 32.7911L85.1367 25.4719L86.7728 24.9275L86.8482 24.9023L88.2505 31.1566Z" fill="#2F2E41"/>
<path d="M82.4069 18.1543C83.0643 15.912 81.7842 13.5626 79.5476 12.9069C77.311 12.2512 74.9649 13.5374 74.3075 15.7797C73.6501 18.0221 74.9303 20.3714 77.1669 21.0271C79.4035 21.6829 81.7495 20.3966 82.4069 18.1543Z" fill="#9F616A"/>
<path d="M74.1074 18.0283V16.3817C74.1074 16.3817 72.7795 14.8178 74.2402 14.4239C74.2402 14.4239 74.6385 10.4844 78.091 12.3228C78.091 12.3228 82.8713 11.5349 82.3402 14.2925C82.3402 14.2925 83.5353 13.5726 83.1369 15.411L82.3665 18.3724C82.3665 18.3724 82.7385 16.4162 81.5435 16.1536L80.8795 15.7596C80.8795 15.7596 79.0205 17.598 76.232 15.3657C76.232 15.3657 75.0369 15.0804 75.1697 16.2623C75.3025 17.4441 74.1074 18.0283 74.1074 18.0283Z" fill="#2F2E41"/>
<path d="M65.1568 68.9326C65.159 71.6986 64.4915 74.424 63.2115 76.8761C61.9316 79.3281 60.0771 81.4339 57.8065 83.0135C57.7651 83.0431 57.7222 83.0727 57.6793 83.1008C57.4308 83.2724 57.1773 83.4366 56.919 83.5934C56.5551 83.8153 56.1828 84.0238 55.8021 84.2191C55.5714 84.3374 55.3391 84.4498 55.1025 84.5564C55.0433 84.583 54.9827 84.6111 54.922 84.6362C54.5093 84.8197 54.0877 84.9868 53.6587 85.1347C52.5383 85.5276 51.3795 85.8013 50.2017 85.9513C49.4708 86.0453 48.7346 86.0922 47.9977 86.0918C47.6264 86.0918 47.2566 86.08 46.8912 86.0563C46.5717 86.0356 46.2552 86.0075 45.9415 85.969C45.4371 85.9084 44.9386 85.827 44.4475 85.722C44.4312 85.719 44.4135 85.7146 44.3972 85.7116C43.377 85.4959 42.3791 85.1854 41.4165 84.7842C41.1547 84.6747 40.8959 84.5608 40.6414 84.438C40.3204 84.2871 40.0058 84.1259 39.6977 83.9543C37.0491 82.491 34.8345 80.3533 33.2786 77.7581C31.7226 75.1629 30.8805 72.2023 30.8377 69.1767C30.7948 66.1511 31.5528 63.1679 33.0348 60.5297C34.5167 57.8915 36.6699 55.692 39.276 54.1543C41.8821 52.6166 44.8485 51.7954 47.8744 51.7739C50.9002 51.7524 53.878 52.5313 56.5057 54.0318C59.1334 55.5322 61.3177 57.7008 62.837 60.3177C64.3563 62.9346 65.1566 65.9067 65.1568 68.9326Z" fill="#F1F1F1"/>
<path d="M47.527 73.1614C49.6432 73.1614 51.3586 71.4459 51.3586 69.3297C51.3586 67.2135 49.6432 65.498 47.527 65.498C45.4108 65.498 43.6953 67.2135 43.6953 69.3297C43.6953 71.4459 45.4108 73.1614 47.527 73.1614Z" fill="#FFB8B8"/>
<path d="M45.9433 85.9689C45.4388 85.9083 44.9403 85.8269 44.4492 85.7219L44.9152 75.237L44.9818 75.1675L45.9358 74.1602H48.9698L50.0895 75.2444L50.1842 75.3376L52.5791 77.6319L53.6604 85.1346C52.54 85.5275 51.3813 85.8012 50.2034 85.9512C49.4725 86.0452 48.7363 86.0921 47.9994 86.0917C47.6281 86.0917 47.2583 86.0799 46.8929 86.0562C46.5734 86.0355 46.2569 86.0074 45.9433 85.9689Z" fill="#CBCBCB"/>
<path d="M40.644 84.4379C40.323 84.287 40.0084 84.1258 39.7002 83.9542C39.6692 81.114 39.6484 79.228 39.6484 79.228L40.0094 79.0076C40.0137 79.0053 40.0181 79.0034 40.0227 79.0017L44.1187 76.5136L44.9781 75.1172L44.9826 75.1675L45.2355 78.1112C45.9973 80.7115 46.5517 83.3682 46.8938 86.0562C46.5742 86.0355 46.2577 86.0073 45.9441 85.9689C45.4397 85.9082 44.9411 85.8269 44.4501 85.7219C44.4338 85.7189 44.416 85.7145 44.3998 85.7115C43.3795 85.4957 42.3816 85.1852 41.4191 84.784C41.1573 84.6746 40.8984 84.5607 40.644 84.4379Z" fill="#2F2E41"/>
<path d="M53.6596 85.1346C52.5392 85.5275 51.3804 85.8012 50.2026 85.9511C50.0394 84.9964 49.9794 84.0268 50.0236 83.0592C50.3431 77.9514 49.6065 75.1172 49.926 75.1172L50.0887 75.2444L52.099 76.8331L54.7453 77.8035H54.7468L56.5678 78.4706L56.8888 78.589V78.7413C56.8902 79.2679 56.8932 81.1111 56.9198 83.5932C56.556 83.8151 56.1837 84.0237 55.803 84.219C55.5723 84.3373 55.34 84.4497 55.1034 84.5562C55.0441 84.5829 54.9835 84.611 54.9229 84.6361C54.5102 84.8195 54.0886 84.9867 53.6596 85.1346Z" fill="#2F2E41"/>
<path d="M43.9022 70.5278C43.9022 70.5278 44.2277 69.9561 44.1521 68.0462C44.0764 66.1363 46.9847 67.2165 49.415 67.0343C51.8452 66.8521 51.3308 70.223 51.3308 70.223C51.3308 70.223 51.5061 70.0226 51.8815 68.3957C52.2568 66.7688 51.4045 65.1476 51.4045 65.1476C51.1535 63.438 49.8007 63.9859 49.8007 63.9859C50.4522 64.2396 50.3271 64.7819 50.3271 64.7819C49.7756 63.815 48.4228 64.3629 48.4228 64.3629C46.6186 63.2307 44.79 64.7217 44.79 64.7217C42.6104 65.2163 43.8887 66.9497 43.8887 66.9497C41.6967 68.0574 43.9022 70.5278 43.9022 70.5278Z" fill="#2F2E41"/>
<path d="M37.8398 82.7622C37.8961 81.4619 37.9212 80.6232 37.8916 80.5063C37.7393 79.8969 39.8191 79.0804 40.0084 79.0079C40.0127 79.0056 40.0172 79.0037 40.0217 79.002L40.4448 79.2283L40.643 84.4382C40.322 84.2873 40.0075 84.126 39.6993 83.9545C39.0543 83.5977 38.4332 83.1994 37.8398 82.7622Z" fill="#2F2E41"/>
<path d="M56.9204 83.5927C56.5566 83.8146 56.1843 84.0232 55.8036 84.2184C55.5729 84.3368 55.3406 84.4492 55.104 84.5557C55.0447 84.5823 54.9841 84.6104 54.9235 84.6356L54.2578 78.0633L54.6468 77.7793C54.6468 77.7793 54.6824 77.7882 54.7459 77.803H54.7474C55.0595 77.8799 56.0181 78.1343 56.5684 78.4701C56.6912 78.5397 56.8001 78.6315 56.8894 78.7408C56.9438 78.806 56.9708 78.8898 56.9648 78.9745C56.9471 79.1461 57.2429 80.7733 57.6808 83.1001C57.4323 83.2717 57.1788 83.4359 56.9204 83.5927Z" fill="#2F2E41"/>
<path d="M23.8904 72.4287H17.5273V43.9023H17.8232V72.1329H23.8904V72.4287Z" fill="#F1F1F1"/>
<path d="M78.4725 72.4276H72.1094V72.1318H78.1766V43.6367H78.4725V72.4276Z" fill="#F1F1F1"/>
<path d="M78.3246 37.6258C80.4844 37.6258 82.2352 35.875 82.2352 33.7153C82.2352 31.5555 80.4844 29.8047 78.3246 29.8047C76.1649 29.8047 74.4141 31.5555 74.4141 33.7153C74.4141 35.875 76.1649 37.6258 78.3246 37.6258Z" fill="#2563EB"/>
<path d="M77.9518 35.3665L76.7812 33.8615L77.462 33.3321L78.0161 34.0446L79.8884 32.0684L80.5144 32.6614L77.9518 35.3665Z" fill="white"/>
<path d="M17.6762 37.9305C19.8359 37.9305 21.5868 36.1797 21.5868 34.0199C21.5868 31.8602 19.8359 30.1094 17.6762 30.1094C15.5164 30.1094 13.7656 31.8602 13.7656 34.0199C13.7656 36.1797 15.5164 37.9305 17.6762 37.9305Z" fill="#2563EB"/>
<path d="M17.3033 35.6712L16.1328 34.1662L16.8136 33.6368L17.3677 34.3493L19.24 32.373L19.866 32.9661L17.3033 35.6712Z" fill="white"/>
<path d="M48.0004 90.0008C50.1602 90.0008 51.911 88.25 51.911 86.0903C51.911 83.9305 50.1602 82.1797 48.0004 82.1797C45.8407 82.1797 44.0898 83.9305 44.0898 86.0903C44.0898 88.25 45.8407 90.0008 48.0004 90.0008Z" fill="#2563EB"/>
<path d="M47.6276 87.7395L46.457 86.2345L47.1378 85.7051L47.6919 86.4177L49.5642 84.4414L50.1902 85.0344L47.6276 87.7395Z" fill="white"/>
</g>
<defs>
<clipPath id="clip0_3032_3927">
<rect width="94.9672" height="90" fill="white" transform="translate(0.515625)"/>
</clipPath>
</defs>
</svg>
