<svg width="70" height="48" viewBox="0 0 70 48" fill="none" xmlns="http://www.w3.org/2000/svg">
<rect x="1" y="0.5" width="68" height="47" rx="11.5" fill="#EEEEEE"/>
<rect x="1" y="0.5" width="68" height="47" rx="11.5" stroke="#EEEEEE"/>
<path d="M43 15H27C26.7348 15 26.4804 15.1054 26.2929 15.2929C26.1054 15.4804 26 15.7348 26 16V32C26 32.2652 26.1054 32.5196 26.2929 32.7071C26.4804 32.8946 26.7348 33 27 33H43C43.2652 33 43.5196 32.8946 43.7071 32.7071C43.8946 32.5196 44 32.2652 44 32V16C44 15.7348 43.8946 15.4804 43.7071 15.2929C43.5196 15.1054 43.2652 15 43 15ZM31.339 30.337H28.667V21.747H31.339V30.337ZM30.003 20.574C29.5924 20.574 29.1987 20.4109 28.9084 20.1206C28.6181 19.8303 28.455 19.4366 28.455 19.026C28.455 18.6154 28.6181 18.2217 28.9084 17.9314C29.1987 17.6411 29.5924 17.478 30.003 17.478C30.4136 17.478 30.8073 17.6411 31.0976 17.9314C31.3879 18.2217 31.551 18.6154 31.551 19.026C31.551 19.4366 31.3879 19.8303 31.0976 20.1206C30.8073 20.4109 30.4136 20.574 30.003 20.574ZM41.338 30.337H38.669V26.16C38.669 25.164 38.651 23.883 37.281 23.883C35.891 23.883 35.68 24.969 35.68 26.09V30.338H33.013V21.748H35.573V22.922H35.61C35.965 22.247 36.837 21.535 38.134 21.535C40.838 21.535 41.337 23.313 41.337 25.627L41.338 30.337Z" fill="#2569C1"/>
</svg>
