<svg width="108" height="90" viewBox="0 0 108 90" fill="none" xmlns="http://www.w3.org/2000/svg">
<g clip-path="url(#clip0_3032_3821)">
<path d="M57.7145 12.6417C61.2517 10.0341 66.2316 9.0344 70.1282 11.0687C65.7416 12.9695 62.17 16.3574 60.0454 20.6332C59.232 22.2851 58.4997 24.207 56.8215 24.9704C55.7773 25.4455 54.5449 25.3538 53.4636 24.9702C52.3823 24.5865 51.4204 23.9349 50.4719 23.2901L50.1875 23.2559C51.8754 19.2034 54.1773 15.2493 57.7145 12.6417Z" fill="#F0F0F0"/>
<path d="M70.0977 11.1557C66.4595 11.2694 62.9497 12.5243 60.0668 14.7421C59.4377 15.2085 58.8862 15.771 58.4326 16.4088C58.0109 17.0444 57.7674 17.7811 57.7274 18.5423C57.6758 19.2514 57.7054 19.9826 57.482 20.6668C57.3625 21.0154 57.1705 21.3347 56.9185 21.604C56.6666 21.8733 56.3606 22.0864 56.0203 22.2293C55.1819 22.6075 54.2573 22.6625 53.3513 22.6849C52.3453 22.7097 51.3 22.7197 50.3851 23.1924C50.2743 23.2497 50.1917 23.0746 50.3024 23.0175C51.8941 22.195 53.7542 22.7316 55.4272 22.2421C56.2078 22.0137 56.9242 21.5492 57.2376 20.7719C57.5117 20.0922 57.4819 19.3381 57.5279 18.6198C57.5559 17.8766 57.7659 17.1515 58.1395 16.508C58.5591 15.8492 59.088 15.2664 59.7035 14.7847C61.0719 13.6781 62.6061 12.7931 64.2499 12.1621C66.122 11.4315 68.1056 11.026 70.1147 10.9629C70.2391 10.9591 70.2213 11.1518 70.0977 11.1557Z" fill="white"/>
<path d="M60.9512 13.9727C60.644 13.4395 60.5368 12.8147 60.6486 12.2098C60.7604 11.605 61.084 11.0595 61.5617 10.6708C61.6586 10.5925 61.7851 10.7391 61.688 10.8175C61.2426 11.1787 60.9412 11.6868 60.8382 12.2503C60.7353 12.8137 60.8375 13.3953 61.1265 13.8901C61.1892 13.9977 61.0136 14.0797 60.9512 13.9727Z" fill="white"/>
<path d="M57.7072 18.1791C58.9206 18.5176 60.2172 18.3872 61.3385 17.814C61.4496 17.7571 61.5322 17.9321 61.4213 17.9889C60.2533 18.5832 58.9037 18.7161 57.6418 18.3612C57.5216 18.3272 57.5876 18.1454 57.7072 18.1791Z" fill="white"/>
<path d="M66.1132 11.6881C66.189 11.9191 66.3211 12.1277 66.4976 12.2952C66.6742 12.4627 66.8896 12.5838 67.1247 12.6477C67.2453 12.6801 67.1791 12.8619 67.0592 12.8297C66.7999 12.758 66.5621 12.624 66.3666 12.4393C66.1712 12.2547 66.024 12.0251 65.938 11.7706C65.9278 11.7473 65.927 11.7211 65.9356 11.6971C65.9442 11.6732 65.9615 11.6535 65.9842 11.6419C66.0075 11.6311 66.0341 11.6299 66.0582 11.6385C66.0824 11.6472 66.1022 11.665 66.1132 11.6881Z" fill="white"/>
<path d="M73.2191 25.6039C73.1432 25.5858 73.0673 25.5677 72.9902 25.5507C71.9685 25.3129 70.9292 25.1583 69.8825 25.0885C69.8017 25.0818 69.7197 25.0762 69.6388 25.0719C67.1152 24.9305 64.5873 25.2578 62.1835 26.0374C61.2273 26.3484 60.2961 26.7316 59.3981 27.1837C58.158 27.8081 56.8632 28.5835 55.5281 28.7574C55.389 28.7772 55.2489 28.7882 55.1084 28.7907L50.1692 23.6042C50.1639 23.5868 50.1574 23.5704 50.152 23.553L49.9453 23.3549C49.99 23.3283 50.0369 23.3018 50.0816 23.2752C50.1074 23.2597 50.1344 23.2454 50.1603 23.2299C50.1778 23.2199 50.1955 23.21 50.2108 23.2C50.2166 23.1966 50.2225 23.1933 50.2272 23.1911C50.2425 23.1811 50.2578 23.1735 50.2719 23.1646C50.5337 23.0153 50.797 22.8677 51.0618 22.7216C51.063 22.7205 51.063 22.7205 51.0653 22.7205C53.0861 21.6125 55.2173 20.6631 57.4251 20.0668C57.4915 20.0488 57.5591 20.0297 57.6278 20.0142C58.6245 19.7509 59.641 19.5693 60.6673 19.4713C61.2295 19.4194 61.7939 19.396 62.3585 19.4011C63.8171 19.417 65.2641 19.6618 66.6466 20.1265C69.4022 21.0533 71.8302 22.8493 73.1223 25.4074C73.1553 25.4729 73.1873 25.5373 73.2191 25.6039Z" fill="#F0F0F0"/>
<path d="M73.1424 25.6548C70.1689 23.5596 66.6094 22.4527 62.9696 22.4914C62.1859 22.4858 61.4062 22.6035 60.6592 22.8403C59.939 23.0943 59.3002 23.5362 58.809 24.12C58.3401 24.6552 57.9225 25.2568 57.3314 25.6689C57.0257 25.8754 56.6797 26.015 56.3161 26.0786C55.9525 26.1423 55.5795 26.1285 55.2217 26.0382C54.3241 25.8364 53.5527 25.3248 52.8158 24.7983C51.9975 24.2137 51.1569 23.5936 50.1412 23.4213C50.0182 23.4004 50.0578 23.2111 50.1807 23.2319C51.9478 23.5316 53.1092 25.0777 54.7403 25.6921C55.5014 25.9787 56.3537 26.0382 57.0729 25.606C57.7018 25.228 58.1329 24.6079 58.603 24.062C59.0738 23.4855 59.6789 23.0327 60.3654 22.7434C61.0979 22.4695 61.8717 22.3219 62.6538 22.3071C64.414 22.2457 66.1729 22.4609 67.8661 22.9448C69.8016 23.4863 71.63 24.3543 73.2722 25.5112C73.3739 25.5828 73.2433 25.726 73.1424 25.6548Z" fill="white"/>
<path d="M64.1375 22.4103C64.2139 21.8 64.5053 21.2367 64.9594 20.8209C65.4136 20.4052 66.0011 20.1641 66.617 20.1407C66.7416 20.1364 66.7542 20.3295 66.6294 20.3338C66.0558 20.3545 65.5086 20.5791 65.0865 20.9671C64.6643 21.3552 64.3951 21.881 64.3273 22.4497C64.3124 22.5733 64.1227 22.5332 64.1375 22.4103Z" fill="white"/>
<path d="M59.0098 23.8169C59.7744 24.8162 60.8883 25.4911 62.1294 25.7072C62.2524 25.7285 62.2128 25.9179 62.09 25.8966C60.7989 25.6693 59.6411 24.9646 58.8477 23.923C58.7721 23.8236 58.9346 23.7181 59.0098 23.8169Z" fill="white"/>
<path d="M69.637 23.6862C69.5582 23.9162 69.5378 24.1621 69.5777 24.4019C69.6176 24.6417 69.7166 24.8679 69.8657 25.0601C69.9425 25.1584 69.7799 25.2638 69.7036 25.1661C69.5398 24.953 69.4308 24.7031 69.3862 24.4383C69.3415 24.1734 69.3625 23.9017 69.4473 23.6468C69.4533 23.6221 69.4684 23.6006 69.4897 23.5867C69.511 23.5728 69.5368 23.5674 69.5619 23.5718C69.587 23.5771 69.609 23.5922 69.623 23.6136C69.6371 23.635 69.6421 23.6611 69.637 23.6862Z" fill="white"/>
<path d="M56.7826 16.5207H56.3998V6.05645C56.3999 5.2611 56.2429 4.47355 55.9379 3.73875C55.6329 3.00394 55.1859 2.33629 54.6223 1.77389C54.0588 1.2115 53.3898 0.765387 52.6535 0.461022C51.9172 0.156656 51.128 4.28773e-07 50.331 0H28.1157C27.3187 -1.71502e-06 26.5296 0.156651 25.7933 0.461014C25.057 0.765377 24.3879 1.21149 23.8244 1.77388C23.2609 2.33627 22.8138 3.00393 22.5088 3.73873C22.2039 4.47353 22.0469 5.26109 22.0469 6.05643V63.4643C22.0469 65.0706 22.6863 66.6111 23.8244 67.7469C24.9625 68.8827 26.5061 69.5208 28.1157 69.5208H50.331C51.9406 69.5208 53.4842 68.8827 54.6223 67.7469C55.7604 66.6111 56.3998 65.0706 56.3998 63.4644V23.9694H56.7826V16.5207Z" fill="#3F3D56"/>
<path d="M50.5732 1.57618H47.6734C47.8067 1.90246 47.8576 2.25645 47.8216 2.60699C47.7856 2.95753 47.6637 3.29384 47.4667 3.58631C47.2698 3.87877 47.0038 4.11841 46.6922 4.28412C46.3806 4.44983 46.0329 4.53651 45.6798 4.53654H32.9529C32.5998 4.53651 32.2521 4.44983 31.9405 4.28412C31.6289 4.11842 31.3629 3.87878 31.1659 3.58631C30.969 3.29384 30.8471 2.95753 30.8111 2.60699C30.7751 2.25645 30.826 1.90245 30.9593 1.57617H28.2509C27.0489 1.57617 25.8961 2.05269 25.0462 2.90089C24.1962 3.7491 23.7188 4.89951 23.7188 6.09905V63.4227C23.7187 64.0167 23.836 64.6048 24.0637 65.1536C24.2915 65.7023 24.6253 66.2009 25.0462 66.6209C25.467 67.0409 25.9666 67.374 26.5165 67.6013C27.0664 67.8286 27.6557 67.9456 28.2509 67.9456H50.5732C51.1684 67.9456 51.7577 67.8286 52.3076 67.6013C52.8574 67.374 53.357 67.0409 53.7779 66.6209C54.1987 66.2009 54.5326 65.7023 54.7603 65.1536C54.9881 64.6048 55.1053 64.0167 55.1053 63.4227V6.09905C55.1053 4.89951 54.6278 3.7491 53.7779 2.90089C52.9279 2.05269 51.7752 1.57618 50.5732 1.57618Z" fill="white"/>
<path d="M39.8421 49.5296C38.1983 49.5311 36.5703 49.2091 35.0514 48.5821C33.5324 47.955 32.1523 47.0352 30.99 45.8752C29.8276 44.7153 28.9059 43.3379 28.2776 41.8221C27.6492 40.3062 27.3266 38.6816 27.3281 37.0412C27.3258 34.7377 27.9628 32.4785 29.1686 30.5143C30.3743 28.5501 32.1016 26.9575 34.159 25.9132C35.6503 25.1561 37.2784 24.7044 38.9474 24.5848C40.6164 24.4653 42.2924 24.6803 43.8768 25.2172C46.6828 26.1715 49.0583 28.0887 50.5801 30.6275C52.102 33.1663 52.6715 36.1617 52.1871 39.0803C51.7028 41.999 50.196 44.6513 47.9353 46.5648C45.6745 48.4784 42.8065 49.529 39.8421 49.5296ZM39.8421 25.0425C37.9436 25.0369 36.0715 25.485 34.3821 26.3494C32.9055 27.1002 31.6003 28.1475 30.5485 29.4256C29.4967 30.7038 28.7211 32.1851 28.2702 33.7766C27.8194 35.3681 27.7031 37.0354 27.9286 38.6739C28.1542 40.3124 28.7167 41.8866 29.5809 43.2978C30.4451 44.7091 31.5923 45.9267 32.9505 46.8745C34.3087 47.8222 35.8485 48.4795 37.4733 48.805C39.0982 49.1306 40.7729 49.1175 42.3924 48.7664C44.0119 48.4154 45.5412 47.734 46.8842 46.7651C47.5336 46.2975 48.1341 45.7658 48.6765 45.178C50.2631 43.4649 51.3147 41.3272 51.7025 39.0268C52.0903 36.7263 51.7975 34.363 50.8599 32.226C49.9223 30.0891 48.3807 28.2714 46.4238 26.9956C44.4669 25.7197 42.1796 25.0409 39.8421 25.0425Z" fill="#F0F0F0"/>
<path d="M12.7274 25.9599C13.0709 26.0029 13.4008 26.1205 13.6938 26.3045C13.9868 26.4884 14.2359 26.7343 14.4234 27.0247C14.6109 27.3151 14.7323 27.643 14.7791 27.9853C14.8259 28.3276 14.7969 28.676 14.6942 29.0059L18.8519 32.4621L17.3635 35.4959L11.5607 30.5328C11.0167 30.3238 10.5685 29.923 10.3009 29.4062C10.0333 28.8895 9.96496 28.2928 10.1088 27.7291C10.2526 27.1655 10.5986 26.674 11.0813 26.3479C11.5639 26.0219 12.1496 25.8838 12.7274 25.9599Z" fill="#FFB6B6"/>
<path d="M51.5563 40.3724C51.4729 39.4779 51.1281 37.8698 50.8357 37.2752C49.9364 34.9264 44.1264 32.996 43.3461 32.7471L43.1482 30.5515L35.0755 29.6846L34.0514 32.4925L31.1561 33.5764C30.9595 33.6496 30.7816 33.7653 30.6351 33.9151C30.4886 34.065 30.3771 34.2454 30.3087 34.4433L27.7111 35.1926L25.1477 35.9321L16.2424 29.6699L15.822 29.9442L13.0117 31.7742L12.5781 32.0566L24.1024 42.4326L28.3833 41.4303L31.6026 40.6744L31.8774 41.7878L31.1659 45.6992C33.2274 47.7572 35.9562 49.015 38.8628 49.2468C41.7695 49.4787 44.6638 48.6695 47.0267 46.9644L48.8555 45.3449C50.1301 43.9695 51.0709 42.3202 51.6053 40.5242L51.5563 40.3724Z" fill="#E4E4E4"/>
<path d="M41.6482 27.8892C44.6957 26.8823 46.3482 23.6007 45.3392 20.5595C44.3302 17.5182 41.0419 15.8691 37.9944 16.876C34.947 17.883 33.2945 21.1646 34.3035 24.2058C35.3124 27.247 38.6008 28.8962 41.6482 27.8892Z" fill="#FFB6B6"/>
<path d="M35.2316 15.769C35.7966 14.9637 36.6446 14.4 37.607 14.1899C38.5586 13.9946 39.549 14.1759 40.3691 14.6955C41.261 14.337 42.2225 14.0991 43.1673 14.2201C44.112 14.341 45.0379 14.8676 45.4751 15.7352C45.567 15.96 45.6786 16.1762 45.8085 16.3815C46.1937 16.8942 46.9094 16.9608 47.5414 16.9854C47.2219 17.1714 46.9023 17.3574 46.5826 17.5434C46.9011 17.6915 47.2197 17.8396 47.5383 17.9878C47.1047 18.1529 46.6712 18.3181 46.2377 18.4833C47.2467 19.3685 47.4908 20.9438 47.1087 22.2645C46.747 23.515 45.9176 24.5676 44.9915 25.4688C44.8108 24.7964 45.0096 24.0674 45.142 23.3712C45.2817 22.6356 45.3041 21.7754 44.788 21.2561C44.4399 20.9057 43.9291 20.7999 43.4476 20.7149C41.0186 20.2862 38.5671 19.9957 36.105 19.8449C35.7755 19.7994 35.4399 19.8336 35.1264 19.9446C34.5272 20.2103 34.2865 20.94 34.1128 21.587C34.0297 20.4513 34.0961 19.3096 34.3105 18.1912C34.4747 17.3352 34.7335 16.4784 35.2316 15.769Z" fill="#2F2E41"/>
<path d="M42.7857 55.4149H35.9153C35.6767 55.4149 35.4479 55.3203 35.2791 55.1519C35.1104 54.9835 35.0156 54.7551 35.0156 54.517C35.0156 54.2789 35.1104 54.0505 35.2791 53.8821C35.4479 53.7137 35.6767 53.6191 35.9153 53.6191H42.7857C43.0243 53.6191 43.2532 53.7137 43.4219 53.8821C43.5906 54.0505 43.6854 54.2789 43.6854 54.517C43.6854 54.7551 43.5906 54.9835 43.4219 55.1519C43.2532 55.3203 43.0243 55.4149 42.7857 55.4149Z" fill="#2563EB"/>
<path d="M20.2414 7.36657H1.34375C1.1696 7.36629 1.00269 7.29706 0.879646 7.17408C0.756606 7.0511 0.6875 6.88441 0.6875 6.71063C0.6875 6.53684 0.756606 6.37016 0.879646 6.24717C1.00269 6.12419 1.1696 6.05496 1.34375 6.05469H20.2414C20.4157 6.05469 20.5829 6.1238 20.7062 6.24681C20.8294 6.36982 20.8987 6.53666 20.8987 6.71063C20.8987 6.88459 20.8294 7.05143 20.7062 7.17445C20.5829 7.29746 20.4157 7.36657 20.2414 7.36657Z" fill="#2563EB"/>
<path d="M31.1533 11.5559H1.34474C1.17043 11.5559 1.00326 11.4868 0.88 11.3638C0.756744 11.2408 0.6875 11.074 0.6875 10.9C0.6875 10.7261 0.756744 10.5593 0.88 10.4362C1.00326 10.3132 1.17043 10.2441 1.34474 10.2441H31.1533C31.3276 10.2441 31.4948 10.3132 31.618 10.4362C31.7413 10.5593 31.8105 10.7261 31.8105 10.9C31.8105 11.074 31.7413 11.2408 31.618 11.3638C31.4948 11.4868 31.3276 11.5559 31.1533 11.5559Z" fill="#2563EB"/>
<path d="M25.425 15.5032H1.34474C1.17043 15.5032 1.00326 15.4341 0.88 15.3111C0.756744 15.1881 0.6875 15.0213 0.6875 14.8473C0.6875 14.6734 0.756744 14.5065 0.88 14.3835C1.00326 14.2605 1.17043 14.1914 1.34474 14.1914H25.425C25.5993 14.1914 25.7665 14.2605 25.8898 14.3835C26.013 14.5065 26.0823 14.6734 26.0823 14.8473C26.0823 15.0213 26.013 15.1881 25.8898 15.3111C25.7665 15.4341 25.5993 15.5032 25.425 15.5032Z" fill="#CACACA"/>
<path d="M14.9234 19.4348H1.34474C1.17043 19.4348 1.00326 19.3657 0.88 19.2427C0.756744 19.1197 0.6875 18.9529 0.6875 18.7789C0.6875 18.605 0.756744 18.4382 0.88 18.3152C1.00326 18.1921 1.17043 18.123 1.34474 18.123H14.9234C15.0978 18.123 15.2649 18.1921 15.3882 18.3152C15.5114 18.4382 15.5807 18.605 15.5807 18.7789C15.5807 18.9529 15.5114 19.1197 15.3882 19.2427C15.2649 19.3657 15.0978 19.4348 14.9234 19.4348Z" fill="#CACACA"/>
<path d="M22.4236 23.3665H1.3437C1.16957 23.3662 1.00267 23.297 0.879636 23.174C0.756603 23.051 0.6875 22.8844 0.6875 22.7106C0.6875 22.5368 0.756603 22.3701 0.879636 22.2472C1.00267 22.1242 1.16957 22.055 1.3437 22.0547H22.4236C22.5977 22.055 22.7646 22.1242 22.8876 22.2472C23.0107 22.3701 23.0798 22.5368 23.0798 22.7106C23.0798 22.8844 23.0107 23.051 22.8876 23.174C22.7646 23.297 22.5977 23.3662 22.4236 23.3665Z" fill="#CACACA"/>
<path d="M81.8355 87.5375L80.1417 87.5374L79.3359 81.0176L81.8358 81.0177L81.8355 87.5375Z" fill="#9F616A"/>
<path d="M82.5016 89.8766L76.0352 89.8763V89.7947C76.0352 89.1286 76.3004 88.4897 76.7724 88.0187C77.2444 87.5476 77.8846 87.283 78.5521 87.283H78.5523L79.7334 86.3887L81.9373 87.2831L82.5018 87.2831L82.5016 89.8766Z" fill="#2F2E41"/>
<path d="M80.8456 56.8952L80.0986 47.8057L79.5117 44.3941L82.7974 43.6699L83.8877 48.3407L82.9378 57.1474C83.1294 57.3818 83.2464 57.6679 83.2738 57.9691C83.3012 58.2703 83.2378 58.5728 83.0916 58.8378C82.9454 59.1027 82.7232 59.318 82.4535 59.4559C82.1838 59.5939 81.8789 59.6482 81.5781 59.6119C81.2772 59.5757 80.9941 59.4504 80.765 59.2523C80.536 59.0543 80.3716 58.7924 80.2928 58.5003C80.2141 58.2083 80.2246 57.8994 80.3231 57.6134C80.4216 57.3274 80.6036 57.0773 80.8456 56.8952Z" fill="#9F616A"/>
<path d="M72.8355 87.5375L71.1417 87.5374L70.3359 81.0176L72.8358 81.0177L72.8355 87.5375Z" fill="#9F616A"/>
<path d="M70.126 58.9562L69.3752 60.2524C69.3752 60.2524 68.5501 60.4773 68.8198 63.1612C69.0894 65.8452 69.101 81.7469 70.4062 83.7036L70.6423 85.3839L73.107 85.619L73.1691 84.128L76.1079 63.4145C76.1079 63.4145 77.8388 83.7486 79.2706 84.2462L79.7877 85.9403L82.0464 85.9413L81.913 83.9449L82.0587 58.7461L70.126 58.9562Z" fill="#2F2E41"/>
<path d="M69.3019 60.1542L69.25 60.1408C70.7998 54.3559 70.3527 46.865 69.2585 38.8212L69.2585 38.7879L73.2144 35.1719H76.6496L80.0551 37.3651C82.2567 38.4636 82.757 40.7899 82.7618 40.8133L82.7652 40.8299L81.4162 45.5288L82.4324 59.118L82.4336 59.1338L82.4278 59.1485C82.0989 59.9806 81.2176 59.8621 80.1972 59.7249C79.1785 59.5878 75.4245 60.8412 74.2734 60.8412C72.024 60.8412 69.4627 60.1953 69.3019 60.1542Z" fill="#E4E4E4"/>
<path d="M79.3397 39.1973L80.8154 38.5566L82.7597 40.9356L84.3357 48.5589L78.9375 47.7427L79.3397 39.1973Z" fill="#E4E4E4"/>
<path d="M56.6423 53.2538L63.3886 47.1018L65.7332 44.5508L68.3178 46.7009L65.2835 50.4198L57.7228 55.0595C57.6543 55.3541 57.4992 55.6216 57.2772 55.8275C57.0553 56.0335 56.7768 56.1685 56.4773 56.2153C56.1779 56.2621 55.8713 56.2184 55.597 56.09C55.3226 55.9616 55.093 55.7542 54.9376 55.4945C54.7822 55.2348 54.7082 54.9347 54.725 54.6328C54.7418 54.3308 54.8487 54.0407 55.032 53.7999C55.2153 53.559 55.4665 53.3783 55.7535 53.281C56.0404 53.1837 56.35 53.1742 56.6423 53.2538Z" fill="#9F616A"/>
<path d="M63.2422 47.1696L65.1107 44.7481C65.1261 44.7133 66.6764 41.2562 68.0201 39.7541C69.3985 38.2132 70.4836 39.0012 70.4945 39.0097L70.5215 39.03L70.5965 44.7203L65.4228 50.8897L63.2422 47.1696Z" fill="#E4E4E4"/>
<path d="M77.6978 31.7661C77.9764 30.0528 76.8105 28.4386 75.0938 28.1606C73.3771 27.8826 71.7596 29.0461 71.481 30.7593C71.2024 32.4725 72.3682 34.0867 74.085 34.3647C75.8017 34.6427 77.4192 33.4793 77.6978 31.7661Z" fill="#9F616A"/>
<path d="M71.7098 30.7958C71.7098 30.7958 71.6846 29.691 71.5446 29.2022C71.4047 28.7133 71.1248 28.2943 71.2647 28.2943C71.4047 28.2943 71.4746 27.9451 71.4746 27.9451C71.4746 27.9451 71.6146 27.8753 71.6846 27.9451C71.7546 28.0149 71.8245 27.4562 71.8245 27.4562C71.8245 27.4562 71.8945 27.2467 71.9645 27.3864C72.0345 27.5261 72.0345 27.4562 72.1044 27.2467C72.1744 27.0372 72.5243 26.8975 72.5243 26.8975C72.5243 26.8975 73.8539 26.9674 74.0639 26.688C74.2738 26.4087 76.6531 26.6182 77.143 26.9674C77.6328 27.3166 79.8022 28.5736 79.4523 29.6212C79.1024 30.6687 78.0952 33.0807 77.8427 33.3225C77.4436 33.7049 77.1673 33.8428 75.2787 34.2178C74.9091 34.2912 73.0226 33.0871 73.0226 32.8776C73.0226 32.6681 73.25 32.0037 72.8844 31.9125C72.3318 31.7746 72.2697 32.4719 72.1297 32.2624C71.9897 32.0529 71.7098 30.7958 71.7098 30.7958Z" fill="#2F2E41"/>
<path d="M73.5016 89.8766L67.0352 89.8763V89.7947C67.0352 89.1286 67.3004 88.4897 67.7724 88.0187C68.2444 87.5476 68.8846 87.283 69.5521 87.283H69.5523L70.7334 86.3887L72.9373 87.2831L73.5018 87.2831L73.5016 89.8766Z" fill="#2F2E41"/>
<path d="M107.119 90.0001H1.23383C1.18218 90.0001 1.13264 89.9796 1.09611 89.9431C1.05959 89.9067 1.03906 89.8573 1.03906 89.8057C1.03906 89.7542 1.05959 89.7047 1.09611 89.6683C1.13264 89.6318 1.18218 89.6113 1.23383 89.6113H107.119C107.171 89.6113 107.22 89.6318 107.257 89.6683C107.293 89.7047 107.314 89.7542 107.314 89.8057C107.314 89.8573 107.293 89.9067 107.257 89.9431C107.22 89.9796 107.171 90.0001 107.119 90.0001Z" fill="#CACACA"/>
</g>
<defs>
<clipPath id="clip0_3032_3821">
<rect width="106.624" height="90" fill="white" transform="translate(0.6875)"/>
</clipPath>
</defs>
</svg>
