<svg width="134" height="90" viewBox="0 0 134 90" fill="none" xmlns="http://www.w3.org/2000/svg">
<path d="M31.2798 30.6853C31.2091 30.7434 31.1442 30.806 31.0857 30.8723L21.9924 30.6944L20.9316 29.1445L17.7969 30.1189L19.3414 33.0086C19.4661 33.2421 19.6822 33.4368 19.9573 33.5637C20.2323 33.6906 20.5514 33.7427 20.8666 33.7123L31.1403 32.72C31.3826 32.9653 31.7126 33.1458 32.0864 33.2375C32.4602 33.3292 32.86 33.3277 33.2327 33.2333C33.6054 33.1388 33.9333 32.9559 34.1728 32.7088C34.4124 32.4617 34.5521 32.1622 34.5735 31.8501C34.5949 31.5379 34.497 31.228 34.2927 30.9615C34.0884 30.6949 33.7875 30.4844 33.4299 30.358C33.0723 30.2315 32.6751 30.1951 32.291 30.2536C31.907 30.312 31.5542 30.4626 31.2798 30.6853Z" fill="#CBD5E1"/>
<path d="M3.24662 86.9513H6.34727L7.82233 74.748L3.24609 74.7482L3.24662 86.9513Z" fill="#CBD5E1"/>
<path d="M1.67188 85.4222L7.26178 85.4219H7.26201C8.20678 85.4219 9.11283 85.8889 9.78088 86.72C10.4489 87.5511 10.8243 88.6783 10.8243 89.8537V89.9977L1.67205 89.9981L1.67188 85.4222Z" fill="black"/>
<path d="M28.3324 86.9494L30.6368 85.6425L27.9361 73.2207L24.5352 75.1497L28.3324 86.9494Z" fill="#CBD5E1"/>
<path d="M27.6094 85.6014L32.3803 82.7455L32.3805 82.7454C33.1868 82.2628 34.097 82.2488 34.9107 82.7064C35.7245 83.1641 36.3751 84.0559 36.7196 85.1857L36.7618 85.3242L28.9505 90.0001L27.6094 85.6014Z" fill="black"/>
<path d="M14.9605 32.3006L15.142 35.8756L9.83663 36.5657L4.28516 37.2878L5.91908 31.8594L14.9605 32.3006Z" fill="#CBD5E1"/>
<path d="M16.1624 33.5146C16.0999 33.4859 9.8674 30.6582 6.03912 32.9704L5.94498 33.0273L5.18127 28.6427L4.74609 19.2162L7.57779 17.6555L8.35745 15.6185L13.668 15.252L14.7593 16.9976L18.4748 18.4179L16.2542 33.5569L16.1624 33.5146Z" fill="#2563EB"/>
<path d="M16.9727 26.1137L17.7582 20.3394L17.7354 19.8301L18.4981 18.3047C18.5394 18.3189 20.5905 20.2028 20.8566 21.4618C21.112 22.6703 23.0356 30.1906 23.055 30.2664L23.0743 30.3417L18.5546 32.0334L16.9727 26.1137Z" fill="#2563EB"/>
<path d="M25.3892 83.8972L30.6547 82.7078L22.2389 57.1366L19.3586 48.4147C19.3586 48.4147 17.5318 41.4215 16.7064 38.7152L16.2083 35.084L4.41714 36.5211C4.41714 36.5211 1.12391 41.8468 2.12437 50.5272L1.67188 83.1538L6.93739 83.4511L11.3478 50.5456L19.0886 68.5842C19.0886 68.5842 21.5284 76.2819 23.274 77.9504L25.3892 83.8972Z" fill="black"/>
<path d="M9.22156 37.4686C9.13305 37.4663 9.04452 37.4717 8.95678 37.4848L3.70626 30.9003L4.31703 28.8765L1.6785 27.457L0.282749 30.9233C0.169991 31.2033 0.142333 31.5163 0.203929 31.8152C0.265525 32.1141 0.413048 32.3828 0.624354 32.581L7.51107 39.0405C7.45856 39.4135 7.50987 39.7953 7.65819 40.1353C7.80651 40.4752 8.04481 40.7571 8.34139 40.9434C8.63797 41.1298 8.97878 41.2118 9.31848 41.1785C9.65818 41.1452 9.98067 40.9982 10.2431 40.7571C10.5055 40.516 10.6953 40.1921 10.7874 39.8286C10.8795 39.4651 10.8694 39.0792 10.7585 38.7222C10.6476 38.3653 10.4411 38.0541 10.1666 37.8302C9.89205 37.6062 9.56243 37.4801 9.22156 37.4686Z" fill="#CBD5E1"/>
<path d="M0.171875 28.5862L2.62166 21.4127C2.89697 20.567 3.24197 20.0533 3.64711 19.8856C3.72691 19.8487 3.8133 19.8292 3.90081 19.8284C3.98831 19.8276 4.66764 19.0302 4.74811 19.0656L5.25399 21.3075L6.27352 25.7105L3.65951 32.0317L0.171875 28.5862Z" fill="#2563EB"/>
<path d="M14.7068 13.7306H5.46326C5.27312 13.7304 5.09083 13.65 4.95638 13.507C4.82194 13.364 4.74631 13.1701 4.74609 12.9679V8.73065C4.74609 7.22477 5.30859 5.78057 6.30983 4.71576C7.31108 3.65094 8.66906 3.05273 10.085 3.05273C11.501 3.05273 12.859 3.65094 13.8602 4.71576C14.8615 5.78057 15.424 7.22477 15.424 8.73065V12.9679C15.4238 13.1701 15.3481 13.364 15.2137 13.507C15.0792 13.65 14.8969 13.7304 14.7068 13.7306Z" fill="black"/>
<path d="M11.6299 13.7286C13.7361 13.7286 15.4435 12.0212 15.4435 9.91509C15.4435 7.80894 13.7361 6.10156 11.6299 6.10156C9.52378 6.10156 7.81641 7.80894 7.81641 9.91509C7.81641 12.0212 9.52378 13.7286 11.6299 13.7286Z" fill="white"/>
<path d="M16.9689 9.15436H11.3724L11.315 8.29135L11.028 9.15436H10.1663L10.0525 7.4439L9.48384 9.15436H7.81641V9.06961C7.81765 7.87881 8.25862 6.73717 9.04257 5.89514C9.82652 5.05311 10.8894 4.57947 11.9981 4.57812H12.7871C13.8958 4.57947 14.9587 5.05311 15.7427 5.89514C16.5266 6.73716 16.9676 7.87881 16.9689 9.06961L16.9689 9.15436Z" fill="black"/>
<path d="M11.7342 15.254C11.6951 15.254 11.6561 15.2495 11.6176 15.2405L7.81641 14.359V6.10156H12.0008L11.8972 6.26032C10.4558 8.46981 11.5417 12.0525 12.3173 13.9915C12.3745 14.1335 12.4 14.2938 12.3908 14.454C12.3817 14.6142 12.3383 14.7678 12.2657 14.8971C12.2049 15.0076 12.125 15.0976 12.0326 15.1596C11.9402 15.2217 11.8379 15.254 11.7342 15.254Z" fill="black"/>
<path d="M132.061 85.4112L130.554 86.3987L126.055 81.0103L128.28 79.5527L132.061 85.4112Z" fill="#CBD5E1"/>
<path d="M133.163 86.963L128.527 90L128.489 89.9409C128.177 89.4588 128.069 88.8719 128.187 88.3093C128.306 87.7467 128.641 87.2544 129.12 86.9409L129.549 85.7388L131.547 85.3511L131.952 85.0859L133.163 86.963Z" fill="black"/>
<path d="M106.24 87.9999L104.441 87.9997L103.586 81.0117L106.24 81.0119L106.24 87.9999Z" fill="#CBD5E1"/>
<path d="M106.296 89.89L100.766 89.8898V89.8194C100.766 89.2443 100.992 88.6927 101.396 88.2861C101.8 87.8794 102.347 87.651 102.918 87.6509L103.929 86.8789L105.813 87.6511H106.296L106.296 89.89Z" fill="black"/>
<path d="M124.847 45.2563L108.72 45.6136L107.121 47.6265C107.121 47.6265 107.259 46.9168 107.136 47.6963C107.013 48.4758 103.902 64.0175 104.49 64.5388C105.078 65.06 103.375 68.6588 103.25 68.8783C103.125 69.0978 101.777 79.9307 103.25 80.8214L103.803 84.6026H106.379C106.379 84.6026 108.959 81.5949 108.44 81.0496C107.921 80.5044 109.406 78.6914 109.462 77.7192C109.519 76.7469 110.061 72.3373 109.641 71.6303C109.221 70.9233 108.653 68.2699 109.719 67.2412C110.785 66.2126 115.755 53.5719 115.755 53.5719C115.755 53.5719 117.199 68.3911 117.196 69.5547C117.191 71.0679 118.178 70.319 118.178 71.6475C118.178 71.9159 121.39 78.8141 123.549 80.9704L128.013 84.4297L130.073 82.873V80.6244C130.073 80.6244 128.164 76.4524 127.498 75.7814C126.832 75.1104 124.372 73.0565 124.372 72.1172C124.372 71.1778 123.215 70.8505 123.993 69.6051C124.772 68.3597 124.505 67.8229 124.239 67.2861C123.973 66.7493 124.478 44.7559 124.478 44.7559L124.847 45.2563Z" fill="black"/>
<path d="M118.174 12.6407C120.866 12.6407 123.047 10.4428 123.047 7.73151C123.047 5.02021 120.866 2.82227 118.174 2.82227C115.483 2.82227 113.301 5.02021 113.301 7.73151C113.301 10.4428 115.483 12.6407 118.174 12.6407Z" fill="#CBD5E1"/>
<path d="M122.042 47.1306L123.414 42.9707L125.882 43.4286L124.276 47.7746C124.374 48.0293 124.399 48.3063 124.349 48.5746C124.299 48.8429 124.176 49.0917 123.993 49.2932C123.81 49.4947 123.575 49.6409 123.314 49.7152C123.054 49.7895 122.777 49.7891 122.517 49.714C122.256 49.6389 122.022 49.4921 121.84 49.2901C121.657 49.0881 121.535 48.8388 121.485 48.5704C121.436 48.302 121.462 48.0251 121.56 47.7707C121.659 47.5163 121.825 47.2947 122.042 47.1306Z" fill="#CBD5E1"/>
<path d="M93.6016 39.0905L96.9627 36.3066L98.8093 38.019L95.1517 40.8349C95.0996 41.1027 94.9744 41.3507 94.7901 41.5508C94.6058 41.7509 94.3698 41.8953 94.1085 41.9677C93.8472 42.04 93.5711 42.0376 93.3111 41.9605C93.0512 41.8835 92.8177 41.7349 92.637 41.5315C92.4562 41.3281 92.3354 41.078 92.288 40.8092C92.2407 40.5404 92.2687 40.2637 92.3689 40.0101C92.4692 39.7564 92.6376 39.536 92.8554 39.3736C93.0731 39.2111 93.3316 39.1131 93.6016 39.0905Z" fill="#CBD5E1"/>
<path d="M112.316 6.87401C112.842 7.03833 113.348 7.13519 113.69 6.70105C114.032 6.2669 113.942 5.7705 114.451 5.5612C114.876 5.41764 115.339 5.43923 115.749 5.62175C115.822 5.64941 115.895 5.68055 115.965 5.71168C116.004 5.67708 116.044 5.64424 116.087 5.61309C116.41 5.38168 116.809 5.28387 117.201 5.33981C116.914 5.4794 116.678 5.7063 116.526 5.98843C116.667 6.05934 116.81 6.13025 116.954 6.19079C117.56 6.44056 118.216 6.54465 118.869 6.49481C119.522 6.44498 120.154 6.24258 120.716 5.90368C120.153 7.39809 120.591 7.93082 121.416 9.29551L121.449 9.37506C121.367 9.01703 122.447 8.60365 122.447 9.12255C122.399 9.65417 122.284 10.1774 122.103 10.6792C123.163 9.07238 123.788 7.19226 123.377 5.38824C123.29 5.00944 123.25 4.60298 123.011 4.2951C122.773 3.98896 122.333 3.80907 121.986 3.98204C121.943 3.39543 121.743 2.83152 121.408 2.35026C121.072 1.86901 120.613 1.48839 120.08 1.24887C119.547 1.00935 118.959 0.919894 118.379 0.99C117.799 1.06011 117.249 1.28716 116.787 1.64702C116.358 1.98084 116.02 2.41844 115.637 2.80761C115.254 3.19679 114.801 3.55136 114.265 3.64822C113.925 3.70876 113.542 3.67243 113.271 3.88865C112.957 4.13945 112.953 4.5805 112.955 5.00427C113.263 4.99543 113.566 5.07913 113.826 5.24468C113.507 5.25274 113.2 5.36169 112.947 5.55602C112.942 5.55906 112.937 5.56253 112.933 5.56641C112.84 6.27902 112.878 6.4295 112.316 6.87401Z" fill="black"/>
<path d="M129.479 22.9633C129.366 22.4157 129.141 21.8976 128.82 21.4415C128.498 20.9854 128.087 20.601 127.611 20.3125C127.576 20.1293 127.513 20.0121 127.416 19.9774C126.03 19.4813 122.164 17.1897 122.164 17.1897L121.84 14.5692L114.842 14.2305L113.052 17.1897C113.052 17.1897 108.414 17.6593 108.5 19.3697C107.376 20.7811 102.376 27.0876 99.3792 31.2581C97.9468 33.2514 96.9715 34.7573 97.0968 35.0066C97.5186 35.8464 96.926 35.2798 96.2631 35.4316C95.6003 35.5833 95.9217 35.9779 95.9367 36.5596C95.9518 37.1414 93.6719 38.3655 93.6719 38.3655C95.0629 38.8664 96.8053 40.9253 96.8053 40.9253C96.8053 40.9253 98.4926 39.1346 98.799 38.9474C99.1053 38.7603 99.276 38.4871 100.245 38.1482C101.214 37.8093 100.808 37.5513 100.878 36.833C100.948 36.1146 101.184 36.6458 102.545 35.9832C103.906 35.3205 102.801 35.5734 103.178 34.6679C103.555 33.7624 103.434 34.2581 104.659 33.5095C105.396 33.0595 106.127 32.3987 107.145 31.2581C107.821 30.5011 108.622 29.5332 109.636 28.2739C109.643 28.2653 109.649 28.2564 109.656 28.2479C109.724 29.2687 109.777 30.2899 109.808 31.2581C109.897 34.0091 109.812 36.3289 109.415 36.9677C108.857 37.8643 107.912 40.8649 107.145 43.4995C106.996 44.0104 106.97 44.5495 107.068 45.0726C107.166 45.5957 107.386 46.0879 107.71 46.5087C108.034 46.9296 108.452 47.2671 108.93 47.4935C109.409 47.72 109.933 47.829 110.462 47.8115C115.224 47.6533 122.193 47.2873 123.552 46.4844C124.29 46.5908 125.02 46.7524 125.735 46.9679C125.735 46.9679 126.216 44.5469 126.376 44.2241C126.537 43.9012 126.537 43.5784 127.177 42.7714C127.818 41.9644 127.338 41.9644 127.017 41.3188C126.697 40.6732 127.177 40.996 127.979 39.7047C128.78 38.4135 127.979 39.2205 127.818 38.2521C127.658 37.2837 127.818 37.7679 128.459 36.4767C128.99 35.4068 129.301 34.0029 129.666 31.2581C129.741 30.6903 129.819 30.0665 129.901 29.3749C130.173 27.0902 129.829 24.6502 129.479 22.9633Z" fill="black"/>
<path d="M21.0195 79.7959L22.162 81.0122L27.4668 77.0531L25.7807 75.2578L21.0195 79.7959Z" fill="#CBD5E1"/>
<path d="M22.9584 80.473L21.665 79.249L21.3474 78.9492L18.0547 81.6011L18.9112 82.5131L19.9194 81.8618L19.4563 83.0935L21.7272 85.5114C21.836 85.6274 21.9788 85.7053 22.1346 85.7338C22.2905 85.7622 22.4513 85.7398 22.5936 85.6696C22.7359 85.5995 22.8522 85.4854 22.9256 85.344C22.999 85.2026 23.0255 85.0412 23.0014 84.8835L22.5113 81.6893L23.375 80.8665L22.9584 80.473Z" fill="black"/>
<path d="M46.1307 35.5126L45.7685 39.4961C45.7685 39.4961 45.1363 42.4973 45.574 42.254C46.0118 42.0107 45.2269 43.1056 45.4336 44.055C45.6403 45.0044 43.6678 52.0845 44.5612 51.351C45.4546 50.6176 44.0449 55.6844 43.1533 58.1841C42.8804 58.9568 42.5999 59.739 42.3175 60.5154C42.2619 60.6727 42.2061 60.8279 42.1486 60.9851C41.7826 61.9955 41.4167 62.9908 41.0657 63.9301C41.0156 64.0611 40.9672 64.192 40.919 64.3212C40.9171 64.3249 40.9171 64.3286 40.9153 64.3286C39.76 67.3916 38.77 69.8014 38.3744 70.2001C38.1683 70.4077 34.8975 72.7877 31.6007 75.1714C28.1405 77.673 24.6523 80.1802 24.6523 80.1802L21.3945 76.7375C21.3945 76.7375 21.4725 76.715 21.6193 76.6702C21.8904 76.5915 22.392 76.4437 23.0495 76.2473C25.7909 75.4333 22.3083 74.1666 24.7973 73.2611C25.4993 73.0066 25.9674 72.8083 26.0732 72.7035C26.6917 72.0954 27.522 70.6453 27.9138 71.2534C28.3057 71.8615 30.0833 67.343 30.5958 66.8958C30.8707 66.6544 31.7678 65.5262 32.5368 64.5345C33.1979 63.6813 33.7663 62.9273 33.7663 62.9273C33.7663 62.9273 33.7775 62.5231 33.7941 61.8794C33.8184 60.9271 33.8536 59.4471 33.8908 57.9652C33.8889 57.9633 33.8889 57.9633 33.8908 57.9633C33.9038 57.4057 33.9168 56.8482 33.9298 56.3186C33.9391 55.9089 33.9483 55.5141 33.9577 55.1492C33.9818 54.0566 33.9985 53.2296 33.9985 53.0237C33.9985 52.3483 33.9985 52.8741 34.5278 52.4662C34.6069 52.4036 34.682 52.3361 34.7526 52.2641C34.8658 52.1615 34.9702 52.0494 35.0647 51.9292C35.1037 51.845 34.8603 51.9591 34.5445 51.8955C34.3735 51.861 34.2154 51.7793 34.0876 51.6597C33.4227 51.0573 34.1397 49.205 34.1397 49.205C32.6278 46.1589 32.7374 43.661 33.445 41.7357C33.9741 40.3541 34.814 39.1148 35.8986 38.1153C36.3113 37.719 36.7611 37.3637 37.2415 37.0543L37.2879 36.8018L37.7987 34.0158C38.0703 33.8654 38.3528 33.736 38.6438 33.6285C39.551 33.3006 40.5244 33.2029 41.478 33.3441C42.4258 33.4822 43.3434 33.7815 44.1917 34.2291C44.8851 34.58 45.5358 35.0107 46.1307 35.5126Z" fill="black"/>
<path d="M31.8867 86.0042L33.5418 86.1593L34.9365 79.6585L32.4935 79.4297L31.8867 86.0042Z" fill="#CBD5E1"/>
<path d="M36.6468 88.5499L34.1876 86.4749L34.2991 85.2812L33.7271 85.2624L31.9552 85.2044H31.9532L31.5187 85.1895L30.7812 89.3694L32.0238 89.4854L32.3526 88.3254L32.8114 89.5603L33.4689 89.6221L36.1007 89.869C36.123 89.8708 36.1472 89.8728 36.1695 89.8728C36.2741 89.8729 36.3775 89.8506 36.473 89.8074C36.5684 89.7642 36.6536 89.701 36.7229 89.6221C36.8307 89.5032 36.8966 89.352 36.9105 89.1917C36.9214 89.0712 36.9031 88.9498 36.8571 88.838C36.8112 88.7262 36.739 88.6273 36.6468 88.5499Z" fill="black"/>
<path d="M41.1555 63.9259C40.5258 67.3781 37.8605 75.4722 36.2484 80.2097C35.5147 82.3745 35.0021 83.8396 35.0021 83.8396L34.1663 83.5739H34.1644L32.751 83.1248L32.2365 82.9601H32.2346L31.6106 82.76C31.6106 82.76 31.683 78.8943 31.6905 75.1672C31.696 73.6049 31.6886 72.065 31.6589 70.8451C31.6254 69.5148 31.5679 68.5625 31.4732 68.3734C31.0812 67.5988 31.7369 67.5165 32.4297 67.3219C33.1243 67.1254 32.582 66.8298 32.3126 66.2012C32.1307 65.782 32.4891 65.2226 32.7436 64.9045C32.8138 64.815 32.8888 64.7294 32.9683 64.6481C32.9683 64.6481 32.8457 64.6051 32.6266 64.5303C33.2877 63.6771 33.8561 62.9231 33.8561 62.9231C33.8561 62.9231 33.8672 62.5189 33.8839 61.8753C33.9081 60.9229 33.9434 59.4429 33.9806 57.961C33.9787 57.9591 33.9787 57.9591 33.9806 57.9591C33.9936 57.4015 34.0065 56.844 34.0196 56.3145C35.082 57.1359 36.1147 57.9405 37.0508 58.6851C37.0519 58.686 37.0528 58.6872 37.0535 58.6885C37.0541 58.6898 37.0545 58.6912 37.0545 58.6926C39.3037 60.4832 40.9921 61.9202 41.2298 62.3767C41.3375 62.5825 41.3003 63.1327 41.1555 63.9259Z" fill="black"/>
<path d="M36.8633 28.7754L37.2113 32.0277L37.0067 36.2923L46.3835 35.1701L47.2644 28.7754L46.1418 28.7866L36.8633 28.7754Z" fill="black"/>
<path d="M44.8917 18.2725L41.3628 15.4659L39.5103 15.3574L36.7616 17.1313L36.0885 20.5904L34.4967 24.4856L36.8314 34.9975C36.8314 34.9975 37.0504 35.7518 36.4766 35.8424C35.9028 35.933 35.9716 37.0449 35.9716 37.0449C35.9716 37.0449 36.0884 38.0086 35.5312 38.0934C34.974 38.1783 33.4882 38.1783 34.7884 39.8623C36.0885 41.5462 46.3718 35.1772 46.3718 35.1772L47.8654 27.2825C47.8654 27.2825 50.762 23.3633 47.6426 21.1188L44.8917 18.2725Z" fill="#2563EB"/>
<path d="M29.4478 42.1393C29.2923 41.9438 29.1813 41.7164 29.1225 41.473C29.0637 41.2296 29.0585 40.9762 29.1075 40.7306C29.1564 40.485 29.2582 40.2532 29.4057 40.0516C29.5532 39.8499 29.7428 39.6833 29.9611 39.5634L34.4 24.5566L37.1756 25.9643L32.3415 40.3481C32.5171 40.731 32.5472 41.1654 32.4261 41.5691C32.305 41.9728 32.0411 42.3177 31.6844 42.5385C31.3277 42.7593 30.903 42.8406 30.4908 42.767C30.0786 42.6934 29.7075 42.4701 29.4478 42.1393Z" fill="#CBD5E1"/>
<path d="M37.4186 16.9936C37.4186 16.9936 36.6252 16.5688 36.0825 18.407C35.648 19.8786 32.1225 28.6441 32.0775 30.7752C31.7874 30.8372 31.5259 30.9946 31.3344 31.2227C31.1428 31.4508 31.0321 31.7366 31.0195 32.0351L35.3785 32.6235C36.1402 31.9763 36.34 31.1022 36.0453 30.8428L36.9917 28.2388L40.9402 19.9539L37.9975 17.2904L37.4186 16.9936Z" fill="#2563EB"/>
<path d="M60.7199 37.203C60.7762 36.959 60.7787 36.7055 60.7272 36.4605C60.6758 36.2154 60.5716 35.9847 60.422 35.7846C60.2725 35.5844 60.0812 35.4198 59.8617 35.3022C59.6421 35.1846 59.3996 35.1169 59.1513 35.1039L48.9686 23.3887L46.8086 25.9851L57.3419 36.8485C57.3479 37.2702 57.5072 37.6751 57.7897 37.9863C58.0722 38.2975 58.4582 38.4936 58.8746 38.5373C59.291 38.581 59.7088 38.4693 60.0489 38.2233C60.389 37.9774 60.6277 37.6144 60.7199 37.203Z" fill="#CBD5E1"/>
<path d="M42.7678 17.9817C42.7678 17.9817 43.3008 17.2531 44.5792 18.674C45.6027 19.8116 52.5443 26.1793 53.4997 28.0813C53.7879 28.0107 54.0912 28.0388 54.3618 28.161C54.6324 28.2832 54.855 28.4927 54.9945 28.7564L51.3168 31.1859C50.3522 30.9342 49.7967 30.2331 49.9511 29.8708L47.9799 27.9352L40.8633 22.185L42.3732 18.5015L42.7678 17.9817Z" fill="#2563EB"/>
<path d="M91.8109 42.4945C91.517 42.3922 91.2743 42.1784 91.1344 41.8986C90.9946 41.6188 90.9687 41.2951 91.0621 40.9963C91.0821 40.9359 91.107 40.8772 91.1365 40.8209L88.3242 37.7264L89.3809 35.7363L92.7784 40.3951C93.0007 40.5366 93.1701 40.7483 93.2604 40.9971C93.3506 41.2458 93.3566 41.5177 93.2773 41.7702C93.2309 41.9135 93.1568 42.0462 93.0595 42.1606C92.9621 42.275 92.8433 42.369 92.7099 42.4373C92.5765 42.5055 92.431 42.5465 92.2819 42.5581C92.1327 42.5697 91.9827 42.5515 91.8405 42.5047C91.8306 42.5015 91.8207 42.4981 91.8109 42.4945Z" fill="#343434"/>
<path d="M73.742 18.9901C73.649 19.4271 73.6391 19.8778 73.7128 20.3185C73.7323 20.4432 73.7591 20.5666 73.7932 20.6881C73.919 21.142 74.0387 21.5604 74.1542 21.9378C74.222 22.1723 74.2919 22.3932 74.3585 22.5982C74.7433 23.7953 75.0439 24.473 75.2571 24.6156C75.3603 24.6853 75.4641 24.7492 75.5646 24.8116C76.0801 25.1294 76.4537 25.3597 76.2038 25.9462C76.1675 26.0299 76.1244 26.1106 76.075 26.1872C75.9922 26.3161 75.9007 26.439 75.8011 26.5552C75.7444 26.6209 75.692 26.6903 75.6443 26.7629C75.5821 26.8557 75.5551 26.9338 75.5886 27.0046C75.6309 27.0916 75.7481 27.1349 75.9996 27.1472C76.0395 27.149 76.0853 27.1514 76.1344 27.1513C76.1503 27.1523 76.1668 27.1516 76.1851 27.1518C76.2175 27.1522 76.2541 27.1525 76.2914 27.1511C76.6021 27.1451 77.0031 27.3099 77.4323 27.5615C78.6987 28.3046 80.1912 29.8003 80.2093 29.8189L89.5274 39.4171L89.7089 39.2946L90.1402 39.0027L90.2893 38.9024L90.4596 38.7871L91.2006 38.2875L91.5752 38.0354L89.1716 33.5901L88.91 33.1068L88.6857 32.6899L84.0974 24.2013L82.2748 21.283L81.8681 20.6328L80.1349 17.8601C79.8901 17.4677 79.5711 17.1278 79.196 16.8597C78.8208 16.5916 78.397 16.4005 77.9485 16.2974C77.5001 16.1943 77.0359 16.1812 76.5824 16.2589C76.129 16.3365 75.6951 16.5033 75.3057 16.7499C75.2794 16.7665 75.2534 16.7835 75.2275 16.8008C74.4693 17.3089 73.9366 18.0939 73.742 18.9901Z" fill="#2563EB"/>
<path d="M74.3652 86.0643L72.6581 86.0497L71.9023 79.2617L74.422 79.2832L74.3652 86.0643Z" fill="#343434"/>
<path d="M74.8705 85.2707L74.4248 85.2408L72.6065 85.1155L72.0213 85.0762L72.0102 86.3054L69.2836 88.169C69.149 88.2612 69.0471 88.3943 68.9928 88.5489C68.9386 88.7035 68.9348 88.8716 68.9821 89.0285C69.0294 89.1854 69.1253 89.323 69.2557 89.4212C69.3861 89.5193 69.5443 89.5729 69.7071 89.5741L73.1004 89.6023L73.6948 88.3898L73.9121 89.6097L75.1937 89.6209L74.8705 85.2707Z" fill="black"/>
<path d="M92.3627 84.8042L90.731 85.3095L87.9766 79.0681L90.385 78.3223L92.3627 84.8042Z" fill="#343434"/>
<path d="M92.5789 83.9121L92.1443 84.0188L90.3743 84.451L89.8041 84.5914L90.1625 85.7683L88.1212 88.3728C88.0204 88.5015 87.963 88.6592 87.9575 88.8231C87.9519 88.987 87.9985 89.1483 88.0903 89.2837C88.1822 89.419 88.3146 89.5212 88.4681 89.5755C88.6217 89.6297 88.7885 89.6331 88.9441 89.5852L92.1889 88.5804L92.3913 87.2426L92.9652 88.339L94.1893 87.9593L92.5789 83.9121Z" fill="black"/>
<path d="M70.9322 28.9844L67.6744 38.5219L67.5668 39.2851C66.746 40.0702 67.7772 40.3289 67.3905 40.5359C67.0039 40.743 66.7438 41.3234 67.2649 41.4271C67.7859 41.5309 69.4659 78.7309 71.6818 80.1753C73.8977 81.6197 75.2463 82.6644 74.8393 80.5495C74.6753 79.6973 74.9072 75.1286 75.2427 69.9766C75.2807 69.3927 75.8813 68.7746 75.3603 68.2069C74.8393 67.6392 75.4245 67.2657 75.4572 66.7945C75.9246 60.0668 76.4642 53.4247 76.4642 53.4247C76.4642 53.4247 79.9178 65.3728 80.8146 64.4478C81.7115 63.5229 81.3565 65.8002 81.6305 66.4806C81.8596 67.0493 80.8824 68.1663 82.3185 68.1834C83.7545 68.2005 87.1271 79.8142 87.4693 79.8011C88.1471 79.775 90.0525 79.8486 91.184 79.6139C91.7427 79.4981 89.2625 70.7053 87.1913 63.1126C87.0262 62.5071 86.1273 62.493 86.7054 61.324C87.2835 60.155 84.407 52.591 84.6539 52.2412C85.3091 51.3127 85.5585 50.909 84.9124 50.8482C84.2663 50.7874 84.0754 51.1445 84.0405 50.2437C84.0056 49.343 83.8941 47.1219 83.8941 47.1219C83.8941 47.1219 83.426 38.3375 80.1485 33.4843L79.869 30.6006L70.9322 28.9844Z" fill="black"/>
<path d="M79.1094 10.7812L74.7892 11.4009L74.5285 14.5524L72.3965 17.9119C72.3965 17.9119 67.6577 21.2713 70.9627 26.5783C69.705 31.1498 68.4545 35.5341 67.2624 38.4571C66.3337 44.2573 74.6533 44.8133 84.1643 42.7605C84.1643 42.7605 84.0331 40.2804 83.17 39.0881C82.3069 37.8958 82.7768 37.6354 82.7768 37.6354L82.1737 35.4079C82.515 32.1881 81.3626 31.8992 80.821 30.4116L82.4653 14.9764L79.1094 10.7812Z" fill="#2563EB"/>
<path d="M58.2994 37.7568C58.3452 37.447 58.5092 37.1673 58.7565 36.9774C59.0039 36.7875 59.315 36.7023 59.6237 36.74C59.6863 36.7486 59.7481 36.7625 59.8085 36.7814L62.3111 33.4277L64.4471 34.1082L60.5258 38.3289C60.4286 38.575 60.2532 38.7817 60.027 38.9168C59.8009 39.0519 59.5367 39.1078 59.2757 39.0757C58.9761 39.036 58.7045 38.878 58.5206 38.6365C58.3366 38.395 58.2555 38.0898 58.2949 37.788C58.2963 37.7776 58.2978 37.7672 58.2994 37.7568Z" fill="#343434"/>
<path d="M80.583 16.8746C80.5217 16.7978 80.4549 16.723 80.3843 16.65C79.8938 16.1407 79.2619 15.7924 78.5716 15.6509C77.8813 15.5093 77.1646 15.5811 76.5155 15.8567C76.4523 15.8828 76.3891 15.9128 76.3279 15.9428C74.1083 17.041 72.9104 17.7726 72.7655 18.115C72.7153 18.2311 72.6726 18.3452 72.6299 18.4555C72.589 18.5641 72.55 18.6669 72.5092 18.7605C72.3383 19.1609 72.1414 19.4098 71.6399 19.2975C71.4736 19.2565 71.3132 19.1943 71.1626 19.1123C71.0939 19.0786 71.0307 19.0431 70.9713 19.0094C70.7559 18.8897 70.5998 18.8036 70.494 18.8822C70.3918 18.9588 70.3881 19.1534 70.481 19.6044C70.5117 19.7926 70.5067 19.985 70.4661 20.1713C70.3433 20.7148 70.151 21.24 69.894 21.7336C69.509 22.5075 69.076 23.2561 68.5976 23.9751L64.179 30.3217L63.88 30.7502L63.553 31.2199L60.9453 34.9657L61.0995 35.1247L61.7458 35.789L61.8889 35.9368L62.0189 36.0715L62.3551 36.4176L62.6708 36.7413L69.7157 30.9598L70.5014 30.3142L71.9093 29.158L74.7937 26.7911L80.2525 21.7018C80.597 21.3831 80.8742 20.9976 81.0673 20.5684C81.2604 20.1392 81.3654 19.6751 81.3761 19.204C81.3761 19.1722 81.378 19.1422 81.378 19.1104C81.38 18.2945 81.0988 17.5036 80.583 16.8746Z" fill="#2563EB"/>
<path d="M76.4565 10.6639C79.1227 10.6639 81.2841 8.48659 81.2841 5.80071C81.2841 3.11483 79.1227 0.9375 76.4565 0.9375C73.7903 0.9375 71.6289 3.11483 71.6289 5.80071C71.6289 8.48659 73.7903 10.6639 76.4565 10.6639Z" fill="#343434"/>
<path d="M82.9023 12.543C83.5502 13.4771 83.9836 14.5448 84.171 15.6686C83.6489 16.0051 83.0411 16.1818 82.4213 16.1774C82.4002 16.0956 82.3792 16.0138 82.3551 15.9321C82.1755 15.2988 81.9083 14.6942 81.5614 14.1361C81.609 14.738 81.528 15.3431 81.3239 15.9109C80.9963 15.7609 80.6453 15.6697 80.2867 15.6413C79.9945 15.6413 79.7063 15.7097 79.4448 15.8412C79.1412 14.8266 78.8616 13.8938 78.6631 13.2244C78.6571 14.9023 76.2158 16.3652 73.5521 16.1532C73.4559 16.0926 74.421 13.3335 74.3278 13.2699C74.1143 13.1275 73.9069 12.973 73.6994 12.8216C74.5713 11.4647 75.5183 10.011 75.356 9.79294C75.368 10.0625 74.412 11.3588 73.3717 12.5823C72.7945 12.1553 76.0746 5.20752 74.454 4.64419C74.427 4.88951 74.0692 4.88951 73.6333 4.83803C73.5183 4.43326 73.3472 4.04683 73.1252 3.69015C73.1541 4.04945 73.1111 4.41093 72.9989 4.75322C72.5684 4.75334 72.1391 4.79902 71.7181 4.88951C71.6207 4.73511 71.5133 4.58739 71.3965 4.44732C71.408 4.61802 71.4029 4.78945 71.3814 4.95917C70.9515 5.05306 70.5967 5.16208 70.5456 5.24993C70.2089 5.12574 70.7831 4.56544 70.5727 4.27469C70.0375 3.54781 70.8312 2.48778 71.3333 1.73665C72.3645 0.198098 74.6284 -0.334953 76.2309 0.588788C76.3031 0.337403 76.6729 0.170832 77.1479 0.0587714C77.3492 0.0140687 77.5552 -0.00526361 77.7612 0.00122321C79.8056 0.0375647 82.6438 1.73665 82.755 3.79313C82.764 3.99908 82.7791 4.2232 82.7941 4.46246C82.9384 6.76427 82.761 8.88737 84.3214 10.5713C84.8866 11.1801 84.8926 14.0634 84.6761 15.5474C84.1139 14.9508 83.714 12.6308 82.9023 12.543Z" fill="black"/>
<path d="M36.3176 7.82046C35.8935 8.88436 34.6972 10.9766 34.5352 12.1179L34.6081 12.0457C34.7472 12.2851 34.9053 12.5128 35.0808 12.7266C35.3954 12.3937 35.7754 12.1306 36.1965 11.9538C35.9666 12.4291 35.8334 12.946 35.8048 13.474C36.2563 14.8996 38.3434 14.2647 39.5663 14.1091C40.7875 15.5162 42.4122 15.8834 44.5398 15.0744C45.1348 15.1362 45.8009 15.1736 46.2179 14.8194C46.6348 14.4652 46.3865 13.8093 46.6108 13.3132C48.2088 9.77932 46.7341 8.50433 45.4812 6.90195C45.2054 6.54932 45.2066 6.0231 44.8711 5.68666C44.4056 5.22031 43.692 5.07686 43.0341 4.96196C43.205 4.97103 43.3753 4.93563 43.5287 4.85916C43.6821 4.7827 43.8134 4.66774 43.9099 4.52537C43.9945 4.38192 44.0382 4.21771 44.0361 4.05084C44.034 3.88397 43.9862 3.72093 43.898 3.5797C43.6627 3.18674 43.1737 2.95822 42.702 2.90114C42.2373 2.86935 41.7705 2.90977 41.318 3.02099C41.0249 3.05983 40.741 3.15123 40.4799 3.29086C40.3566 3.35708 40.2564 3.45962 40.1926 3.58476C40.1288 3.7099 40.1044 3.85168 40.1228 3.99115C40.1621 4.11994 40.2297 4.23813 40.3207 4.33691C40.4117 4.43569 40.5236 4.5125 40.6482 4.56162C40.8381 4.6425 41.0378 4.69758 41.2421 4.72541C40.3037 4.60273 39.3503 4.77083 38.509 5.20734C37.4546 5.7739 36.7431 6.75712 36.3176 7.82046Z" fill="black"/>
<path d="M41.9644 13.7871C44.046 13.7871 45.7335 12.0872 45.7335 9.99024C45.7335 7.89328 44.046 6.19336 41.9644 6.19336C39.8828 6.19336 38.1953 7.89328 38.1953 9.99024C38.1953 12.0872 39.8828 13.7871 41.9644 13.7871Z" fill="#CBD5E1"/>
<path d="M38.3357 7.95171C38.5542 8.61706 39.1788 8.83145 39.756 8.96517C39.938 9.0079 40.1211 9.04772 40.3059 9.08316C40.3741 8.99727 40.4466 8.91312 40.5224 8.83356C40.837 8.50072 41.2169 8.23754 41.638 8.06077C41.4559 8.43623 41.3349 8.83873 41.2796 9.25288C41.6285 9.30388 41.9794 9.34555 42.3322 9.37791C42.6307 9.44192 42.9422 9.38795 43.2024 9.22716C43.4625 9.06637 43.6514 8.81106 43.73 8.51398C44.0511 9.04309 44.4309 9.54139 44.9503 9.75157C45.2473 9.85907 45.5706 9.86791 45.873 9.77679C46.1753 9.68567 46.4407 9.49939 46.6303 9.24524C46.9298 8.83067 47.1374 8.35618 47.2392 7.85383C47.3866 7.26463 47.4684 6.5859 47.1791 6.21208C46.9472 5.90953 46.5473 5.90411 46.1783 5.93094C45.3639 5.99388 44.5581 6.14105 43.7736 6.37013L43.7072 6.52056C43.842 5.70463 43.5495 4.9196 43.0085 4.64041C42.6435 4.45375 42.2044 4.48504 41.7778 4.52291C41.2297 4.54754 40.6883 4.65303 40.1707 4.836C39.5769 5.0661 39.0681 5.47541 38.7141 6.00791C38.3354 6.58714 38.1472 7.37711 38.3357 7.95171Z" fill="black"/>
<path d="M43.7803 4.40322C43.7431 4.39216 43.8395 4.40637 43.8061 4.40727C43.8227 4.40631 43.8392 4.40398 43.8554 4.40032C43.8582 4.39976 43.8957 4.3877 43.8708 4.39656C43.9267 4.3797 43.9767 4.34687 44.0145 4.30204C44.1031 4.19175 44.1725 4.06722 44.22 3.93368C44.2799 3.7572 44.3762 3.59549 44.5025 3.45914C44.5384 3.42287 44.5822 3.39562 44.6305 3.37961C44.6787 3.3636 44.7301 3.35928 44.7803 3.36701C44.8305 3.37473 44.8783 3.39428 44.9196 3.42407C44.9609 3.45385 44.9947 3.49304 45.0182 3.53843C45.0658 3.71358 45.0495 3.90015 44.9722 4.0642C44.9181 4.23112 44.8377 4.38818 44.734 4.5293C44.5603 4.76008 44.3237 4.93496 44.053 5.03264C43.7397 5.14726 43.3981 5.15709 43.0788 5.06068C43.0366 5.04305 43.0004 5.01344 42.9747 4.97546C42.9489 4.93749 42.9346 4.89278 42.9336 4.84678C42.9327 4.80079 42.945 4.7555 42.9691 4.71642C42.9932 4.67735 43.028 4.64618 43.0694 4.62672L43.6019 4.40714C43.6299 4.39459 43.6601 4.38774 43.6908 4.38696C43.7214 4.38618 43.7519 4.39149 43.7805 4.4026C43.8091 4.4137 43.8352 4.43038 43.8574 4.45167C43.8796 4.47296 43.8975 4.49846 43.9099 4.52669C43.9223 4.55492 43.929 4.58535 43.9298 4.61622C43.9305 4.64709 43.9252 4.6778 43.9141 4.7066C43.903 4.73539 43.8865 4.76171 43.8653 4.78404C43.8441 4.80637 43.8188 4.82428 43.7907 4.83674L43.7898 4.83718L43.2573 5.05676L43.2479 4.62279C43.3143 4.64211 43.3827 4.65389 43.4517 4.6579C43.5253 4.66534 43.5997 4.66218 43.6725 4.64852C43.7422 4.63932 43.8107 4.62249 43.8768 4.59834C43.9191 4.58277 43.9606 4.56504 44.0011 4.54523C44.0159 4.53803 44.0305 4.53055 44.0449 4.52279C44.0439 4.52335 44.1058 4.48701 44.0787 4.50408C44.1475 4.45975 44.2122 4.40904 44.2717 4.35262C44.2927 4.33262 44.3121 4.31092 44.3296 4.28773C44.3599 4.25019 44.388 4.21089 44.4138 4.17004C44.4663 4.08354 44.5078 3.99079 44.5375 3.89393C44.551 3.85323 44.5625 3.81184 44.5717 3.76994C44.5743 3.74693 44.5784 3.72414 44.5841 3.7017C44.6039 3.64825 44.5803 3.73291 44.6031 3.75608L44.7012 3.82894C44.7197 3.83447 44.7391 3.83576 44.7581 3.83269C44.7771 3.82963 44.7951 3.8223 44.8109 3.81125C44.8226 3.79476 44.82 3.7975 44.8033 3.81945C44.7839 3.84529 44.7661 3.87234 44.75 3.90045C44.7149 3.96662 44.683 4.03455 44.6547 4.10397C44.5961 4.25161 44.522 4.39253 44.4337 4.52433C44.3472 4.65764 44.2211 4.76003 44.0735 4.81691C43.9258 4.8738 43.7641 4.88227 43.6113 4.84111C43.554 4.81813 43.5079 4.77336 43.4831 4.71647C43.4583 4.65958 43.4566 4.59513 43.4785 4.53703C43.5019 4.47977 43.5464 4.43386 43.6027 4.40892C43.6589 4.38398 43.7226 4.38194 43.7803 4.40322Z" fill="black"/>
</svg>
