<svg width="64" height="90" viewBox="0 0 64 90" fill="none" xmlns="http://www.w3.org/2000/svg">
<path d="M16.5924 33.3587L11.8477 25.9689L17.342 23.0508L18.7841 28.6888L28.9447 34.134C29.3459 33.9908 29.7803 33.9665 30.1952 34.0639C30.61 34.1614 30.9873 34.3765 31.281 34.683C31.5748 34.9894 31.7722 35.374 31.8493 35.7898C31.9265 36.2057 31.8799 36.6348 31.7154 37.0248C31.5509 37.4149 31.2755 37.749 30.9228 37.9865C30.57 38.224 30.1553 38.3546 29.729 38.3624C29.3028 38.3702 28.8834 38.2548 28.5222 38.0303C28.1609 37.8058 27.8733 37.4819 27.6944 37.0981L16.5924 33.3587Z" fill="#CBD5E1"/>
<path d="M8.34261 17.108C6.85177 19.2788 12.1498 27.1694 12.1498 27.1694C12.4079 26.6176 14.8751 32.8134 15.2884 32.4474C16.4629 31.4072 18.3014 28.5097 19.3233 28.3805C19.9078 28.3067 17.9679 24.1961 17.9679 24.1961C17.9679 24.1961 17.0813 21.7689 15.8783 18.6683C15.5545 17.7854 15.0109 16.9981 14.2978 16.3797C13.5848 15.7613 12.7255 15.3319 11.8001 15.1314C11.8001 15.1314 9.83345 14.9372 8.34261 17.108Z" fill="#2563EB"/>
<path d="M8.42237 87.8328L10.6757 87.8327L11.7477 79.2129L8.42188 79.2131L8.42237 87.8328Z" fill="#CBD5E1"/>
<path d="M7.81641 87.1023L8.45066 87.1022L10.9269 86.1035L12.2542 87.1021H12.2543C13.0044 87.1021 13.7237 87.3976 14.254 87.9236C14.7844 88.4495 15.0824 89.1629 15.0824 89.9067V89.9979L7.81653 89.9981L7.81641 87.1023Z" fill="black"/>
<path d="M18.9183 87.8328L21.1717 87.8327L22.2438 79.2129L18.918 79.2131L18.9183 87.8328Z" fill="#CBD5E1"/>
<path d="M18.2852 87.1023L18.9194 87.1022L21.3957 86.1035L22.7229 87.1021H22.7231C23.4731 87.1021 24.1924 87.3976 24.7228 87.9236C25.2531 88.4495 25.5511 89.1629 25.5512 89.9067V89.9979L18.2853 89.9981L18.2852 87.1023Z" fill="black"/>
<path d="M19.8828 40.7051L5.22577 41.0685C2.44207 42.5679 2.39981 45.8133 3.3119 49.6664C3.3119 49.6664 3.00399 51.9566 3.6198 52.5674C4.23562 53.1781 4.54353 53.1781 4.23562 54.2468C3.92771 55.3156 5.55453 57.0612 5.35694 57.2572C5.15934 57.4531 4.69748 58.5219 4.69748 58.5219L6.23702 67.2247C6.23702 67.2247 7.3147 82.34 7.62261 82.6453C7.93051 82.9507 8.23842 82.6453 7.93051 83.4087C7.62261 84.1721 7.3147 83.8668 7.62261 84.1721C7.89535 84.4638 8.1523 84.7696 8.39238 85.0882H12.1145C12.1145 85.0882 12.3952 83.5614 12.3952 83.4087C12.3952 83.2561 12.7031 82.34 12.7031 82.1873C12.7031 82.0346 12.4309 81.7647 12.4309 81.7647C12.3369 81.4544 12.2734 81.1357 12.2412 80.8132C12.2412 80.5078 11.3175 68.7515 11.3175 68.7515L13.1649 53.4835L17.6296 68.4461C17.6296 68.4461 17.6296 81.5766 17.9375 81.8819C18.2454 82.1873 18.2454 82.0346 18.0915 82.6453C17.9375 83.2561 17.3217 83.1034 17.7836 83.5614C18.2454 84.0195 18.3994 83.2561 18.2454 84.0195L18.0915 84.7829L22.7101 84.8484C22.7101 84.8484 23.3259 83.5614 23.018 83.1034C22.7101 82.6453 22.7286 82.7704 23.1042 82.0208C23.4799 81.2712 23.6338 81.1185 23.4799 80.9659C23.3259 80.8132 23.3259 80.0011 23.3259 80.0011L22.5561 65.3925C22.5561 65.3925 22.4022 49.9718 22.4022 49.5138C22.3906 49.2781 22.4344 49.0429 22.5301 48.8269V48.2052L21.9403 46.0021L19.8828 40.7051Z" fill="black"/>
<path d="M11.1087 10.4819C13.6239 10.4819 15.6628 8.45989 15.6628 5.96557C15.6628 3.47126 13.6239 1.44922 11.1087 1.44922C8.5936 1.44922 6.55469 3.47126 6.55469 5.96557C6.55469 8.45989 8.5936 10.4819 11.1087 10.4819Z" fill="#CBD5E1"/>
<path d="M13.3437 13.4685C14.3248 14.047 14.9117 15.1098 15.2486 16.1913C15.8724 18.1936 16.2478 20.2637 16.3667 22.3561L16.7225 28.6202L21.1297 41.9581C17.3101 45.1633 2.95315 42.6866 2.95315 42.6866C2.95315 42.6866 2.51244 42.5409 2.95315 42.1038C3.39386 41.6667 3.8229 42.054 3.38219 41.6169C2.94149 41.1798 3.2453 41.6668 3.3922 41.2297C3.53911 40.7926 3.3922 41.084 3.2453 40.9383C3.09839 40.7926 4.38255 39.4814 4.38255 39.4814L3.20732 31.8253L1.73828 16.3823C3.50114 14.197 7.04647 12.9087 7.04647 12.9087L7.96254 11.2734L12.5429 11.6368L13.3437 13.4685Z" fill="#2563EB"/>
<path d="M14.8574 3.56725C15.2114 3.82906 15.4736 4.19437 15.6072 4.61174C15.6585 3.92966 15.6618 3.24486 15.6169 2.56232C15.5633 2.08271 15.2228 1.97482 14.8285 1.84982C14.4725 1.73688 14.0698 1.6093 13.9615 1.1437C12.5299 -0.237396 10.0379 -0.167752 8.33249 0.313996C7.39406 0.579089 6.85408 0.919685 6.80577 1.11921L6.79575 1.16029L6.75764 1.17919C6.03427 1.53788 5.89346 2.67056 5.90276 3.55758C5.92039 5.22879 6.50223 7.12685 6.83001 7.28105C6.84737 7.28921 6.85175 7.28601 6.85927 7.2798C7.35282 6.88864 7.95497 7.30953 8.21959 7.53833C8.37567 6.49965 8.87822 5.54279 9.64697 4.82059C10.4157 4.09839 11.4063 3.65249 12.4606 3.55413C12.8049 3.52112 13.1465 3.46433 13.4828 3.38414C13.6534 3.34038 13.8287 3.31755 14.0049 3.31619C14.3083 3.31162 14.6058 3.39923 14.8574 3.56725Z" fill="black"/>
<path d="M43.1208 44.3056L51.8811 35.4833L54.1891 28.4274L50.475 26.9375C48.6351 28.778 46.7411 34.4125 46.7411 34.4125L40.7619 42.371C40.7141 42.3886 40.6665 42.4072 40.6196 42.4292C40.3443 42.5581 40.1072 42.7552 39.9312 43.0016C39.7552 43.2479 39.6463 43.5351 39.6149 43.8354C39.5835 44.1357 39.6308 44.4389 39.7521 44.7158C39.8734 44.9927 40.0647 45.2339 40.3075 45.416C40.5503 45.5982 40.8364 45.7151 41.138 45.7556C41.4397 45.7961 41.7468 45.7587 42.0297 45.647C42.3125 45.5354 42.5615 45.3533 42.7527 45.1183C42.9438 44.8833 43.0706 44.6034 43.1208 44.3056Z" fill="white"/>
<path d="M49.4609 27.7471L54.158 29.0946L54.1755 29.0912C55.902 28.7588 57.2677 25.9133 58.1094 23.5847C58.3862 22.8167 58.3587 21.9731 58.0324 21.2244C57.7061 20.4757 57.1053 19.8778 56.3515 19.5516C55.7938 19.3147 55.1804 19.2372 54.5806 19.3279C53.9809 19.4186 53.4186 19.6738 52.9575 20.0648L50.6156 22.0647L49.4609 27.7471Z" fill="black"/>
<path d="M45.4426 87.571L42.9165 87.5708L41.7148 77.9082L45.4429 77.9084L45.4426 87.571Z" fill="#CBD5E1"/>
<path d="M46.0788 86.7524L45.3678 86.7524L42.5919 85.6328L41.1041 86.7522H41.1039C40.2631 86.7522 39.4567 87.0835 38.8622 87.6731C38.2677 88.2627 37.9336 89.0624 37.9336 89.8962V89.9984L46.0786 89.9987L46.0788 86.7524Z" fill="black"/>
<path d="M56.6652 87.571L54.1391 87.5708L52.9375 77.9082L56.6657 77.9084L56.6652 87.571Z" fill="#CBD5E1"/>
<path d="M57.2975 86.7524L56.5865 86.7524L53.8106 85.6328L52.3228 86.7522H52.3226C51.4818 86.7522 50.6755 87.0835 50.081 87.6731C49.4864 88.2627 49.1524 89.0624 49.1523 89.8962V89.9984L57.2974 89.9987L57.2975 86.7524Z" fill="black"/>
<path d="M60.4267 45.9476C60.4267 45.9476 60.7216 49.4579 59.9842 52.8219C59.2468 56.1859 59.2468 65.66 59.2468 65.66L57.6245 84.1216L52.7577 83.6829L51.4303 52.8219L46.7109 63.2064L47.1534 64.669L46.564 65.0346C46.564 65.0346 47.0059 67.8867 46.7109 67.8867C46.416 67.8867 45.6786 68.3255 45.6786 68.3255L46.2685 83.3903L41.2541 83.2441L39.4844 62.0363L41.4016 49.8967L41.5491 47.5565L42.2128 47.5836L42.5507 46.6058L43.1714 44.9238L60.4267 45.9476Z" fill="black"/>
<path d="M60.7222 46.6889L60.7485 46.6523C62.1523 44.7032 60.041 40.0196 59.7226 39.3406L61.0638 38.909L60.7618 36.3629L60.6187 35.2278L61.6438 34.2112L61.6466 34.1859L62.2366 29.0668L63.0943 25.6667C63.4175 24.3814 63.3899 23.0339 63.0145 21.7626C62.6391 20.4913 61.9292 19.342 60.9579 18.4326L58.9753 16.5787L56.5658 13.043H52.6801L51.3478 15.5387C50.0561 15.8347 48.9101 16.5708 48.1094 17.6187C47.3087 18.6665 46.904 19.9598 46.9659 21.2731L47.2678 27.8186L46.0858 35.9684L46.085 37.4432L44.7548 38.9094L45.0453 40.3498L44.0328 40.7801L43.5858 42.8489C43.4008 43.091 42.1797 44.7057 42.1797 45.1471C42.1797 45.2134 42.229 45.2775 42.3349 45.3485C43.1671 45.9074 47.7666 47.0467 49.8023 46.2388C51.9707 45.379 60.5906 46.6689 60.6774 46.682L60.7222 46.6889Z" fill="#2563EB"/>
<path d="M54.0952 11.9003C56.9373 11.9003 59.2413 9.61536 59.2413 6.79681C59.2413 3.97825 56.9373 1.69336 54.0952 1.69336C51.2532 1.69336 48.9492 3.97825 48.9492 6.79681C48.9492 9.61536 51.2532 11.9003 54.0952 11.9003Z" fill="#CBD5E1"/>
<path d="M53.6186 11.9842C54.4155 11.9762 55.2103 11.9006 55.9943 11.7583C56.7705 11.581 58.4829 10.2678 58.9496 9.49202C59.2963 8.91562 59.5045 8.02406 59.618 7.37767C59.7714 6.52222 59.7418 5.64437 59.5313 4.80096C59.3208 3.95756 58.934 3.1674 58.396 2.48166C58.1886 2.19438 57.9068 1.96804 57.5803 1.82656C57.5514 1.81621 57.5217 1.80714 57.4918 1.7995C57.0186 1.68889 56.5895 1.44053 56.2597 1.08633C56.1956 1.01462 56.1265 0.947572 56.0527 0.885717C55.6827 0.591898 55.2478 0.389097 54.7836 0.293892C54.0336 0.11528 52.9609 0.339102 51.5952 0.959707C50.909 1.27151 50.1475 1.18452 49.5605 1.0739C49.5276 1.06847 49.4939 1.07168 49.4626 1.0832C49.4313 1.09473 49.4036 1.11418 49.3823 1.1396C49.14 1.37718 48.816 1.51498 48.4754 1.52532C48.267 1.53975 48.0555 1.83184 47.8007 2.2122C47.7429 2.29855 47.6754 2.39932 47.6264 2.46081L47.6166 2.34532L47.502 2.47737C47.3218 2.6849 47.1974 2.93429 47.1405 3.20231C47.0837 3.47033 47.0961 3.74827 47.1767 4.01023C47.2573 4.2722 47.4034 4.50969 47.6015 4.70057C47.7996 4.89145 48.0431 5.02951 48.3095 5.10192C48.5208 5.15192 48.7367 5.18039 48.9538 5.1869C49.0855 5.19526 49.2216 5.2039 49.3524 5.22297C49.7725 5.29713 50.166 5.47804 50.4945 5.74804C50.823 6.01805 51.0753 6.36791 51.2267 6.76349C51.2625 6.85491 51.319 6.93695 51.3918 7.00329C51.4646 7.06963 51.5518 7.11848 51.6467 7.14609C51.7416 7.1737 51.8416 7.17931 51.939 7.16251C52.0364 7.1457 52.1286 7.10691 52.2085 7.04915C52.3414 6.94095 52.4987 6.86622 52.667 6.83135C52.8353 6.79648 53.0097 6.80251 53.1751 6.8489C53.319 6.9235 53.4326 7.04488 53.497 7.1927C53.5748 7.35723 53.7003 7.49505 53.8574 7.58856C54.3932 7.84537 54.4608 9.0421 54.2969 10.0454C54.1389 11.0124 53.7952 11.7178 53.4611 11.7608C53.2039 11.7939 53.1748 11.8128 53.1573 11.8585L53.1417 11.8995L53.1717 11.9366C53.3154 11.9842 53.4679 12.0004 53.6186 11.9842Z" fill="black"/>
<path d="M49.4102 28.2917L46.9367 25.166C44.4171 25.8541 39.9464 29.806 39.9464 29.806L30.7651 33.7574C30.4586 33.7063 30.144 33.7362 29.853 33.844C29.5619 33.9519 29.3046 34.1339 29.1069 34.3717C28.9093 34.6095 28.7784 34.8947 28.7272 35.1987C28.6761 35.5027 28.7066 35.8146 28.8157 36.1032C28.9248 36.3917 29.1086 36.6467 29.3487 36.8424C29.5887 37.0381 29.8765 37.1676 30.183 37.218C30.4896 37.2683 30.8041 37.2377 31.0949 37.1291C31.3858 37.0206 31.6426 36.838 31.8397 36.5997L43.8669 33.2721L49.4102 28.2917Z" fill="#CBD5E1"/>
<path d="M48.7573 29.0037L52.6602 24.6889L52.8769 21.6315C52.9173 21.0311 52.7875 20.4316 52.5022 19.9005C52.217 19.3695 51.7877 18.9281 51.2628 18.6263C50.5485 18.222 49.706 18.1018 48.9057 18.2899C48.1054 18.4781 47.407 18.9605 46.9518 19.6398C45.5727 21.7011 44.0891 24.4879 44.8524 26.0592L44.8602 26.0751L48.7573 29.0037Z" fill="#2563EB"/>
<path d="M9.0455 35.9707L7.65243 35.2632C7.57779 35.2104 7.52477 35.1328 7.50306 35.0445C7.48134 34.9562 7.49239 34.8631 7.53417 34.7822C7.57594 34.7013 7.64567 34.638 7.73061 34.6039C7.81556 34.5698 7.91004 34.5671 7.99682 34.5963L9.3899 35.3039C9.46454 35.3566 9.51755 35.4342 9.53927 35.5225C9.56098 35.6108 9.54994 35.7039 9.50816 35.7848C9.46638 35.8657 9.39665 35.929 9.31171 35.9632C9.22677 35.9973 9.13228 36 9.0455 35.9707Z" fill="black"/>
<path d="M4.38539 34.0734L2.09375 25.6126L8.21765 24.4629L7.88833 30.2703L15.9346 38.4868C16.3606 38.4696 16.7824 38.5756 17.1487 38.792C17.515 39.0083 17.8098 39.3257 17.9974 39.7054C18.1849 40.0851 18.257 40.5108 18.2048 40.9304C18.1526 41.35 17.9785 41.7455 17.7035 42.0687C17.4286 42.3918 17.0649 42.6287 16.6566 42.7504C16.2483 42.872 15.8131 42.8733 15.4041 42.7539C14.9951 42.6345 14.63 42.3997 14.3532 42.0781C14.0765 41.7565 13.9001 41.362 13.8455 40.9426L4.38539 34.0734Z" fill="#CBD5E1"/>
<path d="M1.47603 16.1272C-0.60264 17.7547 2.06534 26.8578 2.06534 26.8578C2.47841 26.4082 2.95843 33.0526 3.46333 32.8264C4.8983 32.1834 7.52842 29.9661 8.54238 30.1468C9.12225 30.2502 8.51472 25.7519 8.51472 25.7519C8.51472 25.7519 8.40298 23.1727 8.19298 19.857C8.15114 18.9185 7.87055 18.0058 7.37733 17.2037C6.88412 16.4017 6.19431 15.7365 5.37212 15.27C5.37212 15.27 3.55471 14.4998 1.47603 16.1272Z" fill="#2563EB"/>
</svg>
