<svg width="129" height="91" viewBox="0 0 129 91" fill="none" xmlns="http://www.w3.org/2000/svg">
<g clip-path="url(#clip0_2737_2410)">
<path d="M75.8065 18.4443C76.0255 18.5034 76.2286 18.6089 76.4015 18.7534C76.5745 18.8978 76.713 19.0777 76.8074 19.2804C76.9018 19.483 76.9498 19.7036 76.9479 19.9264C76.946 20.1492 76.8944 20.3689 76.7966 20.57L79.1709 23.1597L77.9187 24.959L74.6181 21.2557C74.2846 21.0722 74.0313 20.775 73.9062 20.4205C73.7812 20.066 73.793 19.6787 73.9394 19.3322C74.0859 18.9856 74.3569 18.7038 74.701 18.5402C75.0451 18.3766 75.4384 18.3424 75.8065 18.4443Z" fill="#343434"/>
<path d="M98.0348 24.8026C97.8208 24.4608 97.5401 24.1638 97.2088 23.9287C96.8775 23.6936 96.5022 23.525 96.1044 23.4325C95.7065 23.34 95.2939 23.3254 94.8904 23.3897C94.4868 23.454 94.1001 23.5958 93.7525 23.807L85.9442 28.5515L77.5214 21.5273L75.4258 23.4415L84.7306 35.2854L96.8241 29.1002C96.5418 29.2446 98.3758 25.3471 98.0348 24.8026Z" fill="#2563EB"/>
<path d="M82.5683 40.5777C82.5691 44.3611 81.8101 48.1075 80.3347 51.6031C78.8593 55.0986 76.6963 58.2747 73.9695 60.9499C71.2426 63.6251 68.0052 65.7471 64.4422 67.1946C60.8792 68.6421 57.0605 69.3867 53.2041 69.3859C36.9869 69.3859 23.8399 56.4879 23.8399 40.5777C23.8371 37.483 24.3427 34.408 25.3374 31.4711C27.2903 25.7355 31.0317 20.7472 36.0324 17.2117C41.0331 13.6762 47.0402 11.7724 53.2041 11.7695C58.5201 11.7677 63.7368 13.1822 68.2974 15.862C72.8579 18.5418 76.5911 22.3863 79.0985 26.9851C79.7201 28.1197 80.2624 29.2945 80.7216 30.5013C80.7852 30.6693 80.8473 30.8373 80.9076 31.007V31.0086C81.1768 31.7544 81.4139 32.5141 81.6189 33.2876C82.2513 35.6679 82.5704 38.1179 82.5683 40.5777Z" fill="#343434"/>
<path d="M49.9886 21.1421C48.669 20.442 47.2039 20.0468 45.7049 19.9866C44.2059 19.9264 42.7128 20.2029 41.3393 20.7949C40.1299 21.3112 38.8566 22.2375 38.4531 23.9101C40.0848 22.9654 42.1969 24.458 42.6168 26.8525L42.5187 26.879C42.297 28.5376 42.792 30.3432 43.7505 31.3716C43.8763 30.3034 44.5922 29.5764 45.2964 29.1223C46.0006 28.6681 46.7796 28.3382 47.3171 27.5576C47.9543 26.6322 48.1161 25.2797 48.3692 24.0458C48.6223 22.812 49.1026 21.4859 49.9886 21.1421Z" fill="white"/>
<path d="M40.8565 35.2539C40.4047 35.9196 39.8011 36.3374 39.2595 36.8575C38.7195 37.3793 38.2056 38.0835 38.0979 38.9877C38.0294 39.5671 38.1355 40.156 38.1208 40.7418C38.1061 41.3276 37.9071 41.987 37.5009 42.1326C36.8597 42.3599 36.3703 41.1916 35.7113 41.1099C35.1876 41.0459 34.7162 41.8542 34.8679 42.5552C35.0196 43.2562 35.7325 43.5666 36.142 43.1089C36.5123 43.7187 36.2513 44.8246 35.695 45.0118C35.6362 45.396 35.5775 45.7785 35.5204 46.1626C34.1142 45.1975 32.6933 44.2164 31.4975 42.8032C30.1676 41.2448 29.3428 39.3321 29.1288 37.3105C28.9738 35.686 29.2039 33.8279 28.4437 32.5779C27.8351 31.5776 26.7911 31.3568 25.8514 31.4192C25.6801 31.4304 25.5072 31.4496 25.3359 31.4704C25.8901 29.8376 26.5939 28.2573 27.4387 26.7491C27.6299 26.6685 27.8076 26.5601 27.9656 26.4274C28.8401 25.6992 29.2283 24.2251 29.938 23.2056C29.9836 23.14 30.0309 23.076 30.0799 23.0136C30.8058 22.0837 31.7781 21.6052 32.7178 21.1603C34.7977 20.1696 36.938 19.1661 39.1339 19.3037L38.5091 19.3629C37.7798 21.3667 37.0501 23.3705 36.3198 25.3743C36.2088 25.6815 36.0968 25.9894 35.9837 26.2977C35.5694 27.4372 35.142 28.6504 35.2056 29.926C35.2431 30.6814 35.5106 31.488 36.0196 31.7473C36.4943 31.9873 37.0131 31.6929 37.4715 31.4016C37.6656 31.2799 37.8581 31.1583 38.0523 31.0351C38.7489 30.5949 39.5205 30.1436 40.2562 30.4381C40.93 30.707 41.4275 31.6048 41.5221 32.5731C41.6089 33.5143 41.3748 34.4572 40.8565 35.2539Z" fill="white"/>
<path d="M44.9992 48.9342C42.9647 47.7052 40.9303 46.4763 38.8958 45.2474L38.9303 45.1602C37.6654 45.6328 37.1403 47.8387 37.3493 49.6427C37.5583 51.4466 38.2672 53.0592 38.6253 54.817C39.1081 57.2224 38.9259 59.7107 38.0975 62.0237C40.7727 59.0788 43.1402 55.8782 45.1645 52.47C45.4473 52.0404 45.6628 51.5717 45.8037 51.0794C45.933 50.5556 45.9131 49.9259 45.6543 49.5059C45.4877 49.2649 45.2626 49.0684 44.9992 48.9342Z" fill="white"/>
<path d="M36.9716 26.5765C36.7556 27.053 36.6724 27.6884 36.8685 28.1815C37.0687 28.685 37.4919 28.9126 37.8816 29.1021L39.0058 29.6487C39.3797 29.8306 39.7828 30.0143 40.1641 29.8646C40.6239 29.6842 40.9427 28.9769 40.8602 28.3204C40.7725 27.6217 40.3236 27.1411 39.9084 26.7318C39.3274 26.1591 38.7464 25.5864 38.1654 25.0137L37.838 25.4071C37.4839 25.746 37.1909 26.1414 36.9716 26.5765Z" fill="white"/>
<path d="M76.5417 34.0467C77.0474 34.1635 77.5531 34.2803 78.0588 34.3972C77.9707 36.0729 77.1241 37.6237 75.9887 38.1854C75.5156 38.4191 74.9887 38.5055 74.5971 38.9425C74.2431 39.3394 74.0637 39.9571 73.8989 40.5477C73.6102 41.5784 73.3214 42.6091 73.0327 43.6398C72.7227 44.7505 72.3247 45.9845 71.5188 46.3846C70.8271 46.7287 70.0359 46.3078 69.5041 45.602C68.9722 44.8962 68.6476 43.9471 68.3328 43.022C68.3523 44.0303 67.8744 45.0194 67.1973 45.3699C66.5187 45.7204 65.6932 45.4035 65.2397 44.6209C64.9135 44.0591 64.7781 43.3181 64.4583 42.7484C64.1386 42.1786 63.4681 41.8521 63.119 42.3866C62.889 42.742 62.9183 43.2861 62.8041 43.7374C62.6263 44.4384 62.088 44.8785 61.5545 44.917C61.0227 44.9554 60.5039 44.6545 60.0586 44.2464C59.1401 43.4013 58.4631 42.0602 58.2005 40.5701C58.0847 39.9059 58.052 39.1826 58.2527 38.56C58.4533 37.9374 58.9378 37.4573 59.4191 37.5757C59.7356 36.9195 59.1108 36.0488 58.5479 36.1257C57.9835 36.2025 57.5414 36.7962 57.0781 37.2524C56.6164 37.7085 55.9704 38.0398 55.5055 37.5869C55.5088 38.0078 55.1596 38.2863 54.8578 38.2511C54.5577 38.2175 54.2901 37.9806 54.0145 37.8125C52.9492 37.1612 51.5968 37.5933 50.8398 38.8256C51.3129 36.8507 52.0063 34.5844 53.4598 34.1203C54.0536 33.9298 54.7012 34.0867 55.2624 33.757C56.2559 33.1728 56.4566 30.9658 55.5985 30.0551C55.7078 30.9162 55.6866 31.9213 55.2233 32.5102C54.76 33.0992 53.7877 32.7151 53.8464 31.8444C53.7126 32.4446 53.0471 32.5358 52.7404 32.0749C52.432 31.614 52.4581 30.8602 52.6767 30.3096C52.8953 29.759 53.2673 29.3637 53.6278 28.9844C54.4027 28.1698 55.189 27.3456 56.0863 26.8334C56.9851 26.3213 58.0227 26.1484 58.9231 26.6574C59.3979 26.9262 59.8155 27.3744 60.3 27.6112C60.7845 27.8497 61.3995 27.8193 61.7209 27.2623C62.0814 26.6414 61.9118 25.7195 62.0456 24.9433C62.2854 23.5717 63.6834 22.9299 64.4583 23.8357C63.8792 23.6901 63.2805 24.3623 63.2087 25.1769C63.1353 25.9916 63.5546 26.8142 64.1157 27.0607C65.0587 27.4704 65.982 26.4397 66.6949 25.4858C67.4388 24.4871 68.1838 23.489 68.9298 22.4914C69.049 22.3215 69.1827 22.162 69.3295 22.0144C69.5632 21.791 69.8747 21.6631 70.2009 21.6565C70.5271 21.65 70.8437 21.7653 71.0865 21.9792C71.8402 22.5826 72.1942 23.8198 72.8125 24.6712C73.7097 25.9084 75.0523 26.2092 76.3019 26.4493C77.2334 26.627 78.1654 26.8057 79.098 26.9855C79.7197 28.1201 80.262 29.2949 80.7212 30.5017C79.142 31.1595 77.6852 32.3902 76.5417 34.0467Z" fill="white"/>
<path d="M79.5524 53.3022C78.8534 54.6945 78.0405 56.0289 77.1217 57.2922C76.5344 57.0457 75.903 57.4858 75.3533 57.8987C74.779 58.3309 74.089 58.7518 73.5001 58.3581C72.8981 57.9548 72.704 56.8265 72.8948 55.9318C73.0857 55.0387 73.562 54.3281 74.0237 53.6527C74.5131 52.9357 75.0368 52.1915 75.7171 51.913C76.399 51.6346 77.275 52.0283 77.474 52.9789L77.9569 52.9629C77.6861 52.598 77.828 51.8426 78.1918 51.7098C78.6111 51.5545 78.9749 52.1195 79.2228 52.6188C79.3338 52.8445 79.4463 53.0718 79.5524 53.3022Z" fill="white"/>
<path d="M61.0592 46.5425C60.0213 46.6065 59.1991 45.353 58.6528 44.1198C58.1065 42.8866 57.608 41.4763 56.6715 40.8487C56.1364 40.49 55.5263 40.4408 54.9459 40.267C54.3655 40.0932 53.7579 39.7336 53.4805 39.0012L52.8221 38.7402C51.9526 39.2199 51.0716 39.7083 50.3223 40.4889C49.482 41.3646 48.9586 42.4872 48.8328 43.6836C48.7071 44.9765 49.1715 46.4181 50.0393 46.9038C50.725 47.2876 51.5233 47.0457 52.2179 47.397C53.0857 47.836 53.6009 49.1111 53.7959 50.3701C53.9909 51.6291 53.9415 52.9375 54.081 54.2107C54.2206 55.484 54.6051 56.8089 55.4009 57.4614C56.3968 58.278 57.8581 57.5995 58.3049 56.1131C58.5241 55.384 58.5166 54.5613 58.6805 53.8045C58.9691 52.4716 59.7481 51.4828 60.3659 50.3895C60.9838 49.2962 61.4701 47.8113 61.0592 46.5425Z" fill="white"/>
<path d="M50.801 33.446C50.8978 33.5335 50.9882 33.6275 51.0713 33.7275C51.1574 33.8731 51.2013 34.039 51.1984 34.2073C51.1955 34.3756 51.1458 34.5399 51.0547 34.6826C51.1797 34.6756 51.3019 34.6432 51.4136 34.5876C51.5252 34.5319 51.6239 34.4541 51.7033 34.3592C51.8927 34.1475 52.0594 33.9172 52.2006 33.672C52.3064 33.5026 52.419 33.2736 52.3472 33.0725C52.2982 32.9352 52.1822 32.8767 52.1009 32.7734C51.9721 32.6098 51.9401 32.3499 51.8735 32.1253C51.7294 31.6401 51.3844 31.2834 51.0099 31.2324L51.0619 31.2422C50.9055 31.2948 50.7963 31.5385 50.8308 31.7578C50.8624 31.9575 50.9932 32.1233 50.9801 32.327C50.9614 32.6199 50.6631 32.7574 50.6446 33.0503C50.6417 33.1973 50.6979 33.3394 50.801 33.446Z" fill="white"/>
<path d="M49.0234 28.4661C49.0249 28.4657 49.0265 28.4656 49.028 28.4653C49.0591 28.4374 49.088 28.4072 49.1143 28.375L49.0234 28.4661Z" fill="#E6E6E6"/>
<path d="M49.3344 29.8429C49.5639 29.6982 49.692 29.2978 49.6161 28.9627C49.5407 28.6296 49.2739 28.4057 49.0277 28.4672C48.9563 28.5382 48.8677 28.5903 48.7701 28.6184C48.6726 28.6466 48.5693 28.65 48.4701 28.6283C48.3179 28.5898 48.1508 28.4908 48.0189 28.6033C47.9434 28.6873 47.8905 28.7886 47.8652 28.8978C47.8163 29.0449 47.7675 29.192 47.7186 29.3391C47.6954 29.3918 47.6894 29.4502 47.7013 29.5064C47.7106 29.5289 47.7257 29.5486 47.7451 29.5638C47.7645 29.5789 47.7876 29.5889 47.812 29.5927C48.1051 29.6775 48.3983 29.7623 48.6914 29.8471C48.905 29.9088 49.1356 29.9684 49.3344 29.8429Z" fill="white"/>
<path d="M71.4615 48.8257C71.326 48.6081 71.1906 48.3904 71.0551 48.1728C70.922 47.9208 70.74 47.6966 70.5194 47.513C70.4709 47.4731 70.4148 47.4432 70.3543 47.4249C70.2939 47.4067 70.2303 47.4004 70.1673 47.4066C70.1044 47.4128 70.0433 47.4313 69.9878 47.461C69.9322 47.4906 69.8832 47.5309 69.8438 47.5794L69.8603 47.7037C70.1691 48.0838 70.4958 48.5061 70.5742 49.0703C70.6051 49.2927 70.5943 49.5229 70.6214 49.7463C70.6485 49.9696 70.7255 50.2013 70.8724 50.2976C71.0858 50.4374 71.3363 50.2313 71.4881 49.9797C71.6239 49.773 71.6848 49.5276 71.661 49.2829C71.6272 49.1187 71.5593 48.9631 71.4615 48.8257Z" fill="white"/>
<path d="M77.4927 40.5139C77.5319 40.2618 77.5711 40.0097 77.6103 39.7576C77.6739 39.4807 77.6818 39.1943 77.6336 38.9144C77.6227 38.8533 77.5994 38.7949 77.5651 38.7427C77.5308 38.6905 77.4863 38.6456 77.4341 38.6106C77.3818 38.5755 77.323 38.5511 77.261 38.5387C77.199 38.5263 77.1351 38.5262 77.0731 38.5383L77.0041 38.6439C76.9909 39.1298 76.9637 39.6593 76.6533 40.1404C76.5309 40.3301 76.3716 40.4994 76.2457 40.6874C76.1198 40.8754 76.0267 41.1013 76.0759 41.2678C76.1473 41.5096 76.4743 41.5101 76.7556 41.4136C76.9951 41.3412 77.2028 41.1919 77.3452 40.9897C77.4271 40.8427 77.4773 40.6807 77.4927 40.5139Z" fill="#E6E6E6"/>
<path d="M73.5887 49.1077C73.655 48.9209 73.5593 48.7066 73.5391 48.5001C73.5294 48.2334 73.6015 47.97 73.746 47.7439C73.8896 47.5306 73.9983 47.2967 74.0684 47.0505C74.0979 46.9384 74.0925 46.8201 74.0529 46.711C74.0081 46.6121 73.8994 46.567 73.8371 46.6453L73.9705 46.7296C73.7904 46.698 73.6055 46.7068 73.4293 46.7553C73.3289 46.793 73.2392 46.8539 73.1678 46.9329C73.0964 47.0118 73.0454 47.1065 73.0192 47.2088C72.9972 47.3684 72.9612 47.5259 72.9117 47.6794C72.8321 47.8398 72.6782 47.8932 72.5814 48.034C72.5154 48.1588 72.4821 48.2977 72.4845 48.4383C72.4869 48.5789 72.5249 48.7167 72.595 48.8393C72.7165 49.0398 72.9097 49.1888 73.137 49.2574C73.2998 49.3147 73.5142 49.3177 73.5887 49.1077Z" fill="white"/>
<path d="M77.3745 50.2283C77.4334 50.3786 77.5123 50.5206 77.6091 50.6506C77.7903 50.8297 78.0365 50.7196 78.2564 50.6761C78.4559 50.6452 78.6602 50.6678 78.8476 50.7416C79.0351 50.8153 79.1987 50.9375 79.3211 51.0951C79.2358 50.6779 79.0498 50.287 78.7786 49.955C78.5073 49.623 78.1589 49.3598 77.7625 49.1873C77.2442 48.9801 76.6984 48.96 76.1595 48.9414L76.0664 48.9648C76.3036 49.6422 77.0485 49.6271 77.3745 50.2283Z" fill="white"/>
<path d="M61.3438 51.5993L61.3447 51.6013C61.3507 51.5897 61.3566 51.578 61.3626 51.5664L61.3438 51.5993Z" fill="#E6E6E6"/>
<path d="M60.7684 52.7046C60.6432 52.9277 60.5355 53.1598 60.4462 53.3989C60.3281 53.7862 60.2499 54.1842 60.2128 54.5869C60.1836 54.8158 60.1746 55.1082 60.3208 55.2198C60.3628 55.2471 60.4135 55.2585 60.4634 55.2519C60.5133 55.2452 60.5591 55.2209 60.5921 55.1836C60.6733 55.0993 60.7398 55.0024 60.7888 54.8968C61.0761 54.4113 61.2993 53.8918 61.4527 53.3509C61.5926 52.7812 61.5913 52.1104 61.344 51.6172C61.1521 51.9797 60.9603 52.3422 60.7684 52.7046Z" fill="white"/>
<path d="M55.2277 23.6537C55.3189 23.7411 55.4342 23.8005 55.5594 23.8245C55.6846 23.8484 55.8142 23.836 55.9322 23.7886C56.1767 23.6837 56.4009 23.5384 56.5951 23.359C56.756 23.2422 56.8924 23.0962 56.997 22.9289C57.0546 22.8289 57.0915 22.7187 57.1056 22.6047C57.1198 22.4907 57.1108 22.375 57.0792 22.2644C56.9884 22.0039 56.758 21.9166 56.5548 21.8575C56.2295 21.7628 55.9041 21.6682 55.5788 21.5735L55.8141 21.3654C55.572 21.2379 55.3041 21.4746 55.1528 21.7675C55.0557 21.9588 54.9881 22.1631 54.952 22.3738C54.871 22.8336 54.9502 23.3811 55.2277 23.6537Z" fill="#E6E6E6"/>
<path d="M60.9707 21.7626C61.0625 21.8618 61.1892 21.923 61.3252 21.9339C61.4613 21.9447 61.5964 21.9044 61.7033 21.8211C61.7952 21.7533 61.8716 21.6673 61.9274 21.5687C61.9832 21.47 62.0172 21.361 62.0272 21.2486C62.0503 20.9975 61.9237 20.7184 61.743 20.6968L61.7844 20.4617C61.4362 20.4 61.0078 20.3877 60.8213 20.8024C60.7584 20.9613 60.7391 21.1336 60.7653 21.3021C60.7915 21.4706 60.8624 21.6294 60.9707 21.7626Z" fill="#E6E6E6"/>
<path d="M60.2055 9.2608C58.1646 9.03494 56.1158 9.61373 54.5099 10.8699C52.9039 12.126 51.8724 13.9565 51.6421 15.9588C51.1627 20.1284 53.4018 29.1827 57.484 32.9308C59.4061 25.7497 66.1416 21.4903 67.0328 17.662C67.9851 13.5714 64.4556 9.73112 60.2055 9.2608Z" fill="#2563EB"/>
<path d="M58.7952 18.5298C60.19 18.5298 61.3208 17.4205 61.3208 16.052C61.3208 14.6836 60.19 13.5742 58.7952 13.5742C57.4003 13.5742 56.2695 14.6836 56.2695 16.052C56.2695 17.4205 57.4003 18.5298 58.7952 18.5298Z" fill="white"/>
<path d="M56.1386 36.5036C57.0522 36.5036 57.7928 35.777 57.7928 34.8807C57.7928 33.9844 57.0522 33.2578 56.1386 33.2578C55.225 33.2578 54.4844 33.9844 54.4844 34.8807C54.4844 35.777 55.225 36.5036 56.1386 36.5036Z" fill="#2563EB"/>
<path opacity="0.2" d="M60.8829 14.2777C61.1672 14.4453 61.415 14.6661 61.6123 14.9277C61.8096 15.1893 61.9524 15.4864 62.0326 15.8021C62.1129 16.1178 62.1289 16.446 62.0799 16.7678C62.0309 17.0896 61.9177 17.3988 61.7469 17.6777C61.5761 17.9566 61.3509 18.1997 61.0843 18.3933C60.8177 18.5868 60.5148 18.7269 60.193 18.8056C59.5431 18.9646 58.8554 18.8638 58.2812 18.5253C58.8666 18.6531 59.4793 18.5723 60.0095 18.2974C60.5397 18.0225 60.9529 17.5714 61.1751 17.025C61.3973 16.4785 61.414 15.8723 61.2223 15.3148C61.0305 14.7574 60.6428 14.2851 60.1285 13.9824C60.3946 14.0403 60.6493 14.14 60.8829 14.2777Z" fill="black"/>
<path opacity="0.2" d="M67.0414 17.671C66.1502 21.4992 59.4147 25.7586 57.4926 32.9397C57.1086 32.5838 56.7521 32.2006 56.4258 31.7931C58.5857 25.0431 64.902 20.9416 65.763 17.2428C66.5337 13.9323 64.3689 10.7861 61.2625 9.45703C65.0227 10.3844 67.9141 13.9223 67.0414 17.671Z" fill="black"/>
<path d="M36.5375 18.9286C35.0048 18.7589 33.4662 19.1936 32.2602 20.1369C31.0542 21.0802 30.2796 22.4549 30.1067 23.9585C29.7467 27.0897 31.4281 33.8892 34.4937 36.7039C35.9372 31.3112 40.9953 28.1125 41.6646 25.2376C42.3797 22.1657 39.7291 19.2818 36.5375 18.9286Z" fill="#2563EB"/>
<path d="M35.4787 25.8895C36.5262 25.8895 37.3753 25.0564 37.3753 24.0287C37.3753 23.0011 36.5262 22.168 35.4787 22.168C34.4312 22.168 33.582 23.0011 33.582 24.0287C33.582 25.0564 34.4312 25.8895 35.4787 25.8895Z" fill="white"/>
<path d="M33.4845 39.3867C34.1705 39.3867 34.7267 38.8411 34.7267 38.168C34.7267 37.4949 34.1705 36.9492 33.4845 36.9492C32.7984 36.9492 32.2422 37.4949 32.2422 38.168C32.2422 38.8411 32.7984 39.3867 33.4845 39.3867Z" fill="#2563EB"/>
<path opacity="0.2" d="M37.0475 22.6963C37.261 22.8222 37.4471 22.9881 37.5953 23.1845C37.7434 23.3809 37.8507 23.604 37.9109 23.8411C37.9712 24.0782 37.9832 24.3246 37.9464 24.5663C37.9096 24.808 37.8246 25.0402 37.6963 25.2496C37.568 25.4591 37.399 25.6417 37.1987 25.787C36.9985 25.9323 36.7711 26.0376 36.5294 26.0967C36.2877 26.1558 36.0366 26.1676 35.7902 26.1315C35.5439 26.0954 35.3072 26.012 35.0938 25.8862C35.5334 25.9821 35.9934 25.9214 36.3916 25.715C36.7898 25.5085 37.1 25.1698 37.2669 24.7594C37.4338 24.3491 37.4463 23.8938 37.3024 23.4752C37.1584 23.0566 36.8672 22.7019 36.481 22.4746C36.6808 22.518 36.8721 22.5929 37.0475 22.6963Z" fill="black"/>
<path opacity="0.2" d="M41.6712 25.2446C41.0019 28.1195 35.9438 31.3181 34.5003 36.7109C34.212 36.4436 33.9443 36.1558 33.6992 35.8498C35.3212 30.7808 40.0645 27.7007 40.7112 24.923C41.2899 22.4369 39.6642 20.0742 37.3314 19.0762C40.1552 19.7726 42.3266 22.4294 41.6712 25.2446Z" fill="black"/>
<path d="M95.9169 86.3354H93.8345L92.8438 78.4551L95.9173 78.4552L95.9169 86.3354Z" fill="#343434"/>
<path d="M97.0375 90.2146H95.5598L95.296 88.8459L94.6205 90.2146H90.7014C90.5135 90.2146 90.3305 90.1557 90.1792 90.0465C90.0279 89.9373 89.9161 89.7834 89.8602 89.6075C89.8043 89.4315 89.8072 89.2427 89.8685 89.0684C89.9297 88.8942 90.0462 88.7437 90.2007 88.639L93.3305 86.5185V85.1348L96.6224 85.3275L97.0375 90.2146Z" fill="black"/>
<path d="M87.8505 86.3354H85.7681L84.7773 78.4551L87.8509 78.4552L87.8505 86.3354Z" fill="#343434"/>
<path d="M88.9711 90.2146H87.4934L87.2296 88.8459L86.5541 90.2146H82.6349C82.4471 90.2146 82.2641 90.1557 82.1128 90.0465C81.9615 89.9373 81.8497 89.7834 81.7938 89.6075C81.7379 89.4315 81.7408 89.2427 81.8021 89.0684C81.8633 88.8942 81.9798 88.7437 82.1343 88.639L85.2641 86.5185V85.1348L88.556 85.3275L88.9711 90.2146Z" fill="black"/>
<path d="M79.9405 65.5306C80.339 66.1171 84.6744 82.2386 84.6744 82.2386L88.5185 82.6687L88.0622 78.6124L87.3648 71.4342L86.2848 66.6429C86.2848 66.6429 90.0986 58.1276 90.3397 57.4493L90.5111 56.9626L91.7026 67.5715C91.8442 67.9502 91.9059 68.3532 91.8839 68.7561C91.8481 69.4188 92.5255 79.3884 92.5255 79.3884L92.8513 82.9638L96.1448 83.4127L97.4811 77.2264C98.5969 75.2168 97.9573 68.0758 97.501 67.4111C97.0447 66.7465 97.226 62.1174 97.226 62.1174C97.8087 61.9163 101.283 50.2924 99.5453 50.361C99.6569 49.7414 99.7446 49.1881 99.7446 49.1881L96.7278 46.8013L89.178 44.8758L87.2733 43.9785C87.2733 43.9785 83.8714 50.1499 83.9052 50.4568C83.9521 50.8456 83.8614 51.2383 83.6482 51.5691L80.2135 62.8466C80.2135 62.8466 79.538 64.9383 79.9405 65.5306Z" fill="black"/>
<path d="M98.9082 25.1756L97.7071 22.6738L93.6192 22.828L92.2858 25.4307C92.2858 25.4307 88.4751 29.896 88.3518 31.3479C88.1967 33.174 89.4859 42.1238 88.1967 41.5437C88.1967 41.5437 85.1573 45.0437 86.9558 45.0437C88.7542 45.0437 96.8896 50.054 97.4234 50.6174C97.9572 51.1809 100.34 51.5462 100.14 50.3699C99.9406 49.1936 98.9082 42.832 98.9082 42.832L101.703 32.829C102.507 30.6694 102.758 28.2469 100.939 26.7962L98.9082 25.1756Z" fill="#2563EB"/>
<path d="M83.7644 17.812C83.2176 17.5991 82.6334 17.4939 82.0452 17.5024C81.4569 17.511 80.8762 17.6331 80.3361 17.8619C79.796 18.0906 79.3071 18.4215 78.8973 18.8356C78.4875 19.2497 78.1649 19.739 77.9479 20.2754C77.035 22.5314 76.8838 27.9189 78.5824 30.6191C80.7666 26.897 85.1854 25.5226 86.2753 23.5184C87.4398 21.3768 86.0639 18.7075 83.7644 17.812Z" fill="#2563EB"/>
<path d="M81.9258 22.8256C82.7327 22.8256 83.3868 22.1839 83.3868 21.3923C83.3868 20.6007 82.7327 19.959 81.9258 19.959C81.119 19.959 80.4648 20.6007 80.4648 21.3923C80.4648 22.1839 81.119 22.8256 81.9258 22.8256Z" fill="white"/>
<path d="M77.5311 32.446C78.0596 32.446 78.4881 32.0256 78.4881 31.5072C78.4881 30.9887 78.0596 30.5684 77.5311 30.5684C77.0026 30.5684 76.5742 30.9887 76.5742 31.5072C76.5742 32.0256 77.0026 32.446 77.5311 32.446Z" fill="#2563EB"/>
<path opacity="0.2" d="M83.3673 20.7127C83.635 20.9872 83.7806 21.3548 83.7722 21.7346C83.7638 22.1144 83.602 22.4753 83.3225 22.7382C83.0429 23.0011 82.6684 23.1443 82.2813 23.1364C81.8941 23.1285 81.526 22.9702 81.2578 22.6962C81.5648 22.8547 81.9193 22.9009 82.2578 22.8264C82.5963 22.7519 82.8967 22.5617 83.1053 22.2897C83.3139 22.0178 83.417 21.6819 83.3963 21.3422C83.3755 21.0025 83.2322 20.6811 82.9919 20.4355C83.1315 20.5075 83.2583 20.6011 83.3673 20.7127Z" fill="black"/>
<path opacity="0.2" d="M86.2828 23.5238C85.1929 25.528 80.7741 26.9024 78.5899 30.6245C78.4307 30.3687 78.291 30.1016 78.1719 29.8256C80.422 26.3795 84.5824 25.0308 85.6354 23.0944C86.5779 21.3613 85.8563 19.2826 84.328 18.0781C86.2835 19.1558 87.35 21.5613 86.2828 23.5238Z" fill="black"/>
<path d="M77.1004 31.1837C77.3228 31.1387 77.5526 31.1422 77.7736 31.1937C77.9945 31.2453 78.2013 31.3438 78.3793 31.4822C78.5572 31.6207 78.7021 31.7957 78.8037 31.995C78.9052 32.1943 78.961 32.413 78.9671 32.6358L82.2816 33.884L81.9997 36.0451L77.3442 34.2179C76.9621 34.2031 76.5988 34.0513 76.3231 33.7913C76.0475 33.5312 75.8786 33.1811 75.8486 32.8071C75.8185 32.4331 75.9294 32.0612 76.1601 31.762C76.3908 31.4628 76.7253 31.2571 77.1004 31.1837Z" fill="#343434"/>
<path d="M100.258 26.7296C99.9091 26.5206 99.5215 26.3812 99.1175 26.3195C98.7135 26.2578 98.3011 26.2749 97.9038 26.3699C97.5066 26.4649 97.1324 26.6359 96.8026 26.8731C96.4729 27.1103 96.1941 27.409 95.9823 27.7521L91.2248 35.4597L80.4682 32.9583L79.4883 35.5977L93.2632 41.9991L100.24 31.0976C101.284 29.6576 101.796 27.6506 100.258 26.7296Z" fill="#2563EB"/>
<path d="M100.435 17.2844C100.436 18.0273 100.25 18.7589 99.8949 19.415C99.5397 20.071 99.0258 20.6315 98.3983 21.0473C97.7708 21.463 97.0488 21.7212 96.2958 21.7993C95.5428 21.8774 94.7817 21.7729 94.0795 21.4951C93.3772 21.2173 92.7552 20.7746 92.268 20.2059C91.7809 19.6371 91.4435 18.9598 91.2855 18.2333C91.1274 17.5068 91.1536 16.7533 91.3617 16.039C91.5697 15.3247 91.9534 14.6715 92.4789 14.1366L92.5011 14.1149C92.5381 14.0767 92.5751 14.0386 92.6139 14.0023C92.6142 14.0023 92.6144 14.0023 92.6147 14.0022C92.6149 14.0021 92.6151 14.0019 92.6153 14.0018C92.6154 14.0016 92.6156 14.0014 92.6157 14.0012C92.6157 14.001 92.6158 14.0007 92.6158 14.0005C92.6639 13.9569 92.712 13.9133 92.762 13.8716C93.4304 13.2967 94.2536 12.9229 95.133 12.7951C96.0123 12.6673 96.9106 12.7908 97.7203 13.1509C98.5299 13.511 99.2166 14.0924 99.6982 14.8255C100.18 15.5586 100.436 16.4123 100.435 17.2844Z" fill="black"/>
<path d="M94.672 22.1405C96.8143 22.1405 98.5511 20.4367 98.5511 18.3349C98.5511 16.2331 96.8143 14.5293 94.672 14.5293C92.5297 14.5293 90.793 16.2331 90.793 18.3349C90.793 20.4367 92.5297 22.1405 94.672 22.1405Z" fill="#343434"/>
<path d="M98.7904 19.4202L98.1476 19.3088C97.7885 19.2448 97.4579 19.0747 97.2 18.8213C96.942 18.5679 96.7691 18.2433 96.7043 17.8909L96.0772 18.922L96.0498 18.931C94.5556 19.4177 93.001 19.2721 91.2981 18.4865C90.8112 18.26 90.3389 18.0045 89.8837 17.7215L89.8501 17.7009L89.8474 17.6622C89.7606 16.4242 90.0437 15.39 90.6449 14.75C90.8757 14.5092 91.1558 14.319 91.4668 14.1918C91.7778 14.0646 92.1127 14.0033 92.4495 14.012C92.4735 14.0058 92.4955 13.9939 92.5136 13.9773C92.5222 13.971 92.5308 13.9649 92.5395 13.959V13.9526L92.584 13.932C92.6797 13.8879 92.7773 13.8456 92.8748 13.807C93.6424 13.5155 94.4782 13.4423 95.2862 13.596C96.0943 13.7496 96.8417 14.1238 97.4427 14.6756C98.6375 15.7947 99.1856 17.6728 98.8064 19.3491L98.7904 19.4202Z" fill="black"/>
<path d="M106.971 22.6623C105.651 21.9938 107.348 19.5679 107.007 18.1494C106.666 16.731 104.209 16.2748 104.053 14.8256C103.896 13.3763 103.528 11.8816 102.553 10.7819C101.931 10.0792 101.013 9.5604 100.068 9.64842C99.748 9.6782 99.4386 9.77523 99.1605 9.93291C98.8825 10.0906 98.6423 10.3052 98.4564 10.5622C98.2705 10.8191 98.1432 11.1123 98.0833 11.4219C98.0233 11.7314 98.0321 12.05 98.1089 12.3559C97.8399 11.9819 97.1436 12.063 96.9712 12.4884C96.818 12.8666 97.1565 13.3247 97.5549 13.3582C98.0761 13.9897 98.673 14.66 99.4896 14.7874C99.6197 14.8167 99.7549 14.8166 99.885 14.7871C100.015 14.7577 100.137 14.6996 100.24 14.6173C100.433 14.4363 100.448 14.0744 100.22 13.9392C101.246 14.3391 101.848 15.4277 102 16.5007C102.152 17.5737 101.941 18.6594 101.803 19.7341C101.664 20.8089 101.604 21.9395 102.034 22.9375C102.541 24.1167 103.709 24.9618 104.985 25.2329C106.26 25.5039 107.618 25.239 108.772 24.6422C109.926 24.0454 110.889 23.1342 111.675 22.1128C110.321 23.0563 108.447 23.4097 106.971 22.6623Z" fill="black"/>
<path d="M98.6239 19.3128C98.6239 19.3128 97.4748 15.1049 92.5491 14.1337C92.5436 14.1319 92.5251 14.1246 92.501 14.1138C92.4862 14.1047 92.4677 14.0956 92.4492 14.0865C92.5047 14.0556 92.5584 14.0284 92.6139 14.0012L92.6146 14.001L92.6152 14.0007L92.6156 14.0001L92.6157 13.9994C92.6639 13.9558 92.712 13.9122 92.7619 13.8705L92.9026 13.8759C92.9026 13.8759 97.8449 13.108 98.6239 19.3128Z" fill="#2563EB"/>
<path opacity="0.2" d="M96.0506 32.8164L93.2687 35.9785L88.6719 34.6468L93.6831 36.9124L96.0506 32.8164Z" fill="black"/>
<path d="M114.629 62.2943C112.626 62.2943 110.431 62.2201 108.043 62.0716C95.694 61.3022 79.698 58.6274 63.0019 54.54C46.3058 50.4527 30.9042 45.4408 19.6344 40.4281C14.1446 37.9861 9.93112 35.6746 7.11128 33.5577C4.1258 31.3166 2.81991 29.3631 3.22973 27.7517C4.02825 24.6125 11.0988 23.9257 16.8896 23.9023L16.8916 24.3589C8.93924 24.3909 4.24774 25.6351 3.68129 27.8623C2.95973 30.6989 8.8445 35.1273 19.8266 40.0122C31.0716 45.014 46.4449 50.0162 63.1146 54.0972C79.7842 58.178 95.7507 60.8482 108.073 61.6159C120.106 62.3658 127.422 61.1689 128.143 58.3323C128.743 55.9771 124.793 52.5077 117.023 48.5628L117.237 48.1574C122.883 51.0238 129.436 55.1349 128.595 58.4428C128.185 60.0542 126.097 61.1767 122.388 61.779C120.274 62.1223 117.677 62.2943 114.629 62.2943Z" fill="#2563EB"/>
</g>
<defs>
<clipPath id="clip0_2737_2410">
<rect width="128" height="90" fill="white" transform="translate(0.667969 0.5)"/>
</clipPath>
</defs>
</svg>
