<svg width="150" height="90" viewBox="0 0 150 90" fill="none" xmlns="http://www.w3.org/2000/svg">
<path d="M53.6472 34.7609H37.3321C37.1519 34.7607 36.9791 34.6899 36.8517 34.564C36.7242 34.4382 36.6526 34.2675 36.6523 34.0895V17.3062C36.6526 17.1282 36.7242 16.9575 36.8517 16.8317C36.9791 16.7058 37.1519 16.635 37.3321 16.6348H53.6472C53.8275 16.635 54.0002 16.7058 54.1277 16.8317C54.2551 16.9575 54.3268 17.1282 54.327 17.3062V34.0895C54.3268 34.2675 54.2551 34.4382 54.1277 34.564C54.0002 34.6899 53.8275 34.7607 53.6472 34.7609ZM37.3321 16.9033C37.224 16.9035 37.1203 16.9459 37.0439 17.0215C36.9674 17.097 36.9244 17.1994 36.9243 17.3062V34.0895C36.9244 34.1963 36.9674 34.2987 37.0439 34.3742C37.1203 34.4498 37.224 34.4922 37.3321 34.4924H53.6472C53.7554 34.4922 53.859 34.4498 53.9355 34.3742C54.012 34.2987 54.055 34.1963 54.0551 34.0895V17.3062C54.055 17.1994 54.012 17.097 53.9355 17.0215C53.859 16.9459 53.7554 16.9035 53.6472 16.9033H37.3321Z" fill="#2563EB"/>
<path d="M40.7623 20.0977C40.6399 20.0977 40.5225 20.1457 40.436 20.2312C40.3494 20.3167 40.3008 20.4326 40.3008 20.5535C40.3008 20.6744 40.3494 20.7904 40.436 20.8759C40.5225 20.9614 40.6399 21.0094 40.7623 21.0094H50.1246C50.247 21.0094 50.3643 20.9614 50.4509 20.8759C50.5374 20.7904 50.5861 20.6744 50.5861 20.5535C50.5861 20.4326 50.5374 20.3167 50.4509 20.2312C50.3643 20.1457 50.247 20.0977 50.1246 20.0977H40.7623Z" fill="#8D8D8D"/>
<path d="M40.7631 22.7793C40.7025 22.7792 40.6424 22.7909 40.5863 22.8138C40.5302 22.8366 40.4792 22.8702 40.4363 22.9125C40.3933 22.9549 40.3592 23.0052 40.336 23.0605C40.3127 23.1159 40.3008 23.1752 40.3008 23.2352C40.3008 23.2951 40.3127 23.3544 40.336 23.4098C40.3592 23.4652 40.3933 23.5155 40.4363 23.5578C40.4792 23.6001 40.5302 23.6337 40.5863 23.6566C40.6424 23.6794 40.7025 23.6911 40.7631 23.691H50.1254C50.2478 23.691 50.3652 23.643 50.4517 23.5575C50.5383 23.472 50.5869 23.3561 50.5869 23.2352C50.5869 23.1143 50.5383 22.9983 50.4517 22.9128C50.3652 22.8273 50.2478 22.7793 50.1254 22.7793H40.7631Z" fill="#8D8D8D"/>
<path d="M45.4129 31.2994C44.8383 31.2994 44.2766 31.1312 43.7989 30.8159C43.3212 30.5006 42.9488 30.0524 42.7289 29.5281C42.5091 29.0038 42.4515 28.4268 42.5636 27.8702C42.6757 27.3136 42.9524 26.8023 43.3587 26.401C43.765 25.9997 44.2826 25.7264 44.8461 25.6157C45.4096 25.505 45.9938 25.5618 46.5246 25.779C47.0554 25.9962 47.5091 26.3639 47.8283 26.8358C48.1475 27.3077 48.3179 27.8625 48.3179 28.43C48.317 29.1908 48.0107 29.9201 47.4661 30.4581C46.9215 30.996 46.1831 31.2986 45.4129 31.2994Z" fill="#2563EB"/>
<path d="M32.325 13.7463C35.2121 11.5377 38.5851 10.0315 42.171 9.34989C45.7854 8.66958 49.5126 8.85875 53.0374 9.9014C54.8092 10.4225 56.5116 11.1511 58.1083 12.0717C59.7351 13.0111 61.2051 14.1674 62.6195 15.3918C64.0522 16.6321 65.4379 17.9276 66.9336 19.0953C71.2038 22.4668 76.505 24.3088 81.9718 24.3206C82.4234 24.3213 82.8747 24.309 83.3257 24.2837C83.5702 24.2705 83.5717 23.893 83.3257 23.9064C77.7533 24.2095 72.2504 22.567 67.7804 19.2665C66.2302 18.1215 64.8147 16.8124 63.3696 15.5437C61.9686 14.3137 60.5301 13.1173 58.9407 12.1291C55.0528 9.70982 50.5298 8.47484 45.936 8.57827C41.3421 8.6817 36.8808 10.1189 33.1086 12.7107C32.7499 12.957 32.3996 13.2145 32.0549 13.4795C31.8611 13.6285 32.1332 13.8938 32.325 13.7463Z" fill="black"/>
<path d="M32.1377 15.5685C33.2342 15.5685 34.123 14.6905 34.123 13.6075C34.123 12.5245 33.2342 11.6465 32.1377 11.6465C31.0412 11.6465 30.1523 12.5245 30.1523 13.6075C30.1523 14.6905 31.0412 15.5685 32.1377 15.5685Z" fill="#2563EB"/>
<path d="M106.001 41.6076C107.097 41.6076 107.986 40.7296 107.986 39.6466C107.986 38.5635 107.097 37.6855 106.001 37.6855C104.904 37.6855 104.016 38.5635 104.016 39.6466C104.016 40.7296 104.904 41.6076 106.001 41.6076Z" fill="#2563EB"/>
<path d="M116.383 28.4743H83.9884C83.8082 28.4741 83.6354 28.4033 83.5079 28.2774C83.3805 28.1515 83.3088 27.9809 83.3086 27.8029V11.1539C83.3088 10.9759 83.3805 10.8052 83.5079 10.6793C83.6354 10.5534 83.8082 10.4826 83.9884 10.4824H116.383C116.563 10.4826 116.736 10.5534 116.864 10.6793C116.991 10.8052 117.063 10.9759 117.063 11.1539V27.8028C117.063 27.9809 116.991 28.1515 116.864 28.2774C116.736 28.4033 116.563 28.4741 116.383 28.4743ZM83.9884 10.751C83.8802 10.7511 83.7766 10.7936 83.7001 10.8691C83.6236 10.9447 83.5806 11.0471 83.5805 11.1539V27.8028C83.5806 27.9097 83.6236 28.0121 83.7001 28.0876C83.7766 28.1631 83.8802 28.2056 83.9884 28.2057H116.383C116.491 28.2056 116.595 28.1631 116.672 28.0876C116.748 28.0121 116.791 27.9097 116.791 27.8028V11.1539C116.791 11.0471 116.748 10.9447 116.672 10.8691C116.595 10.7936 116.491 10.7511 116.383 10.751H83.9884Z" fill="#2563EB"/>
<path d="M89.4683 19.1168C90.9977 19.1168 92.2375 17.8923 92.2375 16.3817C92.2375 14.8711 90.9977 13.6465 89.4683 13.6465C87.939 13.6465 86.6992 14.8711 86.6992 16.3817C86.6992 17.8923 87.939 19.1168 89.4683 19.1168Z" fill="#2563EB"/>
<path d="M95.8764 14.5605C95.8157 14.5604 95.7556 14.5721 95.6996 14.595C95.6435 14.6179 95.5925 14.6514 95.5495 14.6938C95.5066 14.7361 95.4725 14.7864 95.4493 14.8418C95.426 14.8971 95.4141 14.9565 95.4141 15.0164C95.4141 15.0763 95.426 15.1357 95.4493 15.1911C95.4725 15.2464 95.5066 15.2967 95.5495 15.339C95.5925 15.3814 95.6435 15.415 95.6996 15.4378C95.7556 15.4607 95.8157 15.4724 95.8764 15.4723H113.32C113.442 15.4723 113.56 15.4242 113.646 15.3388C113.733 15.2533 113.781 15.1373 113.781 15.0164C113.781 14.8955 113.733 14.7796 113.646 14.6941C113.56 14.6086 113.442 14.5605 113.32 14.5605H95.8764Z" fill="#8D8D8D"/>
<path d="M95.8764 17.291C95.8157 17.2909 95.7556 17.3026 95.6996 17.3255C95.6435 17.3483 95.5925 17.3819 95.5495 17.4242C95.5066 17.4666 95.4725 17.5169 95.4493 17.5722C95.426 17.6276 95.4141 17.6869 95.4141 17.7469C95.4141 17.8068 95.426 17.8662 95.4493 17.9215C95.4725 17.9769 95.5066 18.0272 95.5495 18.0695C95.5925 18.1119 95.6435 18.1454 95.6996 18.1683C95.7556 18.1911 95.8157 18.2029 95.8764 18.2027H105.239C105.361 18.2027 105.478 18.1547 105.565 18.0692C105.652 17.9837 105.7 17.8678 105.7 17.7469C105.7 17.626 105.652 17.51 105.565 17.4245C105.478 17.339 105.361 17.291 105.239 17.291H95.8764Z" fill="#8D8D8D"/>
<path d="M87.336 21.666C86.9849 21.666 86.6992 21.8705 86.6992 22.1219C86.6992 22.3732 86.9849 22.5777 87.336 22.5777H113.04C113.391 22.5777 113.677 22.3732 113.677 22.1219C113.677 21.8705 113.391 21.666 113.04 21.666H87.336Z" fill="#8D8D8D"/>
<path d="M87.336 24.4004C86.9849 24.4004 86.6992 24.6049 86.6992 24.8563C86.6992 25.1076 86.9849 25.3121 87.336 25.3121H113.04C113.391 25.3121 113.677 25.1076 113.677 24.8563C113.677 24.6049 113.391 24.4004 113.04 24.4004H87.336Z" fill="#8D8D8D"/>
<path d="M81.4022 41.4732C83.2298 40.6901 85.2702 41.3728 86.9928 42.0946C87.88 42.4663 88.7577 42.8631 89.6758 43.1566C90.4482 43.4029 91.2392 43.588 92.0413 43.7103C93.651 43.9538 95.2881 43.9637 96.9007 43.7397C98.5215 43.5164 100.101 43.0628 101.59 42.3928C103.071 41.7298 104.44 40.8458 105.649 39.7718C105.803 39.6346 105.953 39.4942 106.101 39.3507C106.277 39.1805 106.007 38.9137 105.831 39.0839C104.667 40.2047 103.331 41.1364 101.872 41.8446C100.419 42.5504 98.869 43.0421 97.2717 43.3043C95.6692 43.5712 94.0352 43.599 92.4243 43.387C91.6207 43.2796 90.8271 43.1092 90.0509 42.8773C89.1594 42.5909 88.2848 42.2554 87.4313 41.8724C85.6926 41.1349 83.7608 40.4126 81.8503 40.9213C81.6314 40.9811 81.4171 41.0567 81.2094 41.1474C80.9844 41.2437 81.1787 41.5689 81.4022 41.4732Z" fill="black"/>
<path d="M80.6839 46.101H65.3789L68.9807 39.9389C69.0452 39.8285 69.1381 39.7368 69.2499 39.673C69.3617 39.6092 69.4885 39.5757 69.6176 39.5757C69.7468 39.5757 69.8736 39.6092 69.9854 39.673C70.0972 39.7368 70.1901 39.8285 70.2546 39.9389L71.7933 42.5713L74.4095 38.0954C74.4903 37.9572 74.6065 37.8423 74.7465 37.7625C74.8865 37.6827 75.0453 37.6406 75.207 37.6406C75.3686 37.6406 75.5274 37.6827 75.6674 37.7625C75.8074 37.8423 75.9236 37.9572 76.0045 38.0954L80.6839 46.101Z" fill="#2563EB"/>
<path d="M80.7566 46.0989H64.4415C64.2613 46.0987 64.0885 46.0279 63.9611 45.9021C63.8336 45.7762 63.7619 45.6055 63.7617 45.4275V36.4332C63.7619 36.2552 63.8336 36.0845 63.9611 35.9586C64.0885 35.8327 64.2613 35.7619 64.4415 35.7617H80.7566C80.9368 35.7619 81.1096 35.8327 81.237 35.9586C81.3645 36.0845 81.4362 36.2552 81.4364 36.4332V45.4275C81.4362 45.6055 81.3645 45.7762 81.237 45.9021C81.1096 46.0279 80.9368 46.0987 80.7566 46.0989ZM64.4415 36.0303C64.3334 36.0304 64.2297 36.0729 64.1532 36.1484C64.0768 36.224 64.0337 36.3264 64.0336 36.4332V45.4275C64.0337 45.5343 64.0768 45.6367 64.1532 45.7122C64.2297 45.7878 64.3334 45.8302 64.4415 45.8304H80.7566C80.8647 45.8302 80.9684 45.7878 81.0449 45.7122C81.1213 45.6367 81.1643 45.5343 81.1645 45.4275V36.4332C81.1643 36.3264 81.1213 36.224 81.0449 36.1484C80.9684 36.0729 80.8647 36.0304 80.7566 36.0303H64.4415Z" fill="#2563EB"/>
<path d="M112.779 38.1854L109.871 39.644C108.833 40.1646 107.831 40.0757 107.447 38.99C107.356 38.7317 107.322 38.4569 107.348 38.1845C107.375 37.9121 107.46 37.6485 107.599 37.4118C107.738 37.175 107.927 36.9707 108.153 36.8128C108.379 36.6549 108.638 36.5472 108.91 36.497L111.674 35.9873L123.511 32.1081L130.682 27.0859L133.31 31.2224L125.025 35.6385L112.779 38.1854Z" fill="white"/>
<path d="M126.284 86.5996L124.059 86.2333L124.306 82.082H126.655L126.284 86.5996Z" fill="#343434"/>
<path d="M147.885 82.5434L145.732 83.2069L144.059 79.3912L146.155 78.3457L147.885 82.5434Z" fill="#343434"/>
<path d="M146.675 78.9066L143.956 80.0055L130.977 63.1563L126.898 82.9358L124.178 82.4474C122.434 65.3949 121.011 48.0014 122.757 39.775L132.831 39.3477L137.405 53.7549L139.629 63.5226L146.675 78.9066Z" fill="black"/>
<path d="M126.164 89.9562C125.757 90.0423 125.333 89.9978 124.953 89.8292L123.632 89.2417C122.523 89.1855 121.769 89.4035 121.152 88.6081C120.977 88.3808 120.868 88.1116 120.835 87.8284C120.802 87.5452 120.846 87.2584 120.963 86.9978C121.079 86.7363 121.263 86.5099 121.497 86.3419C121.73 86.174 122.005 86.0705 122.293 86.042L124.108 84.9121L124.203 85.7592C125.033 86.2235 126.018 86.0229 127.062 85.571L127.632 87.5408C127.705 87.7948 127.725 88.061 127.69 88.3229C127.655 88.5848 127.566 88.8368 127.428 89.0632C127.291 89.2897 127.107 89.4858 126.89 89.6395C126.672 89.7931 126.425 89.9009 126.164 89.9562Z" fill="black"/>
<path d="M148.8 85.9163C148.443 86.1282 148.028 86.2221 147.613 86.1843L146.17 86.0526C145.104 86.3549 144.461 86.8032 143.616 86.2488C143.377 86.0896 143.185 85.87 143.061 85.6129C142.936 85.3557 142.884 85.0703 142.908 84.7863C142.932 84.5018 143.032 84.2286 143.198 83.9947C143.363 83.7609 143.589 83.5749 143.852 83.4558L145.197 81.8048L145.566 82.5754C146.503 82.7484 147.369 82.2428 148.208 81.4805L149.394 83.1608C149.547 83.3775 149.654 83.6229 149.707 83.8818C149.76 84.1407 149.758 84.4076 149.703 84.666C149.647 84.9243 149.538 85.1686 149.383 85.3837C149.227 85.5988 149.029 85.78 148.8 85.9163Z" fill="black"/>
<path d="M129.137 22.0096C131.595 22.0096 133.587 20.0417 133.587 17.6142C133.587 15.1867 131.595 13.2188 129.137 13.2188C126.68 13.2188 124.688 15.1867 124.688 17.6142C124.688 20.0417 126.68 22.0096 129.137 22.0096Z" fill="#343434"/>
<path d="M134.618 26.8959L128.808 25.675L128.066 20.9133L132.145 20.0586L134.618 26.8959Z" fill="#343434"/>
<path d="M132.961 39.958H122.578L124.919 34.154C124.748 32.1569 125.605 30.6881 126.832 29.4093L128.388 25.5507C130.902 23.9163 132.797 24.0384 134.816 26.1612C137.209 29.5078 135.552 34.5386 132.961 39.958Z" fill="#2563EB"/>
<path d="M128.295 52.2905L128 55.4988C127.894 56.644 127.286 57.4347 126.151 57.1785C125.881 57.1175 125.627 56.9997 125.407 56.8329C125.188 56.6662 125.007 56.4546 124.878 56.2125C124.749 55.9704 124.674 55.7037 124.659 55.4304C124.644 55.1572 124.689 54.884 124.791 54.6295L125.823 52.0463L128.79 40.0809L128.295 31.4121H133.24L132.621 40.6914L128.295 52.2905Z" fill="#343434"/>
<path d="M133.573 31.6584H127.887L128.285 27.9946C128.312 27.3609 128.577 26.7598 129.029 26.3093C129.48 25.8588 130.087 25.5915 130.728 25.5598C131.068 25.543 131.407 25.593 131.728 25.7068C132.048 25.8206 132.342 25.9959 132.593 26.2228C132.844 26.4496 133.047 26.7233 133.19 27.0281C133.334 27.333 133.414 27.6628 133.427 27.9987L133.573 31.6584Z" fill="#2563EB"/>
<path d="M134.688 13.0972C135.612 13.0972 136.361 12.3575 136.361 11.4451C136.361 10.5327 135.612 9.79297 134.688 9.79297C133.764 9.79297 133.016 10.5327 133.016 11.4451C133.016 12.3575 133.764 13.0972 134.688 13.0972Z" fill="black"/>
<path d="M132.953 11.0417C132.981 10.6226 133.169 10.2295 133.48 9.94262C133.79 9.65573 134.2 9.49658 134.625 9.4976C134.591 9.49327 134.556 9.48801 134.521 9.48577C134.079 9.45792 133.643 9.6048 133.31 9.8941C132.977 10.1834 132.774 10.5914 132.746 11.0285C132.717 11.4657 132.866 11.896 133.158 12.2251C133.451 12.5541 133.864 12.7549 134.307 12.7832C134.342 12.7855 134.376 12.7846 134.411 12.7846C133.989 12.7319 133.604 12.5222 133.333 12.1984C133.062 11.8746 132.926 11.4609 132.953 11.0417Z" fill="black"/>
<path d="M132.907 11.7452C131.416 10.5229 127.137 12.0764 126.861 12.8982C124.844 13.1697 123.316 14.3322 123.316 16.3992C124.516 16.8845 125.88 16.8247 127.354 16.3992C129.705 18.2912 129.866 20.6696 128.436 23.4013L130.195 23.4361L132.375 20.2893L132.479 23.4812L136.51 23.4013V18.8271C136.523 17.3062 136.168 15.8042 135.476 14.4457C134.848 13.2403 133.873 12.5365 132.907 11.7452Z" fill="black"/>
<path d="M129.214 19.8254C129.656 19.8254 130.014 19.3302 130.014 18.7194C130.014 18.1085 129.656 17.6133 129.214 17.6133C128.772 17.6133 128.414 18.1085 128.414 18.7194C128.414 19.3302 128.772 19.8254 129.214 19.8254Z" fill="#CBD5E1"/>
<path d="M28.5664 20.126C28.5664 20.126 29.0479 11.8943 31.5475 13.7648C34.0471 15.6352 30.4559 20.8894 30.4559 20.8894L28.5664 20.126Z" fill="#343434"/>
<path d="M19.2458 44.541C19.2458 44.541 24.7983 50.698 21.6918 51.1212C18.5853 51.5444 17.3633 45.3209 17.3633 45.3209L19.2458 44.541Z" fill="white"/>
<path d="M12.0334 15.4017C12.7302 15.5829 13.3574 15.9634 13.8361 16.4954C14.3148 17.0275 14.6237 17.6873 14.7239 18.3922L16.4901 30.8091L18.966 40.7139C18.966 40.7139 20.204 41.8144 19.7088 42.4258C19.2136 43.0372 20.3278 45.6051 20.3278 45.6051L17.2329 46.5833C17.2329 46.5833 16.8615 44.0154 16.2425 43.8932C15.6985 43.7857 9.60896 27.7176 8.14113 23.8251C7.93874 23.2884 7.82422 22.9831 7.82422 22.9831C7.82422 22.9831 8.07182 14.7903 12.0334 15.4017Z" fill="#2563EB"/>
<path d="M12.5197 80.1484L14.4207 83.476C15.8928 86.5805 14.5846 87.1444 10.9751 85.6055L10.1523 81.6764L12.5197 80.1484Z" fill="#343434"/>
<path d="M13.5468 84.5717C13.5468 84.5717 14.4493 83.1204 14.7757 83.3634C15.1021 83.6063 16.4483 84.6589 16.4483 84.6589L18.2019 86.3179C18.2019 86.3179 24.1265 86.9366 20.3619 88.987C16.5973 91.0374 14.5168 89.3373 14.5168 89.3373C14.5168 89.3373 9.24409 89.6081 9.32914 88.1551C9.4142 86.702 11.1147 84.4032 11.1147 84.4032C11.1147 84.4032 13.2579 85.8224 13.5468 84.5717Z" fill="black"/>
<path d="M4.10156 42.5372L5.88376 63.8374C5.88376 63.8374 5.94317 76.5706 7.84417 79.0351C9.74517 81.4995 9.80457 82.7318 9.80457 82.7318L13.7254 80.7367C13.7254 80.7367 11.7056 77.4124 12.1214 76.9035C12.3778 76.5807 12.5602 76.2069 12.6561 75.8078L11.5868 62.6638L13.6066 39.7793L4.10156 42.5372Z" fill="black"/>
<path d="M8.9474 80.1492L7.28403 84.4913L3.51172 82.9335L5.50187 79.6797L8.9474 80.1492Z" fill="#343434"/>
<path d="M6.21171 83.0305C6.21171 83.0305 7.62652 82.1571 7.80337 82.5064C7.98022 82.8558 8.68763 84.3406 8.68763 84.3406L9.48346 86.5242C9.48346 86.5242 14.3469 89.5811 10.1909 89.7558C6.03485 89.9305 4.97375 87.5723 4.97375 87.5723C4.97375 87.5723 0.287188 85.5634 0.994598 84.3406C1.70201 83.1178 4.17792 81.8496 4.17792 81.8496C4.17792 81.8496 5.41588 83.9912 6.21171 83.0305Z" fill="black"/>
<path d="M19.1908 42.5965L20.1413 62.1951C20.1413 62.1951 11.468 79.9159 10.5175 80.3854C10.2342 80.5298 9.98316 80.7289 9.7791 80.9707C9.57503 81.2126 9.4221 81.4924 9.32932 81.7936L4.10156 80.5027L6.47782 76.7473L11.7056 64.1902C11.7056 64.1902 12.5373 63.8381 12.7749 62.6645C13.0125 61.491 13.4878 61.491 12.2996 61.2562C11.1115 61.0215 11.1115 59.848 11.1115 59.848L7.19069 42.0098L19.1908 42.5965Z" fill="black"/>
<path d="M19.5928 7.90929C20.0132 5.3502 18.2537 2.93899 15.6629 2.52371C13.072 2.10842 10.6309 3.84632 10.2105 6.40542C9.79005 8.96451 11.5495 11.3757 14.1404 11.791C16.7312 12.2063 19.1723 10.4684 19.5928 7.90929Z" fill="#343434"/>
<path d="M10.6735 7.44727C10.6735 7.44727 10.317 13.4325 9.84179 14.0192C9.36654 14.606 14.8319 14.4887 14.8319 14.4887C14.8319 14.4887 14.4755 9.44233 14.8319 8.9729C15.1884 8.50348 10.6735 7.44727 10.6735 7.44727Z" fill="#343434"/>
<path d="M19.5726 43.8886C19.5726 43.8886 6.14678 42.7152 3.65234 43.8886C3.65234 43.8886 4.57062 40.5238 4.33334 40.1722C4.16078 39.915 4.63687 30.3305 4.48742 24.8016C4.40268 21.6818 3.67391 18.6351 5.79241 16.3189C6.51347 15.5321 7.31773 14.8716 8.16667 14.549C8.16667 14.549 7.9294 12.3195 9.1173 12.2023C9.1173 12.2023 13.6332 11.732 15.2956 13.1413C15.8272 13.5887 16.1615 14.9523 16.1969 16.1271C15.3742 20.1235 15.6654 24.5581 16.4203 29.1587C16.4666 29.4509 16.5174 29.7446 16.5682 30.0383C17.3694 34.6008 18.5804 39.3048 19.5726 43.8886Z" fill="#2563EB"/>
<path d="M12.4523 8.53794C12.8542 8.51425 13.2467 8.64842 13.6458 8.70076C15.0738 8.88802 16.5593 7.86451 16.8746 6.47615C16.8999 6.29127 16.9557 6.11173 17.0398 5.94467C17.2596 5.59025 17.7601 5.52268 18.1727 5.60418C18.5853 5.68567 18.9764 5.87642 19.3966 5.8982C20.0454 5.93182 20.6683 5.53729 21.014 4.994C21.3408 4.43351 21.4797 3.78532 21.411 3.14212L21.1 3.46456C20.9736 3.20046 20.9248 2.90662 20.9592 2.61648C20.7943 2.57312 20.621 2.57229 20.4558 2.61405C20.2905 2.65582 20.1389 2.73878 20.0154 2.855C19.7412 2.88383 19.9482 2.35255 19.7444 2.16894C19.6453 2.1088 19.5272 2.08698 19.4128 2.10766C18.8294 2.11322 18.3574 1.67243 17.8976 1.3176C17.101 0.704158 16.1695 0.284451 15.1783 0.0923978C14.5195 -0.0345238 13.8189 -0.054917 13.1941 0.187397C12.6897 0.411035 12.2345 0.729974 11.8542 1.12625C10.876 2.05531 10.0098 3.14692 9.60285 4.42563C9.27202 5.473 9.26265 6.59369 9.57592 7.64631C9.73989 8.19297 10.2341 10.0651 10.9575 10.1087C11.8666 10.1635 11.3208 8.60462 12.4523 8.53794Z" fill="black"/>
<path d="M14.4268 15.9727L16.1295 16.1528C16.1295 16.1528 17.8009 19.3558 17.6795 20.0238C17.5581 20.6919 17.2938 20.2863 18.0461 21.3552C18.7983 22.4241 20.933 25.1869 21.1973 25.5925C21.4617 25.9981 28.6681 20.5671 28.2201 18.9399C28.2201 18.9399 30.4961 20.5527 31.4712 20.7674C31.4712 20.7674 24.0444 30.3882 23.0094 31.6194C21.9745 32.8506 21.1415 32.5978 19.7192 31.8677C18.2969 31.1377 11.1016 23.8562 11.1016 23.8562L14.4268 15.9727Z" fill="#2563EB"/>
<path opacity="0.1" d="M16.5898 30.0349L10.6719 24.1895L12.1695 23.707L16.4419 29.1552C16.4881 29.4474 16.539 29.7411 16.5898 30.0349Z" fill="black"/>
</svg>
