<svg width="182" height="90" viewBox="0 0 182 90" fill="none" xmlns="http://www.w3.org/2000/svg">
<path d="M90.8535 85.9065C115.155 85.9065 134.855 66.747 134.855 43.1125C134.855 19.4779 115.155 0.318359 90.8535 0.318359C66.5519 0.318359 46.8516 19.4779 46.8516 43.1125C46.8516 66.747 66.5519 85.9065 90.8535 85.9065Z" fill="white"/>
<path d="M46.5117 43.1124C46.5117 19.3402 66.3977 0 90.8409 0C115.284 0 135.17 19.3402 135.17 43.1124C135.17 66.8846 115.284 86.2247 90.8409 86.2247C66.3977 86.2247 46.5117 66.8846 46.5117 43.1124ZM47.1663 43.1124C47.1663 66.5335 66.7587 85.5882 90.841 85.5882C114.923 85.5882 134.516 66.5335 134.516 43.1124C134.516 19.6912 114.923 0.636598 90.8409 0.636598C66.7587 0.636598 47.1663 19.6912 47.1663 43.1124Z" fill="black"/>
<path d="M83.0078 43.3004C83.0078 41.7916 83.4678 40.3167 84.3297 39.0622C85.1916 37.8077 86.4167 36.83 87.8499 36.2526C89.2832 35.6752 90.8603 35.5241 92.3819 35.8185C93.9035 36.1128 95.3011 36.8394 96.3981 37.9062C97.495 38.9731 98.2421 40.3324 98.5448 41.8121C98.8474 43.2919 98.6921 44.8258 98.0984 46.2197C97.5047 47.6136 96.4993 48.805 95.2094 49.6433C93.9195 50.4815 92.403 50.9289 90.8516 50.9289C88.7713 50.9289 86.7762 50.1252 85.3052 48.6946C83.8342 47.2639 83.0078 45.3236 83.0078 43.3004ZM90.8516 36.044C88.8735 36.0462 86.977 36.8114 85.5782 38.1718C84.1794 39.5321 83.3927 41.3766 83.3904 43.3004C83.3904 44.7356 83.828 46.1385 84.6479 47.3319C85.4677 48.5252 86.633 49.4552 87.9964 50.0044C89.3597 50.5537 90.8599 50.6974 92.3072 50.4174C93.7546 50.1374 95.084 49.4463 96.1275 48.4315C97.171 47.4166 97.8816 46.1237 98.1695 44.7161C98.4574 43.3085 98.3096 41.8494 97.7449 40.5235C97.1802 39.1976 96.2238 38.0643 94.9969 37.2669C93.7699 36.4696 92.3273 36.044 90.8516 36.044Z" fill="black"/>
<path d="M75.9414 43.2979C75.9414 40.4276 76.8166 37.6217 78.4563 35.2351C80.096 32.8485 82.4265 30.9883 85.1533 29.8899C87.88 28.7914 90.8804 28.504 93.775 29.064C96.6697 29.624 99.3286 31.0062 101.416 33.0359C103.502 35.0655 104.924 37.6514 105.499 40.4666C106.075 43.2818 105.78 46.1999 104.65 48.8517C103.521 51.5036 101.608 53.7702 99.1542 55.3649C96.7003 56.9596 93.8152 57.8107 90.8638 57.8107C88.9042 57.8107 86.9637 57.4353 85.1532 56.706C83.3428 55.9767 81.6977 54.9077 80.3121 53.56C78.9264 52.2124 77.8272 50.6125 77.0773 48.8517C76.3274 47.091 75.9414 45.2038 75.9414 43.2979ZM90.8638 29.1573C87.9881 29.1573 85.177 29.9866 82.7859 31.5404C80.3949 33.0942 78.5313 35.3027 77.4308 37.8865C76.3303 40.4704 76.0424 43.3136 76.6034 46.0566C77.1644 48.7997 78.5492 51.3193 80.5826 53.2969C82.6161 55.2745 85.2068 56.6213 88.0272 57.1669C90.8477 57.7125 93.7711 57.4325 96.4279 56.3622C99.0847 55.2919 101.356 53.4795 102.953 51.1541C104.551 48.8287 105.404 46.0947 105.404 43.2979C105.399 39.5489 103.866 35.9546 101.14 33.3036C98.4144 30.6527 94.7187 29.1615 90.8638 29.1573Z" fill="#8D8D8D"/>
<path d="M61.8242 43.3009C61.8242 37.7073 63.5297 32.2394 66.725 27.5886C69.9203 22.9378 74.4619 19.3129 79.7755 17.1723C85.0891 15.0318 90.9361 14.4717 96.5769 15.563C102.218 16.6542 107.399 19.3477 111.466 23.303C115.533 27.2582 118.303 32.2974 119.425 37.7835C120.547 43.2695 119.971 48.9559 117.77 54.1236C115.569 59.2914 111.842 63.7083 107.06 66.8159C102.277 69.9235 96.6552 71.5822 90.9038 71.5822C83.1941 71.5737 75.8026 68.5914 70.351 63.2894C64.8995 57.9875 61.8329 50.7989 61.8242 43.3009ZM90.9038 15.3917C85.2281 15.3917 79.6798 17.0285 74.9606 20.0952C70.2414 23.1619 66.5633 27.5207 64.3913 32.6205C62.2193 37.7202 61.651 43.3318 62.7583 48.7457C63.8655 54.1595 66.5987 59.1325 70.612 63.0356C74.6253 66.9388 79.7386 69.5969 85.3053 70.6738C90.872 71.7507 96.642 71.198 101.886 69.0856C107.129 66.9732 111.611 63.396 114.764 58.8064C117.918 54.2167 119.601 48.8208 119.601 43.3009C119.592 35.9015 116.566 28.8075 111.186 23.5753C105.806 18.3432 98.5121 15.4 90.9038 15.3917Z" fill="#8D8D8D"/>
<path d="M90.8459 46.6485C92.8534 46.6485 94.4808 45.0657 94.4808 43.1133C94.4808 41.1609 92.8534 39.5781 90.8459 39.5781C88.8384 39.5781 87.2109 41.1609 87.2109 43.1133C87.2109 45.0657 88.8384 46.6485 90.8459 46.6485Z" fill="#2563EB"/>
<path d="M81.4513 56.8789C83.4589 56.8789 85.0863 55.2962 85.0863 53.3438C85.0863 51.3913 83.4589 49.8086 81.4513 49.8086C79.4438 49.8086 77.8164 51.3913 77.8164 53.3438C77.8164 55.2962 79.4438 56.8789 81.4513 56.8789Z" fill="#2563EB"/>
<path d="M118.018 55.3926C120.025 55.3926 121.653 53.8098 121.653 51.8574C121.653 49.905 120.025 48.3223 118.018 48.3223C116.01 48.3223 114.383 49.905 114.383 51.8574C114.383 53.8098 116.01 55.3926 118.018 55.3926Z" fill="#2563EB"/>
<path d="M90.9093 44.7886C91.8602 44.7886 92.6311 44.0388 92.6311 43.114C92.6311 42.1892 91.8602 41.4395 90.9093 41.4395C89.9584 41.4395 89.1875 42.1892 89.1875 43.114C89.1875 44.0388 89.9584 44.7886 90.9093 44.7886Z" fill="black"/>
<path d="M118.077 53.5327C119.028 53.5327 119.799 52.783 119.799 51.8581C119.799 50.9333 119.028 50.1836 118.077 50.1836C117.126 50.1836 116.355 50.9333 116.355 51.8581C116.355 52.783 117.126 53.5327 118.077 53.5327Z" fill="black"/>
<path d="M81.5148 55.2046C82.4657 55.2046 83.2366 54.4548 83.2366 53.53C83.2366 52.6052 82.4657 51.8555 81.5148 51.8555C80.5638 51.8555 79.793 52.6052 79.793 53.53C79.793 54.4548 80.5638 55.2046 81.5148 55.2046Z" fill="black"/>
<path d="M10.5148 25.9917C11.4657 25.9917 12.2366 25.242 12.2366 24.3171C12.2366 23.3923 11.4657 22.6426 10.5148 22.6426C9.56385 22.6426 8.79297 23.3923 8.79297 24.3171C8.79297 25.242 9.56385 25.9917 10.5148 25.9917Z" fill="#2563EB"/>
<path d="M90.7679 24.4112H15.1992V24.0391H91.1508V43.2031H90.7679V24.4112Z" fill="black"/>
<path d="M5.57422 24.32C5.57422 23.3632 5.86595 22.4279 6.41251 21.6324C6.95907 20.8369 7.73593 20.2168 8.64483 19.8507C9.55374 19.4845 10.5539 19.3887 11.5188 19.5754C12.4836 19.762 13.37 20.2228 14.0656 20.8993C14.7612 21.5759 15.235 22.4378 15.4269 23.3762C15.6188 24.3147 15.5203 25.2873 15.1439 26.1713C14.7674 27.0552 14.1298 27.8108 13.3118 28.3423C12.4939 28.8739 11.5322 29.1576 10.5484 29.1576C9.89515 29.1576 9.24833 29.0325 8.64484 28.7894C8.04135 28.5463 7.493 28.1899 7.03111 27.7407C6.56922 27.2915 6.20282 26.7582 5.95285 26.1713C5.70288 25.5844 5.57422 24.9553 5.57422 24.32ZM10.5484 19.8546C9.64025 19.8546 8.75253 20.1165 7.99746 20.6071C7.24238 21.0978 6.65388 21.7952 6.30636 22.6112C5.95883 23.4271 5.8679 24.325 6.04507 25.1912C6.22223 26.0574 6.65953 26.8531 7.30167 27.4776C7.9438 28.1021 8.76193 28.5274 9.65259 28.6997C10.5433 28.872 11.4665 28.7836 12.3054 28.4456C13.1444 28.1076 13.8615 27.5353 14.3661 26.8009C14.8706 26.0666 15.1399 25.2032 15.1399 24.32C15.1385 23.1361 14.6543 22.0011 13.7935 21.164C12.9327 20.3268 11.7657 19.8559 10.5484 19.8546Z" fill="black"/>
<path d="M22.0187 74.187C22.9696 74.187 23.7405 73.4373 23.7405 72.5124C23.7405 71.5876 22.9696 70.8379 22.0187 70.8379C21.0678 70.8379 20.2969 71.5876 20.2969 72.5124C20.2969 73.4373 21.0678 74.187 22.0187 74.187Z" fill="#2563EB"/>
<path d="M16.9922 72.5114C16.9922 71.5546 17.2839 70.6193 17.8305 69.8238C18.377 69.0283 19.1539 68.4082 20.0628 68.0421C20.9717 67.6759 21.9718 67.5801 22.9367 67.7668C23.9016 67.9534 24.7879 68.4142 25.4836 69.0907C26.1792 69.7673 26.6529 70.6293 26.8449 71.5677C27.0368 72.5061 26.9383 73.4787 26.5618 74.3627C26.1853 75.2466 25.5478 76.0022 24.7298 76.5337C23.9118 77.0653 22.9501 77.349 21.9663 77.349C20.6471 77.349 19.3819 76.8393 18.4491 75.9321C17.5162 75.0249 16.9922 73.7944 16.9922 72.5114ZM21.9663 68.0459C21.0582 68.0459 20.1705 68.3078 19.4154 68.7985C18.6603 69.2892 18.0718 69.9866 17.7243 70.8026C17.3768 71.6185 17.2859 72.5164 17.463 73.3826C17.6402 74.2488 18.0775 75.0445 18.7196 75.669C19.3618 76.2935 20.1799 76.7188 21.0705 76.8911C21.9612 77.0634 22.8844 76.975 23.7234 76.637C24.5624 76.299 25.2795 75.7266 25.784 74.9923C26.2885 74.258 26.5578 73.3946 26.5578 72.5114C26.5564 71.3275 26.0722 70.1925 25.2115 69.3554C24.3507 68.5182 23.1836 68.0473 21.9663 68.0459Z" fill="black"/>
<path d="M171.476 33.81C172.427 33.81 173.198 33.0603 173.198 32.1355C173.198 31.2107 172.427 30.4609 171.476 30.4609C170.525 30.4609 169.754 31.2107 169.754 32.1355C169.754 33.0603 170.525 33.81 171.476 33.81Z" fill="#2563EB"/>
<path d="M166.52 32.1345C166.52 31.1777 166.811 30.2424 167.358 29.4468C167.904 28.6513 168.681 28.0313 169.59 27.6651C170.499 27.299 171.499 27.2032 172.464 27.3898C173.429 27.5765 174.315 28.0372 175.011 28.7138C175.707 29.3903 176.18 30.2523 176.372 31.1907C176.564 32.1291 176.466 33.1018 176.089 33.9857C175.713 34.8697 175.075 35.6252 174.257 36.1568C173.439 36.6883 172.477 36.9721 171.494 36.9721C170.84 36.9721 170.194 36.8469 169.59 36.6038C168.987 36.3607 168.438 36.0044 167.976 35.5552C167.515 35.106 167.148 34.5727 166.898 33.9857C166.648 33.3988 166.52 32.7698 166.52 32.1345ZM171.494 27.669C170.276 27.6704 169.109 28.1413 168.249 28.9784C167.388 29.8156 166.904 30.9506 166.902 32.1345C166.902 33.0177 167.171 33.881 167.676 34.6154C168.18 35.3497 168.898 35.922 169.737 36.26C170.576 36.598 171.499 36.6864 172.389 36.5141C173.28 36.3418 174.098 35.9165 174.74 35.292C175.383 34.6675 175.82 33.8719 175.997 33.0056C176.174 32.1394 176.083 31.2416 175.736 30.4256C175.388 29.6096 174.8 28.9122 174.045 28.4216C173.29 27.9309 172.402 27.669 171.494 27.669Z" fill="black"/>
<path d="M117.867 32.6963L166.649 31.9492L166.655 32.3211L118.25 33.0626V51.8578H117.867V32.6963Z" fill="black"/>
<path d="M26.7578 72.3254H81.2818V53.5332H81.6644V72.6972H26.7578V72.3254Z" fill="black"/>
<path d="M21.0444 33.0645H0V34.3669H21.0444V33.0645Z" fill="#8D8D8D"/>
<path d="M21.0444 36.7852H0V38.0876H21.0444V36.7852Z" fill="#8D8D8D"/>
<path d="M21.0444 40.5078H0V41.8102H21.0444V40.5078Z" fill="#8D8D8D"/>
<path d="M32.5444 81.2559H11.5V82.5583H32.5444V81.2559Z" fill="#8D8D8D"/>
<path d="M32.5444 84.9785H11.5V86.2809H32.5444V84.9785Z" fill="#8D8D8D"/>
<path d="M32.5444 88.6973H11.5V89.9997H32.5444V88.6973Z" fill="#8D8D8D"/>
<path d="M182.001 41.0645H160.957V42.3669H182.001V41.0645Z" fill="#8D8D8D"/>
<path d="M182.001 44.7871H160.957V46.0895H182.001V44.7871Z" fill="#8D8D8D"/>
<path d="M182.001 48.5078H160.957V49.8102H182.001V48.5078Z" fill="#8D8D8D"/>
</svg>
