<svg width="106" height="90" viewBox="0 0 106 90" fill="none" xmlns="http://www.w3.org/2000/svg">
<g clip-path="url(#clip0_2737_2498)">
<path d="M105 88.712C104.816 88.9621 104.631 89.2104 104.448 89.4569C103.92 89.8112 103.295 90.0003 102.654 89.9991H4.01808C3.40635 89.9996 2.80759 89.8271 2.29429 89.5025C2.12394 89.2834 1.95551 89.0625 1.78516 88.8416L1.95551 88.7504L51.8895 61.754C52.3325 61.515 52.8304 61.3893 53.3367 61.3887C53.843 61.388 54.3413 61.5125 54.785 61.7504L104.831 88.6208L105 88.712Z" fill="#2563EB"/>
<path d="M102.654 31.9472L59.378 7.57046C57.5578 6.54518 55.4931 6.00492 53.3912 6.00391C51.2893 6.0029 49.224 6.54117 47.4028 7.56471L4.01776 31.9472C3.17425 31.9484 2.36564 32.2757 1.76919 32.8575C1.17274 33.4392 0.837131 34.2279 0.835938 35.0506V86.8965C0.83692 87.7193 1.17246 88.5081 1.76896 89.0899C2.36545 89.6717 3.17419 89.999 4.01776 89.9999H102.654C103.498 89.9985 104.306 89.6711 104.902 89.0894C105.499 88.5077 105.834 87.7191 105.836 86.8965V35.0506C105.835 34.2279 105.499 33.4392 104.903 32.8575C104.306 32.2757 103.498 31.9484 102.654 31.9472ZM105.462 86.8965C105.46 87.6222 105.163 88.3177 104.637 88.8308C104.111 89.344 103.398 89.6331 102.654 89.6348H4.01776C3.27357 89.6335 2.56026 89.3446 2.03404 88.8313C1.50783 88.3181 1.21161 87.6223 1.21027 86.8965V35.0506C1.21117 34.3247 1.50725 33.6287 2.03356 33.1153C2.55987 32.602 3.27344 32.3132 4.01776 32.3123L47.4028 7.92982C49.224 6.90628 51.2893 6.36801 53.3912 6.36902C55.4931 6.37003 57.5578 6.91029 59.378 7.93557L102.654 32.3123C103.398 32.3132 104.112 32.602 104.638 33.1153C105.165 33.6287 105.461 34.3247 105.462 35.0506V86.8965Z" fill="black"/>
<path d="M53.3905 61.2809C53.0646 61.282 52.7408 61.229 52.433 61.1242L52.3764 61.1046L52.3649 60.9819C52.3296 60.9988 52.294 61.0151 52.2584 61.0304L52.2207 61.0465L52.183 61.0303C52.1042 60.9965 52.0258 60.9583 51.9503 60.9167L17.4922 42.0308V3.46908C17.4932 2.57368 17.8584 1.71524 18.5075 1.08209C19.1566 0.448945 20.0367 0.0928019 20.9548 0.0917969H85.7141C86.6321 0.0928019 87.5122 0.448945 88.1614 1.08209C88.8105 1.71524 89.1756 2.57368 89.1767 3.46908V42.0801L89.129 42.1063L54.8308 60.9168C54.3905 61.1562 53.8946 61.2816 53.3905 61.2809Z" fill="white"/>
<path d="M53.3904 61.3717C53.0538 61.3728 52.7195 61.318 52.4018 61.2098L52.2885 61.1708L52.2836 61.1187L52.2206 61.1457L52.1452 61.1134C52.0635 61.0784 51.9825 61.0388 51.9042 60.9958L17.3984 42.0838V3.46856C17.3995 2.54896 17.7745 1.66732 18.4412 1.01707C19.1079 0.366813 20.0118 0.00104077 20.9546 0H85.714C86.6568 0.00104462 87.5607 0.366816 88.2273 1.01707C88.894 1.66733 89.269 2.54896 89.2701 3.46856V42.133L54.8765 60.9958C54.4222 61.243 53.9106 61.3724 53.3904 61.3717ZM52.6392 60.9013C53.3273 61.094 54.0657 61.0136 54.6932 60.6775L88.8958 41.9194V3.46856C88.8948 2.64576 88.5593 1.85692 87.9628 1.27511C87.3663 0.693305 86.5575 0.366038 85.714 0.365112H20.9546C20.111 0.366034 19.3022 0.693301 18.7057 1.27511C18.1092 1.85692 17.7737 2.64576 17.7728 3.46856V41.87L20.0168 43.0992L52.0878 60.6776C52.1314 60.7016 52.1757 60.7241 52.2207 60.7453C52.2656 60.7241 52.3099 60.7016 52.3534 60.6777L52.6054 60.5392L52.6392 60.9013Z" fill="black"/>
<path d="M105.006 33.294L91.4237 40.7422L89.0841 42.0256L54.786 60.8361C54.3598 61.068 53.8797 61.1893 53.3916 61.1885C53.0763 61.1894 52.763 61.1381 52.4652 61.0369C52.3823 61.0111 52.3011 60.9806 52.2218 60.9457C52.1452 60.9128 52.0703 60.8763 51.9973 60.8361L19.9264 43.2578L17.5869 41.9763L1.69277 33.2647C1.64955 33.2406 1.61785 33.2008 1.60454 33.1539C1.59123 33.1071 1.59738 33.0571 1.62167 33.0146C1.64602 32.9726 1.6865 32.9416 1.73422 32.9286C1.78194 32.9156 1.83299 32.9216 1.87619 32.9453L17.5869 41.5564L19.9264 42.838L52.1807 60.5167C52.2877 60.5753 52.399 60.6259 52.5138 60.6682C52.5625 60.6864 52.6131 60.7029 52.6636 60.7175C52.984 60.8134 53.3209 60.845 53.6542 60.8105C53.9874 60.776 54.31 60.6761 54.6026 60.5167L89.0841 41.6075L91.4237 40.3242L104.823 32.9763C104.844 32.9646 104.868 32.957 104.892 32.9542C104.917 32.9513 104.941 32.9531 104.965 32.9596C104.989 32.966 105.011 32.9769 105.03 32.9917C105.049 33.0065 105.065 33.0248 105.077 33.0457C105.089 33.0665 105.097 33.0895 105.1 33.1133C105.103 33.137 105.101 33.1611 105.095 33.1842C105.088 33.2072 105.077 33.2288 105.062 33.2476C105.046 33.2665 105.028 33.2822 105.006 33.294Z" fill="black"/>
<path d="M31.5466 12.0478H26.3059C25.9088 12.0478 25.528 11.894 25.2471 11.6201C24.9663 11.3462 24.8086 10.9747 24.8086 10.5874C24.8086 10.2001 24.9663 9.82859 25.2471 9.55471C25.528 9.28082 25.9088 9.12695 26.3059 9.12695H31.5466C31.9437 9.12695 32.3245 9.28082 32.6053 9.55471C32.8861 9.82859 33.0439 10.2001 33.0439 10.5874C33.0439 10.9747 32.8861 11.3462 32.6053 11.6201C32.3245 11.894 31.9437 12.0478 31.5466 12.0478Z" fill="#2563EB"/>
<path d="M37.723 16.9775H26.3059C25.9088 16.9775 25.528 16.8237 25.2471 16.5498C24.9663 16.2759 24.8086 15.9044 24.8086 15.5171C24.8086 15.1298 24.9663 14.7583 25.2471 14.4844C25.528 14.2105 25.9088 14.0566 26.3059 14.0566H37.723C38.1202 14.0566 38.501 14.2105 38.7818 14.4844C39.0626 14.7583 39.2204 15.1298 39.2204 15.5171C39.2204 15.9044 39.0626 16.2759 38.7818 16.5498C38.501 16.8237 38.1202 16.9775 37.723 16.9775Z" fill="white"/>
<path d="M69.6192 30.1221H37.2395C36.8424 30.1221 36.4615 29.9682 36.1807 29.6943C35.8999 29.4204 35.7422 29.049 35.7422 28.6616C35.7422 28.2743 35.8999 27.9028 36.1807 27.6289C36.4615 27.355 36.8424 27.2012 37.2395 27.2012H69.6192C70.0163 27.2012 70.3972 27.355 70.678 27.6289C70.9588 27.9028 71.1165 28.2743 71.1165 28.6616C71.1165 29.049 70.9588 29.4204 70.678 29.6943C70.3972 29.9682 70.0163 30.1221 69.6192 30.1221Z" fill="#2563EB"/>
<path d="M72.612 35.7803H34.0559C33.6588 35.7803 33.278 35.6264 32.9971 35.3525C32.7163 35.0786 32.5586 34.7072 32.5586 34.3198C32.5586 33.9325 32.7163 33.561 32.9971 33.2871C33.278 33.0132 33.6588 32.8594 34.0559 32.8594H72.612C73.0092 32.8594 73.39 33.0132 73.6708 33.2871C73.9516 33.561 74.1094 33.9325 74.1094 34.3198C74.1094 34.7072 73.9516 35.0786 73.6708 35.3525C73.39 35.6264 73.0092 35.7803 72.612 35.7803Z" fill="white"/>
<path d="M72.612 41.2568H34.0559C33.6588 41.2568 33.278 41.103 32.9971 40.8291C32.7163 40.5552 32.5586 40.1837 32.5586 39.7964C32.5586 39.409 32.7163 39.0376 32.9971 38.7637C33.278 38.4898 33.6588 38.3359 34.0559 38.3359H72.612C73.0092 38.3359 73.39 38.4898 73.6708 38.7637C73.9516 39.0376 74.1094 39.409 74.1094 39.7964C74.1094 40.1837 73.9516 40.5552 73.6708 40.8291C73.39 41.103 73.0092 41.2568 72.612 41.2568Z" fill="white"/>
</g>
<defs>
<clipPath id="clip0_2737_2498">
<rect width="105" height="90" fill="white" transform="translate(0.835938)"/>
</clipPath>
</defs>
</svg>
