<svg width="90" height="90" viewBox="0 0 90 90" fill="none" xmlns="http://www.w3.org/2000/svg">
<g clip-path="url(#clip0_3032_3861)">
<path d="M20.5131 15.0293L19.8359 18.586L23.2118 19.5381L22.7923 15.741L20.5131 15.0293Z" fill="#A0616A"/>
<path d="M0.59375 88.6527C0.59375 88.7645 0.683473 88.8543 0.795203 88.8543H89.2081C89.3198 88.8543 89.4095 88.7645 89.4095 88.6527C89.4095 88.5409 89.3198 88.4512 89.2081 88.4512H0.795203C0.683473 88.4512 0.59375 88.5409 0.59375 88.6527Z" fill="#3F3D56"/>
<path d="M60.8626 40.3613H26.0471C22.099 40.3613 18.8984 43.5635 18.8984 47.5136V81.2905C18.8984 85.2406 22.099 88.4428 26.0471 88.4428H60.8626C64.8107 88.4428 68.0112 85.2406 68.0112 81.2905V47.5136C68.0112 43.5635 64.8107 40.3613 60.8626 40.3613Z" fill="white"/>
<path d="M60.8639 88.6115H26.0484C22.0133 88.6115 18.7305 85.3271 18.7305 81.2899V47.513C18.7305 43.4759 22.0133 40.1914 26.0484 40.1914H60.8639C64.899 40.1914 68.1819 43.4759 68.1819 47.513V81.2899C68.1819 85.3271 64.899 88.6115 60.8639 88.6115ZM26.0484 40.5301C22.1999 40.5301 19.069 43.6626 19.069 47.513V81.2899C19.069 85.1403 22.2 88.2728 26.0484 88.2728H60.8639C64.7124 88.2728 67.8433 85.1403 67.8433 81.2899V47.513C67.8433 43.6626 64.7124 40.5301 60.8639 40.5301L26.0484 40.5301Z" fill="#3F3D56"/>
<path d="M63.3868 55.0036H49.3929C48.7993 55.0036 48.3164 54.5205 48.3164 53.9266C48.3164 53.3328 48.7993 52.8496 49.3929 52.8496H63.3868C63.9804 52.8496 64.4633 53.3328 64.4633 53.9266C64.4633 54.5205 63.9804 55.0036 63.3868 55.0036Z" fill="#2563EB"/>
<path d="M50.256 63.473H36.6532C36.3103 63.473 36.0312 63.1938 36.0312 62.8507C36.0312 62.5076 36.3103 62.2285 36.6532 62.2285H50.256C50.599 62.2285 50.8779 62.5076 50.8779 62.8507C50.8779 63.1938 50.599 63.473 50.256 63.473Z" fill="#2563EB"/>
<path d="M31.0296 42.6738H23.2634C23.2344 42.6738 23.2109 42.6974 23.2109 42.7264V43.6309C23.2109 43.6599 23.2344 43.6835 23.2634 43.6835H31.0296C31.0586 43.6835 31.0821 43.6599 31.0821 43.6309V42.7264C31.0821 42.6974 31.0586 42.6738 31.0296 42.6738Z" fill="#2563EB"/>
<path d="M57.1901 43.6838C57.636 43.6838 57.9974 43.3222 57.9974 42.8761C57.9974 42.43 57.636 42.0684 57.1901 42.0684C56.7443 42.0684 56.3828 42.43 56.3828 42.8761C56.3828 43.3222 56.7443 43.6838 57.1901 43.6838Z" fill="#3F3D56"/>
<path d="M59.4089 43.6838C59.8547 43.6838 60.2162 43.3222 60.2162 42.8761C60.2162 42.43 59.8547 42.0684 59.4089 42.0684C58.963 42.0684 58.6016 42.43 58.6016 42.8761C58.6016 43.3222 58.963 43.6838 59.4089 43.6838Z" fill="#3F3D56"/>
<path d="M61.6315 43.6838C62.0774 43.6838 62.4388 43.3222 62.4388 42.8761C62.4388 42.43 62.0774 42.0684 61.6315 42.0684C61.1857 42.0684 60.8242 42.43 60.8242 42.8761C60.8242 43.3222 61.1857 43.6838 61.6315 43.6838Z" fill="#3F3D56"/>
<path d="M25.9648 66.8051C25.9648 66.9168 26.0546 67.0066 26.1663 67.0066H60.7484C60.8601 67.0066 60.9498 66.9168 60.9498 66.8051C60.9498 66.6933 60.8601 66.6035 60.7484 66.6035H26.1663C26.0546 66.6035 25.9648 66.6933 25.9648 66.8051Z" fill="#3F3D56"/>
<path d="M36.5086 17.0911C37.2448 16.4824 38.1554 16.3691 38.5425 16.838C38.9296 17.3068 38.6465 18.1801 37.9099 18.7888C37.619 19.0361 37.2732 19.21 36.9013 19.2961L33.7494 21.8355L32.5898 20.3302L35.8202 17.9866C35.9749 17.6374 36.2109 17.3303 36.5086 17.0911Z" fill="#A0616A"/>
<path d="M18.2931 22.8204C18.2915 22.7081 18.2926 21.7285 19.0174 21.1093C19.8501 20.3981 21.025 20.686 21.4371 20.787C22.3891 21.0202 22.4672 21.4288 23.3612 21.8486C25.0337 22.634 22.9381 22.232 23.9333 21.9801C24.2778 21.893 29.2338 21.5491 30.4675 20.7894C32.8667 19.3119 34.5015 18.416 34.5015 18.416L35.5702 20.5545C35.5702 20.5545 34.0249 22.7043 31.85 24.297C29.619 25.9307 28.5035 26.7475 26.8082 27.0631C26.6623 27.0903 23.0719 27.7036 20.1801 25.5421C19.5205 25.049 18.3119 24.1457 18.2931 22.8204Z" fill="#E6E6E6"/>
<path d="M21.6057 17.3832C23.6618 17.3832 25.3286 15.7155 25.3286 13.6584C25.3286 11.6012 23.6618 9.93359 21.6057 9.93359C19.5496 9.93359 17.8828 11.6012 17.8828 13.6584C17.8828 15.7155 19.5496 17.3832 21.6057 17.3832Z" fill="#A0616A"/>
<path d="M50.7625 38.6825L46.9284 34.7559L44.9492 36.8214L47.8057 40.5863L50.6391 40.9106L50.7625 38.6825Z" fill="#A0616A"/>
<path d="M28.8696 31.3187C29.0939 31.3374 29.8065 31.4802 30.4877 31.1053C30.9526 30.8494 31.191 30.4689 31.2715 30.3479C32.2705 28.8468 36.1048 26.5059 39.546 26.3619C40.3253 26.3293 40.8382 26.4196 41.3045 26.6628C41.9656 27.0075 42.2295 27.5014 43.0684 28.6584C43.5273 29.2912 44.0351 29.8874 44.4995 30.5162C47.2184 34.1976 48.2492 34.4866 48.1438 35.6668C48.027 36.9763 46.6154 38.2186 45.6773 38.0752C45.2931 38.0165 45.1443 37.7492 44.6309 37.2081C43.1259 35.6215 42.5032 35.9146 41.4316 34.6994C40.1805 33.2806 40.3443 32.1042 39.6916 32.0588C39.0863 32.0167 38.8291 33.0202 37.5368 34.3534C36.9455 34.9634 36.5245 35.2433 35.2416 36.1337C30.2461 39.6011 30.1664 39.8447 29.1582 40.1213C28.7171 40.2423 25.5865 41.101 24.4713 39.7344C22.7261 37.5959 26.849 31.1508 28.8696 31.3187Z" fill="#2F2E41"/>
<path d="M49.5898 39.5697C49.8718 39.443 50.2015 39.2949 50.3076 38.9543C50.3794 38.7238 50.338 38.4396 50.1897 38.2432C50.0185 38.0166 49.7651 37.9867 49.7753 37.9466C49.791 37.8856 50.3901 37.9095 51.0478 38.1421C51.172 38.186 51.7343 38.3915 52.4495 38.9502C53.0226 39.3978 52.9455 39.4876 53.3048 39.7457C54.4079 40.5379 55.4425 39.9135 56.0394 40.6565C56.2697 40.9433 56.368 41.3504 56.2711 41.6796C56.0764 42.3406 55.1296 42.5681 54.6122 42.6856C53.3661 42.9685 52.4228 42.7375 51.4379 42.5715C48.0885 42.0068 46.2066 42.5211 45.9547 41.7447C45.907 41.5978 45.9844 41.6103 46.2427 40.532C46.4976 39.4678 46.4892 39.1755 46.7063 39.0903C47.0331 38.962 47.2525 39.5455 48.0757 39.7452C48.8052 39.9222 49.4071 39.6518 49.5898 39.5697Z" fill="#2F2E41"/>
<path d="M43.9454 51.5281L42.9767 46.125L40.1797 46.7222L40.4303 51.4424L42.5928 53.3025L43.9454 51.5281Z" fill="#A0616A"/>
<path d="M29.9627 33.1348C30.1378 33.2762 30.6473 33.7948 31.4214 33.8672C31.9496 33.9167 32.3605 33.7358 32.495 33.6809C34.1641 33 38.6506 33.2173 41.5789 35.0315C42.2421 35.4423 42.6158 35.8052 42.8651 36.2684C43.2186 36.9251 43.1598 37.482 43.2046 38.9107C43.2292 39.6921 43.3147 40.4707 43.346 41.252C43.5297 45.8257 44.2204 46.6439 43.4708 47.5613C42.6391 48.5792 40.7739 48.8141 40.0781 48.1684C39.7931 47.9039 39.82 47.5991 39.699 46.863C39.3441 44.7046 38.6643 44.5973 38.4597 42.9898C38.2208 41.1129 39.0166 40.2315 38.502 39.8272C38.0248 39.4523 37.2487 40.1382 35.4312 40.5153C34.5995 40.6878 34.094 40.6828 32.5328 40.6989C26.4532 40.7614 26.2504 40.9182 25.261 40.5806C24.8282 40.4329 21.7557 39.3846 21.5999 37.6273C21.3561 34.8773 28.385 31.8606 29.9627 33.1348Z" fill="#2F2E41"/>
<path d="M42.4781 51.6033C42.7825 51.6569 43.1385 51.7196 43.4174 51.4974C43.6062 51.347 43.7315 51.0886 43.7189 50.8427C43.7045 50.5591 43.5116 50.392 43.5425 50.3646C43.5897 50.3228 44.0721 50.6792 44.4858 51.2412C44.5638 51.3473 44.9137 51.8333 45.192 52.6974C45.415 53.3897 45.3008 53.4207 45.4533 53.8361C45.9214 55.1114 47.1279 55.176 47.2048 56.1261C47.2345 56.4928 47.0873 56.8849 46.8223 57.1028C46.2902 57.5404 45.3791 57.1968 44.885 57.0033C43.6952 56.5372 43.0443 55.8162 42.3225 55.1255C39.868 52.7764 38.0221 52.1447 38.2494 51.3608C38.2924 51.2124 38.3495 51.2663 39.1684 50.5191C39.9766 49.7817 40.1337 49.5352 40.3612 49.5866C40.7036 49.6641 40.5576 50.2702 41.1267 50.8979C41.631 51.4542 42.2808 51.5686 42.4781 51.6033Z" fill="#2F2E41"/>
<path d="M22.1127 14.3699C22.2576 13.8511 22.0756 13.6621 22.2611 13.4293C22.2611 13.4293 22.3358 13.3356 23.0033 13.0827C22.8064 11.9395 22.9538 11.7461 22.9538 11.7461C23.1238 11.5233 23.4642 11.4695 23.696 11.4986C24.1862 11.5603 24.273 12.0036 24.5866 11.9937C25.0199 11.9799 25.5396 11.1121 25.3783 10.36C25.2467 9.7465 24.6794 9.29088 24.5372 9.36994C24.3962 9.44833 23.8885 9.10267 23.696 9.17192C23.5646 9.21922 22.9457 9.1563 22.8054 9.22143C22.6522 9.29256 22.2133 9.73542 22.1714 9.67962C21.8798 9.29186 21.886 9.15648 21.7169 9.07292C21.4171 8.92483 21.0913 9.19854 20.5294 9.46895C19.3733 10.0253 19.0347 9.69344 18.5007 10.162C18.231 10.3987 18.0863 10.8511 17.808 11.7461C17.4188 12.9979 17.2242 13.6238 17.4122 14.2213C17.6039 14.8308 17.8862 14.6981 18.3028 15.558C18.7666 16.5151 18.6068 17.0714 19.045 17.2906C19.3837 17.46 19.928 17.3522 20.1335 17.0431C20.4854 16.5139 19.5759 15.7979 19.8861 14.9639C20.0766 14.4519 20.6639 14.0637 21.0242 14.1718C21.4315 14.2941 21.4614 15.0247 21.7169 15.0134C21.9356 15.0037 22.0874 14.4602 22.1127 14.3699Z" fill="#2F2E41"/>
<path d="M19.2951 17.9345C20.0569 17.0799 23.1601 17.9645 23.4513 19.3206C23.5711 19.8785 23.1289 20.114 23.2534 20.7563C23.4356 21.6957 24.467 21.6316 25.2326 22.5879C26.3195 23.9455 25.1998 25.2727 26.4201 27.5383C26.6808 28.0225 26.9006 28.4305 27.3602 28.8254C28.4147 29.7317 29.3961 29.4209 29.9331 30.2611C30.3346 30.8894 30.1697 31.6638 30.131 31.8452C29.9725 32.589 29.543 32.7703 29.2404 33.3798C28.7368 34.3939 29.307 35.1384 29.3393 36.3501C29.3798 37.866 28.5746 39.9674 26.9643 40.6569C25.1552 41.4315 22.9733 40.1486 21.9175 38.8748C21.2874 38.1147 21.1046 37.4135 20.8289 36.5481C19.5971 32.6802 18.9012 33.0301 17.9591 29.964C16.8822 26.459 16.6705 22.3527 17.9591 21.0533C18.1299 20.8811 18.6 20.483 18.8993 19.7662C19.3019 18.8016 18.9541 18.3171 19.2951 17.9345Z" fill="#E6E6E6"/>
<path d="M30.5501 37.828C31.1408 38.5788 31.2323 39.4924 30.7546 39.8684C30.277 40.2444 29.4111 39.9405 28.8203 39.1893C28.5802 38.8925 28.4147 38.5424 28.3375 38.1684L25.875 34.9554L27.1474 33.9844L29.6716 37.1182C30.0169 37.2812 30.3181 37.5246 30.5501 37.828Z" fill="#A0616A"/>
<path d="M21.5324 21.1909C21.642 21.1664 22.6007 20.9676 23.3544 21.5512C24.2203 22.2217 24.1783 23.4312 24.1636 23.8554C24.1296 24.8354 23.7458 24.9953 23.5174 25.9566C23.0902 27.755 23.9038 29.4264 24.3533 30.3498C24.5089 30.6694 25.0088 31.6474 26.0038 32.7007C27.939 34.7493 29.6657 35.8272 29.6657 35.8272L27.8108 37.4769C27.8108 37.4769 24.856 36.5758 22.8539 34.7705C20.8002 32.9187 17.6419 26.3668 16.9872 24.7708C16.9308 24.6334 17.7295 26.8679 19.2544 23.5945C19.6022 22.8478 20.2396 21.4798 21.5324 21.1909Z" fill="#E6E6E6"/>
<path d="M46.9679 71.4184C45.7889 71.5992 44.9264 72.3544 45.0416 73.1051C45.1567 73.8559 46.2057 74.3177 47.3852 74.1366C47.8573 74.0708 48.3068 73.8928 48.6961 73.6175L53.6821 72.7883L53.3493 70.8164L48.3745 71.5207C47.9206 71.3747 47.4382 71.3396 46.9679 71.4184Z" fill="#FFB6B6"/>
<path d="M68.4545 65.2727L66.5212 69.3773L56.802 72.6507L48.7371 73.0812L48.5352 71.1431L57.2756 69.3147L66.2445 65.0742L68.4545 65.2727Z" fill="#E6E6E6"/>
<path d="M50.5289 80.8577L48.7931 85.2503L46.5469 83.718L47.8742 79.1211L50.5289 80.8577Z" fill="#FFB6B6"/>
<path d="M43.2782 79.2227L38.6836 83.6153L40.5214 85.5562L45.2181 81.8787L43.2782 79.2227Z" fill="#FFB6B6"/>
<path d="M69.316 64.9216L69.265 64.5641L68.0908 62.2656L64.2109 63.2872L64.9256 66.4539L69.316 64.9216Z" fill="#FFB6B6"/>
<path d="M67.6805 80.2454L67.7998 81.7797C67.7998 81.7797 68.2931 88.2134 64.3111 88.7242C60.3292 89.2349 58.5934 89.7457 56.2451 85.7617L52.5694 79.2239L50.4224 81.7797L47.5664 79.5303C47.5664 79.5303 49.6084 71.5623 51.2421 71.2559C51.4463 71.2176 51.6505 71.1984 51.8515 71.1942C53.2039 71.166 54.4788 71.8279 55.288 72.9124L59.9208 79.1217L61.6054 78.3556L67.6805 80.2454Z" fill="#2F2E41"/>
<path d="M45.6275 85.0472L46.5464 83.3105L49.201 85.1493C49.201 85.1493 49.8137 87.3967 48.8947 87.7032C47.9758 88.0096 45.4233 87.601 45.4233 87.601C45.4233 87.601 40.7266 88.6225 40.6245 87.7032C40.5224 86.7838 42.7686 86.5795 42.7686 86.5795L45.6275 85.0472Z" fill="#2F2E41"/>
<path d="M55.6321 83.8207L48.536 79.3473L44.9114 82.5949L42.4609 79.7346C42.4609 79.7346 46.9534 73.0946 48.2808 72.7881C49.6081 72.4816 51.7522 72.2773 51.7522 72.2773L58.2868 78.3044L55.6321 83.8207Z" fill="#2F2E41"/>
<path d="M38.5822 83.207L40.9305 85.7609L40.6208 86.0259C40.6208 86.0259 40.0116 88.6807 38.5822 87.7826C37.1528 86.8846 37.0507 86.6803 37.0507 86.6803C37.0507 86.6803 32.9666 87.5996 32.5582 85.9652C32.1498 84.3307 33.2729 84.6372 33.2729 84.6372L34.2927 85.2501L38.5822 83.207Z" fill="#2F2E41"/>
<path d="M65.4352 64.4109C67.2397 64.4109 68.7025 62.9473 68.7025 61.142C68.7025 59.3366 67.2397 57.873 65.4352 57.873C63.6308 57.873 62.168 59.3366 62.168 61.142C62.168 62.9473 63.6308 64.4109 65.4352 64.4109Z" fill="#FFB6B6"/>
<path d="M64.6678 65.7895L69.3645 64.3594C69.3645 64.3594 71.2023 68.6498 70.896 70.5907C70.5897 72.5317 67.7991 81.7786 67.7991 81.7786L61.6047 78.3544C61.6047 78.3544 61.5026 76.3113 61.1963 75.392C60.89 74.4726 59.92 71.6634 62.0642 69.3138C64.2083 66.9643 64.6678 65.7895 64.6678 65.7895Z" fill="#E6E6E6"/>
<path d="M54.3336 87.2408C53.5692 88.157 53.4222 89.2942 54.005 89.7808C54.5879 90.2674 55.6798 89.9191 56.4443 89.0025C56.7547 88.6405 56.974 88.2095 57.0837 87.7453L60.2734 83.8225L58.7196 82.5645L55.4558 86.3862C55.0189 86.5773 54.6341 86.8704 54.3336 87.2408Z" fill="#FFB6B6"/>
<path d="M68.2731 67.8516L69.3833 72.251L63.9499 80.9528L58.4032 86.5302L56.6055 85.0379L62.1994 78.0742L66.4395 69.1017L68.2731 67.8516Z" fill="#E6E6E6"/>
<path d="M62.4243 60.5804C63.2623 60.5784 63.3098 60.584 63.4454 60.5804C64.4846 60.553 64.7564 60.1439 65.2832 60.1718C66.2234 60.2216 64.9825 64.9379 64.4664 67.1183C63.9602 69.2566 65.6708 71.1728 65.7937 71.3066C67.5299 73.1958 70.5797 73.5412 71.103 72.7367C71.5266 72.0855 70.0254 71.0954 70.3883 69.6721C70.743 68.2808 72.3809 68.4289 72.8387 67.1183C73.3182 65.7456 71.7069 65.0533 70.6946 61.7041C70.1132 59.7806 70.2161 59.4222 69.6736 58.2309C68.2235 55.0465 61.1159 56.4023 61.9138 59.3546C62.0682 59.9257 61.6574 60.5823 62.4243 60.5804Z" fill="#2F2E41"/>
<path d="M72.8534 21.7737H38.515C37.5439 21.7737 36.7539 20.9832 36.7539 20.0117V1.76199C36.7539 0.790482 37.5439 0 38.515 0H72.8534C73.8245 0 74.6145 0.79048 74.6145 1.76199V20.0117C74.6145 20.9832 73.8245 21.7737 72.8534 21.7737Z" fill="white"/>
<path d="M72.8534 21.7737H38.515C37.5439 21.7737 36.7539 20.9832 36.7539 20.0117V1.76199C36.7539 0.790482 37.5439 0 38.515 0H72.8534C73.8245 0 74.6145 0.79048 74.6145 1.76199V20.0117C74.6145 20.9832 73.8245 21.7737 72.8534 21.7737ZM38.515 0.294239C37.7061 0.294239 37.048 0.952686 37.048 1.76199V20.0117C37.048 20.821 37.7061 21.4795 38.515 21.4795H72.8534C73.6623 21.4795 74.3204 20.821 74.3204 20.0117V1.76199C74.3204 0.952686 73.6623 0.294239 72.8534 0.294239H38.515Z" fill="#3F3D56"/>
<path d="M70.2029 2.20694C70.4465 2.20694 70.644 2.00933 70.644 1.76558C70.644 1.52182 70.4465 1.32422 70.2029 1.32422C69.9592 1.32422 69.7617 1.52182 69.7617 1.76558C69.7617 2.00933 69.9592 2.20694 70.2029 2.20694Z" fill="#3F3D56"/>
<path d="M71.3786 2.20694C71.6223 2.20694 71.8198 2.00933 71.8198 1.76558C71.8198 1.52182 71.6223 1.32422 71.3786 1.32422C71.135 1.32422 70.9375 1.52182 70.9375 1.76558C70.9375 2.00933 71.135 2.20694 71.3786 2.20694Z" fill="#3F3D56"/>
<path d="M72.5544 2.20694C72.798 2.20694 72.9956 2.00933 72.9956 1.76558C72.9956 1.52182 72.798 1.32422 72.5544 1.32422C72.3108 1.32422 72.1133 1.52182 72.1133 1.76558C72.1133 2.00933 72.3108 2.20694 72.5544 2.20694Z" fill="#3F3D56"/>
<path d="M39.2518 8.90039C39.1302 8.90039 39.0312 8.99938 39.0312 9.12107C39.0312 9.18041 39.0542 9.23529 39.0957 9.2758C39.1377 9.31876 39.1926 9.34175 39.2518 9.34175H72.2599C72.3815 9.34175 72.4805 9.24276 72.4805 9.12107C72.4805 9.06173 72.4576 9.00685 72.416 8.96634C72.3741 8.92338 72.3191 8.90039 72.2599 8.90039H39.2518Z" fill="#E6E6E6"/>
<path d="M68.1459 8.82812V9.4166H39.255C39.1742 9.4166 39.1006 9.38423 39.0477 9.3298C38.9933 9.27684 38.9609 9.20328 38.9609 9.12236C38.9609 8.96053 39.0933 8.82812 39.255 8.82812H68.1459Z" fill="#2563EB"/>
<path d="M71.8924 7.72383H68.9515C68.6271 7.72383 68.3633 7.45991 68.3633 7.13535C68.3633 6.8108 68.6271 6.54688 68.9515 6.54688H71.8924C72.2167 6.54688 72.4805 6.8108 72.4805 7.13535C72.4805 7.45991 72.2167 7.72383 71.8924 7.72383Z" fill="#E6E6E6"/>
<path d="M52.6319 4.63399H39.4749C39.1506 4.63399 38.8867 4.37006 38.8867 4.04551C38.8867 3.72096 39.1506 3.45703 39.4749 3.45703H52.6319C52.9562 3.45703 53.2201 3.72096 53.2201 4.04551C53.2201 4.37006 52.9562 4.63399 52.6319 4.63399Z" fill="#E6E6E6"/>
<path d="M39.2518 15.5215C39.1302 15.5215 39.0312 15.6205 39.0312 15.7422C39.0312 15.8015 39.0542 15.8564 39.0957 15.8969C39.1377 15.9399 39.1926 15.9628 39.2518 15.9628H72.2599C72.3815 15.9628 72.4805 15.8639 72.4805 15.7422C72.4805 15.6828 72.4576 15.6279 72.416 15.5874C72.3741 15.5445 72.3191 15.5215 72.2599 15.5215H39.2518Z" fill="#E6E6E6"/>
<path d="M56.8234 15.4473V16.0357H39.255C39.1742 16.0357 39.1006 16.0034 39.0477 15.9489C38.9933 15.896 38.9609 15.8224 38.9609 15.7415C38.9609 15.5797 39.0933 15.4473 39.255 15.4473H56.8234Z" fill="#2563EB"/>
<path d="M71.8924 14.3449H68.9515C68.6271 14.3449 68.3633 14.081 68.3633 13.7564C68.3633 13.4319 68.6271 13.168 68.9515 13.168H71.8924C72.2167 13.168 72.4805 13.4319 72.4805 13.7564C72.4805 14.081 72.2167 14.3449 71.8924 14.3449Z" fill="#E6E6E6"/>
</g>
<defs>
<clipPath id="clip0_3032_3861">
<rect width="88.8158" height="90" fill="white" transform="translate(0.59375)"/>
</clipPath>
</defs>
</svg>
