<svg width="144" height="90" viewBox="0 0 144 90" fill="none" xmlns="http://www.w3.org/2000/svg">
<g clip-path="url(#clip0_3032_3740)">
<path d="M85.358 2.76106C95.659 -2.73659 108.733 0.145541 115.664 9.89361L115.429 10.0606C108.583 0.432846 95.6685 -2.413 85.4943 3.01557C84.6299 3.47688 83.7955 3.99205 82.996 4.55803C72.5334 11.9599 70.0587 26.4721 77.4795 36.9081L77.2435 37.0751C69.7305 26.5093 72.236 11.8165 82.8286 4.32268C83.6381 3.74979 84.4829 3.22822 85.358 2.76106Z" fill="#E6E6E6"/>
<path d="M139.931 26.2605L106.05 23.6314C105.524 23.5899 105.036 23.3421 104.693 22.9423C104.35 22.5424 104.18 22.0232 104.221 21.4985L105.689 5.0788C105.731 4.5542 105.979 4.06744 106.38 3.72532C106.781 3.3832 107.302 3.21364 107.828 3.25386L141.709 5.88297C142.235 5.92438 142.723 6.17219 143.066 6.57203C143.409 6.97188 143.579 7.4911 143.538 8.0158L142.069 24.4355C142.028 24.9601 141.78 25.4469 141.379 25.789C140.978 26.1311 140.457 26.3007 139.931 26.2605Z" fill="#E6E6E6"/>
<path d="M131.927 22.5515C131.67 22.5515 131.412 22.5415 131.153 22.5215L109.256 20.8223C108.819 20.7884 108.392 20.6687 108 20.4703C107.609 20.2718 107.261 19.9983 106.975 19.6655C106.69 19.3327 106.473 18.947 106.336 18.5306C106.2 18.1141 106.148 17.675 106.182 17.2383L106.681 10.8364C106.751 9.95478 107.168 9.13677 107.842 8.56183C108.516 7.98688 109.391 7.70195 110.275 7.76954L138.589 9.96668C139.473 10.0363 140.293 10.4527 140.869 11.1246C141.445 11.7965 141.731 12.6691 141.663 13.5508C141.472 15.9974 140.364 18.2824 138.56 19.9505C136.755 21.6186 134.387 22.5473 131.927 22.5515Z" fill="white"/>
<path d="M137.91 15.0551L110.154 12.9013C110.096 12.8968 110.039 12.881 109.988 12.8548C109.936 12.8285 109.89 12.7924 109.852 12.7485C109.814 12.7045 109.786 12.6536 109.768 12.5986C109.75 12.5435 109.743 12.4855 109.747 12.4279C109.752 12.3702 109.768 12.314 109.794 12.2624C109.82 12.2108 109.857 12.1649 109.901 12.1273C109.945 12.0897 109.996 12.0611 110.051 12.0432C110.106 12.0252 110.164 12.0183 110.222 12.0228L137.979 14.1767C138.036 14.1812 138.093 14.197 138.145 14.2232C138.196 14.2494 138.242 14.2855 138.28 14.3295C138.318 14.3734 138.346 14.4244 138.364 14.4794C138.382 14.5344 138.389 14.5924 138.385 14.6501C138.38 14.7077 138.364 14.764 138.338 14.8156C138.312 14.8671 138.276 14.913 138.231 14.9506C138.187 14.9883 138.136 15.0168 138.081 15.0348C138.026 15.0527 137.968 15.0596 137.91 15.0551Z" fill="#E6E6E6"/>
<path d="M126.387 15.9076L110.02 14.6376C109.904 14.6285 109.795 14.5735 109.719 14.4847C109.643 14.3959 109.606 14.2807 109.615 14.1642C109.624 14.0478 109.679 13.9397 109.768 13.8637C109.857 13.7878 109.972 13.7501 110.089 13.7591L126.456 15.0292C126.514 15.0336 126.57 15.0494 126.622 15.0756C126.673 15.1018 126.719 15.1379 126.757 15.1819C126.795 15.2259 126.824 15.2768 126.842 15.3318C126.86 15.3869 126.867 15.4449 126.862 15.5026C126.858 15.5603 126.842 15.6166 126.815 15.6681C126.789 15.7197 126.753 15.7656 126.709 15.8033C126.665 15.8409 126.614 15.8695 126.558 15.8874C126.503 15.9053 126.445 15.9122 126.387 15.9076Z" fill="#E6E6E6"/>
<path d="M129.992 17.9323L109.884 16.372C109.826 16.3676 109.77 16.3518 109.718 16.3256C109.667 16.2994 109.62 16.2633 109.583 16.2193C109.545 16.1753 109.516 16.1244 109.498 16.0693C109.48 16.0143 109.473 15.9563 109.478 15.8986C109.482 15.8409 109.498 15.7846 109.525 15.733C109.551 15.6814 109.587 15.6355 109.631 15.5979C109.675 15.5603 109.726 15.5317 109.782 15.5138C109.837 15.4959 109.895 15.489 109.953 15.4935L130.06 17.0538C130.177 17.063 130.285 17.118 130.361 17.2067C130.437 17.2955 130.475 17.4108 130.466 17.5272C130.457 17.6437 130.402 17.7518 130.313 17.8277C130.224 17.9037 130.108 17.9413 129.992 17.9323Z" fill="#E6E6E6"/>
<path d="M137.662 48.5495L103.781 45.9204C103.255 45.879 102.767 45.6312 102.424 45.2314C102.081 44.8315 101.911 44.3123 101.951 43.7876L103.42 27.3679C103.461 26.8433 103.71 26.3565 104.111 26.0144C104.512 25.6723 105.032 25.5027 105.558 25.5429L139.439 28.172C139.965 28.2134 140.453 28.4612 140.796 28.8611C141.139 29.2609 141.309 29.7802 141.269 30.3049L139.8 46.7246C139.758 47.2492 139.51 47.7359 139.109 48.0781C138.708 48.4202 138.188 48.5897 137.662 48.5495Z" fill="#E6E6E6"/>
<path d="M129.653 44.8404C129.399 44.8404 129.144 44.8305 128.887 44.8107L106.991 43.1116C106.553 43.0777 106.126 42.958 105.735 42.7595C105.343 42.561 104.995 42.2876 104.709 41.9548C104.424 41.622 104.207 41.2363 104.071 40.8198C103.935 40.4034 103.882 39.9643 103.916 39.5276L104.416 33.1257C104.45 32.689 104.57 32.2632 104.769 31.8728C104.968 31.4823 105.242 31.1348 105.576 30.85C105.909 30.5652 106.296 30.3487 106.713 30.213C107.131 30.0773 107.571 30.0249 108.009 30.0589L136.323 32.256C136.761 32.29 137.188 32.4096 137.579 32.6081C137.971 32.8066 138.319 33.0801 138.605 33.4129C138.89 33.7457 139.107 34.1314 139.243 34.5478C139.379 34.9643 139.432 35.4034 139.398 35.8401C139.204 38.2871 138.094 40.5716 136.288 42.2393C134.482 43.907 132.113 44.8356 129.653 44.8404Z" fill="white"/>
<path d="M135.644 37.3442L107.888 35.1903C107.83 35.1858 107.774 35.17 107.722 35.1438C107.67 35.1176 107.624 35.0815 107.587 35.0375C107.549 34.9936 107.52 34.9426 107.502 34.8876C107.484 34.8326 107.477 34.7746 107.482 34.7169C107.486 34.6592 107.502 34.603 107.528 34.5514C107.555 34.4999 107.591 34.454 107.635 34.4164C107.679 34.3787 107.73 34.3502 107.785 34.3322C107.84 34.3143 107.899 34.3074 107.956 34.3119L135.713 36.4657C135.771 36.4702 135.827 36.486 135.879 36.5122C135.931 36.5385 135.977 36.5746 136.014 36.6185C136.052 36.6625 136.081 36.7134 136.099 36.7684C136.117 36.8235 136.124 36.8814 136.119 36.9391C136.115 36.9968 136.099 37.053 136.072 37.1046C136.046 37.1562 136.01 37.2021 135.966 37.2397C135.922 37.2773 135.871 37.3059 135.816 37.3238C135.76 37.3418 135.702 37.3487 135.644 37.3442Z" fill="#E6E6E6"/>
<path d="M124.118 38.1967L107.751 36.9267C107.694 36.9223 107.637 36.9065 107.585 36.8803C107.534 36.8541 107.488 36.8179 107.45 36.774C107.412 36.73 107.384 36.6791 107.366 36.624C107.348 36.569 107.341 36.511 107.345 36.4533C107.35 36.3956 107.365 36.3393 107.392 36.2877C107.418 36.2361 107.454 36.1902 107.498 36.1526C107.542 36.115 107.594 36.0864 107.649 36.0685C107.704 36.0506 107.762 36.0437 107.82 36.0482L124.187 37.3182C124.303 37.3274 124.412 37.3824 124.488 37.4711C124.564 37.5599 124.602 37.6752 124.592 37.7916C124.583 37.9081 124.528 38.0162 124.439 38.0921C124.35 38.1681 124.235 38.2057 124.118 38.1967Z" fill="#E6E6E6"/>
<path d="M127.726 40.2214L107.618 38.6611C107.502 38.652 107.393 38.597 107.317 38.5083C107.241 38.4195 107.203 38.3041 107.212 38.1877C107.221 38.0712 107.276 37.963 107.365 37.8871C107.454 37.8111 107.57 37.7735 107.687 37.7826L127.794 39.3429C127.911 39.3519 128.019 39.4069 128.096 39.4957C128.172 39.5845 128.209 39.6998 128.2 39.8163C128.191 39.9328 128.136 40.0409 128.047 40.1169C127.958 40.1928 127.843 40.2304 127.726 40.2214Z" fill="#E6E6E6"/>
<path d="M51.4795 39.9714C51.0494 38.9992 50.8155 37.9521 50.7912 36.8898C50.7668 35.8275 50.9525 34.7708 51.3375 33.78C51.7226 32.7893 52.2995 31.8839 53.0353 31.1156C53.7712 30.3472 54.6516 29.731 55.6262 29.302C56.6008 28.873 57.6506 28.6397 58.7156 28.6154C59.7806 28.5911 60.84 28.7763 61.8333 29.1603C62.8265 29.5444 63.7342 30.1199 64.5045 30.8539C65.2748 31.5878 65.8927 32.466 66.3227 33.4381L66.058 33.5547C65.6433 32.6172 65.0475 31.7704 64.3047 31.0626C63.5619 30.3548 62.6865 29.7998 61.7287 29.4295C60.7709 29.0591 59.7493 28.8805 58.7223 28.9039C57.6952 28.9274 56.6829 29.1523 55.743 29.566C54.8032 29.9797 53.9542 30.574 53.2446 31.3149C52.535 32.0558 51.9786 32.9289 51.6073 33.8843C51.236 34.8397 51.057 35.8587 51.0805 36.8832C51.1039 37.9076 51.3295 38.9173 51.7442 39.8548L51.4795 39.9714Z" fill="#E6E6E6"/>
<path d="M135.563 85.0948C138.876 83.5293 141.343 80.3795 140.958 76.918C137.986 79.318 133.941 80.6583 129.764 80.6262C128.138 80.6137 126.316 80.4486 125.134 81.3591C124.398 81.9256 124.067 82.8251 124.025 83.7216C123.983 84.6182 124.201 85.5255 124.417 86.421L124.352 86.6332C128.24 86.8802 132.251 86.6603 135.563 85.0948Z" fill="#F2F2F2"/>
<path d="M140.878 76.9099C139.597 79.4032 137.376 81.4812 134.615 82.6976C134.011 82.979 133.367 83.1678 132.705 83.2573C132.032 83.3276 131.351 83.2388 130.719 82.9983C130.119 82.7836 129.527 82.5039 128.891 82.4189C128.58 82.3755 128.263 82.3953 127.959 82.4769C127.655 82.5586 127.371 82.7005 127.124 82.8942C126.536 83.3502 126.185 83.9812 125.867 84.6107C125.515 85.3097 125.161 86.0416 124.47 86.5179C124.387 86.5756 124.503 86.6957 124.587 86.638C125.789 85.8093 125.962 84.3107 126.917 83.307C127.142 83.0536 127.421 82.8542 127.734 82.7237C128.047 82.5933 128.385 82.5351 128.724 82.5537C129.373 82.6014 129.983 82.8893 130.589 83.1113C131.205 83.3539 131.866 83.462 132.527 83.4284C133.194 83.3699 133.847 83.2043 134.46 82.9381C135.795 82.384 137.03 81.6172 138.118 80.6678C139.32 79.6309 140.313 78.3745 141.042 76.9661C141.086 76.88 140.922 76.8243 140.878 76.9099Z" fill="white"/>
<path d="M135.539 82.3464C135.887 82.7567 136.356 83.0484 136.878 83.1809C137.401 83.3134 137.952 83.2802 138.455 83.0858C138.551 83.0453 138.472 82.9044 138.376 82.9449C137.908 83.1267 137.395 83.1576 136.909 83.0334C136.422 82.9092 135.987 82.636 135.665 82.2524C135.597 82.1702 135.471 82.2647 135.539 82.3464Z" fill="white"/>
<path d="M131.008 83.1411C131.072 82.6541 131.239 82.1862 131.497 81.7681C131.756 81.3501 132.1 80.9914 132.508 80.7156C132.591 80.6576 132.475 80.5376 132.391 80.5955C131.968 80.8832 131.61 81.2573 131.342 81.6929C131.074 82.1285 130.902 82.6158 130.837 83.1227C130.825 83.2193 130.996 83.2372 131.008 83.1411Z" fill="white"/>
<path d="M139.124 79.5257C138.965 79.4036 138.84 79.2429 138.76 79.059C138.68 78.875 138.649 78.6738 138.67 78.4744C138.683 78.3781 138.511 78.3603 138.498 78.456C138.477 78.6763 138.512 78.8984 138.599 79.1018C138.686 79.3052 138.824 79.4834 138.998 79.6198C139.014 79.6353 139.035 79.645 139.057 79.6473C139.079 79.6497 139.101 79.6446 139.12 79.6328C139.128 79.6266 139.134 79.6187 139.139 79.6096C139.144 79.6005 139.146 79.5905 139.147 79.5803C139.147 79.5701 139.146 79.56 139.142 79.5505C139.138 79.5411 139.132 79.5326 139.124 79.5257Z" fill="white"/>
<path d="M130.029 69.5996C130.019 69.6594 130.009 69.7192 129.997 69.7795C129.855 70.5812 129.639 71.3679 129.35 72.1294C129.329 72.1887 129.307 72.2484 129.283 72.3068C128.554 74.1506 127.444 75.821 126.027 77.2101C125.449 77.7777 124.826 78.2974 124.164 78.764C123.241 79.4155 122.176 80.052 121.592 80.9297C121.53 81.0202 121.474 81.1149 121.426 81.2132L124.057 86.524C124.07 86.5339 124.081 86.5443 124.094 86.5542L124.188 86.7698C124.225 86.7477 124.262 86.7241 124.299 86.7021C124.32 86.6894 124.341 86.6755 124.362 86.6628C124.376 86.6539 124.39 86.645 124.403 86.6378C124.408 86.6349 124.413 86.6319 124.416 86.6294C124.429 86.6222 124.441 86.6142 124.453 86.6074C124.662 86.476 124.87 86.343 125.078 86.2084C125.079 86.2079 125.079 86.208 125.08 86.2063C126.658 85.1768 128.143 84.0135 129.362 82.6713C129.399 82.6309 129.437 82.5901 129.473 82.5473C130.015 81.9441 130.5 81.2926 130.923 80.601C131.151 80.2249 131.357 79.8359 131.54 79.4361C132.009 78.4031 132.287 77.2941 132.36 76.1625C132.509 73.8957 131.835 71.5518 130.159 69.7372C130.116 69.6908 130.073 69.6456 130.029 69.5996Z" fill="#F2F2F2"/>
<path d="M129.962 69.6368C130.695 72.4405 130.443 75.3975 129.202 77.9136C128.944 78.4723 128.588 78.9808 128.152 79.4155C127.684 79.8429 127.109 80.1362 126.488 80.2642C125.894 80.4047 125.261 80.4855 124.727 80.7555C124.465 80.8864 124.238 81.0772 124.064 81.3125C123.89 81.5477 123.774 81.8207 123.726 82.1091C123.596 82.812 123.761 83.5358 123.951 84.2406C124.161 85.0232 124.393 85.8341 124.199 86.6097C124.176 86.7036 124.344 86.7428 124.368 86.649C124.705 85.2996 123.818 83.9353 123.852 82.5703C123.868 81.9333 124.1 81.3127 124.693 80.9597C125.212 80.651 125.864 80.5672 126.468 80.4297C127.078 80.3115 127.65 80.046 128.134 79.6565C128.595 79.2464 128.973 78.7524 129.249 78.201C129.88 76.9861 130.286 75.6672 130.447 74.3082C130.64 72.7313 130.53 71.1323 130.123 69.5963C130.098 69.4995 129.937 69.5406 129.962 69.6368Z" fill="white"/>
<path d="M129.656 77.1183C130.738 77.4566 131.887 77.0519 132.341 76.1773C132.385 76.0911 132.231 76.0139 132.186 76.1002C131.761 76.9195 130.698 77.2871 129.686 76.9708C129.58 76.9376 129.55 77.0852 129.656 77.1183Z" fill="white"/>
<path d="M126.806 80.2285C126.529 79.8114 126.34 79.3425 126.25 78.8502C126.16 78.3578 126.172 77.8524 126.283 77.3646C126.306 77.2705 126.138 77.2314 126.115 77.3253C125.999 77.8333 125.989 78.3594 126.083 78.8716C126.178 79.3838 126.376 79.8715 126.666 80.305C126.722 80.3933 126.863 80.3164 126.806 80.2285Z" fill="white"/>
<path d="M130.426 72.7979C130.213 72.7739 130.009 72.7035 129.827 72.5917C129.644 72.4798 129.489 72.3292 129.372 72.1507C129.317 72.0619 129.176 72.139 129.231 72.2272C129.362 72.4239 129.533 72.5901 129.734 72.7141C129.935 72.8381 130.161 72.917 130.396 72.9454C130.442 72.9509 130.486 72.9346 130.495 72.8913C130.498 72.8698 130.492 72.8482 130.479 72.8309C130.466 72.8135 130.447 72.8017 130.426 72.7979Z" fill="white"/>
<path d="M135.617 47.3881L133.604 36.6984L129.651 31.5098L126.723 33.4197C127.137 35.6587 130.267 39.8384 130.267 39.8384L133.042 48.1057C133.031 48.1486 133.02 48.192 133.013 48.2366C132.969 48.4982 132.993 48.7666 133.084 49.016C133.174 49.2654 133.327 49.4873 133.529 49.6603C133.731 49.8333 133.973 49.9516 134.234 50.0036C134.495 50.0556 134.765 50.0397 135.017 49.9573C135.27 49.875 135.497 49.729 135.677 49.5335C135.856 49.3379 135.983 49.0995 136.043 48.8412C136.103 48.5829 136.095 48.3135 136.021 48.0589C135.946 47.8044 135.807 47.5733 135.617 47.3881Z" fill="#FFB8B8"/>
<path d="M126.803 34.5477L130.119 31.8632L130.125 31.849C130.746 30.4473 129.369 28.0437 128.104 26.2742C127.687 25.6911 127.063 25.2878 126.359 25.1459C125.655 25.0039 124.923 25.134 124.311 25.5096C123.862 25.7898 123.5 26.1898 123.267 26.6643C123.034 27.1388 122.938 27.669 122.991 28.1949L123.27 30.8728L126.803 34.5477Z" fill="#3F3D56"/>
<path d="M115.084 87.7481L112.878 87.748L111.828 79.2598L115.084 79.2599L115.084 87.7481Z" fill="#FFB8B8"/>
<path d="M115.645 87.0284L115.024 87.0284L112.6 86.0449L111.3 87.0282H111.3C110.566 87.0283 109.862 87.3193 109.342 87.8372C108.823 88.3551 108.531 89.0576 108.531 89.79V89.8798L115.645 89.8801L115.645 87.0284Z" fill="#2F2E41"/>
<path d="M124.873 87.7481L122.667 87.748L121.617 79.2598L124.873 79.2599L124.873 87.7481Z" fill="#FFB8B8"/>
<path d="M125.434 87.0284L124.813 87.0284L122.389 86.0449L121.089 87.0282H121.089C120.355 87.0283 119.651 87.3193 119.131 87.8372C118.612 88.3551 118.32 89.0576 118.32 89.79V89.8798L125.434 89.8801L125.434 87.0284Z" fill="#2F2E41"/>
<path d="M128.236 51.1865C128.236 51.1865 128.494 54.27 127.85 57.2251C127.206 60.1801 127.206 68.5026 127.206 68.5026L125.789 84.72L121.538 84.3346L120.379 57.2251L116.257 66.3472L116.643 67.632L116.129 67.9533C116.129 67.9533 116.515 70.4586 116.257 70.4586C115.999 70.4586 115.355 70.8441 115.355 70.8441L115.87 84.0776L111.491 83.9491L109.945 65.3194L111.62 54.6555L111.749 52.5998L112.328 52.6235L112.623 51.7646L113.166 50.2871L128.236 51.1865Z" fill="#2F2E41"/>
<path d="M128.46 51.8333L128.483 51.8011C129.709 50.089 127.865 45.9747 127.587 45.3783L128.759 44.9991L128.495 42.7626L128.37 41.7654L129.265 40.8724L129.268 40.8501L129.783 36.3533L130.532 33.3665C130.814 32.2374 130.79 31.0538 130.463 29.937C130.135 28.8202 129.515 27.8106 128.666 27.0118L126.935 25.3833L124.83 22.2773H121.437L120.273 24.4697C119.145 24.7298 118.144 25.3764 117.445 26.2968C116.745 27.2173 116.392 28.3534 116.446 29.507L116.71 35.2569L115.677 42.4159L115.677 43.7115L114.515 44.9995L114.768 46.2648L113.884 46.6428L113.494 48.4601C113.332 48.6727 112.266 50.0912 112.266 50.4789C112.266 50.5372 112.309 50.5934 112.401 50.6559C113.128 51.1468 117.145 52.1476 118.923 51.4379C120.817 50.6826 128.346 51.8157 128.421 51.8273L128.46 51.8333Z" fill="#3F3D56"/>
<path d="M98.9453 89.8279C98.9452 89.8733 98.9631 89.9169 98.9952 89.9491C99.0273 89.9813 99.0709 89.9995 99.1164 89.9996H139.657C139.703 89.9996 139.747 89.9815 139.779 89.9493C139.811 89.9171 139.83 89.8735 139.83 89.8279C139.83 89.7824 139.811 89.7387 139.779 89.7065C139.747 89.6743 139.703 89.6563 139.657 89.6563H99.1174C99.0719 89.6561 99.0282 89.674 98.9959 89.706C98.9637 89.738 98.9455 89.7815 98.9453 89.8269V89.8279Z" fill="#CCCCCC"/>
<path d="M122.694 21.2747C125.176 21.2747 127.188 19.2676 127.188 16.7917C127.188 14.3157 125.176 12.3086 122.694 12.3086C120.211 12.3086 118.199 14.3157 118.199 16.7917C118.199 19.2676 120.211 21.2747 122.694 21.2747Z" fill="#FFB8B8"/>
<path d="M122.263 21.3469C122.959 21.3398 123.653 21.2735 124.338 21.1485C125.016 20.9927 126.511 19.8392 126.919 19.1577C127.222 18.6513 127.403 17.8682 127.503 17.3003C127.636 16.5489 127.611 15.7777 127.427 15.0369C127.243 14.296 126.905 13.6019 126.435 12.9995C126.254 12.7471 126.008 12.5483 125.723 12.424C125.698 12.4149 125.672 12.407 125.646 12.4003C125.232 12.3031 124.857 12.0849 124.569 11.7738C124.513 11.7108 124.453 11.6519 124.389 11.5976C124.065 11.3395 123.686 11.1613 123.28 11.0777C122.625 10.9208 121.688 11.1174 120.495 11.6625C119.896 11.9365 119.231 11.86 118.718 11.7629C118.69 11.7581 118.66 11.7609 118.633 11.771C118.606 11.7812 118.581 11.7982 118.563 11.8206C118.351 12.0293 118.068 12.1503 117.771 12.1594C117.589 12.1721 117.404 12.4287 117.181 12.7628C117.131 12.8386 117.072 12.9272 117.029 12.9812L117.021 12.8797L116.921 12.9957C116.763 13.178 116.655 13.3971 116.605 13.6325C116.555 13.868 116.566 14.1121 116.636 14.3423C116.707 14.5724 116.834 14.781 117.007 14.9487C117.18 15.1163 117.393 15.2376 117.626 15.3012C117.81 15.3452 117.999 15.3702 118.189 15.3759C118.304 15.3832 118.422 15.3908 118.537 15.4076C118.904 15.4727 119.247 15.6316 119.534 15.8688C119.821 16.106 120.041 16.4133 120.174 16.7608C120.205 16.8411 120.254 16.9132 120.318 16.9715C120.381 17.0297 120.458 17.0727 120.54 17.0969C120.623 17.1212 120.711 17.1261 120.796 17.1113C120.881 17.0966 120.961 17.0625 121.031 17.0118C121.147 16.9167 121.285 16.8511 121.432 16.8204C121.579 16.7898 121.731 16.7951 121.875 16.8359C122.001 16.9014 122.1 17.008 122.157 17.1379C122.224 17.2824 122.334 17.4034 122.471 17.4856C122.939 17.7112 122.998 18.7624 122.855 19.6437C122.717 20.4932 122.417 21.1129 122.125 21.1507C121.9 21.1797 121.875 21.1964 121.86 21.2365L121.846 21.2725L121.872 21.3051C121.998 21.3469 122.131 21.3612 122.263 21.3469Z" fill="#2F2E41"/>
<path d="M72.8705 44.4554C77.8062 44.4554 81.8074 40.4644 81.8074 35.5412C81.8074 30.618 77.8062 26.627 72.8705 26.627C67.9348 26.627 63.9336 30.618 63.9336 35.5412C63.9336 40.4644 67.9348 44.4554 72.8705 44.4554Z" fill="#2563EB"/>
<path d="M121.227 34.2145L118.279 32.334C116.401 33.6291 113.864 38.1917 113.864 38.1917L107.444 44.1084C107.176 44.1542 106.926 44.2694 106.717 44.4426C106.508 44.6157 106.349 44.8406 106.255 45.0946C106.162 45.3486 106.137 45.6228 106.183 45.8896C106.229 46.1563 106.345 46.4062 106.519 46.6141C106.692 46.822 106.918 46.9806 107.173 47.0738C107.428 47.1671 107.703 47.1917 107.97 47.1453C108.237 47.0989 108.488 46.983 108.696 46.8094C108.904 46.6358 109.063 46.4105 109.156 46.1563L118.104 39.9383L121.227 34.2145Z" fill="#FFB8B8"/>
<path d="M120.948 34.9777L122.911 30.2775L122.201 27.68C122.06 27.1706 121.778 26.7107 121.389 26.3524C120.999 25.9941 120.517 25.7516 119.997 25.6523C119.29 25.5224 118.561 25.665 117.955 26.0511C117.35 26.4373 116.915 27.0382 116.737 27.7324C116.199 29.8382 115.786 32.5757 116.872 33.659L116.883 33.67L120.948 34.9777Z" fill="#3F3D56"/>
<path d="M6.61022 87.2808C2.76696 85.3131 -0.0214194 81.5107 0.561547 77.4473C3.97219 80.3853 8.68783 82.1148 13.609 82.2326C15.5257 82.2785 17.6779 82.1519 19.0364 83.2685C19.8816 83.9632 20.2388 85.0352 20.2546 86.0929C20.2704 87.1506 19.9798 88.2114 19.691 89.2583L19.7607 89.5108C15.1701 89.6568 10.4535 89.2484 6.61022 87.2808Z" fill="#F2F2F2"/>
<path d="M0.656248 77.4399C2.072 80.4248 4.61061 82.9556 7.81669 84.4913C8.5186 84.8454 9.27013 85.0917 10.0458 85.2218C10.8366 85.3297 11.6416 85.2505 12.396 84.9907C13.1107 84.7601 13.8178 84.4527 14.5705 84.3762C14.939 84.3367 15.3118 84.3718 15.6665 84.4793C16.0212 84.5868 16.3504 84.7646 16.6347 85.002C17.3101 85.5611 17.6996 86.3175 18.0503 87.0709C18.4398 87.9074 18.8289 88.7828 19.6249 89.3697C19.7213 89.4408 19.5795 89.5779 19.4832 89.5068C18.0983 88.4858 17.95 86.714 16.8625 85.496C16.355 84.9276 15.639 84.5045 14.7623 84.5412C13.9957 84.5733 13.2663 84.8897 12.5444 85.1286C11.8098 85.3914 11.0273 85.4942 10.2495 85.43C9.46631 85.3362 8.70344 85.1168 7.99036 84.7804C6.43894 84.0779 5.01228 83.1286 3.76617 81.9697C2.38903 80.7034 1.26715 79.1863 0.460907 77.5001C0.412003 77.397 0.607662 77.3375 0.656248 77.4399Z" fill="white"/>
<path d="M6.73879 84.0431C5.89627 85.0016 4.41343 85.3257 3.27604 84.8054C3.164 84.7541 3.26201 84.5911 3.3742 84.6424C3.91847 84.874 4.52181 84.9296 5.09939 84.8013C5.67696 84.6731 6.19972 84.3675 6.59414 83.9276C6.67701 83.8333 6.8212 83.9493 6.73879 84.0431Z" fill="white"/>
<path d="M12.048 85.1485C11.9907 84.5724 11.8116 84.015 11.5228 83.5128C11.2339 83.0107 10.8416 82.5753 10.3719 82.2353C10.2757 82.1639 10.4175 82.0268 10.5136 82.0981C11.0016 82.4529 11.4088 82.9068 11.7081 83.43C12.0075 83.9531 12.1924 84.5336 12.2505 85.1332C12.2608 85.2474 12.0583 85.2621 12.048 85.1485Z" fill="white"/>
<path d="M2.62639 80.5862C2.8186 80.4483 2.9723 80.2637 3.07292 80.0499C3.17354 79.8362 3.21773 79.6003 3.20132 79.3647C3.18933 79.2507 3.39188 79.2362 3.40379 79.3494C3.42074 79.6097 3.37166 79.87 3.26107 80.1064C3.15048 80.3428 2.98195 80.5475 2.77105 80.7017C2.75191 80.7194 2.72735 80.73 2.70136 80.732C2.67536 80.734 2.64947 80.7271 2.62788 80.7125C2.61856 80.7049 2.61102 80.6953 2.6058 80.6845C2.60058 80.6736 2.5978 80.6617 2.59766 80.6497C2.59752 80.6377 2.60002 80.6257 2.60498 80.6148C2.60994 80.6038 2.61725 80.5941 2.62639 80.5862Z" fill="white"/>
<path d="M13.7089 69.2324C13.7187 69.3032 13.7285 69.3741 13.7397 69.4455C13.8767 70.3952 14.1023 71.3301 14.4137 72.2379C14.4365 72.3085 14.4608 72.3796 14.4859 72.4493C15.2764 74.6485 16.5209 76.6577 18.1389 78.347C18.798 79.0371 19.5123 79.6725 20.2749 80.2468C21.3378 81.0487 22.5688 81.8381 23.2241 82.8939C23.2936 83.0028 23.3554 83.1165 23.409 83.2341L20.1101 89.3923C20.095 89.4035 20.0813 89.4153 20.0661 89.4266L19.9466 89.677C19.9044 89.6496 19.8613 89.6204 19.819 89.5931C19.7944 89.5773 19.7705 89.5602 19.7459 89.5445C19.7298 89.5335 19.7136 89.5225 19.6983 89.5135C19.6929 89.5099 19.6875 89.5062 19.6836 89.5031C19.6683 89.4941 19.6552 89.4843 19.6414 89.4758C19.3999 89.3133 19.1593 89.1488 18.9198 88.9825C18.9183 88.982 18.9183 88.982 18.9175 88.98C17.0966 87.7084 15.3913 86.2827 14.0048 84.6561C13.9631 84.6071 13.9198 84.5577 13.8796 84.5059C13.2635 83.7752 12.7159 82.9896 12.2437 82.1591C11.9894 81.7075 11.7615 81.2417 11.5611 80.7638C11.0472 79.5295 10.7613 78.2127 10.7172 76.8768C10.627 74.201 11.5089 71.4649 13.5512 69.3897C13.6035 69.3367 13.655 69.2849 13.7089 69.2324Z" fill="#F2F2F2"/>
<path d="M13.7854 69.2782C12.817 72.5538 13.0038 76.0466 14.3716 79.0568C14.6547 79.7247 15.0546 80.337 15.5525 80.8653C16.0872 81.3862 16.7533 81.7531 17.4801 81.9271C18.1756 82.1147 18.9177 82.2335 19.5367 82.5715C19.8405 82.7354 20.101 82.9687 20.2971 83.2523C20.4932 83.5359 20.6192 83.8618 20.6648 84.2033C20.7924 85.0362 20.5701 85.8827 20.3207 86.7059C20.0437 87.62 19.74 88.5666 19.9395 89.4875C19.9637 89.5991 19.7634 89.6389 19.7393 89.5275C19.3922 87.9254 20.4884 86.3511 20.4996 84.7419C20.5049 83.991 20.254 83.2511 19.5687 82.8132C18.9694 82.4303 18.2044 82.3072 17.4979 82.1228C16.7833 81.9608 16.1193 81.6267 15.564 81.1499C15.0364 80.6495 14.6092 80.0535 14.3053 79.3936C13.6069 77.939 13.1782 76.3702 13.0399 74.7632C12.8719 72.8984 13.061 71.0188 13.5973 69.2245C13.6308 69.1114 13.8187 69.1658 13.7854 69.2782Z" fill="white"/>
<path d="M13.8664 78.1022C12.5785 78.4603 11.2408 77.9408 10.7388 76.8936C10.6893 76.7904 10.8743 76.7053 10.9238 76.8086C11.3941 77.7896 12.6323 78.2621 13.8362 77.9273C13.9629 77.8921 13.9924 78.0671 13.8664 78.1022Z" fill="white"/>
<path d="M17.1108 81.8727C17.4529 81.3917 17.6934 80.8463 17.8178 80.2697C17.9422 79.6931 17.9478 79.0973 17.8343 78.5184C17.8105 78.4068 18.0108 78.3669 18.0345 78.4784C18.1513 79.0812 18.1441 79.7013 18.0133 80.3012C17.8825 80.9011 17.6309 81.4682 17.2737 81.9681C17.2036 82.07 17.0411 81.9741 17.1108 81.8727Z" fill="white"/>
<path d="M13.1245 72.9839C13.3758 72.9635 13.6195 72.8882 13.8382 72.7632C14.057 72.6382 14.2454 72.4666 14.3901 72.2607C14.4588 72.1581 14.6213 72.2541 14.5531 72.356C14.3922 72.583 14.1839 72.7723 13.9424 72.9109C13.7009 73.0495 13.4322 73.134 13.1547 73.1587C13.0996 73.1635 13.049 73.1426 13.0395 73.0913C13.0372 73.0659 13.0448 73.0407 13.0606 73.0207C13.0764 73.0007 13.0992 72.9876 13.1245 72.9839Z" fill="white"/>
<path d="M25.3359 38.3672L25.6255 41.0455L25.4551 44.5576L33.2542 43.6334L33.987 38.3672L33.0533 38.3763L25.3359 38.3672Z" fill="#FFB6B6"/>
<path d="M21.2891 86.9957H22.9942L23.8057 80.4355H21.2891V86.9957Z" fill="#FFB6B6"/>
<path d="M20.7341 85.8301L23.4582 85.668V86.8321L26.0482 88.6163C26.1761 88.7044 26.2724 88.831 26.3231 88.9776C26.3738 89.1242 26.3762 89.2831 26.3299 89.4311C26.2837 89.5791 26.1912 89.7085 26.066 89.8004C25.9407 89.8923 25.7893 89.9419 25.6339 89.9419H22.3907L21.8317 88.7903L21.6134 89.9419H20.3906L20.7341 85.8301Z" fill="#2F2E41"/>
<path d="M30.8672 86.9957H32.5723L33.3837 80.4355H30.8672V86.9957Z" fill="#FFB6B6"/>
<path d="M30.3122 85.8301L33.0364 85.668V86.8321L35.6263 88.6163C35.7542 88.7044 35.8506 88.831 35.9013 88.9776C35.9519 89.1242 35.9543 89.2831 35.9081 89.4311C35.8618 89.5791 35.7693 89.7085 35.6441 89.8004C35.5189 89.8923 35.3675 89.9419 35.212 89.9419H31.9688L31.4098 88.7903L31.1916 89.9419H29.9688L30.3122 85.8301Z" fill="#2F2E41"/>
<path d="M20.553 81.3379H20.5715L20.8995 70.6713C20.6872 70.263 20.5795 69.8087 20.5859 69.3488C20.5923 68.889 20.7126 68.4378 20.9361 68.0356L20.9831 67.9508L20.8614 67.3879C20.705 66.6648 20.7768 65.9111 21.0668 65.2303L21.3727 55.2803C20.2797 48.2151 25.4884 43.6074 25.4884 43.6074H33.291L34.9661 49.3482C36.0735 60.1099 35.8726 70.5969 34.1153 80.757L34.1632 80.7811C34.3357 80.8405 34.4097 81.0789 34.3285 81.3135C34.2473 81.5482 34.0416 81.6903 33.8691 81.6309L29.7485 81.4879C29.576 81.4285 29.502 81.1902 29.5832 80.9555C29.6644 80.7209 29.87 80.5788 30.0425 80.6382L30.3227 80.7795L29.7252 70.4866L29.7915 68.6066L29.6549 66.4737L29.0233 56.88L26.6325 68.6775L24.1904 81.4566C24.2578 81.5175 24.305 81.5973 24.326 81.6854C24.3469 81.7736 24.3406 81.8661 24.3078 81.9506C24.275 82.0351 24.2172 82.1077 24.1422 82.1588C24.0672 82.21 23.9783 82.2372 23.8875 82.2369H20.553C20.4937 82.237 20.4351 82.2254 20.3803 82.2029C20.3255 82.1804 20.2758 82.1473 20.2338 82.1055C20.1919 82.0638 20.1586 82.0142 20.1359 81.9596C20.1132 81.905 20.1016 81.8465 20.1016 81.7874C20.1016 81.7283 20.1132 81.6698 20.1359 81.6152C20.1586 81.5606 20.1919 81.511 20.2338 81.4693C20.2758 81.4275 20.3255 81.3944 20.3803 81.3719C20.4351 81.3494 20.4937 81.3378 20.553 81.3379Z" fill="#2F2E41"/>
<path d="M26.6968 24.6615C29.0082 24.6615 30.8819 22.7925 30.8819 20.487C30.8819 18.1815 29.0082 16.3125 26.6968 16.3125C24.3855 16.3125 22.5117 18.1815 22.5117 20.487C22.5117 22.7925 24.3855 24.6615 26.6968 24.6615Z" fill="#FFB6B6"/>
<path d="M8.35525 39.7729C8.94344 38.4109 9.75115 37.154 10.7464 36.0522C9.90362 37.3919 9.422 38.926 9.34812 40.5058C9.65323 40.6959 9.97247 40.8625 10.303 41.004C11.2965 41.4196 12.3557 41.657 13.432 41.7051C14.012 39.7775 15.0132 38.002 16.3635 36.5065C15.3904 38.0545 14.901 39.8562 14.9577 41.6824C16.1581 41.5789 17.3408 41.3261 18.4783 40.9298C20.1863 40.3438 21.8441 39.4685 23.0252 38.1072C24.3035 36.6337 24.9335 34.6894 25.137 32.751C25.3404 30.8143 25.1491 28.8593 24.9563 26.921C24.8652 25.9972 25.6365 24.9342 25.5454 24.0105H25.4846C25.0793 23.4562 24.6664 22.8884 24.4675 22.2312C24.2701 21.5755 24.3217 20.8017 24.7757 20.2853C25.03 20.0155 25.3509 19.817 25.7063 19.7098C25.7397 19.6674 25.7761 19.6266 25.8141 19.5857C26.5015 18.8574 27.3106 18.2538 28.2052 17.8018C27.56 18.2879 27.1288 18.8376 26.9284 19.4055C27.4871 19.2828 28.0458 19.1607 28.6045 19.039C28.7912 18.8414 28.9878 18.6534 29.1935 18.4757C29.4926 18.2167 29.5913 18.197 29.948 17.9532C29.66 18.206 29.4367 18.5237 29.2967 18.88C30.0148 18.6998 30.7329 18.4287 31.1064 17.8124C31.7258 16.7933 30.9895 15.4183 29.9617 14.8095C29.2141 14.3883 28.3526 14.212 27.4991 14.3058C26.6455 14.3995 25.8431 14.7585 25.2053 15.332C23.719 14.2402 21.6027 14.2583 19.9494 15.0745C18.858 15.6375 17.9178 16.4533 17.2076 17.4535C17.6196 17.4008 18.0342 17.372 18.4495 17.3672C17.8649 17.4525 17.3083 17.6724 16.8235 18.0093C16.6091 18.3414 16.4125 18.6846 16.2345 19.0375C16.1176 19.2692 16.0073 19.5039 15.9035 19.7416C15.2674 21.1863 14.853 22.7248 14.4233 24.2452C13.9223 26.0169 13.3849 27.8008 12.4467 29.3862C11.0082 31.7971 8.73887 33.603 6.06281 34.4667C5.83965 36.4702 6.82037 38.4297 8.35525 39.7729Z" fill="#2F2E41"/>
<path d="M30.9104 27.4542L30.0981 27.15L29.0739 25.498L25.4254 25.7954L24.5386 27.5667L22.4023 29.194L23.3366 34.1018L24.788 40.0632L34.5043 38.8518L34.494 34.3641C34.494 34.3641 36.2498 30.8186 33.4136 29.49L30.9104 27.4542Z" fill="#2563EB"/>
<path d="M45.8883 43.0211C45.6997 43.0966 45.4968 43.13 45.2938 43.1188C45.0909 43.1077 44.8929 43.0523 44.7137 42.9565C44.5346 42.8607 44.3787 42.727 44.257 42.5646C44.1353 42.4022 44.0507 42.2152 44.0093 42.0168L33.1758 35.4781L35.156 33.1992L45.1823 40.3431C45.5212 40.2958 45.8657 40.3742 46.1505 40.5633C46.4354 40.7524 46.6408 41.0392 46.7278 41.3693C46.8148 41.6994 46.7774 42.0499 46.6227 42.3543C46.468 42.6588 46.2067 42.896 45.8883 43.0211Z" fill="#FFB6B6"/>
<path d="M29.5628 32.3779C29.5628 32.3779 29.0451 32.8975 30.3441 33.7519C31.3842 34.4359 36.0231 37.816 37.6675 38.3506C37.6469 38.5915 37.7073 38.8325 37.8391 39.0354C37.9709 39.2383 38.1666 39.3918 38.3955 39.4715L39.8844 36.2079C39.5621 35.4618 39.0466 35.6346 38.7753 35.8037L36.9771 34.4548L32.5614 30.0566L29.9303 31.9957L29.5628 32.3779Z" fill="#2563EB"/>
<path d="M25.2339 15.4473C24.7309 16.1877 24.4059 17.0339 24.2843 17.92C24.1627 18.8062 24.2477 19.7083 24.5327 20.5564" fill="#FD6584"/>
<path d="M4 89.8279C3.99993 89.8505 4.00434 89.8728 4.01297 89.8937C4.02159 89.9146 4.03427 89.9335 4.05027 89.9495C4.06626 89.9654 4.08526 89.9781 4.10618 89.9867C4.12709 89.9953 4.1495 89.9997 4.17213 89.9996H44.7121C44.7578 89.9996 44.8016 89.9815 44.8338 89.9493C44.8661 89.9171 44.8843 89.8735 44.8843 89.8279C44.8843 89.7824 44.8661 89.7387 44.8338 89.7065C44.8016 89.6743 44.7578 89.6563 44.7121 89.6563H4.17213C4.1495 89.6562 4.12709 89.6606 4.10618 89.6692C4.08527 89.6778 4.06626 89.6904 4.05027 89.7064C4.03427 89.7223 4.02159 89.7413 4.01297 89.7621C4.00434 89.783 3.99993 89.8054 4 89.8279Z" fill="#CCCCCC"/>
<path d="M19.4459 50.8072C19.3449 50.8427 19.2621 50.9167 19.2157 51.013C19.1693 51.1093 19.1631 51.22 19.1984 51.3209L24.8465 67.5584C24.8821 67.6592 24.9563 67.7417 25.0528 67.788C25.1494 67.8343 25.2604 67.8405 25.3615 67.8052L58.2257 56.3039C58.3267 56.2684 58.4095 56.1943 58.4559 56.098C58.5023 56.0017 58.5085 55.891 58.4731 55.7901L52.8251 39.5526C52.7895 39.4518 52.7152 39.3693 52.6187 39.323C52.5221 39.2767 52.4111 39.2705 52.31 39.3058L19.4459 50.8072Z" fill="#E6E6E6"/>
<path d="M27.7656 65.4619C27.1188 65.4617 26.488 65.2617 25.9598 64.8894C25.4316 64.5172 25.0318 63.9909 24.8156 63.3829L21.7138 54.6293C21.4376 53.8497 21.4831 52.9925 21.8404 52.2464C22.1978 51.5002 22.8376 50.9262 23.6192 50.6506L40.2291 44.7949C43.3384 43.7027 46.7551 43.8852 49.7296 45.3025C52.7041 46.7198 54.9934 49.2562 56.0954 52.3551C56.3717 53.1347 56.3262 53.9919 55.9688 54.738C55.6115 55.4842 54.9716 56.0582 54.19 56.3338L28.8042 65.2835C28.4707 65.4014 28.1195 65.4617 27.7656 65.4619Z" fill="white"/>
<path d="M49.7917 48.2071L34.919 53.412C34.7095 53.4853 34.4498 53.2894 34.3389 52.9743C34.2281 52.6593 34.3082 52.3444 34.5177 52.2711L49.3904 47.0662C49.5999 46.9928 49.8596 47.1888 49.9704 47.5038C50.0813 47.8189 50.0013 48.1341 49.7917 48.2071Z" fill="#E6E6E6"/>
<path d="M50.944 51.4766L36.0714 56.6815C35.8618 56.7549 35.6021 56.5589 35.4913 56.2439C35.3805 55.9288 35.4605 55.614 35.6701 55.5406L50.5427 50.3357C50.7523 50.2624 51.012 50.4583 51.1228 50.7734C51.2336 51.0884 51.1536 51.4033 50.944 51.4766Z" fill="#E6E6E6"/>
<path d="M32.9088 55.1918C33.0685 55.6407 33.1461 56.1145 33.1379 56.5907C33.1347 56.8087 33.1131 57.0259 33.0733 57.2402C32.9465 57.9326 32.6387 58.5793 32.181 59.1149C31.7233 59.6506 31.1319 60.0561 30.4666 60.2907C29.8013 60.5252 29.0858 60.5804 28.3923 60.4506C27.6988 60.3208 27.0519 60.0107 26.5171 59.5516C26.4631 59.5055 26.4105 59.4579 26.3594 59.4089C25.9226 58.9914 25.5863 58.4806 25.3757 57.915C25.1651 57.3493 25.0856 56.7434 25.1432 56.1427C25.2009 55.5421 25.3942 54.9622 25.7086 54.4467C26.023 53.9312 26.4503 53.4934 26.9586 53.1661C27.4668 52.8389 28.0428 52.6307 28.6432 52.5571C29.2436 52.4836 29.853 52.5466 30.4255 52.7416C30.998 52.9365 31.5189 53.2582 31.9489 53.6825C32.379 54.1069 32.7072 54.6228 32.9088 55.1918Z" fill="#E4E4E4"/>
<path d="M29.2971 57.1333C29.7201 57.1333 30.063 56.7913 30.063 56.3694C30.063 55.9475 29.7201 55.6055 29.2971 55.6055C28.8741 55.6055 28.5312 55.9475 28.5312 56.3694C28.5312 56.7913 28.8741 57.1333 29.2971 57.1333Z" fill="#FD6584"/>
<path d="M26.3594 59.4084C26.556 58.9533 26.7884 58.2588 27.3267 58.5116C27.5927 58.6266 28.0689 58.9761 28.2623 58.5697L29.7766 55.4079C29.8053 55.3489 29.8455 55.2963 29.8949 55.253C29.9443 55.2098 30.0019 55.1768 30.0642 55.1561C30.1265 55.1354 30.1924 55.1273 30.2579 55.1323C30.3235 55.1373 30.3873 55.1553 30.4458 55.1853L33.1379 56.5903C33.1347 56.8082 33.1131 57.0255 33.0733 57.2397L26.5171 59.5511L26.3594 59.4084Z" fill="#3F3D56"/>
<path d="M27.138 50.0704C26.9485 49.997 26.7776 49.883 26.6371 49.7365C26.4966 49.5899 26.39 49.4145 26.3249 49.2225C26.2597 49.0304 26.2376 48.8265 26.26 48.625C26.2824 48.4235 26.3488 48.2294 26.4546 48.0563L23.0273 35.8974L26.0343 35.584L28.4577 47.6343C28.7375 47.8308 28.9353 48.1229 29.0136 48.4551C29.0919 48.7874 29.0453 49.1368 28.8826 49.437C28.72 49.7373 28.4525 49.9677 28.131 50.0844C27.8094 50.2011 27.4561 50.1962 27.138 50.0704Z" fill="#FFB6B6"/>
<path d="M22.5227 29.2237C22.5227 29.2237 21.7887 29.25 22.1515 30.7594C22.442 31.9677 23.5086 39.5478 24.3426 41.0591C24.1625 41.221 24.0415 41.438 23.9986 41.676C23.9557 41.914 23.9935 42.1594 24.1059 42.3737L27.4291 41.0065C27.7051 40.2421 27.4914 39.5482 27.1775 39.4867L26.7892 37.2761L26.217 29.8601L23.0529 29.1953L22.5227 29.2237Z" fill="#2563EB"/>
<path d="M52.458 61.2152L47.862 61.4051C47.7638 61.4093 47.6659 61.3914 47.5757 61.3525C47.4855 61.3137 47.4052 61.2549 47.341 61.1807C47.2776 61.1085 47.2314 61.0228 47.2059 60.9302C47.1805 60.8376 47.1763 60.7404 47.1939 60.646C47.5466 58.7277 47.4438 56.7536 46.8938 54.8821C46.8513 54.7389 46.8599 54.5855 46.9182 54.448C46.9764 54.3105 47.0806 54.1974 47.2131 54.128C49.0956 53.1524 50.8595 53.103 52.4555 53.9808C52.5392 54.0261 52.6119 54.0891 52.6687 54.1654C52.7254 54.2416 52.7648 54.3293 52.7841 54.4223C53.1995 56.4645 53.2991 58.5582 53.0794 60.6305C53.0642 60.7864 52.9929 60.9316 52.8786 61.0391C52.7644 61.1466 52.615 61.2091 52.458 61.2152Z" fill="#2563EB"/>
<path d="M52.2643 58.2145L48.7501 58.3597C48.7068 58.3616 48.6636 58.3548 48.6228 58.34C48.5821 58.3251 48.5448 58.3024 48.5128 58.2732C48.4809 58.2439 48.4551 58.2086 48.4369 58.1694C48.4186 58.1302 48.4083 58.0877 48.4065 58.0445C48.4047 58.0013 48.4115 57.9582 48.4264 57.9176C48.4414 57.877 48.4642 57.8398 48.4935 57.8079C48.5229 57.7761 48.5583 57.7504 48.5976 57.7323C48.637 57.7141 48.6795 57.7039 48.7228 57.7021L52.237 57.5569C52.2803 57.5551 52.3235 57.5619 52.3642 57.5767C52.4049 57.5916 52.4422 57.6143 52.4741 57.6436C52.506 57.6729 52.5317 57.7081 52.55 57.7473C52.5682 57.7865 52.5785 57.8289 52.5803 57.8721C52.5821 57.9153 52.5753 57.9584 52.5604 57.999C52.5455 58.0396 52.5227 58.0768 52.4934 58.1086C52.4641 58.1404 52.4287 58.1661 52.3894 58.1843C52.3501 58.2025 52.3076 58.2128 52.2643 58.2145Z" fill="white"/>
<path d="M52.2171 57.0602L48.703 57.2054C48.6155 57.209 48.5302 57.1779 48.4659 57.1187C48.4015 57.0596 48.3633 56.9774 48.3597 56.8902C48.356 56.803 48.3873 56.718 48.4466 56.6537C48.5058 56.5895 48.5882 56.5514 48.6757 56.5478L52.1898 56.4026C52.2773 56.399 52.3625 56.4302 52.4269 56.4893C52.4913 56.5484 52.5295 56.6306 52.5331 56.7178C52.5367 56.805 52.5055 56.8901 52.4462 56.9543C52.387 57.0185 52.3046 57.0566 52.2171 57.0602Z" fill="white"/>
<path d="M136.516 25.353L131.955 24.7563C131.857 24.7437 131.764 24.7093 131.682 24.6557C131.599 24.602 131.53 24.5305 131.48 24.4464C131.43 24.3644 131.399 24.2721 131.39 24.1765C131.38 24.0809 131.393 23.9845 131.427 23.8944C132.103 22.0645 132.34 20.102 132.119 18.1642C132.101 18.0159 132.136 17.8663 132.217 17.7407C132.298 17.6152 132.42 17.5215 132.563 17.4757C134.585 16.8355 136.331 17.0876 137.753 18.2247C137.828 18.2836 137.889 18.358 137.931 18.4428C137.974 18.5276 137.998 18.6207 138.001 18.7156C138.06 20.7987 137.8 22.8785 137.228 24.8828C137.186 25.0339 137.091 25.1647 136.96 25.2512C136.829 25.3376 136.671 25.3738 136.516 25.353Z" fill="#2563EB"/>
<path d="M136.837 22.3636L133.35 21.9073C133.307 21.9017 133.265 21.8877 133.228 21.8661C133.19 21.8445 133.157 21.8158 133.131 21.7815C133.104 21.7472 133.085 21.7081 133.074 21.6664C133.063 21.6246 133.06 21.5811 133.065 21.5382C133.071 21.4954 133.085 21.4541 133.107 21.4166C133.128 21.3792 133.157 21.3464 133.191 21.3201C133.226 21.2937 133.265 21.2744 133.307 21.2632C133.349 21.252 133.392 21.2491 133.435 21.2547L136.923 21.711C137.009 21.7223 137.088 21.7676 137.141 21.8368C137.195 21.906 137.218 21.9935 137.207 22.0801C137.195 22.1666 137.15 22.2451 137.081 22.2983C137.011 22.3514 136.924 22.3749 136.837 22.3636Z" fill="white"/>
<path d="M136.986 21.2191L133.499 20.7629C133.456 20.7574 133.414 20.7434 133.376 20.7218C133.339 20.7003 133.306 20.6715 133.279 20.6372C133.253 20.6029 133.234 20.5638 133.222 20.522C133.211 20.4802 133.208 20.4366 133.214 20.3937C133.219 20.3508 133.233 20.3094 133.255 20.272C133.277 20.2345 133.306 20.2017 133.34 20.1753C133.375 20.149 133.414 20.1297 133.456 20.1186C133.498 20.1074 133.541 20.1046 133.584 20.1103L137.072 20.5665C137.115 20.5721 137.156 20.586 137.194 20.6076C137.231 20.6292 137.264 20.6579 137.291 20.6922C137.317 20.7265 137.337 20.7656 137.348 20.8074C137.359 20.8492 137.362 20.8928 137.357 20.9357C137.351 20.9786 137.337 21.02 137.315 21.0575C137.293 21.0949 137.265 21.1278 137.23 21.1541C137.196 21.1804 137.156 21.1997 137.115 21.2109C137.073 21.222 137.029 21.2248 136.986 21.2191Z" fill="white"/>
<path d="M75.761 34.1705H74.2424V32.6557C74.2424 32.2922 74.0976 31.9436 73.8399 31.6866C73.5822 31.4296 73.2327 31.2852 72.8683 31.2852C72.5039 31.2852 72.1544 31.4296 71.8967 31.6866C71.6391 31.9436 71.4943 32.2922 71.4943 32.6557V34.1705H69.9756C69.6112 34.1705 69.2617 34.3149 69.004 34.572C68.7463 34.829 68.6016 35.1776 68.6016 35.5411C68.6016 35.9046 68.7463 36.2532 69.004 36.5102C69.2617 36.7672 69.6112 36.9116 69.9756 36.9116H71.4943V38.4265C71.4943 38.79 71.6391 39.1386 71.8967 39.3956C72.1544 39.6526 72.5039 39.797 72.8683 39.797C73.2327 39.797 73.5822 39.6526 73.8399 39.3956C74.0976 39.1386 74.2424 38.79 74.2424 38.4265V36.9116H75.761C76.1255 36.9116 76.475 36.7672 76.7326 36.5102C76.9903 36.2532 77.1351 35.9046 77.1351 35.5411C77.1351 35.1776 76.9903 34.829 76.7326 34.572C76.475 34.3149 76.1255 34.1705 75.761 34.1705Z" fill="white"/>
<path d="M124.944 6.13673C125.744 6.13673 126.392 5.49007 126.392 4.69239C126.392 3.8947 125.744 3.24805 124.944 3.24805C124.144 3.24805 123.496 3.8947 123.496 4.69239C123.496 5.49007 124.144 6.13673 124.944 6.13673Z" fill="#3F3D56"/>
<path d="M35.991 46.9649C36.7907 46.9649 37.439 46.3182 37.439 45.5205C37.439 44.7228 36.7907 44.0762 35.991 44.0762C35.1913 44.0762 34.543 44.7228 34.543 45.5205C34.543 46.3182 35.1913 46.9649 35.991 46.9649Z" fill="#3F3D56"/>
</g>
<defs>
<clipPath id="clip0_3032_3740">
<rect width="143.09" height="90" fill="white" transform="translate(0.453125)"/>
</clipPath>
</defs>
</svg>
